<?xml version="1.0" encoding="UTF-8" standalone="no"?>
<svg width="220px" height="220px" viewBox="0 0 220 220" version="1.1" xmlns="http://www.w3.org/2000/svg" xmlns:xlink="http://www.w3.org/1999/xlink" xmlns:sketch="http://www.bohemiancoding.com/sketch/ns">
    <title>Links</title>
    <description>Created with Sketch (http://www.bohemiancoding.com/sketch)</description>
    <defs>
        <filter x="-50%" y="-50%" width="200%" height="200%" filterUnits="objectBoundingBox" id="filter-1">
            <feOffset dx="0" dy="0" in="SourceAlpha" result="shadowOffsetOuter1"></feOffset>
            <feGaussianBlur stdDeviation="2" in="shadowOffsetOuter1" result="shadowBlurOuter1"></feGaussianBlur>
            <feColorMatrix values="0 0 0 0 0.0901960784   0 0 0 0 0.62745098   0 0 0 0 0.521568627  0 0 0 0.7 0" in="shadowBlurOuter1" type="matrix" result="shadowMatrixOuter1"></feColorMatrix>
            <feMerge>
                <feMergeNode in="shadowMatrixOuter1"></feMergeNode>
                <feMergeNode in="SourceGraphic"></feMergeNode>
            </feMerge>
        </filter>
    </defs>
    <g id="Page-1" stroke="none" stroke-width="1" fill="none" fill-rule="evenodd" sketch:type="MSPage">
        <g id="Links" sketch:type="MSArtboardGroup">
            <g id="-+-Oval-1" sketch:type="MSLayerGroup" transform="translate(10.000000, 10.000000)">
                <path d="M100,200 C155.228478,200 200,155.228478 200,100 C200,44.7715223 155.228478,0 100,0 C44.7715223,0 0,44.7715223 0,100 C0,155.228478 44.7715223,200 100,200 Z" id="Oval-1" fill="#E74C3C" filter="url(#filter-1)" sketch:type="MSShapeGroup"></path>
                <path d="M145.089395,121.428597 C145.089395,117.131717 143.471089,113.113855 140.401889,110.044655 L128.794733,98.4374981 C125.781336,95.4241017 121.651867,93.7499925 117.41079,93.7499925 C113.002303,93.7499925 108.872834,95.535709 105.803634,98.6607127 L100.892914,93.7499925 C104.017917,90.6807925 105.803634,86.4955196 105.803634,82.0870322 C105.803634,77.8459557 104.185328,73.7722902 101.171932,70.7588937 L89.6763823,59.2075407 C86.6629859,56.1383406 82.5893203,54.4642314 78.2924402,54.4642314 C74.0513637,54.4642314 69.9776981,56.0825369 66.9643017,59.0959334 L58.7611669,67.2432645 C55.7477705,70.2008573 54.0178577,74.3303265 54.0178577,78.571403 C54.0178577,82.8682831 55.6361632,86.8861451 58.7053633,89.9553452 L70.31252,101.562502 C73.3259164,104.575898 77.4553856,106.250007 81.6964621,106.250007 C86.1049495,106.250007 90.2344187,104.464291 93.3036188,101.339287 L98.2143389,106.250007 C95.0893352,109.319208 93.3036188,113.50448 93.3036188,117.912968 C93.3036188,122.154044 94.9219243,126.22771 97.9353207,129.241106 L109.43087,140.792459 C112.444267,143.861659 116.517932,145.535769 120.814812,145.535769 C125.055889,145.535769 129.129554,143.917463 132.142951,140.904067 L140.346086,132.756735 C143.359482,129.799143 145.089395,125.669673 145.089395,121.428597 Z M134.375096,121.428597 C134.375096,122.823688 133.81706,124.162975 132.812594,125.167441 L124.60946,133.314772 C123.604994,134.263434 122.209903,134.765666 120.814812,134.765666 C119.419721,134.765666 118.02463,134.263434 117.020165,133.258968 L105.524616,121.707615 C104.52015,120.70315 103.962114,119.308059 103.962114,117.912968 C103.962114,116.238859 104.631757,114.955375 105.803634,113.839302 C107.645154,115.680822 109.207656,117.857164 112.053641,117.857164 C115.011234,117.857164 117.41079,115.457608 117.41079,112.500015 C117.41079,109.654029 115.234449,108.091528 113.392928,106.250007 C114.509001,105.078131 115.792485,104.464291 117.41079,104.464291 C118.805881,104.464291 120.200972,105.022327 121.205438,106.026793 L132.812594,117.63395 C133.81706,118.638415 134.375096,119.977702 134.375096,121.428597 Z M95.1451388,82.0870322 C95.1451388,83.7611414 94.4754952,85.044625 93.3036188,86.1606978 C91.4620987,84.3191777 89.8995969,82.1428359 87.0536113,82.1428359 C84.0960185,82.1428359 81.6964621,84.5423923 81.6964621,87.4999851 C81.6964621,90.3459706 83.872804,91.9084725 85.714324,93.7499925 C84.5982513,94.9218689 83.3147676,95.4799053 81.6964621,95.4799053 C80.3013712,95.4799053 78.9062802,94.9776726 77.9018147,93.9732071 L66.294658,82.3660504 C65.2901925,81.3615849 64.7321562,80.0222976 64.7321562,78.571403 C64.7321562,77.1763121 65.2901925,75.8370248 66.294658,74.8325593 L74.4977928,66.6852281 C75.5022583,65.7365663 76.8973492,65.1785299 78.2924402,65.1785299 C79.6875311,65.1785299 81.0826221,65.7365663 82.0870876,66.7410318 L93.582637,78.2923848 C94.5871025,79.2968503 95.1451388,80.6919413 95.1451388,82.0870322 Z" id="Text" fill="#FFFFFF" sketch:type="MSShapeGroup"></path>
            </g>
        </g>
    </g>
</svg>