<?xml version="1.0" encoding="UTF-8" standalone="no"?>
<svg width="220px" height="220px" viewBox="0 0 220 220" version="1.1" xmlns="http://www.w3.org/2000/svg" xmlns:xlink="http://www.w3.org/1999/xlink" xmlns:sketch="http://www.bohemiancoding.com/sketch/ns">
    <title>Teams</title>
    <description>Created with Sketch (http://www.bohemiancoding.com/sketch)</description>
    <defs>
        <filter x="-50%" y="-50%" width="200%" height="200%" filterUnits="objectBoundingBox" id="filter-1">
            <feOffset dx="0" dy="0" in="SourceAlpha" result="shadowOffsetOuter1"></feOffset>
            <feGaussianBlur stdDeviation="2" in="shadowOffsetOuter1" result="shadowBlurOuter1"></feGaussianBlur>
            <feColorMatrix values="0 0 0 0 0.0901960784   0 0 0 0 0.62745098   0 0 0 0 0.521568627  0 0 0 0.7 0" in="shadowBlurOuter1" type="matrix" result="shadowMatrixOuter1"></feColorMatrix>
            <feMerge>
                <feMergeNode in="shadowMatrixOuter1"></feMergeNode>
                <feMergeNode in="SourceGraphic"></feMergeNode>
            </feMerge>
        </filter>
    </defs>
    <g id="Page-1" stroke="none" stroke-width="1" fill="none" fill-rule="evenodd" sketch:type="MSPage">
        <g id="Teams" sketch:type="MSArtboardGroup">
            <g id="-+-Oval-1" sketch:type="MSLayerGroup" transform="translate(10.000000, 10.000000)">
                <path d="M100,200 C155.228478,200 200,155.228478 200,100 C200,44.7715223 155.228478,0 100,0 C44.7715223,0 0,44.7715223 0,100 C0,155.228478 44.7715223,200 100,200 Z" id="Oval-1" fill="#F39C12" filter="url(#filter-1)" sketch:type="MSShapeGroup"></path>
                <path d="M79.5200649,100 C76.6182757,95.8147272 74.9999702,90.7923997 74.9999702,85.7142687 C74.9999702,84.4865886 75.1115775,83.2589086 75.2789884,82.0312286 C72.879432,82.8682831 70.4240719,83.3147123 67.8571045,83.3147123 C60.3236134,83.3147123 54.5200351,78.571403 53.3481587,78.571403 C46.2610967,78.571403 46.4285076,93.7499925 46.4285076,98.2700872 C46.4285076,104.464291 51.6740495,107.142866 57.2544133,107.142866 L64.7321008,107.142866 C68.4709446,102.678575 73.7164865,100.167411 79.5200649,100 Z M139.285761,135.546917 C139.285761,122.935295 136.328168,103.571433 119.977702,103.571433 C118.080379,103.571433 111.160728,111.328139 100,111.328139 C88.8392724,111.328139 81.9196213,103.571433 80.0222976,103.571433 C63.6718317,103.571433 60.7142389,122.935295 60.7142389,135.546917 C60.7142389,144.587107 66.6852281,150.00006 75.6138102,150.00006 L124.38619,150.00006 C133.314772,150.00006 139.285761,144.587107 139.285761,135.546917 Z M82.1428359,64.2856717 C82.1428359,56.4173588 75.7254175,49.9999404 67.8571045,49.9999404 C59.9887916,49.9999404 53.5713732,56.4173588 53.5713732,64.2856717 C53.5713732,72.1539847 59.9887916,78.571403 67.8571045,78.571403 C75.7254175,78.571403 82.1428359,72.1539847 82.1428359,64.2856717 Z M121.428597,85.7142687 C121.428597,73.8838974 111.830371,64.2856717 100,64.2856717 C88.1696288,64.2856717 78.571403,73.8838974 78.571403,85.7142687 C78.571403,97.5446399 88.1696288,107.142866 100,107.142866 C111.830371,107.142866 121.428597,97.5446399 121.428597,85.7142687 Z M153.571492,98.2700872 C153.571492,93.7499925 153.738903,78.571403 146.651841,78.571403 C145.479965,78.571403 139.676387,83.3147123 132.142895,83.3147123 C129.575928,83.3147123 127.120568,82.8682831 124.721012,82.0312286 C124.888423,83.2589086 125.00003,84.4865886 125.00003,85.7142687 C125.00003,90.7923997 123.381724,95.8147272 120.479935,100 C126.283513,100.167411 131.529055,102.678575 135.267899,107.142866 L142.745587,107.142866 C148.32595,107.142866 153.571492,104.464291 153.571492,98.2700872 Z M146.428627,64.2856717 C146.428627,56.4173588 140.011208,49.9999404 132.142895,49.9999404 C124.274583,49.9999404 117.857164,56.4173588 117.857164,64.2856717 C117.857164,72.1539847 124.274583,78.571403 132.142895,78.571403 C140.011208,78.571403 146.428627,72.1539847 146.428627,64.2856717 Z" id="Text" fill="#FFFFFF" sketch:type="MSShapeGroup"></path>
            </g>
        </g>
    </g>
</svg>