<?xml version="1.0" encoding="UTF-8" standalone="no"?>
<svg width="220px" height="220px" viewBox="0 0 220 220" version="1.1" xmlns="http://www.w3.org/2000/svg" xmlns:xlink="http://www.w3.org/1999/xlink" xmlns:sketch="http://www.bohemiancoding.com/sketch/ns">
    <title>Analytics</title>
    <description>Created with Sketch (http://www.bohemiancoding.com/sketch)</description>
    <defs>
        <filter x="-50%" y="-50%" width="200%" height="200%" filterUnits="objectBoundingBox" id="filter-1">
            <feOffset dx="0" dy="0" in="SourceAlpha" result="shadowOffsetOuter1"></feOffset>
            <feGaussianBlur stdDeviation="2" in="shadowOffsetOuter1" result="shadowBlurOuter1"></feGaussianBlur>
            <feColorMatrix values="0 0 0 0 0.0901960784   0 0 0 0 0.62745098   0 0 0 0 0.521568627  0 0 0 0.7 0" in="shadowBlurOuter1" type="matrix" result="shadowMatrixOuter1"></feColorMatrix>
            <feMerge>
                <feMergeNode in="shadowMatrixOuter1"></feMergeNode>
                <feMergeNode in="SourceGraphic"></feMergeNode>
            </feMerge>
        </filter>
    </defs>
    <g id="Page-1" stroke="none" stroke-width="1" fill="none" fill-rule="evenodd" sketch:type="MSPage">
        <g id="Analytics" sketch:type="MSArtboardGroup">
            <g id="-+-Oval-1" sketch:type="MSLayerGroup" transform="translate(10.000000, 10.000000)">
                <path d="M100,200 C155.228478,200 200,155.228478 200,100 C200,44.7715223 155.228478,0 100,0 C44.7715223,0 0,44.7715223 0,100 C0,155.228478 44.7715223,200 100,200 Z" id="Oval-1" fill="#1ABC9C" filter="url(#filter-1)" sketch:type="MSShapeGroup"></path>
                <path d="M100.64291,102.301377 L100.64291,57.9500857 C75.9963036,57.9500857 56,77.972191 56,102.6506 C56,127.329009 75.9963036,147.351114 100.64291,147.351114 C113.024343,147.351114 124.301328,142.287384 132.381229,134.080649 L100.64291,102.301377 Z M111.512994,102.6506 L143.193184,134.429872 C151.389344,126.339544 156.446548,115.048008 156.446548,102.6506 L111.512994,102.6506 Z M152.726306,95.2005141 C152.726306,70.5221053 132.730002,50.5 108.083395,50.5 L108.083395,95.2005141 L152.726306,95.2005141 Z" id="" fill="#FFFFFF" sketch:type="MSShapeGroup"></path>
            </g>
        </g>
    </g>
</svg>