<svg xmlns="http://www.w3.org/2000/svg" xmlns:xlink="http://www.w3.org/1999/xlink" viewBox="0 0 432.36 693.27"><defs><style>.cls-1{fill:url(#linear-gradient);}</style><linearGradient id="linear-gradient" x1="216.18" y1="693.27" x2="216.18" gradientUnits="userSpaceOnUse"><stop offset="0" stop-color="#5d59ff"/><stop offset="1" stop-color="#b895ff"/></linearGradient></defs><title>Asset 167</title><g id="Layer_2" data-name="Layer 2"><g id="Layer_1-2" data-name="Layer 1"><path class="cls-1" d="M376.84,0H55.52C24.75,0,0,22.63,0,50.54v592.2c0,27.93,24.75,50.53,55.52,50.53H376.84c30.59,0,55.52-22.6,55.52-50.53V50.54C432.36,22.63,407.58,0,376.84,0Zm-240,30.72H295.47c4,0,7.23,5.43,7.23,12.12s-3.2,12.25-7.23,12.25H136.89c-4.06,0-7.23-5.43-7.23-12.25S132.83,30.72,136.89,30.72ZM390.77,533H41.59V85.26H390.77Z"/></g></g></svg>