<svg xmlns="http://www.w3.org/2000/svg" xmlns:xlink="http://www.w3.org/1999/xlink" viewBox="0 0 1030.08 690.44"><defs><style>.cls-1{fill:url(#linear-gradient);}.cls-2{fill:url(#linear-gradient-2);}</style><linearGradient id="linear-gradient" x1="365.75" y1="689.9" x2="365.75" gradientUnits="userSpaceOnUse"><stop offset="0" stop-color="#ed4679"/><stop offset="1" stop-color="#f98563"/></linearGradient><linearGradient id="linear-gradient-2" x1="812.29" y1="690.44" x2="812.29" y2="132.18" xlink:href="#linear-gradient"/></defs><title>Asset 166</title><g id="Layer_2" data-name="Layer 2"><g id="Layer_1-2" data-name="Layer 1"><path class="cls-1" d="M2.14,689.9c-.36-1.37-.48-1.77-.57-2.19-6-27.42,5.5-44.54,30.43-55.82C92.19,604.66,151.8,576.13,212,549c11.34-5.11,18.48-11.73,21.71-23.48A280.49,280.49,0,0,1,243,497.17c1.82-4.62,4.49-10.86,8.34-12.35,10.44-4.06,12.93-11.67,13.51-21.3a81.38,81.38,0,0,1,1.51-12.88c4.58-20.5,2.68-39.23-13-55-2.9-2.92-4.82-7.36-5.92-11.44q-16.28-60.52-32-121.19c-2-7.61-.23-13.54,7-19.08,4.09-3.15,6-11.15,6.18-17,.84-33.31,1.09-66.65,1.05-100,0-23.47,9.14-42.72,25-59.34C282.91,38,319,23,357.68,13.4,379.47,8,401.7,4.32,423.83.47,430.33-.67,437.2.29,445,3c-3.31,2.86-6.64,5.7-9.94,8.58-8.22,7.17-8.72,14.27-.11,21.68C451.06,47.12,466.8,61.34,483,75c17.5,14.72,25.07,33.44,24.94,56-.2,33.76-.37,67.53.37,101.28.13,6,4.86,11.83,7.2,17.84,1.48,3.79,3.76,7.88,3.45,11.64-1.94,23.52-1.91,47.2-14.28,69-6.26,11-7.86,24.61-12.39,36.73-3.75,10-9.18,19.43-13,29.43-4,10.37-8.56,20.93-9.92,31.78-1.71,13.63-.54,27.65-.34,41.49,0,2.89.29,7.19,2.1,8.42,15.29,10.4,16.77,27.7,21.36,43,4.54,15.17,13.9,23,28.26,29,56.18,23.52,111.83,48.29,167.66,72.64,3.16,1.38,6.18,3.11,9.24,4.72,33.17,17.42,36.28,23.2,32.68,61.86Z"/><path class="cls-2" d="M1030.08,690.44H769.94c0-14.52.81-28.68-.35-42.68-.55-6.62-3.1-15-7.8-19-15.81-13.22-32-26.71-49.9-36.56-29.48-16.17-60.48-29.57-94-45.66,8.34-4.53,14.66-9.53,21.81-11.5,11.89-3.28,19.48-10,20.83-21.93,1.84-16.21,2.91-32.56,3.26-48.87.21-9.51-5.6-15.79-14.62-19.39-15.25-6.09-30.35-12.58-45.46-19-7.92-3.38-11.27-8.72-7.9-17.57,22-57.77,27.91-118.29,32-179.37,1.12-16.73,7.88-33.54,14.44-49.31,6.7-16.1,19.4-27.36,36.91-32.22a83,83,0,0,0,12-4.92c67-30.62,138.3,10.06,146.72,83.83,4.41,38.64,7.51,77.48,13.41,115.89,3.12,20.33,10.73,40,16.77,59.84,5.24,17.23,4.72,19.06-12.2,26.37-12.7,5.49-25.37,11.08-38.31,15.95-10.13,3.8-16.47,10.65-16,21.17.84,17.56,2,35.3,5.54,52.45,1.23,6,9.45,11,15.32,15.37,4,2.95,10.63,2.67,14.07,5.95,28.27,26.88,65.6,35.77,99.66,51.17,15.32,6.92,31.19,13.16,45.37,22C1009.55,629.93,1024.58,656.47,1030.08,690.44Z"/></g></g></svg>