<svg xmlns="http://www.w3.org/2000/svg" viewBox="0 0 961.2 961.2"><defs><style>.cls-1{fill:#fff;}.cls-2{fill:#f90;}</style></defs><title>amazon</title><g id="Layer_2" data-name="Layer 2"><g id="Layer_1-2" data-name="Layer 1"><circle class="cls-1" cx="480.6" cy="480.6" r="480.6"/><path class="cls-2" d="M130.9,656.72q3.19-5.1,10.21-.64,159.53,92.53,347.15,92.53,125.07,0,247-46.58,3.19-1.28,9.25-3.83t8.61-3.83q9.57-3.83,15,3.83t-3.51,14q-11.49,8.3-29.35,19.14-54.88,32.54-122.52,50.41T480.6,799.67q-99.55,0-188.25-34.78a518.37,518.37,0,0,1-158.9-98q-3.83-3.19-3.83-6.38A6.86,6.86,0,0,1,130.9,656.72Z"/><path d="M323,474.86q0-44,21.7-75.3T404,352.33q34.46-14.68,84.87-21.06,17.23-1.91,56.16-5.11V315.32q0-40.84-8.93-54.88Q522.72,241.3,494,241.3h-5.11q-21.06,1.91-36.37,13.4t-19.78,31.91q-2.55,12.76-12.76,14.68l-73.39-8.93q-10.85-2.55-10.85-11.49a18.74,18.74,0,0,1,.64-4.47q10.85-56.79,53.28-84.23t99.23-30.63h16q72.75,0,113.59,37.65a121.58,121.58,0,0,1,11.81,13.72A123.62,123.62,0,0,1,638.86,226q3.19,5.74,5.74,16.59t3.83,15q1.28,4.15,1.91,17.87t.64,16.27V446.14a91.52,91.52,0,0,0,4.79,30.31q4.79,13.72,9.25,19.78T679.7,515.7q3.83,5.74,3.83,10.21,0,5.1-5.11,8.93-53,45.95-57.43,49.77-7.66,5.74-18.51,1.28-8.93-7.66-15.63-14.68T577.28,561A142.51,142.51,0,0,1,568,548.56q-6.38-9.25-8.93-12.44-35.74,38.93-70.2,48.5Q467.2,591,435.29,591q-49.14,0-80.72-30.31T323,474.86Z"/><path class="cls-1" d="M432.74,462.09q0,24.89,12.44,39.88t33.5,15a32.61,32.61,0,0,0,5.42-.64,32.6,32.6,0,0,1,4.79-.64q26.8-7,41.48-34.46a99.88,99.88,0,0,0,10.53-26.48q3.51-14.36,3.83-23.29t.32-29.35v-16q-37,0-56.16,5.11Q432.74,407.21,432.74,462.09Z"/><path class="cls-2" d="M700.76,667.57a20,20,0,0,1,3.83-5.11q16-10.85,30.63-14.68a208,208,0,0,1,47.22-7,38.12,38.12,0,0,1,12.12.64Q823.28,644,829,651q2.55,3.83,2.55,11.49v4.47q0,22.33-12.12,52.65T785.63,768.4q-3.19,2.55-5.74,2.55a5.66,5.66,0,0,1-2.55-.64q-3.83-1.91-1.91-7Q799,707.78,799,686.08q0-7-2.55-10.21-6.38-7.66-35.74-7.66-10.85,0-25.53,1.28-16,1.91-29.35,3.83-3.83,0-5.11-1.28a2.08,2.08,0,0,1-.64-2.55A4.89,4.89,0,0,1,700.76,667.57Z"/></g></g></svg>