<svg xmlns="http://www.w3.org/2000/svg" viewBox="0 0 962 962"><defs><style>.cls-1{fill:#35393e;}.cls-2{fill:#fff;}</style></defs><title>Asset 143</title><g id="Layer_2" data-name="Layer 2"><g id="Layer_1-2" data-name="Layer 1"><circle class="cls-1" cx="481" cy="481" r="481"/><path class="cls-2" d="M722.44,648.12A325.31,325.31,0,0,1,690.27,706Q664.89,742.14,648.83,756,624,778.87,595.57,779.49c-13.63,0-30.06-3.88-49.2-11.74S509.54,756,493.41,756q-25.37,0-54.46,11.71t-47.06,12.37q-27.31,1.16-54.46-24.08-17.34-15.12-43.34-51.86-27.88-39.22-45.83-91Q229,557.13,229,504.64q0-60.15,26-103.67a152.64,152.64,0,0,1,54.5-55.12,146.6,146.6,0,0,1,73.68-20.79c14.46,0,33.42,4.47,57,13.26s38.58,13.29,45.2,13.29c4.95,0,21.71-5.23,50.12-15.66q40.3-14.5,68.12-12.1,75.51,6.09,113.31,59.66Q649.4,424.44,650.08,498q.61,57.27,41.48,95.17A136.3,136.3,0,0,0,733,620.38q-5,14.46-10.56,27.74ZM607,193.8q0,44.89-32.72,83.73c-26.3,30.74-58.1,48.51-92.6,45.71a93.15,93.15,0,0,1-.69-11.34c0-28.73,12.51-59.47,34.71-84.61q16.63-19.09,42.29-31.75,25.6-12.47,48.38-13.7a108.69,108.69,0,0,1,.63,12Z"/></g></g></svg>