<svg xmlns="http://www.w3.org/2000/svg" xmlns:xlink="http://www.w3.org/1999/xlink" viewBox="0 0 961.2 961.2"><defs><style>.cls-1{fill:url(#linear-gradient);}.cls-2,.cls-3{fill:#fff;}.cls-3{font-size:250px;font-family:SamsungSharpSans-Bold, Samsung Sharp Sans;font-weight:700;}.cls-4{letter-spacing:-0.13em;}</style><linearGradient id="linear-gradient" x1="480.6" x2="480.6" y2="961.2" gradientUnits="userSpaceOnUse"><stop offset="0" stop-color="#22b573"/><stop offset="0.18" stop-color="#1eac77"/><stop offset="0.49" stop-color="#159281"/><stop offset="0.88" stop-color="#056991"/><stop offset="0.99" stop-color="#005b97"/></linearGradient></defs><title>Asset 132</title><g id="Layer_2" data-name="Layer 2"><g id="Layer_1-2" data-name="Layer 1"><circle class="cls-1" cx="480.6" cy="480.6" r="480.6"/><path class="cls-2" d="M230.6,352.2c.33-2.44.61-4.89,1-7.33a51,51,0,0,1,41.35-42.24C294,299,311.3,306,325,322.17c1.43,1.69,2.68,3.54,4.11,5.45L312.89,338c-.57-.82-1.07-1.58-1.6-2.32-5.32-7.5-12.2-12.77-21.34-14.66a33.38,33.38,0,0,0-34.7,14.94c-6.82,10.92-8.2,22.54-2.12,34.2,5.3,10.16,14.18,15.9,25.33,18,7.93,1.52,15.47.34,22.23-4.33,6-4.14,9.47-10,11.63-17.05H280.19V348.09h53c0,.06.14.16.14.27.62,12-.79,23.58-6.62,34.26-7.2,13.19-18.55,20.77-33.23,23.15a56.13,56.13,0,0,1-42.31-9.68c-11.75-8.17-18.59-19.44-20.27-33.74-.09-.78-.2-1.56-.3-2.34Z"/><path class="cls-2" d="M542.62,238.62c1.41.18,2.83.3,4.22.55,5.93,1.06,9.44,4.91,10.12,11,.13,1.2.19,2.4.28,3.7H545.75c-.11-1.08-.18-2.19-.33-3.3-.36-2.65-1.56-3.8-3.94-3.85s-3.81,1.14-4.22,3.71a12.89,12.89,0,0,0-.14,2q0,10,0,20a9.92,9.92,0,0,0,.23,2.24,3,3,0,0,0,.74,1.42c1.48,1.42,3.3,1.3,5.08.79a3.33,3.33,0,0,0,2.45-3.42c.06-2.51,0-5,0-7.7h-4.69v-6.48h16c0,.35.07.71.07,1.08,0,4.15,0,8.31,0,12.46a19.84,19.84,0,0,1-.31,3.5,8.57,8.57,0,0,1-6.12,7,26.92,26.92,0,0,1-18.6-.46,9.78,9.78,0,0,1-6.41-9.63c-.06-6.92,0-13.84,0-20.77,0-7.61,4-12.23,11.51-13.44,1.2-.19,2.4-.33,3.6-.5Z"/><path class="cls-2" d="M265.1,238.62c1.41.19,2.83.3,4.22.6,6.43,1.38,9.7,6.08,9,12.88,0,.42-.11.83-.19,1.38h-11a28.73,28.73,0,0,0-.29-4.08,4,4,0,0,0-3.74-3.2,4.13,4.13,0,0,0-4,2.23,3.83,3.83,0,0,0,1.06,4.68,55.77,55.77,0,0,0,5.67,3.9c2.79,1.78,5.77,3.29,8.39,5.27,5.5,4.16,6.39,9.93,4,16.24-1.67,4.34-5.28,6.37-9.67,7.09a29.32,29.32,0,0,1-11.13-.22C251,284,247.3,279.32,247,272.32c0-.91,0-1.83,0-2.84h12a36.22,36.22,0,0,0,.36,5.27,4.46,4.46,0,0,0,5.35,3.59,4.34,4.34,0,0,0,3-6.13,7.88,7.88,0,0,0-2.42-3.26c-2-1.47-4.2-2.58-6.3-3.87a63,63,0,0,1-7.39-4.72,12.49,12.49,0,0,1-1.87-16.9c2.13-2.7,5.12-3.85,8.39-4.33,2-.29,4-.35,6-.52Z"/><path class="cls-2" d="M409.15,238.62c1.41.19,2.83.29,4.22.6,6.05,1.33,9.15,5.38,9,11.67,0,.79-.1,1.59-.16,2.57H411.16a28,28,0,0,0-.32-4.17,4.1,4.1,0,0,0-4.46-3.1,3.87,3.87,0,0,0-3.64,3.4A3.59,3.59,0,0,0,404,253c1.84,1.43,3.79,2.73,5.76,4,2.68,1.71,5.55,3.15,8.11,5,5.66,4.14,6.77,9.88,4.29,16.48-1.48,3.94-4.67,6.06-8.67,6.91a27.89,27.89,0,0,1-13-.22c-5.6-1.47-9-5.91-9.47-12.08-.08-1.17,0-2.34,0-3.61H403.1c0,1.41-.1,2.82,0,4.21a4.92,4.92,0,0,0,4,4.7c3.42.45,5.77-2.66,4.63-6.13A7.91,7.91,0,0,0,408,268c-2.63-1.56-5.37-2.92-8-4.48a30.57,30.57,0,0,1-4.53-3.15,12.6,12.6,0,0,1-3.16-14.69c1.87-4.14,5.46-5.86,9.67-6.52,2-.32,4.08-.35,6.12-.52Z"/><path class="cls-2" d="M555.19,405H536.25v-9.87a5.73,5.73,0,0,0-.75.53c-11,11.75-27.2,14.24-41.45,7.52-14.45-6.82-22.62-18.46-24.45-34.3-1.35-11.72,1-22.69,8.47-32.1,7.27-9.15,17-13.94,28.55-15a36.18,36.18,0,0,1,22.6,4.83c2.42,1.45,4.56,3.36,6.89,5.1v-8.55h19.07ZM537,364.62c-.11-1.07-.18-2.71-.45-4.32-1.67-10.2-8.68-19.72-20.85-21.06-8.61-.95-16.08,1.48-21.6,8.43-5.22,6.57-6.85,14.18-5.47,22.39,1.15,6.86,4.52,12.4,10.59,16.05,5.08,3.06,10.69,3.77,16.49,3.23a22.63,22.63,0,0,0,13.36-5.52C534.63,378.87,536.8,372.44,537,364.62Z"/><path class="cls-2" d="M427.54,323.07V405h-19v-9.89c-1.71,1.54-3.1,3-4.68,4.2-10.52,8.07-22.2,9.68-34.44,5.09-15.46-5.8-24.54-17.24-27.23-33.5-1.72-10.39-.27-20.45,5.15-29.63,6.54-11.08,16.51-17.24,29.09-19.21a36.62,36.62,0,0,1,25,4.46,85.35,85.35,0,0,1,7,5.17v-8.57ZM409.33,365c-.08-1.08-.08-2.31-.27-3.51a34.8,34.8,0,0,0-.94-4.55c-5.79-19.71-26.31-21.4-37.12-13.67-11.06,7.91-13.95,25.52-6,36.76a21.52,21.52,0,0,0,14.82,9c7,1.09,13.69.39,19.63-3.75C406.43,380.45,409.07,373.35,409.33,365Z"/><path class="cls-2" d="M665.7,434.81l3.47-8.38q5-12.07,10-24.14a2.43,2.43,0,0,0,0-2.12q-16.52-37.77-33-75.56c-.21-.49-.4-1-.65-1.61H654c3.61,0,7.22,0,10.83,0a1.72,1.72,0,0,1,1.9,1.29q10.7,26,21.46,52.06c.2.49.42,1,.73,1.68.25-.58.43-.93.57-1.3q10.26-26.22,20.49-52.44a1.69,1.69,0,0,1,1.9-1.28c6.17,0,12.33,0,18.71,0-.19.53-.32.95-.48,1.35Q707.8,379,685.5,433.61a1.62,1.62,0,0,1-1.81,1.23c-5.54-.06-11.08,0-16.62,0Z"/><path class="cls-2" d="M646,404.93c-.66,0-1.07.07-1.47.07-6.88,0-13.76,0-20.65,0A2.28,2.28,0,0,1,621.8,404q-9.1-12.21-18.26-24.38c-.28-.37-.56-.73-.93-1.21-.31.4-.58.75-.84,1.12q-8.72,12.25-17.42,24.52a2.09,2.09,0,0,1-1.95,1c-7,0-13.93,0-20.9,0-.4,0-.8,0-1.42-.07l.93-1.27q14.54-19.38,29.09-38.74a1.48,1.48,0,0,0,0-2.14q-14-19.12-28-38.29l-1-1.38c.51,0,.86-.09,1.2-.09,7,0,13.93,0,20.9,0a1.89,1.89,0,0,1,1.74.91q8.43,11.69,16.9,23.34c.32.44.65.87,1,1.4.39-.5.74-.94,1.08-1.4q8.51-11.63,17-23.27a2.12,2.12,0,0,1,2-1c6.63,0,13.26,0,19.89,0h1.45l-29.47,41Z"/><path class="cls-2" d="M459.76,405h-1.46c-5.5,0-11,0-16.49,0-1.24,0-1.62-.27-1.62-1.58q.07-36.83,0-73.65,0-13.41,0-26.82v-1.55h19.54Z"/><path class="cls-2" d="M342.67,247v37.66H331.18l1-44.64h18.14l5.54,34.64.22,0L361.58,240H379.3l1.39,44.65H369.48l-.72-38.42-.25,0-7.13,38.46H350.26L343.1,247Z"/><path class="cls-2" d="M487,248.61l.42,36H476.7V240c.36,0,.72-.07,1.09-.07,4.74,0,9.48,0,14.23,0,1,0,1.27.4,1.51,1.21q4.76,16.15,9.56,32.3a1.74,1.74,0,0,0,.53.91l-.4-34.3h11v44.71H509c-3,0-6,0-9.06,0a1.42,1.42,0,0,1-1.64-1.21q-5.37-17-10.81-34c-.1-.31-.21-.62-.32-.93Z"/><path class="cls-2" d="M432.73,240h12.19v1.51c0,10.41,0,20.81,0,31.21a9.93,9.93,0,0,0,.44,3,3.56,3.56,0,0,0,3.68,2.48,3.36,3.36,0,0,0,3.39-2.65,12.45,12.45,0,0,0,.34-3.11q0-15.42,0-30.84V240h12v1.47c0,10.15-.13,20.31,0,30.46.14,8.48-5.11,12.76-12.24,13.77a20.9,20.9,0,0,1-13.76-2.25,11.37,11.37,0,0,1-6.17-10.26c-.06-10.87,0-21.73,0-32.6A4.74,4.74,0,0,1,432.73,240Z"/><path class="cls-2" d="M304.47,245.6l-6.08,39.07h-12l7.91-44.76h8.91c3.36,0,6.72,0,10.07,0,.69,0,1,.14,1.18.91q3.86,21.79,7.76,43.58a1.25,1.25,0,0,1,0,.23H310.49l-5.7-39Z"/><text class="cls-3" transform="translate(199.97 738.42)"><tspan class="cls-4">T</tspan><tspan x="112.25" y="0">AB2</tspan></text></g></g></svg>