<svg xmlns="http://www.w3.org/2000/svg" viewBox="0 0 961.2 961.2"><defs><style>.cls-1{fill:#606ed8;}.cls-2{fill:#fff;}</style></defs><title>general-iphon</title><g id="Layer_2" data-name="Layer 2"><g id="Layer_1-2" data-name="Layer 1"><circle class="cls-1" cx="480.6" cy="480.6" r="480.6"/><path class="cls-2" d="M614.89,161.46H346.3A46.41,46.41,0,0,0,299.9,208V753.21a46.4,46.4,0,0,0,46.41,46.53H614.89a46.49,46.49,0,0,0,46.41-46.53V208A46.43,46.43,0,0,0,614.89,161.46ZM414.32,189.74H546.87c3.36,0,6,5,6,11.16s-2.68,11.28-6,11.28H414.32c-3.39,0-6-5-6-11.28S410.93,189.74,414.32,189.74ZM626.53,652.18H334.67V240H626.53Z"/></g></g></svg>