<svg xmlns="http://www.w3.org/2000/svg" viewBox="0 0 962 962"><defs><style>.cls-1{fill:#fff;}.cls-2{fill:#f5ab00;}.cls-3{fill:#427af8;}.cls-4{fill:#33a730;}.cls-5{fill:#e42928;}</style></defs><title>Asset 108</title><g id="Layer_2" data-name="Layer 2"><g id="Layer_1-2" data-name="Layer 1"><circle class="cls-1" cx="481" cy="481" r="481"/><path class="cls-2" d="M286.39,553.92l-24.33,90.84-88.94,1.88a350.15,350.15,0,0,1-2.57-326.39h0l79.18,14.52,34.69,78.71a208.6,208.6,0,0,0,2,140.45Z"/><path class="cls-3" d="M824.43,415.7a349.4,349.4,0,0,1-124.6,337.88l0,0-99.73-5.09L586,660.36A208.32,208.32,0,0,0,675.59,554H488.68V415.7H824.43Z"/><path class="cls-4" d="M699.81,753.56l0,0a348.06,348.06,0,0,1-218.83,77c-133.11,0-248.84-74.4-307.88-183.89l113.27-92.72A207.88,207.88,0,0,0,586,660.36Z"/><path class="cls-5" d="M704.11,211.93l-113.24,92.7A206.61,206.61,0,0,0,481,273.22c-91.11,0-168.53,58.65-196.57,140.26L170.56,320.25h0C228.72,208.09,345.91,131.46,481,131.46A348.07,348.07,0,0,1,704.11,211.93Z"/></g></g></svg>