<svg xmlns="http://www.w3.org/2000/svg" viewBox="0 0 961.2 961.2"><defs><style>.cls-1{fill:#fff;}.cls-2{font-size:125px;font-family:SamsungSharpSans-Bold, Samsung Sharp Sans;font-weight:700;}.cls-2,.cls-6{fill:#4a4d51;}.cls-3{letter-spacing:0.01em;}.cls-4{letter-spacing:0em;}.cls-5{letter-spacing:0em;}.cls-7{fill:#44baf2;}.cls-8{fill:#dc0041;}.cls-9{fill:#fbb600;}.cls-10{fill:#62b257;}</style></defs><title>Asset 118</title><g id="Layer_2" data-name="Layer 2"><g id="Layer_1-2" data-name="Layer 1"><circle class="cls-1" cx="480.6" cy="480.6" r="480.6"/><text class="cls-2" transform="translate(254.35 335.59)"><tspan class="cls-3">G</tspan><tspan class="cls-4" x="98.75" y="0">oo</tspan><tspan class="cls-5" x="261.5" y="0">g</tspan><tspan x="345" y="0">le</tspan></text><path class="cls-6" d="M309.54,428.82c24.81-5,53.24,2.18,69.42,22.53,12.6,14.44,15.53,34.23,15.67,52.73-39.83.07-79.62.14-119.45,0,0-3.41.07-10.31.1-13.75,34-1.43,68-.14,102-.65-2.59-13.92-8-28.26-19.93-36.83-23.92-17.75-61.64-11.2-78.22,13.55C259.24,495,268.83,542.16,302.34,556c27.23,11.19,59.76,2.29,80.75-17.51q4.25,5.79,8.4,11.57c-31.57,33.45-94.5,36.79-124.09-.82-13.31-16.92-17.27-39.69-14.37-60.68C256.78,459.47,281,434.72,309.54,428.82Z"/><path class="cls-6" d="M744.17,447c8.84-11.71,23.58-17.14,37.64-19.28,21.78-2.08,45.56-2.36,64.54,10.2,13.24,7.78,21.16,22.56,21.33,37.78-5.8.07-11.6.1-17.37.1-1.37-8.56-4-17.61-11.33-23-16.82-12.9-40-12.93-59.89-8.6-11.5,2.49-24.13,10.61-24.16,23.68-.48,10.44,9.35,16.89,18.05,20,25.87,9,55.43,4.91,79.62,19.28,22.73,12.83,19.9,51.13-3.38,61.91C822.49,582.87,789,582.6,761.51,571c-17.65-7.2-28.09-25.19-28.94-43.79,5.6,0,11.23,0,16.86,0,1.5,11.4,6.72,22.83,17.41,28.29,19.79,10.75,44.47,11.12,65.49,3.89,11.16-3.59,20.51-14.65,18.43-26.87-2.8-11.06-14.06-16.31-24.12-18.94-24.88-6.35-52.7-3.89-75.08-18.16C735.53,485.37,733.93,461.72,744.17,447Z"/><path class="cls-6" d="M113.92,455.13c19.62-18.63,47.37-31.57,74.77-24.78,20,2.63,35.49,20.68,36.62,40.58,1.67,34,.34,68.15.72,102.21H209c-.34-31.57.55-63.14-.44-94.67-.41-14.33-8.77-29.49-23.72-32.59-27.3-7.78-52,11.16-70.85,28.6Q114,464.81,113.92,455.13Z"/><path class="cls-6" d="M575.54,431.69c5.63,0,11.22,0,16.86.1.24,32.56-.48,65.15.31,97.71.17,15,10.85,29.48,26.14,31.61,26.52,5.52,50-12,68-29.36-.31,6.62.92,13.55-1,20-16.65,16.55-40.14,27.74-64,25.15-14.64-.71-29.76-6.83-38.05-19.38-7.58-11.26-8.77-25.32-8.33-38.53C575.61,489.91,575.33,460.8,575.54,431.69Z"/><path class="cls-6" d="M692.43,431.86c5.87-.1,11.74-.17,17.65-.24q.15,70.74,0,141.49c-5.87,0-11.74,0-17.58,0C692.36,526.05,692.56,479,692.43,431.86Z"/><path class="cls-6" d="M93,439.4c5.49,0,11,.07,16.48.14q0,70.49,0,141H93Z"/><path class="cls-7" d="M399.23,432.2c7.51-.2,15-.27,22.52-.38,17.85,17.92,34.44,37.06,52.42,54.85.13,4,.27,7.92.38,11.88l-11.91.1C441.38,476.6,420.53,454.18,399.23,432.2Z"/><path class="cls-8" d="M530,437.18c6.38-9,18.43-4.06,27.54-5.32-20.31,22.56-41.64,44.16-62,66.69-3,0-8.91.07-11.88.1,0-2.8-.07-8.39-.1-11.23C498.68,470.39,514.59,454,530,437.18Z"/><path class="cls-9" d="M462.57,508.82c4,0,7.92,0,11.88.06,0,2.66-.07,8-.1,10.62q-25.24,26.36-49.86,53.34-11.21.1-22.42,0Q432,540.59,462.57,508.82Z"/><path class="cls-10" d="M483.46,508.85c3,0,9.08,0,12.08-.07,20,21.19,40.07,42.42,59.62,64.06-8.74-1.13-20.51,4-26.79-4.2-14.85-16.58-30.14-32.7-44.95-49.31C483.43,516.74,483.46,511.48,483.46,508.85Z"/></g></g></svg>