<svg xmlns="http://www.w3.org/2000/svg" viewBox="0 0 961.2 961.2"><defs><style>.cls-1{fill:#fff;}.cls-2{fill:#75787a;}.cls-3{fill:#f5ab00;}.cls-4{fill:#427af8;}.cls-5{fill:#33a730;}.cls-6{fill:#e42928;}</style></defs><title>Asset 117</title><g id="Layer_2" data-name="Layer 2"><g id="Layer_1-2" data-name="Layer 1"><circle class="cls-1" cx="480.6" cy="480.6" r="480.6"/><g id="layer1"><g id="flowRoot2998"><path id="path3034" class="cls-2" d="M200.5,673.91H169.91V435.86H251q30.26,0,52.36,20.11t22.11,50.7q0,30.59-22.11,50.7T251,577.49H200.5Zm0-125.67h51.2q19.29,0,30.93-13t11.64-28.59q0-15.62-11.64-28.59t-30.93-13H200.5Z"/><path id="path3036" class="cls-2" d="M385.49,470.11a21.68,21.68,0,1,1,6.32-15.3A20.82,20.82,0,0,1,385.49,470.11Zm0,203.8H354.91V511H385.5Z"/><path id="path3038" class="cls-2" d="M561.28,673.91H525.37l-40.23-60.18-39.56,60.18H409.67l57.52-82.78L411,511h34.58l40.23,57.52L524,511h35.91L503.1,591.13Z"/><path id="path3040" class="cls-2" d="M656.59,679.23q-36.91,0-60-24.6t-23.1-62.17q0-35.57,22.44-61.18t57.35-25.6q36.24,0,58,23.61t21.77,63.18l-.33,5.65H604.05q1.33,24.6,16.46,38.9t35.41,14.3q32.91,0,44.55-27.93l27.26,11.3q-8,19-26.27,31.75T656.59,679.23Zm43.88-106.38q-1-14-12.8-26.6t-35.08-12.63a43.87,43.87,0,0,0-29.42,10.64q-12.46,10.64-17.12,28.6Z"/><path id="path3042" class="cls-2" d="M791.29,673.91H760.7V435.86h30.59Z"/></g></g><path class="cls-3" d="M422.87,284.69l-7.22,26.95-26.38.56a103.87,103.87,0,0,1-.76-96.83h0L412,219.68,422.29,243a61.88,61.88,0,0,0,.58,41.66Z"/><path class="cls-4" d="M582.48,243.69a103.65,103.65,0,0,1-37,100.23h0l-29.59-1.51-4.19-26.14a61.8,61.8,0,0,0,26.59-31.56H482.88v-41h99.6Z"/><path class="cls-5" d="M545.51,343.92h0A103.73,103.73,0,0,1,389.26,312.2l33.6-27.51a61.67,61.67,0,0,0,88.87,31.57Z"/><path class="cls-6" d="M546.78,183.24l-33.59,27.5A61.66,61.66,0,0,0,422.29,243l-33.78-27.65h0a103.71,103.71,0,0,1,158.28-32.13Z"/></g></g></svg>