<svg xmlns="http://www.w3.org/2000/svg" xmlns:xlink="http://www.w3.org/1999/xlink" viewBox="0 0 961.2 961.2"><defs><style>.cls-1{fill:url(#linear-gradient);}.cls-2{font-size:170px;font-family:SamsungSharpSans-Bold, Samsung Sharp Sans;font-weight:700;}.cls-2,.cls-4{fill:#fff;}.cls-3{letter-spacing:-0.02em;}</style><linearGradient id="linear-gradient" y1="480.6" x2="961.2" y2="480.6" gradientUnits="userSpaceOnUse"><stop offset="0" stop-color="#fc4364"/><stop offset="1" stop-color="#424898"/></linearGradient></defs><title>ipad</title><g id="Layer_2" data-name="Layer 2"><g id="Layer_1-2" data-name="Layer 1"><circle class="cls-1" cx="480.6" cy="480.6" r="480.6"/><text class="cls-2" transform="translate(300.66 790.34)">i<tspan class="cls-3" x="36.38" y="0">P</tspan><tspan x="131.75" y="0">ad</tspan></text><path class="cls-4" d="M596.08,166.4h-231a44.48,44.48,0,0,0-44.42,44.42V548.38a44.48,44.48,0,0,0,44.42,44.42h231a44.48,44.48,0,0,0,44.42-44.42V210.82A44.48,44.48,0,0,0,596.08,166.4ZM480.6,566.14a17.77,17.77,0,1,1,17.77-17.77A17.8,17.8,0,0,1,480.6,566.14ZM605,512.85a8.89,8.89,0,0,1-8.88,8.88h-231a8.89,8.89,0,0,1-8.88-8.88v-302a8.89,8.89,0,0,1,8.88-8.88h231a8.89,8.89,0,0,1,8.88,8.88Z"/></g></g></svg>