<svg xmlns="http://www.w3.org/2000/svg" xmlns:xlink="http://www.w3.org/1999/xlink" viewBox="0 0 961.2 961.2"><defs><style>.cls-1{fill:url(#linear-gradient);}.cls-2,.cls-3{fill:#fff;}.cls-3{font-size:170px;font-family:SamsungSharpSans-Bold, Samsung Sharp Sans;font-weight:700;}</style><linearGradient id="linear-gradient" y1="480.6" x2="961.2" y2="480.6" gradientUnits="userSpaceOnUse"><stop offset="0" stop-color="#ed4679"/><stop offset="1" stop-color="#f98563"/></linearGradient></defs><title>iphone</title><g id="Layer_2" data-name="Layer 2"><g id="Layer_1-2" data-name="Layer 1"><circle class="cls-1" cx="480.6" cy="480.6" r="480.6"/><path class="cls-2" d="M577.86,116.18H383.33a33.62,33.62,0,0,0-33.61,33.7V544.75a33.6,33.6,0,0,0,33.61,33.7H577.86a33.67,33.67,0,0,0,33.61-33.7V149.87a33.63,33.63,0,0,0-33.61-33.7ZM432.6,136.66h96c2.44,0,4.38,3.62,4.38,8.08s-1.94,8.17-4.38,8.17h-96c-2.46,0-4.38-3.62-4.38-8.17s1.92-8.08,4.38-8.08Zm48,408.52a21.47,21.47,0,1,1,21.47-21.47,21.5,21.5,0,0,1-21.47,21.47Zm105.7-73.6H374.91V173H586.29Zm0,0"/><text class="cls-3" transform="translate(197.98 779.34)">iPhone</text></g></g></svg>