<svg xmlns="http://www.w3.org/2000/svg" viewBox="0 0 961.2 961.2"><defs><style>.cls-1{fill:#1f9be8;}.cls-2{fill:#fff;}.cls-3{fill:#3a3535;}</style></defs><title>Macintosh</title><g id="Layer_2" data-name="Layer 2"><g id="Layer_1-2" data-name="Layer 1"><circle class="cls-1" cx="480.6" cy="480.6" r="480.6"/><path class="cls-2" d="M501.94,623.27c-70.68,2.75-146.86-10.55-211.1-42.68l13.31-21.11c62.41,29.37,134,39.47,197.79,36.71,0,2.29,2.74-43.14,6.87-67.92H412.91c8.72-100,39.46-189.07,85.36-264.79H211.45V700.37h301.5c-6.88-26.16-11-78-11-77.1Z"/><path class="cls-2" d="M530.85,594.35c52.32-5,98.21-18.82,126.2-36.71l16.52,21.11C635,601.24,585,615.92,530.85,621.43a382.47,382.47,0,0,0,12.39,78.94H749.75V263.48H529.93c-46.81,71.59-73.43,151.44-83.52,235.88h98.67c-8.27,32.12-13.31,63.79-14.23,95ZM341.78,329.56h28v64.71h-28Z"/><path class="cls-3" d="M574.9,329.56h28v64.71h-28Z"/><path class="cls-3" d="M341.9,329.56h28v64.71h-28Z"/><path class="cls-3" d="M530.85,594.35c52.32-5,98.21-18.82,126.2-36.71l16.52,21.11C635,601.24,585,615.92,530.85,621.43c2.29,48.64,9,74.4,32.81,120.75L539.8,755c-43.6-68.83-46.12-139.1-31-226.75H412.91C424.84,392,466.6,296.12,542.78,206.17l20.64,17.9c-74.33,86.28-104.62,167-117,275.29h98.67C536.81,531.48,531.77,563.15,530.85,594.35Z"/><path class="cls-3" d="M501.94,596.19v27.08c-70.68,2.75-146.86-10.55-211.1-42.68l13.31-21.11c62.41,29.37,134,39.46,197.79,36.71Z"/></g></g></svg>