<svg xmlns="http://www.w3.org/2000/svg" viewBox="0 0 961.2 961.2"><defs><style>.cls-1{fill:#fff;}.cls-2{stroke:#050505;stroke-linecap:round;stroke-linejoin:round;stroke-width:12px;}</style></defs><title>Asset 116</title><g id="Layer_2" data-name="Layer 2"><g id="Layer_1-2" data-name="Layer 1"><circle class="cls-1" cx="480.6" cy="480.6" r="480.6"/><g id="layer1"><g id="g87828"><path id="path87830" class="cls-2" d="M872.38,594.27l-16.66-38.2H811.37c.54-1.28,5.24-12.22,5.54-12.88H850L826,486.07s-46.37,107.47-46.69,108.2H761.66c.77-1.7,56.13-124.87,56.46-125.58h16.32c.35.83,54,123.48,55,125.58h-17"/></g><g id="g87832"><path id="path87834" class="cls-2" d="M541.74,468.7H606c.18,0,18.24-.45,29.84,10.25,6.91,6.37,10.42,15.24,10.42,26.35l0,1.59c0,3.86-1,23.57-21,31.28l-2.71,1.07s30.36,53.3,31.39,55H636c-.35-.59-28.84-52.28-28.84-52.28H572.37c0-1.62,0-12.64,0-13.1h30.15c.07,0,13.36.21,21.49-7.53,4-3.84,6.11-9.06,6.11-15.51,0-9.18-3.48-15.89-10.3-19.95-5.69-3.36-12.59-4.06-17.37-4.06H558.15V594.27H541.74V468.7"/></g><path id="path87836" class="cls-2" d="M422.6,535.78h58.45V523H422.6Z"/><g id="g87838"><path id="path87840" class="cls-2" d="M392,468.7h97.78v13H408.41V581.4h82.3v12.88H392V468.7"/></g><g id="g87842"><path id="path87844" class="cls-2" d="M263.06,594.27H246.69V468.69h62.42c27,.34,41.55,13,42.18,36.7-.64,23.51-15.27,36.06-42.29,36.3H277.3c0-1,0-11.87,0-12.9H307.4c7.77,0,14.55-2.08,19.63-6s7.72-9.57,7.89-17.42c-.17-8.22-2.75-14.11-7.89-18s-12.18-5.79-20.88-5.79H263.06v112.7"/></g><g id="g87846"><path id="path87848" class="cls-2" d="M181.56,594.27l-43.82-51-43.88,51H71.8l108-125.57h22l-53.3,62,54.62,63.59h-21.6"/></g><g id="g87850"><path id="path87852" class="cls-2" d="M95.22,468.7l32.53,37.79-10.82,12.6L73.58,468.7H95.22"/></g><path id="path87854" class="cls-2" d="M703.45,594.27h16.39V468.69H703.45Z"/></g><path id="path4258" d="M405.95,387.44c-18.81,0-36.28-5.64-47.93-16.1a39.32,39.32,0,0,1-13-29.69,39.91,39.91,0,0,1,13-29.59c10.83-9.87,29.94-16,47.93-16,19.91,0,35.85,5,48,16.07a39.48,39.48,0,0,1,12.86,29.56A41.17,41.17,0,0,1,454,371.34c-11.35,10.53-29.18,16.1-48,16.1V375.39c10,0,19.25-3.45,25.72-9.88s9.42-14.25,9.42-23.85c0-9.2-3.23-17.8-9.42-23.9-6.38-6.29-15.87-9.82-25.72-9.82s-19.37,3.5-25.76,9.82c-6.15,6.1-9.39,14.72-9.39,23.9a33.42,33.42,0,0,0,9.39,23.85c6.39,6.36,15.85,9.88,25.76,9.88v12.06Zm-137.5-91.39c-10.06,0-21.5,1.88-31.21,6.22-9,4-16.3,10.47-16.3,21.2a22,22,0,0,0,6,15.16c2.61,2.4,6.81,6.5,17.81,8.9,4.91,1.07,15.41,2.72,25.87,3.82s20.6,2.14,24.76,3.19c3.31.84,8.86,2,8.86,8.22s-5.85,8.1-6.87,8.51-8,3.62-20.65,3.62a87.58,87.58,0,0,1-24.59-4.26c-4.71-1.67-9.64-3.89-14.24-9.51a16.36,16.36,0,0,1-3-9H223.47v32h12.69v-4.32a1.81,1.81,0,0,1,2.75-1.55,100.14,100.14,0,0,0,18.57,6c6.67,1.4,11,2.4,19.27,2.4A82.63,82.63,0,0,0,302.57,383a45.18,45.18,0,0,0,15.34-7.58,21,21,0,0,0,8.22-16.84A23.56,23.56,0,0,0,319.48,342a29,29,0,0,0-8.22-5.59,60.41,60.41,0,0,0-10.1-3.53c-6.54-1.61-21.33-3.59-28.41-4.33-7.42-.77-20.28-1.84-25.42-3.43-1.56-.48-4.73-2-4.73-5.68,0-2.62,1.45-4.85,4.32-6.64,4.56-2.86,13.76-4.63,23.36-4.63a67.68,67.68,0,0,1,27.06,5.28,29.73,29.73,0,0,1,6.44,3.84,19.37,19.37,0,0,1,6.35,10.62h10.25V300H308.93v3.24c0,1-1.08,2.4-3.12,1.28-5.12-2.69-19.61-8.49-37.36-8.51m250.84,5.06,55.83,50.39-.57-33.93c-.06-4.45-.88-6.31-5.69-6.31h-10.5V301.13H606.1v10.15H595.86c-4.91,0-5.22,1.57-5.28,6.31l.87,64.82H575.1L510.79,325v40.73c.06,4.43.26,6.51,4.83,6.51h11.47V382.4H480.21V372.26h11c4.09,0,3.93-3.9,3.93-6.74V318c0-3.07-.43-6.68-6.86-6.68h-8.89V301.12Zm141.37,71.12a22,22,0,0,0,2.83-.18,3.5,3.5,0,0,0,2.2-2,11.32,11.32,0,0,0,.22-2.2v-16c0-.39,0-.55-.68-1.41S636,317.2,634.67,315.78c-1.62-1.77-4.47-4.5-8.79-4.5H616V301.12h56v10.14h-6.75c-1.56,0-2.6,1.48-1.26,3.13,0,0,18.84,22.53,19,22.77s.33.3.57.08S702.81,314.6,703,314.42a2,2,0,0,0-1.66-3.14h-6.92V301.12h45.88v10.15H730c-3.72,0-5.23.69-8,3.85-1.28,1.45-30.11,34.36-30.89,35.25a2.16,2.16,0,0,0-.38,1.5v16a11.29,11.29,0,0,0,.22,2.19,3.49,3.49,0,0,0,2.2,2,21.4,21.4,0,0,0,2.8.18h10.49v10.15h-55.7V372.23h9.94Z"/></g></g></svg>