<svg xmlns="http://www.w3.org/2000/svg" viewBox="0 0 962 962"><defs><style>.cls-1{fill:#6dc10a;}.cls-2{fill:#fff;stroke:#fff;stroke-miterlimit:10;stroke-width:14px;}</style></defs><title>Asset 146</title><g id="Layer_2" data-name="Layer 2"><g id="Layer_1-2" data-name="Layer 1"><circle class="cls-1" cx="481" cy="481" r="481"/><path id="path38" class="cls-2" d="M788.72,555.69c-37.07.24-72.18.54-82-.33-19.8-1.72-33-14.68-34.57-33.74a177.22,177.22,0,0,1-.06-32.74c1.8-18.56,17.32-36.24,34.63-37.09,6.2-.33,22.78-.3,52.82-.17l87.41.17V415.53s-69.63-.07-90.56-.17c-28.09-.13-42.23-.15-51.19.17-19.71.76-36.22,7.77-49,20.8C644,448.64,636.78,468.22,635.7,488c-.61,10.7-.81,24.67,0,33,2,21.32,8.92,38.05,20.49,49.77,12.36,12.59,31.19,20.56,49.06,20.8,14.68.19,141.73,0,141.73,0V555.36s-38.59.15-58.26.33"/><path id="path40" class="cls-2" d="M394.12,417.48V453.7h86.25V591h36.4V453.7H603V417.48H394.12Z"/><path id="path50" class="cls-2" d="M356.31,486c-.26-19.51-7.14-36.24-20.49-49.77-13.92-14.16-35.15-20-49-20.78-12.09-.68-59.71-.46-70.88,0-15.75.67-27.22,5.37-33,9.66-.06,0-.11,0-.11-.07V359.1H146.38V591.59h36.37s-.72-95.17.09-105.53c1.44-18.42,15.42-32.89,33.24-34.44,14.29-1.22,57.17-.89,70.62,0,18.47,1.28,32.11,15.71,33.18,35.16.35,7.16,0,104.79,0,104.79h36.44s.09-97.26,0-105.62"/></g></g></svg>