<svg xmlns="http://www.w3.org/2000/svg" xmlns:xlink="http://www.w3.org/1999/xlink" viewBox="0 0 962 962"><defs><style>.cls-1{fill:#fcfcfc;}.cls-2{fill:#1a1718;}.cls-3{fill:url(#radial-gradient);}.cls-4{fill:url(#radial-gradient-2);}.cls-5{fill:url(#radial-gradient-3);}.cls-6{fill:url(#radial-gradient-4);}.cls-7{fill:url(#radial-gradient-5);}.cls-8{fill:url(#radial-gradient-6);}.cls-9{fill:url(#radial-gradient-7);}.cls-10{fill:url(#radial-gradient-8);}</style><radialGradient id="radial-gradient" cx="-521.36" cy="-5693.53" r="2.46" gradientTransform="matrix(214.88, 0, 0, -214.88, 112603.36, -1223263.45)" gradientUnits="userSpaceOnUse"><stop offset="0" stop-color="#f19881"/><stop offset="0.42" stop-color="#df001b"/><stop offset="0.43" stop-color="#df001b"/><stop offset="0.87" stop-color="#df001b"/><stop offset="1" stop-color="#800011"/></radialGradient><radialGradient id="radial-gradient-2" cx="-521.36" cy="-5693.53" r="2.46" gradientTransform="matrix(214.9, 0, 0, -214.9, 112615.21, -1223390.7)" xlink:href="#radial-gradient"/><radialGradient id="radial-gradient-3" cx="-521.36" cy="-5693.54" r="2.46" gradientTransform="matrix(214.84, 0, 0, -214.84, 112585.09, -1223066.56)" xlink:href="#radial-gradient"/><radialGradient id="radial-gradient-4" cx="-521.36" cy="-5693.54" r="2.46" gradientTransform="matrix(214.84, 0, 0, -214.84, 112585.97, -1223075.64)" xlink:href="#radial-gradient"/><radialGradient id="radial-gradient-5" cx="-521.36" cy="-5693.5" r="2.46" gradientTransform="matrix(215.09, 0, 0, -215.09, 112715.28, -1224468.34)" xlink:href="#radial-gradient"/><radialGradient id="radial-gradient-6" cx="-521.36" cy="-5693.51" r="2.46" gradientTransform="matrix(215.05, 0, 0, -215.05, 112694.64, -1224245.99)" xlink:href="#radial-gradient"/><radialGradient id="radial-gradient-7" cx="-521.36" cy="-5693.5" r="2.46" gradientTransform="matrix(215.08, 0, 0, -215.08, 112709.84, -1224409.59)" xlink:href="#radial-gradient"/><radialGradient id="radial-gradient-8" cx="-521.36" cy="-5693.5" r="2.46" gradientTransform="matrix(215.09, 0, 0, -215.09, 112717.03, -1224487.12)" xlink:href="#radial-gradient"/></defs><title>Asset 145</title><g id="Layer_2" data-name="Layer 2"><g id="Layer_1-2" data-name="Layer 1"><circle class="cls-1" cx="481" cy="481" r="481"/><path id="path3350" class="cls-2" d="M219.27,716.12h46.11V679.29h20.68v90.88H265.38v-38H219.27v38H198.54V679.29h20.73Z"/><g id="g3354"><g id="g3360"><path id="path3362" class="cls-2" d="M323.61,733.75c0,16.06,5.07,22.79,22.21,22.79s22-6.73,22-22.79V679.29h20.73v54.94c0,11.6-1.41,19.59-5.82,24.46-8,8.83-19.87,12.47-37,12.47s-29-3.64-37.17-12.47c-4.49-4.93-5.61-12.93-5.61-24.46V679.29h20.57Z"/></g><g id="g3364"><path id="path3366" class="cls-2" d="M430,732.38h29.35l-14.93-35Zm26.19-53.09,41.94,90.88h-23l-9.07-21.62H423.27l-8.7,21.62h-22l41.63-90.88Z"/></g><g id="g3368"><path id="path3370" class="cls-2" d="M507.54,679.29l22.75,69.87,19.19-69.87h24.44l22,69.87,21.25-69.87h21.28L608,770.18H582.67l-21-67.8-18.34,67.8H518.08L485.3,679.29Z"/></g><g id="g3372"><path id="path3374" class="cls-2" d="M666.32,716.24h57.22V732H666.18c.13,16.4,7.09,22.36,23.46,22.36h33.9v15.79H688.66c-11.88,0-21.12-.86-30.71-8-10.19-7.43-15.07-19.39-15.07-35.81,0-32.13,14.63-47.1,46.37-47.1h34.28v15.88h-33.9c-15,0-22.51,6.82-23.33,21.07"/></g><path id="path3376" class="cls-2" d="M741.85,679.29h21.61v90.88H741.85Z"/></g><g id="g3380"><g id="g3386"><g id="g3388"><path id="path3402" class="cls-3" d="M167.69,292.51c2.41,46,37.07,73.33,37.07,73.33h0c55.83,54.4,191,123.06,222.37,138.71h0c.41,0,2.05.62,3-.6h0a2.33,2.33,0,0,0,.64-2.67h0c-86-187.91-203.62-330.39-203.62-330.39h0s-64,60.78-59.45,121.63"/></g></g></g><g id="g3406"><g id="g3412"><g id="g3414"><path id="path3428" class="cls-4" d="M181.39,556.22c24.38,43.48,65.5,77.31,108.31,66.91h0c29.59-7.39,96.43-54.06,118.48-69.86h0l-.07,0c1.72-1.5,1.22-2.77,1.22-2.77h0a3.2,3.2,0,0,0-3-2h0v-.09l-225,7.84Z"/></g></g></g><g id="g3432"><g id="g3438"><g id="g3440"><path id="path3454" class="cls-5" d="M127.56,455.22c24.4,51.59,71,67.24,71,67.24h0a136.54,136.54,0,0,0,43,9.41h0c3.36.6,133.81.07,168.74-.07h0a2.93,2.93,0,0,0,2.33-1.52h0c1.09-1.76-.81-3.41-.81-3.41h0v0c-98.81-66.62-290.35-169-290.35-169h0c-17.42,53.89,6.07,97.33,6.07,97.33"/></g></g></g><g id="g3458"><g id="g3464"><g id="g3466"><path id="path3480" class="cls-6" d="M391.36,80.63C331.78,96,317.7,150.08,317.7,150.08h0c-10.86,34,.31,71.34.31,71.34h0C337.83,309.67,435.71,454.6,456.77,485h0c1.52,1.5,2.64.93,2.64.93h0a2.81,2.81,0,0,0,2.15-2.77h0c32.31-323.67-34-409.47-34-409.47h0c-9.77.91-36.19,6.89-36.19,6.89"/></g></g></g><g id="g3484"><g id="g3490"><g id="g3492"><path id="path3506" class="cls-7" d="M500.27,483.41h.1a2.68,2.68,0,0,0,1.72,2.52h0a2.6,2.6,0,0,0,3.22-1.26h0v.05C527,453.54,624.17,309.27,644.07,221.42h0s10.62-42.56.26-71.34h0S629.68,95.19,570,80.71h0s-17.2-4.43-35.41-7h0s-66.67,85.85-34.33,409.67"/></g></g></g><g id="g3510"><g id="g3516"><g id="g3518"><path id="path3532" class="cls-8" d="M555.34,548.58s-2,.28-2.53,1.76h0a2.92,2.92,0,0,0,.9,3h0v0c21.45,15.48,86.72,61.11,118.22,70h0s58.16,19.82,108.64-66.93h0l-225.21-7.88v.07Z"/></g></g></g><g id="g3536"><g id="g3542"><g id="g3544"><path id="path3558" class="cls-9" d="M550.34,526.75v0a3,3,0,0,0-1.1,3.27h0s.95,1.67,2.27,1.67h0v.09c35.38,0,169.42.14,172.84-.45h0s17.3-.67,38.7-8.89h0s47.67-15.2,72.38-69.33h0s22.09-44.17,5-95.73h0S649.19,460,550.34,526.75"/></g></g></g><g id="g3562"><g id="g3568"><g id="g3570"><path id="path3584" class="cls-10" d="M531.63,500.33h.1s-1.1,2.19.57,3.6h0a2.87,2.87,0,0,0,3,.26h0c32.26-16,166.33-84.22,221.87-138.36h0s35.17-28.24,37.05-73.58h0c4-63-59.3-121.37-59.3-121.37h0S617.55,312.94,531.63,500.33"/></g></g></g></g></g></svg>