<svg xmlns="http://www.w3.org/2000/svg" viewBox="0 0 962 962"><defs><style>.cls-1{fill:#b4004b;}.cls-2,.cls-3{fill:#fff;}.cls-2{stroke:#fff;stroke-miterlimit:10;stroke-width:9px;}</style></defs><title>Asset 142</title><g id="Layer_2" data-name="Layer 2"><g id="Layer_1-2" data-name="Layer 1"><circle class="cls-1" cx="481" cy="481" r="481"/><path id="path2498" class="cls-2" d="M273.08,413.3V591.08h56.41v-16H289.39V413.3H273.08"/><path id="path2500" class="cls-2" d="M216.52,461.9a24.33,24.33,0,1,0-24.32-24.28,24.39,24.39,0,0,0,24.32,24.28"/><path id="path2502" class="cls-2" d="M289.39,332.87c-2.22-.06-6.06-.06-8.15-.06-93.51,0-169.58,75.91-169.58,169.47a169.5,169.5,0,1,0,339,0v-7.75h-121v15.74h105c0,.32-.07,2-.07,2.4-5.17,80-72.13,143.23-153.3,143.23a153.68,153.68,0,0,1,0-307.36c1.82,0,6.14.1,8.15.14v-15.8"/><path id="path2504" class="cls-3" d="M512.18,401h59.75V553h88.94v50.61H512.18V401"/><path id="path2506" class="cls-3" d="M813.57,583.42c-10.54,16.12-30,25.32-54.58,25.32-52.74,0-87.06-42-87.06-106.67,0-65.75,38.88-106.2,102.45-106.2,25.69,0,47.44,6.76,64.09,19.66,17,13.51,23.52,26.71,26.23,53.39H802c-1.62-15.68-13.24-25.64-28.92-25.64-24,0-38.14,22.4-38.14,59.59,0,37.69,14.65,60.3,39.21,60.3,19.76,0,30.82-10.73,35.41-35H770.88V485.57H864.7v118H813.57V583.42"/></g></g></svg>