<svg xmlns="http://www.w3.org/2000/svg" viewBox="0 0 962 962"><defs><style>.cls-1{fill:#0057b8;}.cls-2{fill:#fff;stroke:#fff;stroke-miterlimit:10;stroke-width:3px;fill-rule:evenodd;}</style></defs><title>samsung</title><g id="Layer_2" data-name="Layer 2"><g id="Layer_1-2" data-name="Layer 1"><circle class="cls-1" cx="481" cy="481" r="481"/><path class="cls-2" d="M518.3,477s-7.51-4.64-12.15-6.44c0,0-14.36-6.66-17.21-9.82,0,0-5.59-5.27-2.32-11.4,0,0,1.37-4,7.29-4,0,0,7.7.42,7.7,6.75V461h27.6l0-13.15s2.12-21.54-32.51-22.48c0,0-27.24-1.79-35,12.88,0,0-3.06,3.27-3.06,14.67v8.24s-.31,9.5,4.54,15.62c0,0,2.75,4,9.5,8.44,0,0,13.72,7.39,22,11.62,0,0,8.32,4.75,7.22,12.3,0,0-.67,7.75-8.7,7.44,0,0-7.34-.34-7.34-7.93V499.7H456.3v13s-.83,24.79,37,24.79c0,0,36.1.73,37.79-25.45V501.46s1.27-16-12.76-24.49Z"/><polygon class="cls-2" points="377 428.44 367.76 486.35 365.6 486.35 356.77 428.96 310.66 428.96 308.36 533.83 335.65 533.83 335.98 454.81 338.13 454.81 352.59 533.82 381.31 533.82 395.6 454.84 397.5 454.84 398.16 533.83 425.6 533.83 422.65 428.44 377 428.44 377 428.44"/><polygon class="cls-2" points="214.51 428.88 196.35 533.72 225.73 533.72 236.49 452.43 238.91 452.43 249.66 533.72 279.04 533.72 260.88 428.88 214.51 428.88 214.51 428.88"/><path class="cls-2" d="M831.11,475.53V491h7.54v16.6c0,8.11-6.93,8.26-6.93,8.26-8.44,0-8.12-7.71-8.12-7.71V450.73c0-5.92,7.48-6.23,7.48-6.23,7.19,0,7.24,7.06,7.24,7.06v8.73H866c.9-17-2.49-21.17-2.49-21.17-6.86-15.41-32.82-14.57-32.82-14.57-39.9,0-35.48,30.61-35.48,30.61v55.52c.86,28.71,40.17,25.8,40.83,25.76,17.5-1.94,22.77-7.48,22.77-7.48a17,17,0,0,0,6.12-8.61c1.39-2.91,1.73-12.19,1.73-12.19V475.53Z"/><polygon class="cls-2" points="739.4 492.6 738.2 492.6 710.12 428.46 676.53 428.46 676.53 533.85 703.87 533.85 702.23 469.73 703.45 469.73 732.54 533.85 765.12 533.85 765.12 428.46 737.43 428.46 739.4 492.6 739.4 492.6"/><path class="cls-2" d="M609.79,507.59s.4,8.65-7.61,8.65c0,0-8.44.45-8.44-8.43l-.08-79.28h-30v78.65s-3.08,29.76,38.93,29.76c0,0,36.51.43,36.51-28.4v-80H609.79v79.06Z"/><path class="cls-2" d="M157.34,477s-7.49-4.64-12.14-6.43c0,0-14.36-6.65-17.2-9.82,0,0-5.6-5.28-2.32-11.39,0,0,1.37-4,7.28-4,0,0,7.7.42,7.7,6.75V461h27.61l-.05-13.16s2.11-21.54-32.51-22.48a61.75,61.75,0,0,0-6.43,0s-21,1.13-28.47,12.63c0,.08-.1.15-.15.23s-3.06,3.27-3.06,14.67v8.24s-.32,9.5,4.54,15.62c0,0,2.74,4,9.5,8.44,0,0,13.72,7.39,22,11.61,0,0,8.32,4.75,7.22,12.31,0,0-.68,7.75-8.7,7.44,0,0-7.34-.34-7.34-7.93v-8.93H95.35v13s-.82,24.79,37,24.79c0,0,36.1.73,37.8-25.45V501.46s1.26-16-12.78-24.49Z"/></g></g></svg>