<svg xmlns="http://www.w3.org/2000/svg" viewBox="0 0 962 962"><defs><style>.cls-1{fill:#fff;}</style></defs><title>sony</title><g id="Layer_2" data-name="Layer 2"><g id="Layer_1-2" data-name="Layer 1"><circle class="cls-1" cx="481" cy="481" r="481"/><path id="path4258" d="M372.39,547.51c-27.37,0-52.78-8.21-69.74-23.43a57.21,57.21,0,0,1-19-43.2,58.06,58.06,0,0,1,19-43.05c15.75-14.35,43.56-23.34,69.74-23.34,29,0,52.16,7.3,69.89,23.38a57.45,57.45,0,0,1,18.71,43,59.9,59.9,0,0,1-18.71,43.2c-16.51,15.32-42.45,23.43-69.89,23.43V530c14.53,0,28-5,37.42-14.38s13.7-20.73,13.7-34.71c0-13.39-4.7-25.9-13.7-34.78-9.29-9.15-23.08-14.29-37.42-14.29s-28.18,5.09-37.48,14.29c-9,8.87-13.66,21.42-13.66,34.78s4.76,25.85,13.66,34.71C344.21,524.84,358,530,372.39,530v17.55Zm-200.06-133c-14.64,0-31.28,2.74-45.41,9.05-13,5.82-23.72,15.23-23.72,30.84a32,32,0,0,0,8.68,22.06c3.8,3.5,9.92,9.45,25.91,12.95,7.15,1.56,22.43,4,37.64,5.55s30,3.11,36,4.64c4.81,1.22,12.89,2.89,12.89,12s-8.51,11.78-10,12.38-11.69,5.27-30,5.27c-13.55,0-29.84-4.08-35.78-6.2-6.85-2.44-14-5.66-20.73-13.84a23.8,23.8,0,0,1-4.29-13.13H106.89v46.55h18.46v-6.29a2.64,2.64,0,0,1,4-2.26,145.7,145.7,0,0,0,27,8.73c9.71,2,16,3.49,28,3.49,19.69,0,30.26-3.21,37.58-5.3,6.89-2,15.4-5.51,22.31-11a30.57,30.57,0,0,0,12-24.5,34.28,34.28,0,0,0-9.66-24.09,42.18,42.18,0,0,0-12-8.13,87.89,87.89,0,0,0-14.69-5.13c-9.52-2.34-31-5.22-41.33-6.3-10.79-1.13-29.51-2.68-37-5-2.27-.7-6.89-2.9-6.89-8.27,0-3.82,2.11-7.05,6.29-9.66,6.63-4.15,20-6.74,34-6.74,16.5-.06,30.48,3.71,39.37,7.69a43.26,43.26,0,0,1,9.37,5.58A28.18,28.18,0,0,1,233,460.88h14.91V420.36H231.23v4.71c0,1.52-1.57,3.5-4.54,1.86-7.45-3.91-28.52-12.35-54.36-12.38m365,7.36,81.24,73.31-.83-49.36c-.08-6.47-1.27-9.17-8.28-9.17H594.14V421.92H663.6v14.77H648.7c-7.14,0-7.59,2.28-7.68,9.17l1.26,94.32H618.49l-93.57-83.51,0,59.27c.08,6.44.38,9.48,7,9.48h16.68v14.76H480.43V525.42h15.95c6,0,5.72-5.68,5.72-9.81V446.43c0-4.47-.63-9.73-10-9.73H479.18V421.91ZM743,525.39a32,32,0,0,0,4.11-.25,5.09,5.09,0,0,0,3.2-2.84,16.47,16.47,0,0,0,.32-3.2V495.76c0-.56,0-.8-1-2.05s-42.55-48.4-44.45-50.47c-2.36-2.57-6.5-6.55-12.8-6.55H677.93V421.92h81.46v14.75h-9.82c-2.27,0-3.78,2.15-1.84,4.55,0,0,27.41,32.78,27.67,33.13s.47.43.82.11,28.09-32.94,28.31-33.2a2.84,2.84,0,0,0-2.42-4.57H792V421.92H858.8v14.77H843.88c-5.41,0-7.61,1-11.68,5.6-1.86,2.11-43.81,50-45,51.28a3.15,3.15,0,0,0-.55,2.18v23.33a16.43,16.43,0,0,0,.32,3.19,5.08,5.08,0,0,0,3.2,2.84,31.14,31.14,0,0,0,4.07.26h15.26v14.77h-81V525.38H743Z"/></g></g></svg>