<?xml version="1.0" encoding="utf-8"?>
<!-- Generator: Adobe Illustrator 21.0.2, SVG Export Plug-In . SVG Version: 6.00 Build 0)  -->
<svg version="1.1" id="Layer_1" xmlns="http://www.w3.org/2000/svg" xmlns:xlink="http://www.w3.org/1999/xlink" x="0px" y="0px"
	 viewBox="0 0 236.2 205.8" style="enable-background:new 0 0 236.2 205.8;" xml:space="preserve">
<style type="text/css">
	.st0{fill:url(#SVGID_1_);}
	.st1{fill:#FFFFFF;}
	.st2{fill:url(#SVGID_2_);}
	.st3{fill:url(#SVGID_3_);}
</style>
<title>Asset 1</title>
<g id="Layer_2">
	<g id="Layer_1-2">
		
			<linearGradient id="SVGID_1_" gradientUnits="userSpaceOnUse" x1="315.56" y1="83.5973" x2="315.56" y2="171.852" gradientTransform="matrix(1 0 0 -1 -197.5 201.2202)">
			<stop  offset="0" style="stop-color:#AEAEAE"/>
			<stop  offset="1" style="stop-color:#D5D5D5"/>
		</linearGradient>
		<path class="st0" d="M0,90.5V58.7c0.3-0.2,0.5-0.4,0.8-0.7c9.3-9.3,18.7-18.6,28-27.9c0.4-0.5,1-0.7,1.6-0.7h175.3
			c0.6,0,1.2,0.2,1.6,0.6l28.2,28.1c0.2,0.2,0.5,0.4,0.7,0.6v31.7c-0.1,0.9-0.2,1.8-0.4,2.6c-2.7,16.1-17.9,26.9-34,24.2
			c-11.9-2-21.5-11.1-24-23c-0.3-1.2-0.4-2.4-0.6-3.7c-0.6,7-3.7,13.5-8.7,18.4c-10,9.9-25.6,11.4-37.3,3.5
			c-7.7-5.3-11.9-12.7-13-22c-0.6,6.9-3.6,13.4-8.5,18.2c-10.8,10.9-28.1,11.8-39.9,1.9c-6.1-5-10-12.3-10.7-20.1
			c-0.2,1-0.3,2-0.5,2.9c-2.7,15.4-17.7,26.3-33.2,23.8c-12.5-2-20.6-9.4-24.3-21.5C0.5,94,0.3,92.2,0,90.5z"/>
		<path class="st1" d="M29.6,22.2h177v-22h-177C29.6,0.2,29.6,22.2,29.6,22.2z"/>
		
			<linearGradient id="SVGID_2_" gradientUnits="userSpaceOnUse" x1="315.56" y1="-4.58" x2="315.56" y2="65.65" gradientTransform="matrix(1 0 0 -1 -197.5 201.2202)">
			<stop  offset="0" style="stop-color:#AEAEAE"/>
			<stop  offset="1" style="stop-color:#D5D5D5"/>
		</linearGradient>
		<path class="st2" d="M14.8,205.8v-70.1c4.5,2.6,9.5,4,14.7,4c5.2,0,10.3-1.4,14.7-4.1v48.1h147.6v-48.1c4.5,2.6,9.6,4,14.8,4.1
			c5.2,0,10.2-1.4,14.7-4v70.1L14.8,205.8z"/>
		
			<linearGradient id="SVGID_3_" gradientUnits="userSpaceOnUse" x1="315.56" y1="179.26" x2="315.56" y2="201.22" gradientTransform="matrix(1 0 0 -1 -197.5 201.2202)">
			<stop  offset="0" style="stop-color:#858585"/>
			<stop  offset="1" style="stop-color:#BFBFBF"/>
		</linearGradient>
		<path class="st3" d="M29.6,22V0h177v22H29.6z"/>
	</g>
</g>
</svg>
