<?xml version="1.0" encoding="utf-8"?>
<!-- Generator: Adobe Illustrator 21.0.2, SVG Export Plug-In . SVG Version: 6.00 Build 0)  -->
<svg version="1.1" id="Layer_1" xmlns="http://www.w3.org/2000/svg" xmlns:xlink="http://www.w3.org/1999/xlink" x="0px" y="0px"
	 viewBox="0 0 318.3 297.1" style="enable-background:new 0 0 318.3 297.1;" xml:space="preserve">
<style type="text/css">
	.st0{fill:url(#SVGID_1_);}
	.st1{fill:url(#SVGID_2_);}
	.st2{fill:url(#SVGID_3_);}
	.st3{fill:url(#SVGID_4_);}
</style>
<title>d</title>
<linearGradient id="SVGID_1_" gradientUnits="userSpaceOnUse" x1="49.5" y1="4.1569" x2="49.5" y2="262.9448" gradientTransform="matrix(1 0 0 -1 0 297.2602)">
	<stop  offset="0" style="stop-color:#AEAEAE"/>
	<stop  offset="1" style="stop-color:#D5D5D5"/>
</linearGradient>
<path class="st0" d="M8.3,274.9l80.2,17.9c5.8,1.3,10.5-2.5,10.5-8.4V64.5c-0.2-6.2-4.5-11.5-10.5-13.1L13,34.6
	c-5.7-1.3-11.4,2.3-12.7,8C0.1,43.4,0,44.2,0,45v219.5C0,269.5,3.5,273.8,8.3,274.9z"/>
<linearGradient id="SVGID_2_" gradientUnits="userSpaceOnUse" x1="210.2451" y1="114.3024" x2="210.2451" y2="297.2524" gradientTransform="matrix(1 0 0 -1 0 297.2602)">
	<stop  offset="0" style="stop-color:#858585"/>
	<stop  offset="1" style="stop-color:#BFBFBF"/>
</linearGradient>
<path class="st1" d="M279.6,69.4c0.5-38.3-30.2-69.8-68.6-70.2s-69.8,30.2-70.2,68.6c0,0.6,0,1.1,0,1.7
	c0,55.3,59.8,108.6,62.4,110.9c4,3.5,10,3.5,14.1,0C219.8,178.1,279.6,124.7,279.6,69.4z M210.2,95c-14.1,0.1-25.7-11.3-25.7-25.4
	c-0.1-14.1,11.3-25.7,25.4-25.7c14.1-0.1,25.7,11.3,25.7,25.4c0,0,0,0.1,0,0.1C235.7,83.5,224.3,94.9,210.2,95z"/>
<linearGradient id="SVGID_3_" gradientUnits="userSpaceOnUse" x1="268.025" y1="0.1252" x2="268.025" y2="244.55" gradientTransform="matrix(1 0 0 -1 0 297.2602)">
	<stop  offset="0" style="stop-color:#AEAEAE"/>
	<stop  offset="1" style="stop-color:#D5D5D5"/>
</linearGradient>
<path class="st2" d="M305.3,296.9c5.7,1.3,11.4-2.3,12.7-8c0.2-0.8,0.3-1.6,0.3-2.4V66.9c0-5-3.5-9.3-8.3-10.4l-17.1-3.8
	c1.1,5.5,1.7,11.1,1.7,16.7c0,26.3-11.2,54.7-33.2,84.2c-10.2,13.7-21.6,26.3-34.2,37.8c-2.7,2.4-5.9,4.2-9.4,5.2v69.8
	c0.2,6.2,4.5,11.5,10.5,13.1L305.3,296.9z"/>
<linearGradient id="SVGID_4_" gradientUnits="userSpaceOnUse" x1="158.34" y1="3.0386" x2="158.34" y2="245.37" gradientTransform="matrix(1 0 0 -1 0 297.2602)">
	<stop  offset="0" style="stop-color:#AEAEAE"/>
	<stop  offset="1" style="stop-color:#D5D5D5"/>
</linearGradient>
<path class="st3" d="M202.8,196.7c-3.5-1.1-6.7-2.8-9.4-5.2c-12.6-11.5-24.1-24.1-34.2-37.8c-22-29.6-33.2-57.9-33.2-84.2
	c0-5.9,0.6-11.8,1.8-17.5l-6.9,1.5c-3.8,0.8-6.9,6.3-6.9,12.2v219.9c0,5.9,4.7,9.7,10.5,8.4l67.9-14.8c6-1.6,10.2-6.8,10.5-13
	L202.8,196.7z"/>
</svg>
