<?xml version="1.0" encoding="utf-8"?>
<!-- Generator: Adobe Illustrator 21.0.2, SVG Export Plug-In . SVG Version: 6.00 Build 0)  -->
<svg version="1.1" id="Layer_1" xmlns="http://www.w3.org/2000/svg" xmlns:xlink="http://www.w3.org/1999/xlink" x="0px" y="0px"
	 viewBox="0 0 297.2 297.2" style="enable-background:new 0 0 297.2 297.2;" xml:space="preserve">
<style type="text/css">
	.st0{fill:url(#SVGID_1_);}
	.st1{fill:url(#SVGID_2_);}
	.st2{fill:url(#SVGID_3_);}
</style>
<title>e</title>
<g id="Layer_1-2">
	
		<linearGradient id="SVGID_1_" gradientUnits="userSpaceOnUse" x1="231.1705" y1="41.7087" x2="231.1705" y2="338.7356" gradientTransform="matrix(0.9997 2.582800e-02 2.582800e-02 -0.9997 -128.5794 331.825)">
		<stop  offset="0" style="stop-color:#AEAEAE"/>
		<stop  offset="1" style="stop-color:#D5D5D5"/>
	</linearGradient>
	<path class="st0" d="M140.6,152.9l70.8,130.3c-74.3,34.7-162.7,2.7-197.4-71.6c-9.8-20.9-14.6-43.9-13.9-67
		C2.1,65.6,65.4,2.8,143.3,0l-3.8,148.2C139.4,149.9,139.8,151.5,140.6,152.9z"/>
	
		<linearGradient id="SVGID_2_" gradientUnits="userSpaceOnUse" x1="351.2671" y1="199.7585" x2="351.2671" y2="338.7359" gradientTransform="matrix(0.9997 2.582800e-02 2.582800e-02 -0.9997 -128.5794 331.825)">
		<stop  offset="0" style="stop-color:#AEAEAE"/>
		<stop  offset="1" style="stop-color:#D5D5D5"/>
	</linearGradient>
	<path class="st1" d="M161.9,0.5l-3.6,138.9l138.9,3.6C294.5,68.2,236.5,7.1,161.9,0.5z M179.9,22.3c49.2,12.2,86.8,51.8,96.5,101.6
		l-99-2.6L179.9,22.3z"/>
	
		<linearGradient id="SVGID_3_" gradientUnits="userSpaceOnUse" x1="354.6933" y1="66.5889" x2="354.6933" y2="181.179" gradientTransform="matrix(0.9997 2.582800e-02 2.582800e-02 -0.9997 -128.5794 331.825)">
		<stop  offset="0" style="stop-color:#858585"/>
		<stop  offset="1" style="stop-color:#BFBFBF"/>
	</linearGradient>
	<path class="st2" d="M227.8,274.4c39.4-24.7,65-66.5,69-112.8l-132.1-3.4L227.8,274.4z"/>
</g>
</svg>
