<?xml version="1.0" encoding="utf-8"?>
<!-- Generator: Adobe Illustrator 21.0.2, SVG Export Plug-In . SVG Version: 6.00 Build 0)  -->
<svg version="1.1" id="Layer_1" xmlns="http://www.w3.org/2000/svg" xmlns:xlink="http://www.w3.org/1999/xlink" x="0px" y="0px"
	 viewBox="0 0 298 298" style="enable-background:new 0 0 298 298;" xml:space="preserve">
<style type="text/css">
	.st0{fill:url(#SVGID_1_);}
	.st1{fill:url(#SVGID_2_);}
	.st2{fill:url(#SVGID_3_);}
</style>
<title>l</title>
<linearGradient id="SVGID_1_" gradientUnits="userSpaceOnUse" x1="267.5435" y1="238.4" x2="267.5435" y2="299.2421" gradientTransform="matrix(1 0 0 -1 0 299.2602)">
	<stop  offset="0" style="stop-color:#858585"/>
	<stop  offset="1" style="stop-color:#BFBFBF"/>
</linearGradient>
<path class="st0" d="M289.8,8.2c10.9,10.9,10.9,28.6,0,39.5l-13.2,13.2l-39.5-39.5l13.2-13.2C261.2-2.7,278.9-2.7,289.8,8.2z"/>
<linearGradient id="SVGID_2_" gradientUnits="userSpaceOnUse" x1="171.295" y1="80.37" x2="171.295" y2="264.74" gradientTransform="matrix(1 0 0 -1 0 299.2602)">
	<stop  offset="0" style="stop-color:#AEAEAE"/>
	<stop  offset="1" style="stop-color:#D5D5D5"/>
</linearGradient>
<polygon class="st1" points="92.3,166.2 79.1,218.9 131.8,205.7 263.5,74 223.9,34.5 "/>
<linearGradient id="SVGID_3_" gradientUnits="userSpaceOnUse" x1="130.5" y1="1.27" x2="130.5" y2="262.27" gradientTransform="matrix(1 0 0 -1 0 299.2602)">
	<stop  offset="0" style="stop-color:#AEAEAE"/>
	<stop  offset="1" style="stop-color:#D5D5D5"/>
</linearGradient>
<polygon class="st2" points="224,170.4 224,261 37,261 37,74 123.6,74 160.6,37 0,37 0,298 261,298 261,133.1 "/>
</svg>
