<?xml version="1.0" encoding="utf-8"?>
<!-- Generator: Adobe Illustrator 21.0.2, SVG Export Plug-In . SVG Version: 6.00 Build 0)  -->
<svg version="1.1" id="Layer_1" xmlns="http://www.w3.org/2000/svg" xmlns:xlink="http://www.w3.org/1999/xlink" x="0px" y="0px"
	 viewBox="0 0 308 297.3" style="enable-background:new 0 0 308 297.3;" xml:space="preserve">
<style type="text/css">
	.st0{fill:url(#SVGID_1_);}
	.st1{fill:url(#SVGID_2_);}
	.st2{fill:url(#SVGID_3_);}
</style>
<title>k</title>
<g id="Layer_2">
	<g id="Layer_1-2">
		
			<linearGradient id="SVGID_1_" gradientUnits="userSpaceOnUse" x1="212.23" y1="78.75" x2="212.23" y2="124.79" gradientTransform="matrix(1 0 0 -1 0 297.2602)">
			<stop  offset="0" style="stop-color:#858585"/>
			<stop  offset="1" style="stop-color:#BFBFBF"/>
		</linearGradient>
		<ellipse class="st0" cx="212.2" cy="195.5" rx="15.3" ry="23"/>
		
			<linearGradient id="SVGID_2_" gradientUnits="userSpaceOnUse" x1="242.66" y1="154.85" x2="242.66" y2="195.97" gradientTransform="matrix(1 0 0 -1 0 297.2602)">
			<stop  offset="0" style="stop-color:#858585"/>
			<stop  offset="1" style="stop-color:#BFBFBF"/>
		</linearGradient>
		<ellipse class="st1" cx="242.7" cy="121.9" rx="13.6" ry="20.6"/>
		
			<linearGradient id="SVGID_3_" gradientUnits="userSpaceOnUse" x1="154" y1="-4.043699e-02" x2="154" y2="297.2555" gradientTransform="matrix(1 0 0 -1 0 297.2602)">
			<stop  offset="0" style="stop-color:#B0B0B0"/>
			<stop  offset="1" style="stop-color:#D5D5D5"/>
		</linearGradient>
		<path class="st2" d="M297.2,42.4L158.3,0.6l-0.8-0.2l-0.8-0.2c-1.8-0.3-3.7-0.3-5.5,0l-0.8,0.2l-0.8,0.2l-31,9.3l-25,7.5l-70.1,21
			l0,0l-12.6,3.8C4.4,44.2,0,50.1,0,56.8v183.4c0,6.7,4.4,12.6,10.8,14.5l138.8,41.9c1.4,0.4,2.9,0.6,4.4,0.6c1.5,0,3-0.2,4.4-0.6
			l138.8-41.8c6.4-1.9,10.8-7.8,10.8-14.5V56.9C308,50.2,303.6,44.3,297.2,42.4z M44.2,223.9c-7.4,0-13.4-9-13.4-20.1
			s6-20.1,13.4-20.1s13.4,9,13.4,20.1S51.5,223.9,44.2,223.9L44.2,223.9z M75.8,166.8c-8.1,0-14.7-9.9-14.7-22.1s6.6-22.1,14.7-22.1
			s14.7,9.9,14.7,22.1S83.9,166.8,75.8,166.8L75.8,166.8z M111.9,110c-8.5,0-15.3-10.3-15.3-23s6.8-23,15.3-23s15.3,10.3,15.3,23
			S120.4,110,111.9,110z M277.6,229l-108.5,32.7V35.6l108.5,32.6V229z"/>
	</g>
</g>
</svg>
