<?xml version="1.0" encoding="utf-8"?>
<!-- Generator: Adobe Illustrator 21.0.2, SVG Export Plug-In . SVG Version: 6.00 Build 0)  -->
<svg version="1.1" id="Layer_1" xmlns="http://www.w3.org/2000/svg" xmlns:xlink="http://www.w3.org/1999/xlink" x="0px" y="0px"
	 viewBox="0 0 287.6 295.3" style="enable-background:new 0 0 287.6 295.3;" xml:space="preserve">
<style type="text/css">
	.st0{fill:url(#SVGID_1_);}
	.st1{fill:url(#SVGID_2_);}
	.st2{fill:url(#SVGID_3_);}
	.st3{fill:url(#SVGID_4_);}
</style>
<title>i</title>
<g id="Layer_2">
	<g id="Layer_1-2">
		
			<linearGradient id="SVGID_1_" gradientUnits="userSpaceOnUse" x1="68.1451" y1="146.03" x2="68.1451" y2="295.26" gradientTransform="matrix(1 0 0 -1 0 295.2602)">
			<stop  offset="0" style="stop-color:#858585"/>
			<stop  offset="1" style="stop-color:#BFBFBF"/>
		</linearGradient>
		<path class="st0" d="M68.1,149.2c0,0,52.8-52.5,52.8-96.4C121.3,23.6,98-0.3,68.9-0.7S15.8,22.2,15.4,51.3c0,0.5,0,1,0,1.5
			C15.3,99.2,68.1,149.2,68.1,149.2z M40.6,52.8c0-15.2,12.3-27.5,27.5-27.5s27.5,12.3,27.5,27.5c0,15.2-12.3,27.5-27.5,27.5l0,0
			C52.9,80.3,40.6,68,40.6,52.8z"/>
		
			<linearGradient id="SVGID_2_" gradientUnits="userSpaceOnUse" x1="208.4615" y1="4.12" x2="208.4615" y2="258.66" gradientTransform="matrix(1 0 0 -1 0 295.2602)">
			<stop  offset="0" style="stop-color:#AEAEAE"/>
			<stop  offset="1" style="stop-color:#D5D5D5"/>
		</linearGradient>
		<path class="st1" d="M263.3,71.4l-4.3,1.4l-22.9,2l-6.5,10.3l-4.7-1.5l-18.2-16.4l-2.7-8.6l-3.5-9.1L189,39.2l-13.5-2.6l-0.3,6.2
			l13.2,12.9l6.5,7.6l-7.3,3.8l-5.9-1.8l-8.9-3.7l0.3-7.2l-11.7-4.8l-3.9,16.9l-11.8,2.7l1.2,9.4l15.3,3l2.6-15l12.6,1.9l5.9,3.4
			h9.4l6.4,12.9l17.1,17.4l-1.2,6.8l-13.8-1.8l-23.9,12l-17.2,20.6l-2.2,9.1h-6.2l-11.5-5.3l-11.2,5.3l2.8,11.8l4.9-5.6l8.5-0.2
			l-0.6,10.6l7.1,2.1l7.1,7.9l11.5-3.2l13.2,2.1l15.3,4.1l7.6,0.9l12.9,14.7l25,14.7l-16.2,30.8l-17.1,7.9l-6.5,17.7l-24.7,16.5
			l-2.6,9.5c77.2-18.6,124.6-96.3,106-173.5C279.6,101.2,272.7,85.5,263.3,71.4z"/>
		
			<linearGradient id="SVGID_3_" gradientUnits="userSpaceOnUse" x1="83.4851" y1="-2.766492e-04" x2="83.4851" y2="205.79" gradientTransform="matrix(1 0 0 -1 0 295.2602)">
			<stop  offset="0" style="stop-color:#AEAEAE"/>
			<stop  offset="1" style="stop-color:#D5D5D5"/>
		</linearGradient>
		<path class="st2" d="M160.4,226.6l-10.5-19.4l9.6-20l-9.6-2.9l-10.8-10.8l-23.9-5.4l-7.9-16.6v9.9h-3.5l-15.2-20.6
			c-7.4,8.9-13,14.5-13.7,15.2l-6.5,6.5l-6.7-6.3c-1.7-1.6-32.3-31-47.4-66.6c-34.4,71.4-4.4,157.2,67.1,191.6
			c19.5,9.4,40.9,14.2,62.5,14.2c6-0.1,12-0.5,18-1.3l-1.5-17.4c0,0,6.7-25.9,6.7-26.8S160.4,226.6,160.4,226.6z"/>
		
			<linearGradient id="SVGID_4_" gradientUnits="userSpaceOnUse" x1="159.53" y1="254.87" x2="159.53" y2="287.6397" gradientTransform="matrix(1 0 0 -1 0 295.2602)">
			<stop  offset="0" style="stop-color:#AEAEAE"/>
			<stop  offset="1" style="stop-color:#D5D5D5"/>
		</linearGradient>
		<path class="st3" d="M132.4,35.2L143,37l25.7-2.4l7.1-7.8l10-6.7l14.1,2.1l5.1-0.8C176.7,8,144.7,4.2,114,10.9
			c7.6,8.3,12.9,18.5,15.1,29.5L132.4,35.2z M149.9,21.9l14.7-8.1l9.4,5.4l-13.7,10.4l-13,1.3l-5.9-3.8L149.9,21.9z"/>
	</g>
</g>
</svg>
