<?xml version="1.0" encoding="utf-8"?>
<!-- Generator: Adobe Illustrator 21.0.2, SVG Export Plug-In . SVG Version: 6.00 Build 0)  -->
<svg version="1.1" id="Layer_1" xmlns="http://www.w3.org/2000/svg" xmlns:xlink="http://www.w3.org/1999/xlink" x="0px" y="0px"
	 viewBox="0 0 439.2 297.7" style="enable-background:new 0 0 439.2 297.7;" xml:space="preserve">
<style type="text/css">
	.st0{fill:url(#SVGID_1_);}
	.st1{fill:url(#SVGID_2_);}
	.st2{fill:url(#SVGID_3_);}
</style>
<title>o</title>
<g id="Layer_2">
	<g id="Layer_1-2">
		
			<linearGradient id="SVGID_1_" gradientUnits="userSpaceOnUse" x1="156.2109" y1="1.5758" x2="156.2109" y2="299.244" gradientTransform="matrix(1 0 0 -1 0 299.2602)">
			<stop  offset="0" style="stop-color:#AEAEAE"/>
			<stop  offset="1" style="stop-color:#D5D5D5"/>
		</linearGradient>
		<path class="st0" d="M312.1,113.3c-0.7-2-2.4-3.5-4.5-3.8L206.5,94.8L161.2,3.1c-1.4-2.8-4.7-3.9-7.5-2.5c-1.1,0.5-2,1.4-2.5,2.5
			L106,94.8L4.8,109.5c-3.1,0.5-5.2,3.3-4.7,6.4c0.2,1.2,0.7,2.3,1.6,3.2l73.2,71.3L57.6,291.1c-0.4,2.1,0.5,4.2,2.2,5.5
			c1.7,1.3,4,1.4,5.9,0.4l90.5-47.6l90.5,47.5c2.7,1.4,6.1,0.4,7.5-2.3c0.6-1.1,0.8-2.3,0.6-3.5l-17.3-100.7l73.2-71.4
			C312.2,117.5,312.8,115.3,312.1,113.3z"/>
		
			<linearGradient id="SVGID_2_" gradientUnits="userSpaceOnUse" x1="323.2377" y1="217.955" x2="439.2123" y2="217.955" gradientTransform="matrix(1 0 0 -1 0 299.2602)">
			<stop  offset="0" style="stop-color:#AEAEAE"/>
			<stop  offset="1" style="stop-color:#D5D5D5"/>
		</linearGradient>
		<path class="st1" d="M373.1,120.4l6.5,17.7c0.3,0.9,1.3,1.3,2.2,1c0.5-0.2,0.8-0.5,1-1l6.5-17.7c5.3-14.4,16.6-25.7,31-31
			l17.7-6.5c0.9-0.3,1.3-1.3,1-2.2c-0.2-0.5-0.5-0.8-1-1l-17.7-6.5c-14.4-5.3-25.7-16.6-31-31l-6.5-17.7c-0.3-0.9-1.3-1.3-2.2-1
			c-0.5,0.2-0.8,0.5-1,1l-6.5,17.8c-5.3,14.4-16.6,25.7-31,31l-17.7,6.5c-0.9,0.3-1.3,1.3-1,2.2c0.2,0.5,0.5,0.8,1,1l17.7,6.5
			C356.5,94.8,367.8,106.1,373.1,120.4z"/>
		
			<linearGradient id="SVGID_3_" gradientUnits="userSpaceOnUse" x1="341.92" y1="35.588" x2="341.92" y2="128.892" gradientTransform="matrix(1 0 0 -1 0 299.2602)">
			<stop  offset="0" style="stop-color:#858585"/>
			<stop  offset="1" style="stop-color:#BFBFBF"/>
		</linearGradient>
		<path class="st2" d="M335.4,248.5l5.3,14.3c0.3,0.7,1.1,1.1,1.8,0.8c0.4-0.1,0.7-0.4,0.8-0.8l5.3-14.3
			c4.3-11.6,13.4-20.7,24.9-24.9l14.3-5.3c0.7-0.3,1.1-1.1,0.8-1.8c-0.1-0.4-0.4-0.7-0.8-0.8l-14.3-5.3
			c-11.6-4.3-20.7-13.4-24.9-24.9l-5.3-14.3c-0.3-0.7-1.1-1.1-1.8-0.8c-0.4,0.1-0.7,0.4-0.8,0.8l-5.3,14.3
			c-4.3,11.6-13.4,20.7-24.9,24.9l-14.3,5.3c-0.7,0.3-1.1,1.1-0.8,1.8c0.1,0.4,0.4,0.7,0.8,0.8l14.3,5.3
			C322,227.8,331.1,236.9,335.4,248.5z"/>
	</g>
</g>
</svg>
