<?xml version="1.0" encoding="utf-8"?>
<!-- Generator: Adobe Illustrator 21.0.2, SVG Export Plug-In . SVG Version: 6.00 Build 0)  -->
<svg version="1.1" id="Layer_1" xmlns="http://www.w3.org/2000/svg" xmlns:xlink="http://www.w3.org/1999/xlink" x="0px" y="0px"
	 viewBox="0 0 319.3 297.4" style="enable-background:new 0 0 319.3 297.4;" xml:space="preserve">
<style type="text/css">
	.st0{fill:url(#SVGID_1_);}
	.st1{fill:url(#SVGID_2_);}
</style>
<title>s</title>
<g id="Layer_2">
	<g id="Layer_1-2">
		
			<linearGradient id="SVGID_1_" gradientUnits="userSpaceOnUse" x1="159.573" y1="131.63" x2="159.573" y2="297.26" gradientTransform="matrix(1 0 0 -1 0 297.2602)">
			<stop  offset="0" style="stop-color:#858585"/>
			<stop  offset="1" style="stop-color:#BFBFBF"/>
		</linearGradient>
		<path class="st0" d="M314,134.4L265.6,86V30.1c0-10.1-8.2-18.3-18.3-18.3c-10.1,0-18.3,8.2-18.3,18.3v19.3l-36-36
			c-17.8-17.8-48.8-17.8-66.6,0l-121,121c-7.3,7-7.5,18.6-0.5,25.9s18.6,7.5,25.9,0.5c0.2-0.2,0.3-0.3,0.5-0.5l121-121
			c4.2-3.9,10.6-3.9,14.8,0l121,121c7.1,7.2,18.7,7.2,25.9,0C321.1,153.1,321.1,141.5,314,134.4z"/>
		
			<linearGradient id="SVGID_2_" gradientUnits="userSpaceOnUse" x1="159.685" y1="-0.12" x2="159.685" y2="225.8871" gradientTransform="matrix(1 0 0 -1 0 297.2602)">
			<stop  offset="0" style="stop-color:#AEAEAE"/>
			<stop  offset="1" style="stop-color:#D5D5D5"/>
		</linearGradient>
		<path class="st1" d="M166,74c-3.5-3.5-9.2-3.5-12.7,0L46.9,180.4c-1.7,1.7-2.6,4-2.6,6.4v77.6c0,18.2,14.8,33,33,33h52.7v-81.6
			h59.5v81.6h52.7c18.2,0,33-14.8,33-33l0,0v-77.6c0-2.4-0.9-4.7-2.6-6.4L166,74z"/>
	</g>
</g>
</svg>
