<?xml version="1.0" encoding="utf-8"?>
<!-- Generator: Adobe Illustrator 21.0.2, SVG Export Plug-In . SVG Version: 6.00 Build 0)  -->
<svg version="1.1" id="Layer_1" xmlns="http://www.w3.org/2000/svg" xmlns:xlink="http://www.w3.org/1999/xlink" x="0px" y="0px"
	 viewBox="0 0 378 313.4" style="enable-background:new 0 0 378 313.4;" xml:space="preserve">
<style type="text/css">
	.st0{fill:url(#SVGID_1_);}
	.st1{fill:url(#SVGID_2_);}
</style>
<title>in2</title>
<linearGradient id="SVGID_1_" gradientUnits="userSpaceOnUse" x1="289.05" y1="-476.1398" x2="289.05" y2="-178.9398" gradientTransform="matrix(1 0 0 -1 0 -162.7398)">
	<stop  offset="0" style="stop-color:#858585"/>
	<stop  offset="1" style="stop-color:#BFBFBF"/>
</linearGradient>
<path class="st0" d="M272.5,16.2V51c-39.5,8-61.6,33.3-61.6,64.8c0,34.8,26.8,53.8,64.8,66.4c26.8,9.5,37.9,17.5,37.9,31.6
	s-14.3,22.1-34.8,22.1c-23.8,0-44.3-8-60.1-15.8l-11,42.6c14.3,7.8,38,14.3,61.6,15.8v34.9h36.3v-37.9c41.1-7.8,64.8-34.8,64.8-66.4
	c0-33.3-17.3-52.1-60.1-67.9c-31.6-11-44.3-19-44.3-31.6c0-9.5,7.8-20.5,31.6-20.5c26.8,0,42.6,8,52.1,12.7l11-41.1
	c-12.7-6.3-28.5-11-52.1-12.7V16.2H272.5L272.5,16.2z"/>
<linearGradient id="SVGID_2_" gradientUnits="userSpaceOnUse" x1="135.4" y1="2.6" x2="135.4" y2="316" gradientTransform="matrix(1 0 0 -1 0 316)">
	<stop  offset="0" style="stop-color:#AEAEAE"/>
	<stop  offset="1" style="stop-color:#D5D5D5"/>
</linearGradient>
<path class="st1" d="M241.2,244.4L185,217.2c-5.3-2.6-8.6-7.7-8.6-13.5v-19.3c1.3-1.6,2.8-3.4,4.2-5.4c7.3-10,13.1-21.1,17.4-33
	c8.3-3.7,13.7-11.6,13.7-20.6v-22.8c0-5.5-2.1-10.8-5.9-15V57.3c0.3-3.1,1.6-21.8-12.3-37.2C181.5,6.7,161.9,0,135.3,0
	S89.1,6.7,77.1,20.1c-14,15.4-12.7,34-12.3,37.2v30.3c-3.8,4.2-5.9,9.5-5.9,15v22.8c0,6.9,3.3,13.4,8.8,17.7
	c5.4,20.7,16.7,36.2,20.6,41.2v18.9c0,5.5-3.1,10.6-8.1,13.2l-52.4,27.7c-17.1,9-27.6,26.3-27.6,45.1v24.2h270.4v-23
	C270.5,270.8,259.3,253.1,241.2,244.4z"/>
</svg>
