<?xml version="1.0" encoding="utf-8"?>
<!-- Generator: Adobe Illustrator 21.0.2, SVG Export Plug-In . SVG Version: 6.00 Build 0)  -->
<svg version="1.1" id="Layer_1" xmlns="http://www.w3.org/2000/svg" xmlns:xlink="http://www.w3.org/1999/xlink" x="0px" y="0px"
	 viewBox="0 0 251.6 294.1" style="enable-background:new 0 0 251.6 294.1;" xml:space="preserve">
<style type="text/css">
	.st0{fill:url(#SVGID_1_);}
	.st1{fill:url(#SVGID_2_);}
	.st2{fill:url(#SVGID_3_);}
	.st3{fill:url(#SVGID_4_);}
</style>
<title>interact</title>
<g id="Layer_2">
	<g id="Layer_1-2">
		
			<linearGradient id="SVGID_1_" gradientUnits="userSpaceOnUse" x1="125.81" y1="150.13" x2="125.81" y2="172.43" gradientTransform="matrix(1 0 0 -1 0 295.2602)">
			<stop  offset="0" style="stop-color:#858585"/>
			<stop  offset="1" style="stop-color:#BFBFBF"/>
		</linearGradient>
		<path class="st0" d="M56.5,145.1h138.5c-2.4-12.9-13.6-22.3-26.7-22.3H83.3C70.2,122.8,58.9,132.2,56.5,145.1z"/>
		
			<linearGradient id="SVGID_2_" gradientUnits="userSpaceOnUse" x1="125.81" y1="182.36" x2="125.81" y2="295.26" gradientTransform="matrix(1 0 0 -1 0 295.2602)">
			<stop  offset="0" style="stop-color:#858585"/>
			<stop  offset="1" style="stop-color:#BFBFBF"/>
		</linearGradient>
		<circle class="st1" cx="125.8" cy="56.5" r="56.4"/>
		
			<linearGradient id="SVGID_3_" gradientUnits="userSpaceOnUse" x1="125.81" y1="1.15" x2="125.81" y2="22.81" gradientTransform="matrix(1 0 0 -1 0 295.2602)">
			<stop  offset="0" style="stop-color:#858585"/>
			<stop  offset="1" style="stop-color:#BFBFBF"/>
		</linearGradient>
		<path class="st2" d="M243.1,286.6v-14.1H8.5v14.1c0,4.2,3.9,7.5,8.7,7.5h217.2C239.2,294.1,243.1,290.7,243.1,286.6z"/>
		
			<linearGradient id="SVGID_4_" gradientUnits="userSpaceOnUse" x1="125.8089" y1="31.86" x2="125.8089" y2="141.08" gradientTransform="matrix(1 0 0 -1 0 295.2602)">
			<stop  offset="0" style="stop-color:#858585"/>
			<stop  offset="1" style="stop-color:#BFBFBF"/>
		</linearGradient>
		<path class="st3" d="M242.9,154.2H8.7c-5.1,0-9.1,3.7-8.7,8.1l9.2,101.1h234.7l7.7-101.2C251.9,157.9,247.9,154.2,242.9,154.2z
			 M125.8,219.8c-6.1,0-11-4.9-11-11s4.9-11,11-11s11,4.9,11,11S131.9,219.8,125.8,219.8z"/>
	</g>
</g>
</svg>
