<?xml version="1.0" encoding="utf-8"?>
<!-- Generator: Adobe Illustrator 21.0.2, SVG Export Plug-In . SVG Version: 6.00 Build 0)  -->
<svg version="1.1" id="Layer_1" xmlns="http://www.w3.org/2000/svg" xmlns:xlink="http://www.w3.org/1999/xlink" x="0px" y="0px"
	 viewBox="0 0 326.1 296.5" style="enable-background:new 0 0 326.1 296.5;" xml:space="preserve">
<style type="text/css">
	.st0{fill:url(#SVGID_1_);}
	.st1{fill:url(#SVGID_2_);}
</style>
<title>like</title>
<g id="Layer_2">
	<g id="Layer_1-2">
		
			<linearGradient id="SVGID_1_" gradientUnits="userSpaceOnUse" x1="29.65" y1="0.76" x2="29.65" y2="178.66" gradientTransform="matrix(1 0 0 -1 0 297.2602)">
			<stop  offset="0" style="stop-color:#858585"/>
			<stop  offset="1" style="stop-color:#BFBFBF"/>
		</linearGradient>
		<rect y="118.6" class="st0" width="59.3" height="177.9"/>
		
			<linearGradient id="SVGID_2_" gradientUnits="userSpaceOnUse" x1="207.575" y1="0.76" x2="207.575" y2="297.26" gradientTransform="matrix(1 0 0 -1 0 297.2602)">
			<stop  offset="0" style="stop-color:#AEAEAE"/>
			<stop  offset="1" style="stop-color:#D5D5D5"/>
		</linearGradient>
		<path class="st1" d="M326.1,133.4c0-16.4-13.3-29.6-29.6-29.6h-93.4l14.8-68.2v-4.4c0-5.9-3-11.9-5.9-16.3L195.7,0L97.8,97.9
			c-5.9,4.4-8.8,11.8-8.8,20.8v148.3c0,16.3,13.3,29.6,29.6,29.6H252c11.6-0.1,22.1-7.1,26.7-17.8l44.5-105.3
			c1.5-3,1.5-7.4,1.5-10.4v-29.6L326.1,133.4L326.1,133.4z"/>
	</g>
</g>
</svg>
