<?xml version="1.0" encoding="utf-8"?>
<!-- Generator: Adobe Illustrator 21.0.2, SVG Export Plug-In . SVG Version: 6.00 Build 0)  -->
<svg version="1.1" id="Layer_1" xmlns="http://www.w3.org/2000/svg" xmlns:xlink="http://www.w3.org/1999/xlink" x="0px" y="0px"
	 viewBox="0 0 455.7 296.7" style="enable-background:new 0 0 455.7 296.7;" xml:space="preserve">
<style type="text/css">
	.st0{fill:url(#SVGID_1_);}
	.st1{fill:url(#SVGID_2_);}
</style>
<title>r</title>
<g id="Layer_2">
	<g id="Layer_1-2">
		
			<linearGradient id="SVGID_1_" gradientUnits="userSpaceOnUse" x1="227.9" y1="9749.4707" x2="227.9" y2="9647.3379" gradientTransform="matrix(1 0 0 1 0 -9624)">
			<stop  offset="0" style="stop-color:#858585"/>
			<stop  offset="1" style="stop-color:#BFBFBF"/>
		</linearGradient>
		<path class="st0" d="M227.9,125.5L391,23.8c-1.8-0.3-3.6-0.5-5.4-0.5H70.2c-1.9,0-3.6,0.2-5.4,0.5L227.9,125.5z"/>
		
			<linearGradient id="SVGID_2_" gradientUnits="userSpaceOnUse" x1="227.9" y1="9897.3613" x2="227.9" y2="9675.8203" gradientTransform="matrix(1 0 0 1 0 -9624)">
			<stop  offset="0" style="stop-color:#AEAEAE"/>
			<stop  offset="1" style="stop-color:#D5D5D5"/>
		</linearGradient>
		<path class="st1" d="M238.1,164.8c-0.3,0.2-0.4,0.3-0.7,0.3l-0.8,0.3c-1.3,0.7-2.6,1.2-4,1.5l-0.4,0.1c-1.4,0.3-2.9,0.6-4.5,0.6
			l0,0c-1.5,0-3-0.2-4.5-0.6l-0.4-0.1c-1.3-0.3-2.7-0.9-4-1.5l-0.8-0.3c-0.3-0.1-0.5-0.3-0.7-0.3L36.4,51.8c-0.3,1.9-0.5,4-0.5,5.9
			V239c0,19,15.3,34.4,34.4,34.4l0,0h315.3c19,0,34.4-15.3,34.4-34.4l0,0V57.7c0-1.9-0.2-4-0.5-5.9L238.1,164.8z"/>
	</g>
</g>
</svg>
