<?xml version="1.0" encoding="utf-8"?>
<!-- Generator: Adobe Illustrator 21.0.2, SVG Export Plug-In . SVG Version: 6.00 Build 0)  -->
<svg version="1.1" id="Layer_1" xmlns="http://www.w3.org/2000/svg" xmlns:xlink="http://www.w3.org/1999/xlink" x="0px" y="0px"
	 viewBox="0 0 269 297.2" style="enable-background:new 0 0 269 297.2;" xml:space="preserve">
<style type="text/css">
	.st0{fill:url(#SVGID_1_);}
	.st1{fill:url(#SVGID_2_);}
</style>
<title>g</title>
<g id="Layer_2">
	<g id="Layer_1-2">
		
			<linearGradient id="SVGID_1_" gradientUnits="userSpaceOnUse" x1="113.815" y1="0.26" x2="113.815" y2="297.26" gradientTransform="matrix(1 0 0 -1 0 297.2602)">
			<stop  offset="0" style="stop-color:#AEAEAE"/>
			<stop  offset="1" style="stop-color:#D5D5D5"/>
		</linearGradient>
		<path class="st0" d="M207,64.2c-11.7-9.5-26.2-13.6-40.3-17.6c-26-7.3-44.7-12.5-44.7-46.6H99.8v202.1
			c-11.3-8.1-24.9-12.4-38.8-12.3c-33.6,0-61,24-61,53.6C0,273,27.4,297,61,297s61-24,61-53.6V103.4c11.4,8.7,25.3,12.6,38.7,16.3
			c26,7.3,44.7,12.5,44.7,46.6h22.2v-51.7C227.5,91.9,220.8,75.5,207,64.2z M205.4,114.6c-11.4-8.6-25.3-12.6-38.8-16.3
			c-26-7.3-44.7-12.5-44.7-46.6v-0.1c11.4,8.7,25.3,12.6,38.7,16.3C186.7,75.2,205.4,80.5,205.4,114.6L205.4,114.6L205.4,114.6z"/>
		
			<linearGradient id="SVGID_2_" gradientUnits="userSpaceOnUse" x1="227.5849" y1="9.993201e-03" x2="227.5849" y2="106.25" gradientTransform="matrix(1 0 0 -1 0 297.2602)">
			<stop  offset="0" style="stop-color:#858585"/>
			<stop  offset="1" style="stop-color:#BFBFBF"/>
		</linearGradient>
		<path class="st1" d="M263.3,207.3c-6.3-9.3-17.6-14.8-33.5-16.1l0,0c-1.1-0.1-2.2-0.2-3.4-0.2c-8,0-10.9,4-10.9,7.5v60l0,0
			c-3.2-1-6.6-1.2-9.9-0.8c-5.7,0.7-10.9,3.4-14.7,7.7c-3.6,4-5.3,9.4-4.6,14.7c1.2,9.8,10.4,17.1,21.2,17.1c1,0,2.1-0.1,3.1-0.2
			c11.3-1.4,19.5-10.4,19.5-21.3v-58.9c0.9-0.1,1.7-0.1,2.5-0.1c9.9,0,19.1,4.2,26.4,12c2.4,2.6,4.6,5.5,6.4,8.6
			c0.4,0.7,1.3,0.9,2,0.5c0.4-0.2,0.6-0.6,0.7-1C269.4,230.4,270.3,217.7,263.3,207.3z"/>
	</g>
</g>
</svg>
