<?xml version="1.0" encoding="utf-8"?>
<!-- Generator: Adobe Illustrator 21.0.2, SVG Export Plug-In . SVG Version: 6.00 Build 0)  -->
<svg version="1.1" id="Layer_1" xmlns="http://www.w3.org/2000/svg" xmlns:xlink="http://www.w3.org/1999/xlink" x="0px" y="0px"
	 viewBox="0 0 338.5 298" style="enable-background:new 0 0 338.5 298;" xml:space="preserve">
<style type="text/css">
	.st0{fill:url(#SVGID_1_);}
	.st1{fill:url(#SVGID_2_);}
	.st2{fill:url(#SVGID_3_);}
	.st3{fill:url(#SVGID_4_);}
</style>
<title>c</title>
<g id="Layer_2">
	<g id="Layer_1-2">
		
			<linearGradient id="SVGID_1_" gradientUnits="userSpaceOnUse" x1="169.17" y1="1.26" x2="169.17" y2="143.26" gradientTransform="matrix(1 0 0 -1 0 299.2602)">
			<stop  offset="0" style="stop-color:#AEAEAE"/>
			<stop  offset="1" style="stop-color:#D5D5D5"/>
		</linearGradient>
		<path class="st0" d="M18.8,271.4C21,286.6,35.5,298,52.7,298h232.9c17.2,0,31.7-11.5,33.8-26.5L338.3,156H0L18.8,271.4z
			 M248.8,186.4c0-5.6,5.1-10.1,11.4-10.1s11.4,4.5,11.4,10.1v60.9c0,5.6-5.1,10.1-11.4,10.1s-11.4-4.5-11.4-10.1V186.4z
			 M203.3,186.4c0-5.6,5.1-10.1,11.4-10.1s11.4,4.5,11.4,10.1v60.9c0,5.6-5.1,10.1-11.4,10.1s-11.4-4.5-11.4-10.1V186.4z
			 M157.8,186.4c0-5.6,5.1-10.1,11.4-10.1s11.4,4.5,11.4,10.1v60.9c0,5.6-5.1,10.1-11.4,10.1s-11.4-4.5-11.4-10.1V186.4z
			 M112.3,186.4c0-5.6,5.1-10.1,11.4-10.1s11.4,4.5,11.4,10.1v60.9c0,5.6-5.1,10.1-11.4,10.1s-11.4-4.5-11.4-10.1L112.3,186.4z
			 M66.7,186.4c0-5.6,5.1-10.1,11.4-10.1s11.4,4.5,11.4,10.1v60.9c0,5.6-5.1,10.1-11.4,10.1s-11.4-4.5-11.4-10.1V186.4z"/>
		
			<linearGradient id="SVGID_2_" gradientUnits="userSpaceOnUse" x1="239.5722" y1="209.92" x2="239.5722" y2="299.26" gradientTransform="matrix(1 0 0 -1 0 299.2602)">
			<stop  offset="0" style="stop-color:#858585"/>
			<stop  offset="1" style="stop-color:#BFBFBF"/>
		</linearGradient>
		<path class="st1" d="M244,89.3h32.4L228.4,7c-4.3-6.4-13-8.2-19.4-3.9c-5.9,3.9-7.9,11.7-4.7,18L244,89.3z"/>
		
			<linearGradient id="SVGID_3_" gradientUnits="userSpaceOnUse" x1="98.7373" y1="209.84" x2="98.7373" y2="299.23" gradientTransform="matrix(1 0 0 -1 0 299.2602)">
			<stop  offset="0" style="stop-color:#858585"/>
			<stop  offset="1" style="stop-color:#BFBFBF"/>
		</linearGradient>
		<path class="st2" d="M134.1,21.1c3.4-7,0.4-15.3-6.5-18.7c-6.2-3-13.6-1-17.6,4.6L62,89.4h32.4L134.1,21.1z"/>
		
			<linearGradient id="SVGID_4_" gradientUnits="userSpaceOnUse" x1="169.3" y1="159.83" x2="169.3" y2="189.42" gradientTransform="matrix(1 0 0 -1 0 299.2602)">
			<stop  offset="0" style="stop-color:#AEAEAE"/>
			<stop  offset="1" style="stop-color:#D5D5D5"/>
		</linearGradient>
		<path class="st3" d="M14.9,109.8h308.8c8.2,0,14.8,6.6,14.8,14.8v0c0,8.2-6.6,14.8-14.8,14.8H14.9c-8.2,0-14.8-6.6-14.8-14.8v0
			C0.1,116.5,6.7,109.8,14.9,109.8z"/>
	</g>
</g>
</svg>
