<?xml version="1.0" encoding="utf-8"?>
<!-- Generator: Adobe Illustrator 21.0.2, SVG Export Plug-In . SVG Version: 6.00 Build 0)  -->
<svg version="1.1" id="Layer_1" xmlns="http://www.w3.org/2000/svg" xmlns:xlink="http://www.w3.org/1999/xlink" x="0px" y="0px"
	 viewBox="0 0 326.1 296.5" style="enable-background:new 0 0 326.1 296.5;" xml:space="preserve">
<style type="text/css">
	.st0{fill:url(#SVGID_1_);}
	.st1{fill:url(#SVGID_2_);}
	.st2{fill:url(#SVGID_3_);}
</style>
<title>like</title>
<g id="Layer_2">
	<g id="Layer_1-2">
		
			<linearGradient id="SVGID_1_" gradientUnits="userSpaceOnUse" x1="162.9592" y1="9713.3604" x2="162.9592" y2="9649.3604" gradientTransform="matrix(1 0 0 1 0 -9623.2598)">
			<stop  offset="0" style="stop-color:#AEAEAE"/>
			<stop  offset="1" style="stop-color:#D5D5D5"/>
		</linearGradient>
		<path class="st0" d="M315.1,26.1H10.9c-2.4,0.3-4.1,2.4-3.9,4.8v54.4c-0.2,2.4,1.5,4.5,3.9,4.8H315c2.4-0.3,4.1-2.4,3.9-4.8V30.9
			C319.2,28.5,317.5,26.4,315.1,26.1z M304,67.7c0.2,2.4-1.5,4.5-3.9,4.8H180c-2.4-0.2-4.2-2.4-4-4.8V48.5c-0.2-2.4,1.6-4.6,4-4.8
			h120c2.4,0.3,4.1,2.4,3.9,4.8L304,67.7z"/>
		
			<linearGradient id="SVGID_2_" gradientUnits="userSpaceOnUse" x1="162.9592" y1="9799.8604" x2="162.9592" y2="9735.8604" gradientTransform="matrix(1 0 0 1 0 -9623.2598)">
			<stop  offset="0" style="stop-color:#858585"/>
			<stop  offset="1" style="stop-color:#BFBFBF"/>
		</linearGradient>
		<path class="st1" d="M315.1,112.6H10.9c-2.4,0.3-4.1,2.4-3.9,4.8v54.4c-0.2,2.4,1.5,4.5,3.9,4.8H315c2.4-0.3,4.1-2.4,3.9-4.8
			v-54.4C319.2,115,317.5,112.9,315.1,112.6z M304.6,154.2c0.2,2.4-1.5,4.5-3.9,4.8H158.4c-2.4-0.3-4.1-2.4-3.9-4.8v-19.1
			c-0.2-2.4,1.5-4.5,3.9-4.8h142.3c2.4,0.3,4.1,2.4,3.9,4.8V154.2z"/>
		
			<linearGradient id="SVGID_3_" gradientUnits="userSpaceOnUse" x1="162.9592" y1="9886.46" x2="162.9592" y2="9822.46" gradientTransform="matrix(1 0 0 1 0 -9623.2598)">
			<stop  offset="4.834468e-04" style="stop-color:#AEAEAE"/>
			<stop  offset="1" style="stop-color:#D5D5D5"/>
		</linearGradient>
		<path class="st2" d="M315.1,199.2H10.9c-2.4,0.3-4.1,2.4-3.9,4.8v54.4c-0.2,2.4,1.5,4.5,3.9,4.8H315c2.4-0.3,4.1-2.4,3.9-4.8V204
			C319.2,201.6,317.5,199.4,315.1,199.2z M304.6,240.8c0.2,2.4-1.5,4.5-3.9,4.8h-89.4c-2.4-0.3-4.1-2.4-3.9-4.8v-19.2
			c-0.2-2.4,1.5-4.5,3.9-4.8h89.4c2.4,0.3,4.1,2.4,3.9,4.8V240.8z"/>
	</g>
</g>
</svg>
