<?xml version="1.0" encoding="utf-8"?>
<!-- Generator: Adobe Illustrator 21.0.2, SVG Export Plug-In . SVG Version: 6.00 Build 0)  -->
<svg version="1.1" id="Layer_1" xmlns="http://www.w3.org/2000/svg" xmlns:xlink="http://www.w3.org/1999/xlink" x="0px" y="0px"
	 viewBox="0 0 340.6 298" style="enable-background:new 0 0 340.6 298;" xml:space="preserve">
<style type="text/css">
	.st0{fill:url(#SVGID_1_);}
	.st1{fill:url(#SVGID_2_);}
	.st2{fill:url(#SVGID_3_);}
	.st3{fill:url(#SVGID_4_);}
</style>
<title>n</title>
<g id="Layer_2">
	<g id="Layer_1-2">
		
			<linearGradient id="SVGID_1_" gradientUnits="userSpaceOnUse" x1="223.6922" y1="56.26" x2="223.6922" y2="299.26" gradientTransform="matrix(1 0 0 -1 0 299.2602)">
			<stop  offset="0" style="stop-color:#AEAEAE"/>
			<stop  offset="1" style="stop-color:#D5D5D5"/>
		</linearGradient>
		<path class="st0" d="M340.6,121.5c0-66.8-19.6-121-43.7-121.5h-27.3c0,0-64.8,48.7-158.1,67.8c-3.2,17.7-4.8,35.7-4.7,53.7
			c-0.1,18,1.5,36,4.7,53.7c93.3,19.1,158.1,67.8,158.1,67.8h27.3C321,242.5,340.6,188.3,340.6,121.5z M295.9,219.4
			c-1.7,1.9-5.1,5.2-8.2,5.2s-6.5-3.2-8.2-5.2c-4.2-4.7-8.2-12-11.7-21.1c-7.7-20.4-12-47.7-12-76.9s4.3-56.5,12-76.9
			c3.5-9.1,7.5-16.4,11.7-21.1c1.7-1.9,5.1-5.2,8.2-5.2s6.5,3.2,8.2,5.2c4.2,4.7,8.2,12,11.7,21.1c7.7,20.4,12,47.7,12,76.9
			s-4.3,56.5-12,76.9C304.1,207.5,300.1,214.7,295.9,219.4L295.9,219.4z"/>
		
			<linearGradient id="SVGID_2_" gradientUnits="userSpaceOnUse" x1="43.715" y1="128.2" x2="43.715" y2="227.37" gradientTransform="matrix(1 0 0 -1 0 299.2602)">
			<stop  offset="0" style="stop-color:#AEAEAE"/>
			<stop  offset="1" style="stop-color:#D5D5D5"/>
		</linearGradient>
		<path class="st1" d="M83.8,121.5c0-16.6,1.2-33.2,3.7-49.6c-15.5,2.3-31.1,3.4-46.7,3.4H18.5L0,106.8v29.3l18.5,31.5h22.3
			c15.6,0,31.2,1.2,46.7,3.4C84.9,154.7,83.7,138.1,83.8,121.5z"/>
		
			<linearGradient id="SVGID_3_" gradientUnits="userSpaceOnUse" x1="122.2507" y1="1.2438" x2="122.2507" y2="115.12" gradientTransform="matrix(1 0 0 -1 0 299.2602)">
			<stop  offset="0" style="stop-color:#FF9656"/>
			<stop  offset="0" style="stop-color:#B0B0B0"/>
			<stop  offset="1" style="stop-color:#D5D5D5"/>
		</linearGradient>
		<path class="st2" d="M122.4,192.3l-42.6-8.1l27.2,106.9c1.1,4.8,5.8,7.8,10.6,6.7c0.5-0.1,1.1-0.3,1.6-0.5l39.4-15.8
			c4.7-1.8,7.1-7,5.3-11.7c-0.2-0.5-0.4-0.9-0.6-1.3L122.4,192.3z"/>
		
			<linearGradient id="SVGID_4_" gradientUnits="userSpaceOnUse" x1="287.63" y1="138.04" x2="287.63" y2="217.53" gradientTransform="matrix(1 0 0 -1 0 299.2602)">
			<stop  offset="0" style="stop-color:#858585"/>
			<stop  offset="1" style="stop-color:#BFBFBF"/>
		</linearGradient>
		<path class="st3" d="M287.6,161.2c-1.2,0-2.5-1.2-3.2-2c-2-2.4-3.5-5.2-4.5-8.1c-3-7.9-4.6-18.4-4.6-29.6s1.7-21.8,4.6-29.6
			c1-3,2.5-5.7,4.5-8.1c0.7-0.7,2-2,3.2-2s2.5,1.2,3.2,2c2,2.4,3.5,5.2,4.5,8.1c3,7.8,4.6,18.4,4.6,29.6s-1.6,21.8-4.6,29.6
			c-1,3-2.5,5.7-4.5,8.1C290.1,160,288.8,161.2,287.6,161.2z"/>
	</g>
</g>
</svg>
