<?xml version="1.0" encoding="utf-8"?>
<!-- Generator: Adobe Illustrator 21.0.2, SVG Export Plug-In . SVG Version: 6.00 Build 0)  -->
<svg version="1.1" id="Layer_1" xmlns="http://www.w3.org/2000/svg" xmlns:xlink="http://www.w3.org/1999/xlink" x="0px" y="0px"
	 viewBox="0 0 376 296.4" style="enable-background:new 0 0 376 296.4;" xml:space="preserve">
<style type="text/css">
	.st0{fill:url(#SVGID_1_);}
	.st1{fill:url(#SVGID_2_);}
	.st2{fill:url(#SVGID_3_);}
</style>
<title>mind10</title>
<linearGradient id="SVGID_1_" gradientUnits="userSpaceOnUse" x1="-2836.0005" y1="59.6856" x2="-2836.0005" y2="297.265" gradientTransform="matrix(-1 0 0 -1 -2648 297.2602)">
	<stop  offset="0" style="stop-color:#AEAEAE"/>
	<stop  offset="1" style="stop-color:#D5D5D5"/>
</linearGradient>
<path class="st0" d="M369.5,144.1c-12,4.4-26-0.8-30.5,15.2c-0.5,1.7-6.8,3.5-8.8,2.4c-2.3-1.3-4.9-7.2-3.9-8.6
	c5.4-7.5,10.7-17.8,18.3-20.4c35-12.1,38.1-18.4,22.4-48.8c-8.9,7.3-18.4,14.9-27.6,22.8c-4.1,3.5-7.5,7.8-11.7,11.2
	c-7.8,6.3-15.4,13.2-24.1,17.8c-2.9,1.5-9.2-3.4-13.9-5.4c3.3-3.4,6.3-7.3,10-10.2c2.7-2.1,8.1-1.9,9.4-4.3
	c7.8-14.3,20.3-22.2,34-29.7c8-4.4,7.2-25-1.4-32.2c-18.2-15.3-37.3-29.4-63.8-30.3c-1.5,5.3-2.1,11.1-4.8,15.7
	c-1.9,3.2-6.9,4.5-10.5,6.6c-1.5-3.4-4.9-7.2-4.2-10c4.8-18.3-7.2-26.3-20.6-28.4c-27.4-4.3-55.1-6.8-82.9-7.4
	c-17.8-0.4-28.9,28.5-20.1,46.6c2.2,4.5,1.2,10.5,1.7,15.9c-5.2-3-13.9-5.3-14.8-9.3c-3.3-14.2-3.9-29.1-5.8-45.8l-48.2,30
	C92.5,48.9,98,69.1,101.6,90.5c1.2,7.1,3,14.1,5.3,20.9c4.3,12.5,12.7,19.9,26.9,18.1c14-1.7,24.7,1.8,32.6,15.1
	c3.4,5.6,12.4,7.6,18.6,11.7c3.6,2.4,6.8,5.4,10.2,8.1c-4.5,2.8-10.5,9-13.1,7.8c-10-4.5-20.3-10.1-27.8-17.9
	c-6.4-6.6-11.6-9.9-20.9-9.5c-21.9,1-34.7-8.1-41.6-29.1c-3.2-9.7-4.3-20.1-7.1-30c-2.3-7.8-4.4-16.2-9-22.6
	c-9.7-13.5-21.8-14.3-31.1-0.6c-15.1,22.2-28.3,45.7-41.5,69.1c-2.5,4.5-1.8,10.8-2.9,18.2c13.9-7.6,28.8-9.5,31.5-27.6
	c0.8-5.4,7.9-10.6,13.1-14.4c2.8-2,7.9-0.8,11.9-1c-0.6,4.1,0,8.8-2,12c-3.6,5.9-8.6,10.8-13.9,17.1c4.7,2.7,8,3.6,9.5,5.8
	c2,3,2.7,7,3.9,10.5c-3.5,1.1-6.9,2.5-10.5,3.3c-10.6,2.3-21.7,3.2-31.6,7.2c-3.9,1.6-8.1,11.6-6.5,15.1
	c2.5,5.5,10.5,12.8,15.1,12.1c16.5-2.2,32.8-6.4,48.3-12.3c10.2-4,17.5-12.6,12.9-26.2c-0.8-2.5,3-6.6,4.6-9.9c3.2,2,9,3.8,9.2,6.1
	c1,10.3,0.4,20.7,0.4,33.5c17.9,5.6,36.7,19.4,61.1,13.7c6-1.4,13,2.3,19.6,2.6c9.5,0.3,19.1-0.7,28.7-0.5c4.7,0.1,9.4,1.9,14.1,2.9
	c-3.1,3.9-6,8.1-9.5,11.6c-1.6,1.6-4.3,2.2-6.6,3.3c15.8,25.4,20.4,27.4,46,17.5c11.5-4.3,22.5-9.8,32.9-16.4
	c3.3-2.2,5.5-11.2,3.7-15.1c-15.4-33-35.3-60.9-76.8-62.5c-6.7-0.3-13.2-2.5-18.8-6.2c-14.6-10.3-28-22.3-48.1-19.9
	c-3.5,0.4-8.1-4.1-11.2-7.2c-1.6-1.7-2.3-6.1-1.3-8.1s5.1-4.3,7.4-3.9c14.4,2.6,28.6,6,43.2,9.2c9.8-11.3,8.6-20.2-3.8-32.1
	c-5.3-5.1-17-8.7-8.7-18.6c1.5-1.8,13.7,2.9,18.9,7.1c18.6,14.8,20.5,33,5.7,58.5l65,16.7c-4.2-17.1-8-34.8-13.3-52
	c-1-3.3-8.2-5.1-12.9-6.7c-18.2-6.1-27.6-19.2-29.9-37.5c-0.5-3.6,2.8-7.7,4.3-11.5c3.4,2.8,8.6,4.9,9.9,8.4
	c9.2,24.7,21.4,32,47.2,27.1c15.5-2.9,31.9,4,38,17.1c1.5,3.2-0.5,8.1-0.9,12.2c-3.6-0.9-7.7-1-10.8-2.7
	c-7.8-4.4-15.1-9.5-22.6-14.4l-4.8,4c1.1,7.8,2,15.7,3.4,23.5c2.6,15,5.4,30.1,8.5,45c0.8,3.9,2.4,7.6,4.5,11
	c5.7,9.2,13.5,17.4,17.4,27.3c6.4,16,17.3,15.5,29.9,11.1C349.2,187,359.4,167,369.5,144.1z"/>
<linearGradient id="SVGID_2_" gradientUnits="userSpaceOnUse" x1="-2733.95" y1="39.0632" x2="-2733.95" y2="99.2272" gradientTransform="matrix(-1 0 0 -1 -2648 297.2602)">
	<stop  offset="0" style="stop-color:#858585"/>
	<stop  offset="1" style="stop-color:#BFBFBF"/>
</linearGradient>
<path class="st1" d="M142.3,212.5c-20.9-5.3-40.4-13.1-60.3-14.3c-17.3-1.1-35.1,5.3-52.5,8.4c0.7,21.9,20.7,43.2,45,49.1
	C106.2,263.3,119.6,255.1,142.3,212.5z"/>
<linearGradient id="SVGID_3_" gradientUnits="userSpaceOnUse" x1="-2797.1614" y1="0.8461" x2="-2797.1614" y2="89.07" gradientTransform="matrix(-1 0 0 -1 -2648 297.2602)">
	<stop  offset="0" style="stop-color:#AEAEAE"/>
	<stop  offset="1" style="stop-color:#D5D5D5"/>
</linearGradient>
<path class="st2" d="M96.8,293.5c17.7,3,32.3,6.6,46.7-5.4c13.3-11,27.8-20.7,42.5-29.9c19.2-12.1,20.5-18.2,4-33.2
	c-7.7-7-16.7-12.4-22.6-16.8L96.8,293.5z"/>
</svg>
