<?xml version="1.0" encoding="utf-8"?>
<!-- Generator: Adobe Illustrator 21.0.2, SVG Export Plug-In . SVG Version: 6.00 Build 0)  -->
<svg version="1.1" id="Layer_1" xmlns="http://www.w3.org/2000/svg" xmlns:xlink="http://www.w3.org/1999/xlink" x="0px" y="0px"
	 viewBox="0 0 316.8 297" style="enable-background:new 0 0 316.8 297;" xml:space="preserve">
<style type="text/css">
	.st0{fill:url(#SVGID_1_);}
	.st1{fill:url(#SVGID_2_);}
	.st2{fill:url(#SVGID_3_);}
	.st3{fill:url(#SVGID_4_);}
	.st4{fill:url(#SVGID_5_);}
</style>
<title>h</title>
<g id="Layer_2">
	<g id="Layer_1-2">
		
			<linearGradient id="SVGID_1_" gradientUnits="userSpaceOnUse" x1="65" y1="0.27" x2="65" y2="148.76" gradientTransform="matrix(1 0 0 -1 0 297.2602)">
			<stop  offset="0" style="stop-color:#AEAEAE"/>
			<stop  offset="1" style="stop-color:#D5D5D5"/>
		</linearGradient>
		<path class="st0" d="M65,148.5c-14.6,0-27.8,12.3-27.8,27.8v92.8c0,15,13.2,27.8,27.8,27.8c15.4,0,27.8-12.5,27.8-27.8v-92.8
			C92.8,161,80.4,148.5,65,148.5z"/>
		
			<linearGradient id="SVGID_2_" gradientUnits="userSpaceOnUse" x1="158.4" y1="139.26" x2="158.4" y2="297.26" gradientTransform="matrix(1 0 0 -1 0 297.2602)">
			<stop  offset="0" style="stop-color:#AEAEAE"/>
			<stop  offset="0.9946" style="stop-color:#D5D5D5"/>
		</linearGradient>
		<path class="st1" d="M159,0C72,0,0,70.8,0,157.8v0.2c8-6.1,17.8-9.5,27.8-9.5l0,0c7.7-10,19.1-16.5,31.7-17.9
			c11.9-43.1,52.7-74.9,99.5-74.9c45.9,0.1,86,30.7,98.3,74.9c12.5,1.4,24,7.9,31.6,17.9l0,0c10.1,0,19.9,3.4,27.9,9.5v-0.2
			C316.8,70.8,246,0,159,0z"/>
		
			<linearGradient id="SVGID_3_" gradientUnits="userSpaceOnUse" x1="251.835" y1="0.26" x2="251.835" y2="148.76" gradientTransform="matrix(1 0 0 -1 0 297.2602)">
			<stop  offset="0" style="stop-color:#AEAEAE"/>
			<stop  offset="1" style="stop-color:#D5D5D5"/>
		</linearGradient>
		<path class="st2" d="M251.8,148.5c-15.4,0-27.8,12.5-27.8,27.8v92.8c0,15.4,12.5,27.8,27.8,27.9c14.9,0,27.8-13,27.8-27.8v-92.8
			C279.7,160.7,266.3,148.5,251.8,148.5z"/>
		
			<linearGradient id="SVGID_4_" gradientUnits="userSpaceOnUse" x1="9.28" y1="30.46" x2="9.28" y2="138.36" gradientTransform="matrix(1 0 0 -1 0 297.2602)">
			<stop  offset="0" style="stop-color:#858585"/>
			<stop  offset="1" style="stop-color:#BFBFBF"/>
		</linearGradient>
		<path class="st3" d="M0,185v55.7c0,11.8,7.5,22.2,18.6,26.1V158.9C7.5,162.8,0,173.2,0,185z"/>
		
			<linearGradient id="SVGID_5_" gradientUnits="userSpaceOnUse" x1="307.52" y1="30.46" x2="307.52" y2="138.36" gradientTransform="matrix(1 0 0 -1 0 297.2602)">
			<stop  offset="0" style="stop-color:#858585"/>
			<stop  offset="1" style="stop-color:#BFBFBF"/>
		</linearGradient>
		<path class="st4" d="M298.2,158.9v107.9c11.1-3.9,18.5-14.4,18.6-26.1V185C316.8,173.2,309.3,162.8,298.2,158.9z"/>
	</g>
</g>
</svg>
