<?xml version="1.0" encoding="utf-8"?>
<!-- Generator: Adobe Illustrator 21.0.2, SVG Export Plug-In . SVG Version: 6.00 Build 0)  -->
<svg version="1.1" id="Layer_1" xmlns="http://www.w3.org/2000/svg" xmlns:xlink="http://www.w3.org/1999/xlink" x="0px" y="0px"
	 viewBox="0 0 328.6 297" style="enable-background:new 0 0 328.6 297;" xml:space="preserve">
<style type="text/css">
	.st0{fill:url(#SVGID_1_);}
	.st1{fill:url(#SVGID_2_);}
	.st2{fill:url(#SVGID_3_);}
	.st3{fill:url(#SVGID_4_);}
</style>
<title>m</title>
<g id="Layer_2">
	<g id="Layer_1-2">
		
			<linearGradient id="SVGID_1_" gradientUnits="userSpaceOnUse" x1="185.0919" y1="175.06" x2="185.0919" y2="297.244" gradientTransform="matrix(1 0 0 -1 0 297.2602)">
			<stop  offset="0" style="stop-color:#858585"/>
			<stop  offset="1" style="stop-color:#BFBFBF"/>
		</linearGradient>
		<path class="st0" d="M100.5,101.2l105.2-55c14.4-7.5,32.2-2,39.7,12.4c0,0,0,0,0,0l22.3,42.6h16.6c14.5,0,27.8,8.1,34.5,21
			c9.2-5.7,12.5-17.5,7.5-27.1l-35-66.9c-5.3-10.1-17.7-14-27.8-8.7c0,0,0,0,0,0l-0.5,0.3l-4.6-8.8C253,1,240.6-2.9,230.5,2.4
			c0,0,0,0,0,0L41.6,101.2L100.5,101.2L100.5,101.2z"/>
		
			<linearGradient id="SVGID_2_" gradientUnits="userSpaceOnUse" x1="193.46" y1="196.1" x2="193.46" y2="236.31" gradientTransform="matrix(1 0 0 -1 0 297.2602)">
			<stop  offset="0" style="stop-color:#AEAEAE"/>
			<stop  offset="1" style="stop-color:#D5D5D5"/>
		</linearGradient>
		<path class="st1" d="M219.3,61c-1.8,0-3.6,0.4-5.2,1.3l-74.4,38.9h107.5L229.3,67C227.4,63.3,223.5,60.9,219.3,61z"/>
		
			<linearGradient id="SVGID_3_" gradientUnits="userSpaceOnUse" x1="163.045" y1="0.26" x2="163.045" y2="177.91" gradientTransform="matrix(1 0 0 -1 0 297.2602)">
			<stop  offset="0" style="stop-color:#AEAEAE"/>
			<stop  offset="1" style="stop-color:#D5D5D5"/>
		</linearGradient>
		<path class="st2" d="M305.5,149.8h-0.6v-9.9c0-11.4-9.2-20.6-20.6-20.6H41.8c-11.4,0-20.6,9.2-20.6,20.6v9.9h-0.6
			C9.2,149.8,0,159,0,170.4v75.5c0,11.4,9.2,20.6,20.6,20.6h0.6v9.9c0,11.4,9.2,20.6,20.5,20.6c0,0,0,0,0.1,0h242.5
			c11.4,0,20.6-9.2,20.6-20.6v-9.9h0.6c11.4,0,20.6-9.2,20.6-20.6v-75.5C326.1,159,316.9,149.8,305.5,149.8z M271.4,240.3
			c0,16.2-13.2,29.4-29.4,29.4H84c-16.2,0-29.4-13.2-29.4-29.4V176c0-16.2,13.2-29.4,29.4-29.4h158c16.2,0,29.4,13.2,29.4,29.4
			V240.3L271.4,240.3z"/>
		
			<linearGradient id="SVGID_4_" gradientUnits="userSpaceOnUse" x1="163.035" y1="45.76" x2="163.035" y2="132.44" gradientTransform="matrix(1 0 0 -1 0 297.2602)">
			<stop  offset="0" style="stop-color:#AEAEAE"/>
			<stop  offset="1" style="stop-color:#D5D5D5"/>
		</linearGradient>
		<path class="st3" d="M242,164.8H84c-6.2,0-11.1,5-11.2,11.2v64.2c0,6.2,5,11.3,11.2,11.3c0,0,0,0,0,0H242c6.2,0,11.2-5,11.2-11.2
			V176C253.2,169.8,248.2,164.8,242,164.8z M99.7,181.8h51.5c5,0,9.1,4.1,9.1,9.1c0,5-4.1,9.1-9.1,9.1H99.7c-5,0-9.1-4.1-9.1-9.1
			C90.6,185.9,94.7,181.8,99.7,181.8L99.7,181.8z M201.5,234.6H99.7c-5,0-9.1-4.1-9.1-9.1c0-5,4.1-9.1,9.1-9.1h101.8
			c5,0,9.1,4.1,9.1,9.1C210.6,230.5,206.5,234.5,201.5,234.6L201.5,234.6z"/>
	</g>
</g>
</svg>
