<svg xmlns="http://www.w3.org/2000/svg" viewBox="0 0 353.35 212.36"><defs><style>.cls-1{fill:#fff;}</style></defs><title>os_icon</title><g id="Layer_2" data-name="Layer 2"><g id="Layer_1-2" data-name="Layer 1"><path class="cls-1" d="M198.51,104.5c0,75.12-52,107.86-101.15,107.86-55,0-97.37-40.29-97.37-104.5C0,39.87,44.49,0,100.73,0,159.06,0,198.51,42.39,198.51,104.5ZM37.35,106.6c0,44.49,25.6,78.06,61.7,78.06,35.25,0,61.69-33.16,61.69-78.9,0-34.42-17.21-78.06-60.86-78.06S37.35,68,37.35,106.6Z"/><path class="cls-1" d="M229.54,170c10.91,7.13,30.22,14.69,48.68,14.69,26.86,0,39.45-13.43,39.45-30.22,0-17.63-10.49-27.28-37.77-37.35-36.51-13-53.72-33.16-53.72-57.5,0-32.74,26.44-59.6,70.09-59.6,20.56,0,38.61,5.88,49.94,12.59L337,39.45A79.06,79.06,0,0,0,295.43,27.7c-21.82,0-34,12.59-34,27.7,0,16.79,12.17,24.34,38.61,34.42,35.25,13.43,53.3,31.06,53.3,61.28,0,35.67-27.7,60.86-76,60.86-22.24,0-42.81-5.46-57.08-13.85Z"/></g></g></svg>