<svg xmlns="http://www.w3.org/2000/svg" viewBox="0 0 211.27 211.1"><defs><style>.cls-1{fill:#fff;fill-rule:evenodd;}</style></defs><title>browser_icon</title><g id="Layer_2" data-name="Layer 2"><g id="Layer_1-2" data-name="Layer 1"><g id="Forma_1" data-name="Forma 1"><path class="cls-1" d="M179.23,0H32A32.07,32.07,0,0,0,0,32v147a32.07,32.07,0,0,0,32,32h147a31.86,31.86,0,0,0,32.21-31.86V32A32.07,32.07,0,0,0,179.23,0ZM71,24.76A12.12,12.12,0,1,1,58.88,36.89,12,12,0,0,1,71,24.76Zm-34.63,0A12.12,12.12,0,1,1,24.24,36.89,12,12,0,0,1,36.37,24.76ZM187,179.23a7.76,7.76,0,0,1-7.79,7.79H32a7.76,7.76,0,0,1-7.79-7.79V74.46H187ZM187,38.1a10.42,10.42,0,0,1-10.39,10.39h-71A10.42,10.42,0,0,1,95.24,38.1V34.63a10.42,10.42,0,0,1,10.39-10.39h71A10.42,10.42,0,0,1,187,34.63Z"/></g></g></g></svg>