<svg xmlns="http://www.w3.org/2000/svg" xmlns:xlink="http://www.w3.org/1999/xlink" viewBox="0 0 438.24 225.04"><defs><style>.cls-1{fill:url(#linear-gradient);}.cls-2{fill:url(#linear-gradient-2);}.cls-3{fill:url(#linear-gradient-3);}</style><linearGradient id="linear-gradient" x1="71.89" y1="225.04" x2="71.89" y2="39.44" gradientUnits="userSpaceOnUse"><stop offset="0" stop-color="#ff4c67"/><stop offset="1" stop-color="#ffd270"/></linearGradient><linearGradient id="linear-gradient-2" x1="221.92" y1="224.65" x2="221.92" y2="0" xlink:href="#linear-gradient"/><linearGradient id="linear-gradient-3" x1="367.32" y1="224.82" x2="367.32" y2="43.04" xlink:href="#linear-gradient"/></defs><title>person</title><g id="Layer_2" data-name="Layer 2"><g id="Layer_1-2" data-name="Layer 1"><path class="cls-1" d="M0,214.89c11.8-6.49,23.48-13.23,35.46-19.38a203.84,203.84,0,0,1,21.39-9c3.68-1.39,5.84-3.58,6.75-7.34a64.61,64.61,0,0,1,2.26-6.81c.38-1,.68-2.48,1.48-3,7.65-4.55,4.24-12.23,5.4-18.6a2.37,2.37,0,0,0-.61-1.53c-8.29-10.94-9.72-24.37-13.24-37-.91-3.27-1.93-7.17,2.19-9.86.88-.57.85-2.85.88-4.35.22-9.58-.07-19.19.68-28.72.31-4,1.84-8.58,4.4-11.52,9.37-10.75,20.24-19.57,35.74-18.27a39.8,39.8,0,0,1,14.83,4c5.41,2.83,10.25,6.93,14.9,11A21.1,21.1,0,0,1,139.91,71c0,9,.07,18,.42,27,.08,2,1.55,3.85,2.33,5.8.45,1.11,1.18,2.29,1.11,3.4a46.09,46.09,0,0,1-1.21,8.75c-2,7.61-4.23,15.16-6.45,22.7-.47,1.61-.93,3.48-2,4.59-5.64,5.65-4.95,12.36-3.86,19.31a9.75,9.75,0,0,0,3.45,6.17c2.52,2.37,3.5,6.37,5.05,9.46-10.51,5.46-20.4,10.22-29.9,15.67-5.69,3.27-10.87,7.47-16,11.57a7.55,7.55,0,0,0-2.18,5c-.3,4.62-.1,9.27-.1,14.58H0Z"/><path class="cls-2" d="M103.52,224.65c-.12-.45-.16-.58-.19-.71-2-8.93,1.79-14.5,9.91-18.18,19.6-8.87,39-18.16,58.62-27,3.69-1.67,6-3.82,7.07-7.65a91.33,91.33,0,0,1,3-9.22c.59-1.5,1.46-3.54,2.72-4,3.4-1.32,4.21-3.8,4.4-6.93a26.5,26.5,0,0,1,.49-4.19c1.49-6.67.87-12.77-4.24-17.92a8.55,8.55,0,0,1-1.93-3.72q-5.3-19.71-10.42-39.46c-.64-2.48-.08-4.41,2.26-6.21,1.33-1,2-3.63,2-5.55.27-10.85.35-21.7.34-32.55,0-7.64,3-13.91,8.15-19.32,9.21-9.64,21-14.53,33.56-17.64,7.1-1.75,14.33-3,21.54-4.21a13.63,13.63,0,0,1,6.9.83c-1.08.93-2.16,1.86-3.24,2.79-2.68,2.34-2.84,4.65,0,7.06,5.23,4.5,10.36,9.14,15.65,13.58,5.7,4.79,8.16,10.89,8.12,18.23-.07,11-.12,22,.12,33,0,2,1.58,3.85,2.34,5.81.48,1.23,1.23,2.56,1.12,3.79-.63,7.66-.62,15.37-4.65,22.47-2,3.59-2.56,8-4,12-1.22,3.27-3,6.33-4.24,9.58s-2.79,6.82-3.23,10.35c-.56,4.44-.18,9-.11,13.51,0,.94.1,2.34.68,2.74,5,3.39,5.46,9,7,14s4.53,7.5,9.2,9.46C290.68,187,308.8,195,327,203c1,.45,2,1,3,1.54,10.8,5.67,11.81,7.55,10.64,20.14Z"/><path class="cls-3" d="M438.24,224.82H353.53c0-4.73.26-9.34-.12-13.9-.18-2.15-1-4.9-2.54-6.18-5.15-4.3-10.4-8.7-16.25-11.9C325,187.58,314.94,183.22,304,178c2.72-1.48,4.77-3.1,7.1-3.74,3.87-1.07,6.34-3.25,6.78-7.14.6-5.28.95-10.6,1.06-15.91.07-3.1-1.82-5.14-4.76-6.31-5-2-9.88-4.1-14.8-6.2-2.58-1.1-3.67-2.84-2.57-5.72,7.17-18.81,9.09-38.52,10.42-58.41.36-5.45,2.57-10.92,4.7-16.06A17.68,17.68,0,0,1,324,48a27,27,0,0,0,3.9-1.6c21.83-10,45,3.27,47.77,27.3,1.44,12.58,2.44,25.23,4.37,37.74,1,6.62,3.49,13,5.46,19.48,1.71,5.61,1.54,6.21-4,8.59-4.13,1.79-8.26,3.61-12.47,5.19-3.3,1.24-5.36,3.47-5.2,6.89a110.83,110.83,0,0,0,1.8,17.08c.4,1.95,3.08,3.59,5,5,1.3,1,3.46.87,4.58,1.94,9.21,8.75,21.36,11.65,32.45,16.66,5,2.25,10.16,4.28,14.77,7.17C431.56,205.12,436.45,213.76,438.24,224.82Z"/></g></g></svg>