<svg xmlns="http://www.w3.org/2000/svg" viewBox="0 0 274.44 214.5"><defs><style>.cls-1{fill:#fff;fill-rule:evenodd;}</style></defs><title>devices_brands_icon</title><g id="Layer_2" data-name="Layer 2"><g id="Layer_1-2" data-name="Layer 1"><g id="Forma_1" data-name="Forma 1"><path class="cls-1" d="M118.37,34.25c7.45-9.08,12.49-21.68,11.11-34.25C118.74.44,105.73,7.18,98,16.24c-6.91,8-13,20.87-11.34,33.19C98.67,50.37,110.9,43.32,118.37,34.25ZM145.26,114c-.27-27.16,22.06-40.19,23.06-40.84-12.55-18.44-32.09-21-39.06-21.26-16.63-1.69-32.46,9.83-40.9,9.83s-21.45-9.58-35.24-9.33C35,52.65,18.28,63,8.94,79.27c-18.84,32.82-4.82,81.45,13.54,108.07,9,13,19.67,27.67,33.71,27.14,13.53-.54,18.64-8.79,35-8.79s20.95,8.79,35.26,8.52c14.55-.27,23.78-13.28,32.68-26.35a118.53,118.53,0,0,0,14.79-30.5C173.6,157.21,145.54,146.42,145.26,114Z"/></g><g id="Forma_1-2" data-name="Forma 1"><path class="cls-1" d="M236.64,66.18l4.65-8.94a.92.92,0,1,0-1.63-.85l-4.72,9.07a33.13,33.13,0,0,0-23.82,0l-4.72-9.07a.92.92,0,1,0-1.63.85l4.65,8.94a33.1,33.1,0,0,0-19.23,26.47h65.69A33.1,33.1,0,0,0,236.64,66.18ZM208.34,87a5.33,5.33,0,1,1,5.32-5.33A5.33,5.33,0,0,1,208.34,87Zm29.38,0A5.33,5.33,0,1,1,243,81.62,5.33,5.33,0,0,1,237.72,87ZM179,92.65a7.37,7.37,0,0,0-7.34,7.35v29.4a7.34,7.34,0,1,0,14.69,0V100A7.37,7.37,0,0,0,179,92.65Zm88.13,0a7.37,7.37,0,0,0-7.34,7.35v29.4a7.34,7.34,0,1,0,14.69,0V100A7.37,7.37,0,0,0,267.09,92.65ZM190,140.42a11,11,0,0,0,11,11h3.67v14.7a7.34,7.34,0,1,0,14.69,0v-14.7h7.34v14.7a7.34,7.34,0,1,0,14.69,0v-14.7h3.67a11,11,0,0,0,11-11V100H190Z"/></g></g></g></svg>