<svg xmlns="http://www.w3.org/2000/svg" viewBox="0 0 368.35 213.57"><defs><style>.cls-1,.cls-2{fill:#fff;}.cls-2{font-size:134.44px;font-family:MyriadPro-Semibold, Myriad Pro;font-weight:700;}</style></defs><title>device_name_icon</title><g id="Layer_2" data-name="Layer 2"><g id="Layer_1-2" data-name="Layer 1"><path class="cls-1" d="M270.57,166.83v.3c0,12.26-9.58,22.29-21.28,22.29H88.09V24.16H249.28c11.71,0,21.28,10,21.28,22.29v.3h27.2V22.29C297.76,10,288.18,0,276.48,0H21.28C9.58,0,0,10,0,22.29v169c0,12.26,9.58,22.29,21.28,22.29H276.48c11.71,0,21.28-10,21.28-22.29V166.83ZM41.38,124.66c-9.43,0-17.07-8-17.07-17.88S32,88.91,41.38,88.91s17.07,8,17.07,17.88S50.81,124.66,41.38,124.66Z"/><text class="cls-2" transform="translate(214.55 150.52)">Aa</text></g></g></svg>