<svg xmlns="http://www.w3.org/2000/svg" xmlns:xlink="http://www.w3.org/1999/xlink" viewBox="0 0 962 962"><defs><style>.cls-1{fill:url(#linear-gradient);}.cls-2{fill:#fff;stroke:#fff;stroke-miterlimit:10;stroke-width:12px;}</style><linearGradient id="linear-gradient" x1="481" y1="962" x2="481" gradientUnits="userSpaceOnUse"><stop offset="0" stop-color="#ff4c67"/><stop offset="0.17" stop-color="#ff5565"/><stop offset="0.46" stop-color="#ff6f5e"/><stop offset="0.82" stop-color="#ff9853"/><stop offset="1" stop-color="#ffaf4d"/></linearGradient></defs><title>unknown_browser</title><g id="Layer_2" data-name="Layer 2"><g id="Layer_1-2" data-name="Layer 1"><circle class="cls-1" cx="481" cy="481" r="481"/><path class="cls-2" d="M222.57,666.58q0-185.8,0-371.59c.26-1.61.56-3.22.78-4.84a78.32,78.32,0,0,1,57.92-65c4.63-1.18,9.43-1.74,14.15-2.58H666.58c1.77.26,3.53.54,5.3.78A78.42,78.42,0,0,1,737.29,283c.91,4,1.44,8,2.14,12V667.44c-.43,2.68-.83,5.35-1.28,8-5,29.66-29.11,55.22-58.47,61.76-4.18.93-8.45,1.48-12.67,2.21H295.42c-2.61-.41-5.24-.7-7.82-1.24Q239,728.12,225.12,680.48C223.81,676,223.39,671.22,222.57,666.58ZM680.1,405H281.9v3.05q0,71,0,142,0,55.17,0,110.35c0,11.86,7.93,20,19.55,20q179.74,0,359.49,0a20.25,20.25,0,0,0,5.51-.75c8.64-2.48,13.63-9.73,13.63-19.62q0-126.19,0-252.37C680.1,406.82,680.1,406,680.1,405ZM567.83,341.26h59.7c9.48,0,19,.17,28.45-.1A24.64,24.64,0,0,0,679.44,321c.84-4.9.58-10,.56-15a22.23,22.23,0,0,0-4.3-12.88c-5.46-7.76-13-11.23-22.49-11.22q-85.35.1-170.69,0c-.79,0-1.58,0-2.37,0a25.18,25.18,0,0,0-23.5,18.3,46.13,46.13,0,0,0-.54,20.1c2.15,12.67,12.56,20.85,25.73,20.87Q524.84,341.29,567.83,341.26Zm-171.62,1.25a29.63,29.63,0,1,0-29.62-29.72A29.49,29.49,0,0,0,396.21,342.51ZM281.92,313a29.62,29.62,0,1,0,29.64-29.73A29.36,29.36,0,0,0,281.92,313Z"/></g></g></svg>