<svg xmlns="http://www.w3.org/2000/svg" viewBox="0 0 962 962"><defs><style>.cls-1{fill:#a4c639;}.cls-2{fill:#fff;}</style></defs><title>android</title><g id="Layer_2" data-name="Layer 2"><g id="Layer_1-2" data-name="Layer 1"><circle class="cls-1" cx="481" cy="481" r="481"/><path class="cls-2" d="M715.25,363.38a39,39,0,0,0-38.87,38.87v155.5a38.87,38.87,0,1,0,77.75,0V402.25A39,39,0,0,0,715.25,363.38Zm-466.5,0a39,39,0,0,0-38.87,38.87v155.5a38.87,38.87,0,1,0,77.75,0V402.25A39,39,0,0,0,248.75,363.38Zm58.31,252.69a58.31,58.31,0,0,0,58.31,58.31h19.44v77.75a38.87,38.87,0,1,0,77.75,0V674.38h38.87v77.75a38.87,38.87,0,1,0,77.75,0V674.38h19.44a58.31,58.31,0,0,0,58.31-58.31V402.25H307.06Zm247-392.7,24.6-47.26a4.86,4.86,0,1,0-8.62-4.49l-25,48a175.51,175.51,0,0,0-126.09,0l-25-48a4.86,4.86,0,0,0-8.62,4.49L410,223.36a175.08,175.08,0,0,0-101.82,140H655.85A175.07,175.07,0,0,0,554,223.36ZM404.25,333.25a28.18,28.18,0,1,1,28.18-28.18A28.18,28.18,0,0,1,404.25,333.25Zm155.5,0a28.18,28.18,0,1,1,28.18-28.18A28.19,28.19,0,0,1,559.75,333.25Z"/></g></g></svg>