<svg xmlns="http://www.w3.org/2000/svg" viewBox="0 0 962 962"><defs><style>.cls-1{fill:#2195f1;}.cls-2{fill:#fff;}</style></defs><title>android-appview</title><g id="Layer_2" data-name="Layer 2"><g id="Layer_1-2" data-name="Layer 1"><circle class="cls-1" cx="481" cy="481" r="481"/><g id="language"><path class="cls-2" d="M481,131c-192.5,0-350,157.5-350,350S288.5,831,481,831,831,673.5,831,481,673.5,131,481,131ZM722.5,341H621c-10.5-45.5-28-84-49-126C635,239.5,691,281.5,722.5,341ZM481,201c28,42,52.5,87.5,66.5,140h-133C428.5,292,453,243,481,201ZM211.5,551c-7-21-10.5-45.5-10.5-70s3.5-49,10.5-70h119c-3.5,24.5-3.5,45.5-3.5,70s3.5,45.5,3.5,70Zm28,70H341c10.5,45.5,28,84,49,126C327,722.5,271,680.5,239.5,621ZM341,341H239.5c35-59.5,87.5-101.5,150.5-126C369,257,351.5,295.5,341,341ZM481,761c-28-42-52.5-87.5-66.5-140h133C533.5,670,509,719,481,761Zm80.5-210h-161c-3.5-24.5-7-45.5-7-70s3.5-45.5,7-70H565c3.5,24.5,7,45.5,7,70S565,526.5,561.5,551ZM572,747c21-38.5,38.5-80.5,49-126H722.5C691,680.5,635,722.5,572,747Zm63-196c3.5-24.5,3.5-45.5,3.5-70s-3.5-45.5-3.5-70H754c7,21,10.5,45.5,10.5,70S761,530,754,551Z"/></g></g></g></svg>