<svg xmlns="http://www.w3.org/2000/svg" xmlns:xlink="http://www.w3.org/1999/xlink" viewBox="0 0 962 962"><defs><style>.cls-1{fill:#d6002a;}.cls-2{fill:url(#linear-gradient);}</style><linearGradient id="linear-gradient" x1="481" y1="831.2" x2="481" y2="130.8" gradientUnits="userSpaceOnUse"><stop offset="0" stop-color="#e6e6e6"/><stop offset="0.26" stop-color="#e4e4e4"/><stop offset="0.36" stop-color="#ddd"/><stop offset="0.43" stop-color="#d2d2d2"/><stop offset="0.48" stop-color="#c1c1c1"/><stop offset="0.51" stop-color="#b3b3b3"/><stop offset="0.54" stop-color="#c4c4c4"/><stop offset="0.58" stop-color="#dadada"/><stop offset="0.62" stop-color="#ebebeb"/><stop offset="0.68" stop-color="#f6f6f6"/><stop offset="0.77" stop-color="#fdfdfd"/><stop offset="1" stop-color="#fff"/></linearGradient></defs><title>Asset 110</title><g id="Layer_2" data-name="Layer 2"><g id="Layer_1-2" data-name="Layer 1"><circle class="cls-1" cx="481" cy="481" r="481"/><path class="cls-2" d="M479.1,831.18C283.68,829.09,126.7,670,130.79,474.71,135,275.33,295.57,133.64,473.62,130.84c200.22-3.15,356.65,152.81,357.66,351.91C832.26,675.3,669.69,833.22,479.1,831.18Zm-1.61-176c-1-7.46-1.76-10.06-1.55-12.58a110.53,110.53,0,0,1,2.13-14.11c9.08-42.09,1.69-82.08-15.86-120.57-2-4.29-9.24-10.65-11.15-9.77-29,13.43-60.71,23.57-76.62,55.29-21,41.9-8.92,94.36,32.58,126.34,40.6,31.28,87,39.25,136.46,23.89,15.13-4.7,29.87-10.62,45-15.4,5.27-1.67,12.39-4,16.42-1.84,10.34,5.53,17,.69,24.32-4.93C760.52,581.34,764.37,391.21,637,286.3c-9.78-8.05-20.71-14.7-33.39-23.6,4.5,24.72,8.55,45.38,12,66.14,10.51,63.55-8.62,99.8-66.54,128.69-4,2-7.28,9.27-7.57,14.28-.68,11.51,2.34,23.34.95,34.69-6.09,49.76-27.45,94-51.58,137.11C488.69,647.44,483.87,649.79,477.49,655.19ZM582.71,255C529.76,223.47,411,219,335,277.95,270.43,328,234.18,392,233.48,474.41c8.95-14.65,15.36-30.71,24.23-45.26,27.13-44.5,68.52-70.9,116-89.72C442.91,312,511.81,283.71,582.71,255Z"/></g></g></svg>