<svg xmlns="http://www.w3.org/2000/svg" viewBox="0 0 962 962"><defs><style>.cls-1{fill:#0078d7;}.cls-2{fill:#fff;}</style></defs><title>ms_edge</title><g id="Layer_2" data-name="Layer 2"><g id="Layer_1-2" data-name="Layer 1"><circle class="cls-1" cx="481" cy="481" r="481"/><path class="cls-2" d="M418.86,331.32c-23.67,25.65-35.51,57.21-39.45,90.74h209.1V406.28c-2-21.7-5.92-43.4-17.75-63.13-15.78-25.65-41.43-39.45-71-43.4-43.4-7.89-84.82,0-124.28,15.78-59.18,21.7-108.5,57.21-148,104.55-5.92,7.89-11.84,17.75-19.73,27.62,0-5.92,0-7.89,2-11.84,7.89-55.23,27.62-108.5,65.1-151.9Q340,207,440.56,189.29c65.1-9.86,126.25,0,183.46,33.53,53.26,29.59,88.77,75,110.47,132.17,11.84,31.56,17.75,67.07,19.73,100.61v73H383.35c0,29.59,9.86,57.21,29.59,78.91,23.67,25.65,55.23,37.48,86.8,43.4,71,9.86,136.11-2,197.27-37.48,2,0,3.95-2,3.95-2h2V729.8c0,3.95-2,5.92-5.92,7.89-43.4,21.7-90.74,35.51-140.06,37.48-31.56,2-63.13,2-92.71-3.95-92.71-19.73-167.68-86.8-185.43-183.46C259.08,477.3,312.34,376.69,416.89,331.32Z"/></g></g></svg>