<svg xmlns="http://www.w3.org/2000/svg" xmlns:xlink="http://www.w3.org/1999/xlink" viewBox="0 0 958 958"><defs><style>.cls-1{fill:#fff;}.cls-2{fill:url(#linear-gradient);}</style><linearGradient id="linear-gradient" x1="479" y1="789.51" x2="479" y2="168.49" gradientUnits="userSpaceOnUse"><stop offset="0" stop-color="#005ddc"/><stop offset="1" stop-color="#00bffd"/></linearGradient></defs><title>fb_messenger</title><g id="Layer_2" data-name="Layer 2"><g id="Layer_1-2" data-name="Layer 1"><circle class="cls-1" cx="479" cy="479" r="479"/><path class="cls-2" d="M475.73,168.49h6.52c1.15.12,2.3.33,3.45.35a304.1,304.1,0,0,1,143.11,38.68,292,292,0,0,1,80.44,66.22,276.1,276.1,0,0,1,42.48,68,265.66,265.66,0,0,1,8.5,190.61,271.42,271.42,0,0,1-35.12,69.5A286.75,286.75,0,0,1,675,656.73a299.26,299.26,0,0,1-123.93,62.36,313.42,313.42,0,0,1-49.38,7.6,289.39,289.39,0,0,1-43,.1,340.42,340.42,0,0,1-57.77-9.51,6,6,0,0,0-5,.81Q338.06,753,280.15,787.88c-.88.53-1.8,1-3,1.63V786.1q0-66,0-132a5.11,5.11,0,0,0-1.81-4.22,287.5,287.5,0,0,1-29.87-31.31,275.36,275.36,0,0,1-37.44-59.77,261.63,261.63,0,0,1-22.4-80.52,266.54,266.54,0,0,1,.67-65,263.85,263.85,0,0,1,20.92-73.77,278.38,278.38,0,0,1,66.94-92.19A296.9,296.9,0,0,1,382.5,184.06a280,280,0,0,1,51.77-12.12c12.21-1.59,24.56-2.08,36.85-3.07Zm-43,295.15,77.58,77.55L664.09,372.05l-.56-.76L525.22,448.12l-77.58-77.55L293.89,539.7l.56.76Z"/></g></g></svg>