<svg xmlns="http://www.w3.org/2000/svg" viewBox="0 0 958 958"><defs><style>.cls-1{fill:#3b5998;}.cls-2{fill:#fff;}</style></defs><title>facebook</title><g id="Layer_2" data-name="Layer 2"><g id="Layer_1-2" data-name="Layer 1"><circle class="cls-1" cx="479" cy="479" r="479"/><path class="cls-2" d="M639.48,158.14,556.22,158c-93.53,0-154,62-154,158v72.85H318.54a13.09,13.09,0,0,0-13.09,13.1V507.49a13.09,13.09,0,0,0,13.09,13.09h83.71V786.91A13.09,13.09,0,0,0,415.34,800H524.55a13.09,13.09,0,0,0,13.09-13.09V520.58h97.87a13.09,13.09,0,0,0,13.09-13.09l0-105.55a13.1,13.1,0,0,0-13.1-13.1H537.64V327.09c0-29.68,7.07-44.75,45.74-44.75l56.08,0a13.09,13.09,0,0,0,13.08-13.09v-98A13.09,13.09,0,0,0,639.48,158.14Z"/></g></g></svg>