<svg xmlns="http://www.w3.org/2000/svg" xmlns:xlink="http://www.w3.org/1999/xlink" viewBox="0 0 931 960.92"><defs><style>.cls-1{fill:#c199ff;}.cls-2{fill:url(#radial-gradient);}.cls-3{fill:url(#linear-gradient);}.cls-4{fill:url(#radial-gradient-2);}.cls-5{fill:#d2a7fc;}.cls-6{fill:url(#radial-gradient-3);}.cls-7{fill:#fff;}.cls-8{fill:url(#linear-gradient-2);}.cls-9{fill:url(#linear-gradient-3);}.cls-10{fill:#fcfcfc;}.cls-11{fill:url(#linear-gradient-4);}.cls-12{fill:url(#linear-gradient-5);}</style><radialGradient id="radial-gradient" cx="-7427.49" cy="3906.87" r="772.67" gradientTransform="matrix(1.23, 0, 0, -1.23, 9746.24, 4974.51)" gradientUnits="userSpaceOnUse"><stop offset="0" stop-color="#c42482"/><stop offset="1" stop-color="#8e6aff"/></radialGradient><linearGradient id="linear-gradient" x1="527.97" y1="-5267.68" x2="341.02" y2="-4656.14" gradientTransform="matrix(1, 0, 0, -1, 0, -4555.59)" gradientUnits="userSpaceOnUse"><stop offset="0" stop-color="#000c34" stop-opacity="0.4"/><stop offset="0.48" stop-color="#001251" stop-opacity="0.17"/><stop offset="1" stop-color="#001667" stop-opacity="0"/></linearGradient><radialGradient id="radial-gradient-2" cx="772.72" cy="753.73" r="96.86" gradientUnits="userSpaceOnUse"><stop offset="0" stop-color="#fff"/><stop offset="1" stop-color="#aaf"/></radialGradient><radialGradient id="radial-gradient-3" cx="-7886.01" cy="2300.3" r="399.36" gradientTransform="matrix(1.22, 0.12, 0.12, -1.22, 10326.95, 4586.42)" gradientUnits="userSpaceOnUse"><stop offset="0" stop-color="#f50021"/><stop offset="1" stop-color="#aaf"/></radialGradient><linearGradient id="linear-gradient-2" x1="731.37" y1="910.62" x2="731.37" gradientUnits="userSpaceOnUse"><stop offset="0" stop-color="#fff"/><stop offset="0.19" stop-color="#f9f6ff"/><stop offset="0.51" stop-color="#e7dcff"/><stop offset="0.92" stop-color="#cbb3ff"/><stop offset="1" stop-color="#c5aaff"/></linearGradient><linearGradient id="linear-gradient-3" x1="-8590.63" y1="2607.2" x2="-8312.94" y2="2677.98" gradientTransform="matrix(1.22, 0.12, 0.12, -1.22, 10326.95, 4586.42)" gradientUnits="userSpaceOnUse"><stop offset="0" stop-color="#d1aaff"/><stop offset="0.19" stop-color="#d6b3ff"/><stop offset="0.51" stop-color="#e4cdff"/><stop offset="0.92" stop-color="#faf6ff"/><stop offset="1" stop-color="#fff"/></linearGradient><linearGradient id="linear-gradient-4" x1="450.05" y1="-5510.38" x2="450.11" y2="-5437.35" gradientTransform="matrix(1, 0.1, 0.1, -1, 473.34, -4871.96)" gradientUnits="userSpaceOnUse"><stop offset="0" stop-color="#937fff" stop-opacity="0.81"/><stop offset="1" stop-color="#af0771" stop-opacity="0"/></linearGradient><linearGradient id="linear-gradient-5" x1="315.42" y1="636.6" x2="802.25" y2="636.6" xlink:href="#linear-gradient-2"/></defs><title>firefox_focus</title><g id="Layer_2" data-name="Layer 2"><g id="Layer_1-2" data-name="Layer 1"><path class="cls-1" d="M752.21,89.41c-23.39,27.23-34.28,88.51-10.56,150.64s60.06,48.63,82.71,112c29.9,83.59,16,195.88,16,195.88s36,104.11,61-6.48C956.8,333.72,752.21,140.56,752.21,89.41Z"/><path id="_Path_" data-name=" Path " class="cls-2" d="M466.86,951.77c239.48,0,433.49-195.05,433.49-435.56S706.34,80.65,467.09,80.65,33.84,275.7,33.84,516.21C33.37,757,227.61,951.77,466.86,951.77Z"/><path class="cls-3" d="M791.66,784.78a241.09,241.09,0,0,1-29.42,17.76,687.49,687.49,0,0,0,37.4-61.48c9.24-10.22,17.7-20.16,24.6-30.91,3.36-5.28,7.14-11.8,11.15-19.35,24.34-43.85,51.17-114.8,51.93-187.69v-.18c0-1.79,0-3.59,0-5.39a251.56,251.56,0,0,0-5.58-54.44c.2,1.4.37,2.79.54,4.19-.22-1.07-.4-2.16-.63-3.24.36,2,.64,3.91,1,5.84,5,42.2,1.43,83.37-16.29,113.72-.28.44-.57.86-.85,1.29,9.19-46.13,12.26-97.06,2-148,0,0-4.09-24.79-34.55-100C815.44,273.51,784.31,238,756.8,212.13c-24.11-29.83-46-49.85-58.08-62.56C673.51,123,662.94,103.12,658.6,90.14c-3.76-1.89-51.89-48.64-55.71-50.42-21,32.57-87.07,134.45-55.64,229.63,14.24,43.14,50.26,87.91,88,113,1.66,1.89,22.43,24.45,32.31,75.35,10.2,52.58,4.84,93.61-16.16,154.28-24.69,53.23-88,105.85-147.19,111.23-126.63,11.5-173-63.58-173-63.58,45.25,18.09,95.28,14.31,125.7-4.45,30.66-19,49.21-33,64.27-27.49,14.84,5.52,26.66-10.5,16.06-27.12a76.66,76.66,0,0,0-77.54-33.76c-30.7,5-58.81,29.3-99,5.76a83.52,83.52,0,0,1-7.55-4.94c-2.65-1.74,8.62,2.65,6,.67-7.83-4.25-21.68-13.52-25.27-16.81-.6-.55,6.07,2.13,5.47,1.58-37.61-31-32.91-51.89-31.73-65,.95-10.5,7.78-23.95,19.29-29.4,5.56,3,9,5.35,9,5.35s-2.37-4.84-3.65-7.4c.45-.2.88-.14,1.33-.33,4.55,2.2,14.63,7.91,19.93,11.39,6.91,4.87,9.11,9.21,9.11,9.21s1.82-1,.47-5.25c-.49-1.74-2.58-7.28-9.43-12.86l.43,0a79.29,79.29,0,0,1,11.59,8c1.93-7,5.4-14.33,4.63-27.43-.47-9.21-.25-11.59-1.87-15.15-1.45-3.05.81-4.25,3.34-1.07a32.06,32.06,0,0,0-2.16-7.23l0-.24c3.15-11,66.65-39.51,71.27-42.85a65.77,65.77,0,0,0,18.68-20.31c3.53-5.63,6.19-13.52,6.84-25.5.35-8.64-3.67-14.39-67.88-21.11-17.56-1.73-27.86-14.45-33.72-26.19-1.07-2.53-2.16-4.82-3.25-7.11a56.64,56.64,0,0,1-2.5-8.23c10.5-30.15,28.13-55.64,54.07-74.9,1.41-1.29-5.65.33-4.23-1,1.65-1.5,12.41-5.84,14.44-6.81,2.48-1.17-10.63-6.74-22.2-5.38-11.79,1.33-14.29,2.73-20.58,5.4,2.61-2.6,10.91-6,9-6-12.71,1.95-28.49,9.33-42,17.7a10.48,10.48,0,0,1,.82-4.25c-6.29,2.67-21.74,13.46-26.23,22.6a43.29,43.29,0,0,0,.26-5.27,82.5,82.5,0,0,0-12.89,13.49l-.24.21c-36.48-14.7-68.59-15.65-95.75-9.06-5.94-6-8.85-1.61-22.37-31.32-.92-1.79.71,1.77,0,0-2.22-5.76,1.36,7.69,0,0-22.74,17.94-52.66,38.27-67,52.63-.18.57,16.75-4.79,0,0-5.87,1.68-5.47,5.16-6.36,36.62-.21,2.39,0,5.06-.22,7.2C106,291,98.23,303.36,95.27,309.77c-14.84,25.57-31.18,65.42-47,128.46A326.52,326.52,0,0,1,73.44,389C60.26,422.48,47.53,475,45,556a472.27,472.27,0,0,1,12.24-49.47A461.94,461.94,0,0,0,91.15,702.83,479.06,479.06,0,0,0,141,796c80.6,84.8,194.28,137.59,320.16,137.59C592.56,933.58,710.56,876.09,791.66,784.78Z"/><path class="cls-4" d="M694.42,846.38c159-18.42,229.46-182.32,139-185.54C751.79,658.22,619.08,855.07,694.42,846.38Z"/><path class="cls-5" d="M844.91,627.35c109.43-63.68,80.9-201.25,80.9-201.25s-42.23,49.06-70.92,127.26C826.54,630.81,779.12,665.82,844.91,627.35Z"/><path class="cls-6" d="M497.52,927.77c152.56,48.68,283.68-71.5,202.86-111.64C626.9,779.94,425.11,904.75,497.52,927.77Z"/><path class="cls-7" d="M856.28,685.76c3.71-5.24,8.73-22,13.16-29.5,26.93-43.48,27.13-78.15,27.13-78.94,16.27-81.27,14.79-114.45,4.79-175.82-8.06-49.41-43.28-120.2-73.8-154.29-31.44-35.12-9.29-23.68-39.74-49.33-26.69-29.58-52.56-58.88-66.65-70.66C619.34,42.08,621.64,24,623.6,20.92c-.33.36-.82.9-1.44,1.6-1.21-4.81-2.06-8.85-2.06-8.85s-55.66,55.66-67.38,148.43c-7.65,60.57,15,123.7,47.85,164.06a372.42,372.42,0,0,0,57.62,56.64v0c24.8,35.62,38.46,79.58,38.46,126.86,0,118.4-96,214.38-214.5,214.38a215.28,215.28,0,0,1-48-5.39C378.27,708,346,679.78,329.9,660.64c-9.23-11-13.15-19-13.15-19,50.08,17.94,105.45,14.19,139.13-4.41C489.81,618.45,510.34,604.5,527,610c16.43,5.47,29.5-10.42,17.77-26.89-11.49-16.45-41.41-40-85.82-33.48-34,4.95-65.09,29.06-109.61,5.71a94.05,94.05,0,0,1-8.35-4.9c-2.93-1.73,9.54,2.63,6.63.67-8.66-4.22-24-13.41-28-16.67-.66-.54,6.72,2.11,6.05,1.56-41.62-30.71-36.42-51.46-35.12-64.47,1-10.41,8.61-23.75,21.35-29.16,6.15,3,10,5.31,10,5.31s-2.62-4.8-4-7.34c.5-.19,1-.14,1.46-.33,5,2.18,16.19,7.84,22.06,11.3,7.64,4.83,10.08,9.14,10.08,9.14s2-1,.52-5.2c-.54-1.73-2.86-7.22-10.43-12.76l.47,0a88.72,88.72,0,0,1,12.83,8c2.13-7,6-14.22,5.13-27.21-.52-9.13-.28-11.5-2.07-15-1.61-3,.9-4.21,3.69-1.06a29.33,29.33,0,0,0-2.39-7.17l0-.24c3.49-10.88,73.76-39.18,78.88-42.49a68.66,68.66,0,0,0,20.68-20.15c3.91-5.58,6.85-13.41,7.57-25.29.24-5.35-1.41-9.59-20-13.64-11.17-2.43-28.45-4.8-55.11-7.3-19.43-1.71-30.84-14.33-37.32-26-1.18-2.51-2.39-4.79-3.59-7.05a51.86,51.86,0,0,1-2.76-8.16,154.75,154.75,0,0,1,59.84-74.28c1.56-1.28-6.25.33-4.69-.95,1.82-1.49,13.73-5.79,16-6.76,2.75-1.16-11.76-6.68-24.57-5.34-13,1.32-15.81,2.71-22.78,5.36,2.89-2.58,12.08-6,9.92-5.93-14.06,1.93-31.54,9.26-46.48,17.55a9.45,9.45,0,0,1,.9-4.21c-7,2.65-24.06,13.35-29,22.41a38.56,38.56,0,0,0,.29-5.23,86.6,86.6,0,0,0-14.26,13.38l-.26.21c-40.38-14.57-75.91-15.52-106-9-6.58-5.92-17.15-14.87-32.12-44.33-1-1.77-1.56,3.67-2.34,1.91-5.82-13.49-9.33-35.59-8.75-50.83,0,0-12,5.48-22,28.38-1.85,4.12-3,6.39-4.22,8.66-.54.66,1.24-7.52,1-7.07-1.73,2.93-6.21,7-8.17,12.32-1.35,3.93-3.25,6.13-4.46,11l-.28.45c-.1-1.44.36-5.94,0-5a230.56,230.56,0,0,0-12,29.14c-5.36,17.62-11.6,41.61-12.59,72.82-.24,2.37,0,5-.24,7.15-12.7,14.5-21.35,26.77-24.62,33.13-16.41,25.36-34.5,64.89-52,127.41A311.66,311.66,0,0,1,31.49,373.3C16.91,406.49,2.82,458.6,0,538.85a428.23,428.23,0,0,1,13.55-49.06C11,543.31,17.26,609.65,51.09,684.51c20.09,44,66.33,133.44,179.31,203.22h0s38.44,28.61,104.51,50.06c4.88,1.77,9.83,3.52,14.88,5.21-1.58-.64-3.12-1.31-4.6-2a473.51,473.51,0,0,0,135.54,19.92c171.07.15,221.52-68.55,221.52-68.55l-.5.37q3.62-3.41,7-7.09c-27,25.49-88.59,27.18-111.62,25.34,39.28-11.54,65.13-21.29,115.4-40.54q8.82-3.27,18-7.46c.67-.29,1.34-.61,2-.91,1.22-.57,2.43-1.11,3.66-1.7a341,341,0,0,0,68.61-43c50.49-40.33,61.47-79.64,67.21-105.56-.8,2.48-3.3,8.28-5,12-13,27.81-41.84,44.88-73.15,59.52a672.83,672.83,0,0,0,41.39-61C845.46,712.28,848.65,696.42,856.28,685.76Z"/><path class="cls-8" d="M794.83,782.19c20.59-22.7,39.07-48.66,53.07-78.09,36-75.76,91.75-201.73,47.87-333.3C861.09,266.82,813.47,210,753,154.41,654.83,64.21,627.41,23.95,627.41,0c0,0-113.37,126.37-64.2,258.18s149.86,127,216.48,264.52C858.08,684.55,716.26,861.18,599,910.62c7.18-1.59,260.71-59,274-204C872.71,709.3,867,749.41,794.83,782.19Z"/><path class="cls-9" d="M466.39,311.88c.38-8.56-4.06-14.32-74.88-21-29.14-2.69-40.3-29.62-43.7-41-10.36,26.92-14.64,55.16-12.34,89.33,1.57,22.38,16.61,46.41,23.8,60.51,0,0,1.6-2.08,2.33-2.84,13.54-14.09,70.25-35.56,75.58-38.61C443,354.64,465.4,338.31,466.39,311.88Z"/><path class="cls-10" d="M154.6,152.8c-1-1.78-1.56,3.67-2.34,1.91-5.82-13.49-9.35-35.35-8.52-50.8,0,0-12,5.48-22,28.38-1.85,4.12-3,6.39-4.22,8.66-.54.66,1.24-7.52,1-7.07-1.73,2.93-6.21,7-8.15,12.08-1.61,4.14-3.27,6.36-4.5,11.5-.38,1.4.38-6.17.05-5.25C82.73,197,78.31,264.62,80.75,261.75c49.29-52.64,105.78-65.12,105.78-65.12-6-4.43-19.07-17.21-31.93-43.84Z"/><path class="cls-7" d="M341.64,703.21C273.55,674.14,196.14,633.13,199.06,540c4-122.67,114.4-98.43,114.4-98.43-4.17,1-15.31,8.95-19.26,17.4-4.17,10.57-11.79,34.45,11.28,59.47,36.22,39.25-74.41,93.12,96.35,194.89,4.31,2.34-40-1.4-60.19-10.11Z"/><path class="cls-11" d="M317.45,642.08c48.28,16.8,104.53,13.86,138.2-4.74,22.54-12.55,51.46-32.65,69.26-27.69-15.41-6.09-27.08-8.94-41.11-9.63-2.39,0-5.26-.05-7.86-.31a133,133,0,0,0-15.39.84c-8.69.8-18.33,6.28-27.08,5.4-.47,0,8.5-3.69,7.77-3.52-4.64,1-9.68,1.18-15,1.84-3.39.38-6.3.8-9.66.94C316,613.73,231,550.7,231,550.7c-7.23,24.36,32.39,72.56,86.44,91.38Z"/><path class="cls-7" d="M794.65,782.84C896.37,683,947.83,561.57,926.07,425.41c0,0,8.69,69.82-24.27,141.24,15.83-69.72,17.68-156.36-24.39-246.08C821.28,200.81,728.94,137.8,693.69,111.51c-53.41-39.83-75.55-80.39-76-88.76-16,32.69-64.22,144.72-5.19,241.21C667.86,354.35,755,381.18,816,464.1,928.36,616.85,794.65,782.84,794.65,782.84Z"/><path class="cls-12" d="M780.07,523c-35.55-73.44-79.92-105.47-121.89-140.18,4.88,6.84,6.09,9.25,8.79,13.67,36.94,39.37,91.41,135.4,51.86,256-74.44,226.92-372.2,120.07-403.42,90,12.63,131.33,232.45,194.18,375.58,109C772.44,774.4,838.33,643.33,780.07,523Z"/></g></g></svg>