<svg xmlns="http://www.w3.org/2000/svg" xmlns:xlink="http://www.w3.org/1999/xlink" viewBox="0 0 931 960.92"><defs><style>.cls-1{opacity:0.1;isolation:isolate;fill:url(#radial-gradient);}.cls-2{fill:url(#radial-gradient-2);}.cls-3{fill:url(#radial-gradient-3);}.cls-4{fill:url(#linear-gradient);}.cls-5{fill:url(#radial-gradient-4);}.cls-6{fill:url(#radial-gradient-5);}.cls-7{fill:url(#radial-gradient-6);}.cls-8{fill:url(#radial-gradient-7);}.cls-9{fill:url(#radial-gradient-8);}.cls-10{fill:url(#linear-gradient-2);}.cls-11{fill:url(#linear-gradient-3);}.cls-12{fill:url(#linear-gradient-4);}.cls-13{fill:url(#linear-gradient-5);}.cls-14{fill:url(#linear-gradient-6);}.cls-15{fill:url(#linear-gradient-7);}</style><radialGradient id="radial-gradient" cx="-4900.98" cy="6748.89" r="312" gradientTransform="matrix(0.03, -1, -1, -0.03, 7290.49, -3867.07)" gradientUnits="userSpaceOnUse"><stop offset="0" stop-color="#e04e17"/><stop offset="1" stop-color="#ed810f"/></radialGradient><radialGradient id="radial-gradient-2" cx="-14154.28" cy="8505.3" fx="-14182.3640395741" r="440.3" gradientTransform="matrix(0.76, 0.03, 0.05, -1.12, 11247.18, 10247.6)" gradientUnits="userSpaceOnUse"><stop offset="0.04" stop-color="#ffe500"/><stop offset="0.12" stop-color="#fdd600"/><stop offset="0.25" stop-color="#fab000"/><stop offset="0.43" stop-color="#f87800"/><stop offset="0.77" stop-color="#f50021"/><stop offset="0.87" stop-color="#d00149"/><stop offset="0.95" stop-color="#b80665"/><stop offset="1" stop-color="#af0771"/></radialGradient><radialGradient id="radial-gradient-3" cx="-7787.31" cy="8097.13" r="772.67" gradientTransform="matrix(1.23, 0, 0, -1.23, 10187.01, 10107.59)" gradientUnits="userSpaceOnUse"><stop offset="0" stop-color="#2ac2d1"/><stop offset="0.22" stop-color="#106eff"/><stop offset="0.26" stop-color="#0d64fa"/><stop offset="0.33" stop-color="#034ae5"/><stop offset="0.33" stop-color="#0249e4"/><stop offset="0.44" stop-color="#1a289f"/><stop offset="0.52" stop-color="#2e1273"/><stop offset="0.57" stop-color="#370a63"/></radialGradient><linearGradient id="linear-gradient" x1="527.97" y1="-653.68" x2="341.02" y2="-42.14" gradientTransform="matrix(1, 0, 0, -1, 0, 58.41)" gradientUnits="userSpaceOnUse"><stop offset="0" stop-color="#000c34" stop-opacity="0.4"/><stop offset="0.48" stop-color="#001251" stop-opacity="0.17"/><stop offset="1" stop-color="#001667" stop-opacity="0"/></linearGradient><radialGradient id="radial-gradient-4" cx="-8481.17" cy="6794.81" r="260.62" gradientTransform="matrix(1.22, 0.12, 0.12, -1.22, 10472.21, 9946.61)" gradientUnits="userSpaceOnUse"><stop offset="0" stop-color="#ffe500"/><stop offset="0.5" stop-color="#f50021"/><stop offset="1" stop-color="#af0771"/></radialGradient><radialGradient id="radial-gradient-5" cx="-8504.75" cy="7044.72" r="435.22" gradientTransform="matrix(1.22, 0.12, 0.12, -1.22, 10472.21, 9946.61)" gradientUnits="userSpaceOnUse"><stop offset="0" stop-color="#ffe400"/><stop offset="0.16" stop-color="#f99d00"/><stop offset="0.32" stop-color="#f7620c"/><stop offset="0.47" stop-color="#f5331a"/><stop offset="0.62" stop-color="#f50922"/><stop offset="0.76" stop-color="#f50027"/><stop offset="0.89" stop-color="#f4002b"/><stop offset="1" stop-color="#f4002b"/></radialGradient><radialGradient id="radial-gradient-6" cx="-8443.19" cy="6641.28" r="399.36" gradientTransform="matrix(1.22, 0.12, 0.12, -1.22, 10472.21, 9946.61)" gradientUnits="userSpaceOnUse"><stop offset="0" stop-color="#f50021"/><stop offset="0.5" stop-color="#af0771"/><stop offset="0.99" stop-color="#4c0000"/></radialGradient><radialGradient id="radial-gradient-7" cx="698.41" cy="-326.39" fx="725.7318983220422" fy="-339.89102664383773" r="763.83" gradientTransform="matrix(1, 0, 0, -1, 0, 58.41)" gradientUnits="userSpaceOnUse"><stop offset="0.16" stop-color="#ffe500"/><stop offset="0.23" stop-color="#fdd600"/><stop offset="0.36" stop-color="#fab000"/><stop offset="0.54" stop-color="#f87800"/><stop offset="0.76" stop-color="#f50021"/><stop offset="0.8" stop-color="#ed0026"/><stop offset="0.84" stop-color="#da0036"/><stop offset="0.89" stop-color="#bc0051"/><stop offset="0.94" stop-color="#9e006e"/></radialGradient><radialGradient id="radial-gradient-8" cx="640.94" cy="57.15" r="901.95" gradientTransform="matrix(1, 0, 0, -1, 0, 58.41)" gradientUnits="userSpaceOnUse"><stop offset="0.28" stop-color="#ffe500"/><stop offset="0.4" stop-color="#fdd500"/><stop offset="0.63" stop-color="#faaa00"/><stop offset="0.86" stop-color="#f87c00"/><stop offset="0.93" stop-color="#f64e04"/><stop offset="0.99" stop-color="#f52f13"/></radialGradient><linearGradient id="linear-gradient-2" x1="-9147.81" y1="6948.18" x2="-8870.12" y2="7018.97" gradientTransform="matrix(1.22, 0.12, 0.12, -1.22, 10472.21, 9946.61)" gradientUnits="userSpaceOnUse"><stop offset="0" stop-color="#af0771" stop-opacity="0.5"/><stop offset="0.47" stop-color="#f50021" stop-opacity="0.5"/><stop offset="0.49" stop-color="#f50920" stop-opacity="0.51"/><stop offset="0.68" stop-color="#f7620b" stop-opacity="0.72"/><stop offset="0.83" stop-color="#f9a100" stop-opacity="0.87"/><stop offset="0.94" stop-color="#fccc00" stop-opacity="0.96"/><stop offset="1" stop-color="#fddc00"/></linearGradient><linearGradient id="linear-gradient-3" x1="261.38" y1="1265.53" x2="208.09" y2="1402.09" gradientTransform="matrix(1, 0.1, 0.1, -1, -246.29, 1486.82)" gradientUnits="userSpaceOnUse"><stop offset="0" stop-color="#720441" stop-opacity="0.6"/><stop offset="1" stop-color="#af0771" stop-opacity="0"/></linearGradient><linearGradient id="linear-gradient-4" x1="35.67" y1="-530.68" x2="127.57" y2="-635.06" gradientTransform="matrix(1, 0.1, 0.1, -1, 232.85, -73.6)" gradientUnits="userSpaceOnUse"><stop offset="0.01" stop-color="#720441" stop-opacity="0.5"/><stop offset="0.48" stop-color="#f50021" stop-opacity="0.5"/><stop offset="1" stop-color="#f50021" stop-opacity="0"/></linearGradient><linearGradient id="linear-gradient-5" x1="209.51" y1="-712.07" x2="209.58" y2="-639.05" gradientTransform="matrix(1, 0.1, 0.1, -1, 232.85, -73.6)" gradientUnits="userSpaceOnUse"><stop offset="0" stop-color="#af0771"/><stop offset="0.08" stop-color="#af0771" stop-opacity="0.81"/><stop offset="0.21" stop-color="#af0771" stop-opacity="0.56"/><stop offset="0.33" stop-color="#af0771" stop-opacity="0.36"/><stop offset="0.45" stop-color="#af0771" stop-opacity="0.2"/><stop offset="0.56" stop-color="#af0771" stop-opacity="0.09"/><stop offset="0.67" stop-color="#af0771" stop-opacity="0.02"/><stop offset="0.77" stop-color="#af0771" stop-opacity="0"/></linearGradient><linearGradient id="linear-gradient-6" x1="605.97" y1="23.14" x2="904.46" y2="-644.32" gradientTransform="matrix(1, 0, 0, -1, 0, 58.41)" gradientUnits="userSpaceOnUse"><stop offset="0" stop-color="#ffee31"/><stop offset="0.27" stop-color="#ffea2e"/><stop offset="0.45" stop-color="#fde025"/><stop offset="0.61" stop-color="#fccf16"/><stop offset="0.76" stop-color="#fbb600"/><stop offset="0.89" stop-color="#f99800"/><stop offset="0.9" stop-color="#f99600"/><stop offset="0.95" stop-color="#f88c00"/><stop offset="1" stop-color="#f87c00"/></linearGradient><linearGradient id="linear-gradient-7" x1="664.91" y1="-360.73" x2="523.52" y2="-740.36" gradientTransform="matrix(1, 0, 0, -1, 0, 58.41)" gradientUnits="userSpaceOnUse"><stop offset="0" stop-color="#f87800"/><stop offset="0.04" stop-color="#f87800" stop-opacity="0.86"/><stop offset="0.08" stop-color="#f87800" stop-opacity="0.73"/><stop offset="0.13" stop-color="#f87800" stop-opacity="0.63"/><stop offset="0.18" stop-color="#f87800" stop-opacity="0.56"/><stop offset="0.23" stop-color="#f87800" stop-opacity="0.51"/><stop offset="0.28" stop-color="#f87800" stop-opacity="0.5"/><stop offset="0.39" stop-color="#f87800" stop-opacity="0.48"/><stop offset="0.52" stop-color="#f87800" stop-opacity="0.42"/><stop offset="0.68" stop-color="#f87800" stop-opacity="0.31"/><stop offset="0.84" stop-color="#f87800" stop-opacity="0.17"/><stop offset="1" stop-color="#f87800" stop-opacity="0"/></linearGradient></defs><title>firefox</title><g id="Layer_2" data-name="Layer 2"><g id="Layer_1-2" data-name="Layer 1"><path class="cls-1" d="M536.94,899.24h0m0-2.52c2.8,7,29.36,17.05,90.3,14.26,49.48-2.24,77.16-21.25,77.16-21.25S684,899,615.5,901.48C556.23,903.16,537.78,897.29,536.94,896.73Zm-37.46-19.29c49.48,10.9,111,1.4,111,1.4s-59,.56-119.94-14c-65.14-15.38-83.59-36.06-83.31-36.34,1.12,11.18,42.77,38,92.26,48.93Zm41.66-4.19c36.06,4.47,73.81-.84,73.81-.84A739.52,739.52,0,0,1,534.7,866c-41.94-5.87-57.87-12.58-57.87-13.14C481,860.66,514.85,869.89,541.13,873.24Zm-122.45-7a210.71,210.71,0,0,0,57.87,18.45s-48.09-17.61-69.61-30.47c-21.25-12.86-38.58-24-39.14-25.16C372.55,837.46,390.44,854,418.68,866.25Z"/><path class="cls-2" d="M752.21,89.41c-23.39,27.23-34.28,88.51-10.56,150.64s60.06,48.63,82.71,112c29.9,83.59,16,195.88,16,195.88s36,104.11,61-6.48C956.8,333.72,752.21,140.56,752.21,89.41Z"/><path id="_Path_" data-name=" Path " class="cls-3" d="M466.86,951.77c239.48,0,433.49-195.05,433.49-435.56S706.34,80.65,467.09,80.65,33.84,275.7,33.84,516.21C33.37,757,227.61,951.77,466.86,951.77Z"/><path class="cls-4" d="M791.66,784.78a241.09,241.09,0,0,1-29.42,17.76,687.49,687.49,0,0,0,37.4-61.48c9.24-10.22,17.7-20.16,24.6-30.91,3.36-5.28,7.14-11.8,11.15-19.35,24.34-43.85,51.17-114.8,51.93-187.69v-.18c0-1.79,0-3.59,0-5.39a251.56,251.56,0,0,0-5.58-54.44c.2,1.4.37,2.79.54,4.19-.22-1.07-.4-2.16-.63-3.24.36,2,.64,3.91,1,5.84,5,42.2,1.43,83.37-16.29,113.72-.28.44-.57.86-.85,1.29,9.19-46.13,12.26-97.06,2-148,0,0-4.09-24.79-34.55-100C815.44,273.51,784.31,238,756.8,212.13c-24.11-29.83-46-49.85-58.08-62.56C673.51,123,662.94,103.12,658.6,90.14c-3.76-1.89-51.89-48.64-55.71-50.42-21,32.57-87.07,134.45-55.64,229.63,14.24,43.14,50.26,87.91,88,113,1.66,1.89,22.43,24.45,32.31,75.35,10.2,52.58,4.84,93.61-16.16,154.28-24.69,53.23-88,105.85-147.19,111.23-126.63,11.5-173-63.58-173-63.58,45.25,18.09,95.28,14.31,125.7-4.45,30.66-19,49.21-33,64.27-27.49,14.84,5.52,26.66-10.5,16.06-27.12a76.66,76.66,0,0,0-77.54-33.76c-30.7,5-58.81,29.3-99,5.76a83.52,83.52,0,0,1-7.55-4.94c-2.65-1.74,8.62,2.65,6,.67-7.83-4.25-21.68-13.52-25.27-16.81-.6-.55,6.07,2.13,5.47,1.58-37.61-31-32.91-51.89-31.73-65,.95-10.5,7.78-23.95,19.29-29.4,5.56,3,9,5.35,9,5.35s-2.37-4.84-3.65-7.4c.45-.2.88-.14,1.33-.33,4.55,2.2,14.63,7.91,19.93,11.39,6.91,4.87,9.11,9.21,9.11,9.21s1.82-1,.47-5.25c-.49-1.74-2.58-7.28-9.43-12.86l.43,0a79.29,79.29,0,0,1,11.59,8c1.93-7,5.4-14.33,4.63-27.43-.47-9.21-.25-11.59-1.87-15.15-1.45-3.05.81-4.25,3.34-1.07a32.06,32.06,0,0,0-2.16-7.23l0-.24c3.15-11,66.65-39.51,71.27-42.85a65.77,65.77,0,0,0,18.68-20.31c3.53-5.63,6.19-13.52,6.84-25.5.35-8.64-3.67-14.39-67.88-21.11-17.56-1.73-27.86-14.45-33.72-26.19-1.07-2.53-2.16-4.82-3.25-7.11a56.64,56.64,0,0,1-2.5-8.23c10.5-30.15,28.13-55.64,54.07-74.9,1.41-1.29-5.65.33-4.23-1,1.65-1.5,12.41-5.84,14.44-6.81,2.48-1.17-10.63-6.74-22.2-5.38-11.79,1.33-14.29,2.73-20.58,5.4,2.61-2.6,10.91-6,9-6-12.71,1.95-28.49,9.33-42,17.7a10.48,10.48,0,0,1,.82-4.25c-6.29,2.67-21.74,13.46-26.23,22.6a43.29,43.29,0,0,0,.26-5.27,82.5,82.5,0,0,0-12.89,13.49l-.24.21c-36.48-14.7-68.59-15.65-95.75-9.06-5.94-6-8.85-1.61-22.37-31.32-.92-1.79.71,1.77,0,0-2.22-5.76,1.36,7.69,0,0-22.74,17.94-52.66,38.27-67,52.63-.18.57,16.75-4.79,0,0-5.87,1.68-5.47,5.16-6.36,36.62-.21,2.39,0,5.06-.22,7.2C106,291,98.23,303.36,95.27,309.77c-14.84,25.57-31.18,65.42-47,128.46A326.52,326.52,0,0,1,73.44,389C60.26,422.48,47.53,475,45,556a472.27,472.27,0,0,1,12.24-49.47A461.94,461.94,0,0,0,91.15,702.83,479.06,479.06,0,0,0,141,796c80.6,84.8,194.28,137.59,320.16,137.59C592.56,933.58,710.56,876.09,791.66,784.78Z"/><path class="cls-5" d="M694.42,846.38c159-18.42,229.46-182.32,139-185.54C751.79,658.22,619.08,855.07,694.42,846.38Z"/><path class="cls-6" d="M844.91,627.35c109.43-63.68,80.9-201.25,80.9-201.25s-42.23,49.06-70.92,127.26C826.54,630.81,779.12,665.82,844.91,627.35Z"/><path class="cls-7" d="M497.52,927.77c152.56,48.68,283.68-71.5,202.86-111.64C626.9,779.94,425.11,904.75,497.52,927.77Z"/><path class="cls-8" d="M856.28,685.76c3.71-5.24,8.73-22,13.16-29.5,26.93-43.48,27.13-78.15,27.13-78.94,16.27-81.27,14.79-114.45,4.79-175.82-8.06-49.41-43.28-120.2-73.8-154.29-31.44-35.12-9.29-23.68-39.74-49.33-26.69-29.58-52.56-58.88-66.65-70.66C619.34,42.08,621.64,24,623.6,20.92c-.33.36-.82.9-1.44,1.6-1.21-4.81-2.06-8.85-2.06-8.85s-55.66,55.66-67.38,148.43c-7.65,60.57,15,123.7,47.85,164.06a372.42,372.42,0,0,0,57.62,56.64v0c24.8,35.62,38.46,79.58,38.46,126.86,0,118.4-96,214.38-214.5,214.38a215.28,215.28,0,0,1-48-5.39C378.27,708,346,679.78,329.9,660.64c-9.23-11-13.15-19-13.15-19,50.08,17.94,105.45,14.19,139.13-4.41C489.81,618.45,510.34,604.5,527,610c16.43,5.47,29.5-10.42,17.77-26.89-11.49-16.45-41.41-40-85.82-33.48-34,4.95-65.09,29.06-109.61,5.71a94.05,94.05,0,0,1-8.35-4.9c-2.93-1.73,9.54,2.63,6.63.67-8.66-4.22-24-13.41-28-16.67-.66-.54,6.72,2.11,6.05,1.56-41.62-30.71-36.42-51.46-35.12-64.47,1-10.41,8.61-23.75,21.35-29.16,6.15,3,10,5.31,10,5.31s-2.62-4.8-4-7.34c.5-.19,1-.14,1.46-.33,5,2.18,16.19,7.84,22.06,11.3,7.64,4.83,10.08,9.14,10.08,9.14s2-1,.52-5.2c-.54-1.73-2.86-7.22-10.43-12.76l.47,0a88.72,88.72,0,0,1,12.83,8c2.13-7,6-14.22,5.13-27.21-.52-9.13-.28-11.5-2.07-15-1.61-3,.9-4.21,3.69-1.06a29.33,29.33,0,0,0-2.39-7.17l0-.24c3.49-10.88,73.76-39.18,78.88-42.49a68.66,68.66,0,0,0,20.68-20.15c3.91-5.58,6.85-13.41,7.57-25.29.24-5.35-1.41-9.59-20-13.64-11.17-2.43-28.45-4.8-55.11-7.3-19.43-1.71-30.84-14.33-37.32-26-1.18-2.51-2.39-4.79-3.59-7.05a51.86,51.86,0,0,1-2.76-8.16,154.75,154.75,0,0,1,59.84-74.28c1.56-1.28-6.25.33-4.69-.95,1.82-1.49,13.73-5.79,16-6.76,2.75-1.16-11.76-6.68-24.57-5.34-13,1.32-15.81,2.71-22.78,5.36,2.89-2.58,12.08-6,9.92-5.93-14.06,1.93-31.54,9.26-46.48,17.55a9.45,9.45,0,0,1,.9-4.21c-7,2.65-24.06,13.35-29,22.41a38.56,38.56,0,0,0,.29-5.23,86.6,86.6,0,0,0-14.26,13.38l-.26.21c-40.38-14.57-75.91-15.52-106-9-6.58-5.92-17.15-14.87-32.12-44.33-1-1.77-1.56,3.67-2.34,1.91-5.82-13.49-9.33-35.59-8.75-50.83,0,0-12,5.48-22,28.38-1.85,4.12-3,6.39-4.22,8.66-.54.66,1.24-7.52,1-7.07-1.73,2.93-6.21,7-8.17,12.32-1.35,3.93-3.25,6.13-4.46,11l-.28.45c-.1-1.44.36-5.94,0-5a230.56,230.56,0,0,0-12,29.14c-5.36,17.62-11.6,41.61-12.59,72.82-.24,2.37,0,5-.24,7.15-12.7,14.5-21.35,26.77-24.62,33.13-16.41,25.36-34.5,64.89-52,127.41A311.66,311.66,0,0,1,31.49,373.3C16.91,406.49,2.82,458.6,0,538.85a428.23,428.23,0,0,1,13.55-49.06C11,543.31,17.26,609.65,51.09,684.51c20.09,44,66.33,133.44,179.31,203.22h0s38.44,28.61,104.51,50.06c4.88,1.77,9.83,3.52,14.88,5.21-1.58-.64-3.12-1.31-4.6-2a473.51,473.51,0,0,0,135.54,19.92c171.07.15,221.52-68.55,221.52-68.55l-.5.37q3.62-3.41,7-7.09c-27,25.49-88.59,27.18-111.62,25.34,39.28-11.54,65.13-21.29,115.4-40.54q8.82-3.27,18-7.46c.67-.29,1.34-.61,2-.91,1.22-.57,2.43-1.11,3.66-1.7a341,341,0,0,0,68.61-43c50.49-40.33,61.47-79.64,67.21-105.56-.8,2.48-3.3,8.28-5,12-13,27.81-41.84,44.88-73.15,59.52a672.83,672.83,0,0,0,41.39-61C845.46,712.28,848.65,696.42,856.28,685.76Z"/><path class="cls-9" d="M794.83,782.19c20.59-22.7,39.07-48.66,53.07-78.09,36-75.76,91.75-201.73,47.87-333.3C861.09,266.82,813.47,210,753,154.41,654.83,64.21,627.41,23.95,627.41,0c0,0-113.37,126.37-64.2,258.18s149.86,127,216.48,264.52C858.08,684.55,716.26,861.18,599,910.62c7.18-1.59,260.71-59,274-204C872.71,709.3,867,749.41,794.83,782.19Z"/><path class="cls-10" d="M466.39,311.88c.38-8.56-4.06-14.32-74.88-21-29.14-2.69-40.3-29.62-43.7-41-10.36,26.92-14.64,55.16-12.34,89.33,1.57,22.38,16.61,46.41,23.8,60.51,0,0,1.6-2.08,2.33-2.84,13.54-14.09,70.25-35.56,75.58-38.61C443,354.64,465.4,338.31,466.39,311.88Z"/><path class="cls-11" d="M154.6,152.8c-1-1.78-1.56,3.67-2.34,1.91-5.82-13.49-9.35-35.35-8.52-50.8,0,0-12,5.48-22,28.38-1.85,4.12-3,6.39-4.22,8.66-.54.66,1.24-7.52,1-7.07-1.73,2.93-6.21,7-8.15,12.08-1.61,4.14-3.27,6.36-4.5,11.5-.38,1.4.38-6.17.05-5.25C82.73,197,78.31,264.62,80.75,261.75c49.29-52.64,105.78-65.12,105.78-65.12-6-4.43-19.07-17.21-31.93-43.84Z"/><path class="cls-12" d="M341.64,703.21C273.55,674.14,196.14,633.13,199.06,540c4-122.67,114.4-98.43,114.4-98.43-4.17,1-15.31,8.95-19.26,17.4-4.17,10.57-11.79,34.45,11.28,59.47,36.22,39.25-74.41,93.12,96.35,194.89,4.31,2.34-40-1.4-60.19-10.11Z"/><path class="cls-13" d="M317.45,642.08c48.28,16.8,104.53,13.86,138.2-4.74,22.54-12.55,51.46-32.65,69.26-27.69-15.41-6.09-27.08-8.94-41.11-9.63-2.39,0-5.26-.05-7.86-.31a133,133,0,0,0-15.39.84c-8.69.8-18.33,6.28-27.08,5.4-.47,0,8.5-3.69,7.77-3.52-4.64,1-9.68,1.18-15,1.84-3.39.38-6.3.8-9.66.94C316,613.73,231,550.7,231,550.7c-7.23,24.36,32.39,72.56,86.44,91.38Z"/><path class="cls-14" d="M794.65,782.84C896.37,683,947.83,561.57,926.07,425.41c0,0,8.69,69.82-24.27,141.24,15.83-69.72,17.68-156.36-24.39-246.08C821.28,200.81,728.94,137.8,693.69,111.51c-53.41-39.83-75.55-80.39-76-88.76-16,32.69-64.22,144.72-5.19,241.21C667.86,354.35,755,381.18,816,464.1,928.36,616.85,794.65,782.84,794.65,782.84Z"/><path class="cls-15" d="M780.07,523c-35.55-73.44-79.92-105.47-121.89-140.18,4.88,6.84,6.09,9.25,8.79,13.67,36.94,39.37,91.41,135.4,51.86,256-74.44,226.92-372.2,120.07-403.42,90,12.63,131.33,232.45,194.18,375.58,109C772.44,774.4,838.33,643.33,780.07,523Z"/></g></g></svg>