<svg xmlns="http://www.w3.org/2000/svg" viewBox="0 0 961.2 961.2"><defs><style>.cls-1{fill:#39bbea;}.cls-2{fill:#fff;}</style></defs><title>ms_internet</title><g id="Layer_2" data-name="Layer 2"><g id="Layer_1-2" data-name="Layer 1"><circle class="cls-1" cx="480.6" cy="480.6" r="480.6"/><path class="cls-2" d="M633,529H784.84a292.58,292.58,0,0,0,1.64-32.29,281.5,281.5,0,0,0-38-141.69c25-66.45,24.12-122.85-9.36-156.56-31.84-31.7-117.26-26.55-213.82,16.21q-10.71-.81-21.64-.82c-132.54,0-243.75,91.21-274.48,214.11C270.72,374.7,314.46,336.1,372.89,308c-5.31,5-36.31,35.8-41.53,41C177.27,503.05,128.68,704.28,181,756.58c39.74,39.74,111.77,33,194.5-7.49a281.55,281.55,0,0,0,128.15,30.64c124.23,0,229.51-80,267.65-191.34h-153a124.23,124.23,0,0,1-233.72-59V529H633ZM384.77,454.33C388.28,391.87,440.21,342,503.62,342S619,391.87,622.47,454.33H384.77ZM737.7,229.84c21.57,21.79,21,61.89,2.58,111.94A283.92,283.92,0,0,0,608.54,233.95C666.51,209.09,713.66,205.8,737.7,229.84ZM220.85,746.66c-27.52-27.53-19.22-85.31,16.23-154.92a283.89,283.89,0,0,0,120.5,147.4C296.2,767,246,771.74,220.85,746.66Z"/></g></g></svg>