<svg xmlns="http://www.w3.org/2000/svg" xmlns:xlink="http://www.w3.org/1999/xlink" viewBox="0 0 960.91 960.64"><defs><style>.cls-1{fill:none;}.cls-2{clip-path:url(#clip-path);}.cls-3{fill:url(#radial-gradient);}.cls-4{fill:url(#radial-gradient-2);}.cls-5{fill:#fff;}</style><clipPath id="clip-path" transform="translate(-0.81 -1.12)"><circle class="cls-1" cx="481" cy="481" r="481"/></clipPath><radialGradient id="radial-gradient" cx="-3460.8" cy="-2392.99" r="480.36" gradientTransform="matrix(0, -1.98, -1.84, 0, -4156.38, -5823.48)" gradientUnits="userSpaceOnUse"><stop offset="0" stop-color="#fcd53a"/><stop offset="0.1" stop-color="#fcd53a"/><stop offset="0.5" stop-color="#f5392e"/><stop offset="1" stop-color="#b41d9c"/></radialGradient><radialGradient id="radial-gradient-2" cx="303.84" cy="-439.4" r="480.36" gradientTransform="matrix(0.17, 0.87, 3.58, -0.72, 1360.85, -508.76)" gradientUnits="userSpaceOnUse"><stop offset="0" stop-color="#2c5dbd"/><stop offset="0.13" stop-color="#2c5dbd"/><stop offset="1" stop-color="#4c00ff" stop-opacity="0"/></radialGradient></defs><title>instagram</title><g id="Layer_2" data-name="Layer 2"><g id="Layer_1-2" data-name="Layer 1"><g class="cls-2"><path class="cls-3" d="M481.42,1.12c-200.58,0-259.25.21-270.65,1.15-41.16,3.42-66.78,9.9-94.68,23.8a191.79,191.79,0,0,0-55.2,40.41Q15.15,113.94,5.23,183.33C2,205.8,1,210.38.84,325.13c-.07,38.25,0,88.59,0,156.12,0,200.42.22,259,1.18,270.41,3.33,40.05,9.61,65.26,22.91,92.82,25.42,52.77,74,92.38,131.18,107.16,19.81,5.1,41.68,7.91,69.76,9.24,11.9.52,133.17.89,254.52.89s242.69-.15,254.3-.74c32.52-1.53,51.4-4.06,72.28-9.46A201.16,201.16,0,0,0,938.14,844.18c13-26.9,19.66-53.06,22.65-91,.65-8.28.92-140.24.92-272s-.3-263.53-.95-271.81c-3-38.58-9.64-64.52-23.11-91.93A190.43,190.43,0,0,0,896.53,61c-31.79-30.36-70.66-48.83-117-55.52-22.44-3.24-26.92-4.21-141.76-4.4Z" transform="translate(-0.81 -1.12)"/><path class="cls-4" d="M481.42,1.12c-200.58,0-259.25.21-270.65,1.15-41.16,3.42-66.78,9.9-94.68,23.8a191.79,191.79,0,0,0-55.2,40.41Q15.15,113.94,5.23,183.33C2,205.8,1,210.38.84,325.13c-.07,38.25,0,88.59,0,156.12,0,200.42.22,259,1.18,270.41,3.33,40.05,9.61,65.26,22.91,92.82,25.42,52.77,74,92.38,131.18,107.16,19.81,5.1,41.68,7.91,69.76,9.24,11.9.52,133.17.89,254.52.89s242.69-.15,254.3-.74c32.52-1.53,51.4-4.06,72.28-9.46A201.16,201.16,0,0,0,938.14,844.18c13-26.9,19.66-53.06,22.65-91,.65-8.28.92-140.24.92-272s-.3-263.53-.95-271.81c-3-38.58-9.64-64.52-23.11-91.93A190.43,190.43,0,0,0,896.53,61c-31.79-30.36-70.66-48.83-117-55.52-22.44-3.24-26.92-4.21-141.76-4.4Z" transform="translate(-0.81 -1.12)"/></g><path class="cls-5" d="M481,176.53c-82.69,0-93.06.36-125.54,1.84s-54.54,6.62-73.9,14.14a155.74,155.74,0,0,0-89.08,89c-7.55,19.37-12.69,41.5-14.14,73.9s-1.83,42.86-1.83,125.55.37,93,1.84,125.51S185,661,192.52,680.41a155.81,155.81,0,0,0,89,89.08c19.37,7.53,41.5,12.66,73.91,14.14s42.85,1.84,125.53,1.84,93-.36,125.52-1.84,54.56-6.62,73.93-14.14a156,156,0,0,0,89-89.07c7.48-19.37,12.62-41.5,14.14-73.9s1.84-42.83,1.84-125.52-.38-93.06-1.84-125.54-6.66-54.54-14.14-73.9a155.77,155.77,0,0,0-89.06-89c-19.41-7.53-41.55-12.66-74-14.14s-42.82-1.84-125.53-1.84ZM453.72,231.4c8.11,0,17.15,0,27.31,0,81.29,0,90.93.29,123,1.75,29.69,1.36,45.8,6.32,56.53,10.49a100.88,100.88,0,0,1,57.77,57.79c4.17,10.72,9.13,26.83,10.49,56.52,1.46,32.1,1.78,41.74,1.78,123s-.32,90.9-1.78,123c-1.36,29.69-6.32,45.8-10.49,56.52a101,101,0,0,1-57.77,57.75c-10.72,4.19-26.84,9.13-56.53,10.49-32.1,1.46-41.74,1.78-123,1.78s-90.93-.32-123-1.78c-29.69-1.37-45.8-6.33-56.54-10.5a100.87,100.87,0,0,1-57.8-57.77c-4.17-10.72-9.13-26.83-10.49-56.52-1.46-32.1-1.75-41.74-1.75-123s.29-90.9,1.75-123c1.36-29.69,6.32-45.8,10.49-56.53a100.9,100.9,0,0,1,57.8-57.8c10.73-4.19,26.85-9.13,56.54-10.5,28.09-1.27,39-1.65,95.72-1.71ZM643.55,282a36.53,36.53,0,1,0,36.54,36.52A36.53,36.53,0,0,0,643.55,282ZM481,324.64A156.34,156.34,0,1,0,637.36,481,156.36,156.36,0,0,0,481,324.64Zm0,54.87A101.49,101.49,0,1,1,379.54,481,101.49,101.49,0,0,1,481,379.51Z" transform="translate(-0.81 -1.12)"/></g></g></svg>