<svg xmlns="http://www.w3.org/2000/svg" viewBox="0 0 723.05 780.24"><defs><style>.cls-1{fill:#fff;}.cls-2{fill:#39bbea;}</style></defs><title>Asset 107</title><g id="Layer_2" data-name="Layer 2"><g id="Layer_1-2" data-name="Layer 1"><path class="cls-1" d="M425.13,604l-.08,16.94h0a18.66,18.66,0,0,1-5.83,13.72,18.92,18.92,0,0,1-13.79,5.78H63.86a18.93,18.93,0,0,1-13.8-5.78,18.69,18.69,0,0,1-5.82-13.72V122.73A18.68,18.68,0,0,1,50.07,109a18.94,18.94,0,0,1,13.8-5.79h344a18.92,18.92,0,0,1,13.8,5.79,18.66,18.66,0,0,1,5.82,13.71l-.15,30.49A229.31,229.31,0,0,1,451.2,152c6.64,0,13.22.3,19.71.86V78q0-31.7-23.3-54.85T392.42,0H78.49Q46.6,0,23.3,23.17T0,78V702.21q0,31.69,23.3,54.86t55.19,23.17H392.42q31.88,0,55.18-23.17t23.31-54.86V604.64c-6.5.56-13.07.86-19.71.86A229.07,229.07,0,0,1,425.13,604ZM186.41,47.14h98.12q9.81,0,9.8,9.76t-9.8,9.76H186.41q-9.81,0-9.81-9.76T186.41,47.14Zm76.2,682.06a38.45,38.45,0,0,1-54.29,0,37.89,37.89,0,0,1,0-54,38.42,38.42,0,0,1,54.29,0,37.9,37.9,0,0,1,0,54Z"/><circle class="cls-2" cx="444.48" cy="371.57" r="278.56"/><path class="cls-1" d="M536.87,399.61h88a169.59,169.59,0,0,0,.95-18.72,163.16,163.16,0,0,0-22-82.12c14.5-38.52,14-71.21-5.43-90.75-18.45-18.37-68-15.39-123.94,9.4q-6.21-.47-12.54-.47A164.1,164.1,0,0,0,302.79,341c24.1-30.85,49.45-53.22,83.32-69.51-3.08,2.89-21,20.75-24.07,23.77-89.31,89.29-117.48,205.92-87.17,236.23,23,23,64.78,19.14,112.74-4.34A164,164,0,0,0,617,434H528.33a72,72,0,0,1-135.47-34.17v-.27h144ZM393,356.35a69,69,0,0,1,137.78,0H393ZM597.56,226.23c12.5,12.63,12.19,35.87,1.5,64.88a164.56,164.56,0,0,0-76.35-62.5C556.3,214.2,583.62,212.3,597.56,226.23ZM298,525.79c-16-16-11.14-49.44,9.41-89.79a164.54,164.54,0,0,0,69.85,85.44C341.66,537.58,312.54,540.33,298,525.79Z"/></g></g></svg>