<svg xmlns="http://www.w3.org/2000/svg" viewBox="0 0 962 962"><defs><style>.cls-1{fill:#2ca8ef;}.cls-2{fill:#bedffe;opacity:0.33;}.cls-3{fill:#fff;}</style></defs><title>mi_browser</title><g id="Layer_2" data-name="Layer 2"><g id="Layer_1-2" data-name="Layer 1"><circle class="cls-1" cx="481" cy="481" r="481"/><path class="cls-2" d="M707.09,292.28h0l.15.19c49.85-102.11-45-50.15-49.94-47.37A296.27,296.27,0,0,1,707.09,292.28Z"/><path class="cls-2" d="M251.15,665.12l-2.87-2.8c-51.38,103.82,43.5,52.08,49.13,48.95A296.3,296.3,0,0,1,251.15,665.12Z"/><path class="cls-3" d="M361.71,750.33q-2.6-1.15-5.17-2.35Q359.11,749.18,361.71,750.33Z"/><path class="cls-3" d="M327,732.09q-6.38-3.92-12.54-8.15Q320.65,728.17,327,732.09Z"/><path class="cls-3" d="M714.88,302q3.79,4.95,7.38,10.06Q718.67,307,714.88,302Z"/><path class="cls-3" d="M342.91,741.18q-5.27-2.8-10.42-5.81Q337.64,738.37,342.91,741.18Z"/><path class="cls-3" d="M740.43,341.52q3.62,6.72,6.89,13.64Q744.05,348.24,740.43,341.52Z"/><path class="cls-3" d="M311.91,722.15q-1.81-1.27-3.61-2.57Q310.1,720.87,311.91,722.15Z"/><path class="cls-3" d="M307.12,718.7l-2.37-1.75Z"/><path class="cls-3" d="M299.66,713l-1.91-1.5Z"/><path class="cls-3" d="M303.28,715.83l-2-1.56Z"/><path class="cls-3" d="M706.31,294.09l.78-1.81a296.27,296.27,0,0,0-49.78-47.18A293.17,293.17,0,0,0,481,186.5c-162.65,0-294.5,131.85-294.5,294.5a293.24,293.24,0,0,0,64.65,184.12,296.3,296.3,0,0,0,46.25,46.15l.08.07C346.93,677.85,623.06,484.75,706.31,294.09Z"/><path class="cls-3" d="M752.8,367.43q1.74,4.16,3.36,8.39Q754.54,371.59,752.8,367.43Z"/><path class="cls-3" d="M575.45,760q-8.55,2.89-17.33,5.27Q566.9,762.92,575.45,760Z"/><path class="cls-3" d="M767.11,551.06q-.87,3.55-1.82,7.06Q766.25,554.61,767.11,551.06Z"/><path class="cls-3" d="M771.53,529.5q-.6,3.64-1.3,7.25Q770.92,533.14,771.53,529.5Z"/><path class="cls-3" d="M775.48,477.4c0-.39,0-.79,0-1.18,0-.81,0-1.61,0-2.42,0-.47,0-.93,0-1.4q0-1.1-.07-2.19,0-.74-.06-1.47,0-1.06-.09-2.12,0-.74-.07-1.49Q775,464.08,775,463c0-.49-.06-1-.09-1.46q-.07-1.1-.15-2.19c0-.46-.06-.91-.1-1.37-.06-.83-.13-1.66-.21-2.49,0-.35-.06-.7-.09-1q-.16-1.74-.33-3.48c0-.34-.07-.68-.11-1-.09-.83-.17-1.66-.27-2.48-.05-.47-.11-.94-.17-1.41q-.12-1-.25-2.08c-.06-.51-.13-1-.2-1.53s-.17-1.3-.26-2-.15-1-.22-1.57-.18-1.27-.28-1.91-.16-1.05-.24-1.58-.2-1.26-.3-1.9-.17-1-.26-1.56-.22-1.29-.33-1.94-.17-1-.26-1.5c-.13-.75-.28-1.5-.42-2.25s-.26-1.36-.39-2-.31-1.6-.48-2.4c-.11-.53-.22-1.06-.33-1.6s-.25-1.19-.38-1.78-.25-1.13-.37-1.69l-.37-1.67-.4-1.73-.38-1.61-.43-1.76-.39-1.56-.46-1.79-.39-1.49c-.16-.61-.32-1.22-.49-1.83l-.38-1.36q-1-3.6-2.08-7.16l-.32-1c-.21-.68-.42-1.35-.64-2l-.38-1.2q-.32-1-.65-2l-.4-1.21-.67-2-.41-1.17-.71-2-.39-1.08q-.38-1.05-.76-2.1l-.33-.87c-.28-.76-.57-1.53-.86-2.29l0-.09q-1.62-4.23-3.36-8.39l-.18-.43q-.49-1.17-1-2.34l-.31-.71-1-2.25-.34-.76-1-2.24-.32-.7-1.07-2.31-.25-.52q-3.28-6.92-6.89-13.64l0-.08q-.68-1.27-1.38-2.52l-.19-.34-1.36-2.43-.21-.38-1.4-2.44-.15-.26q-5.46-9.38-11.59-18.32l-.07-.1-1.73-2.49-.06-.09Q718.67,307,714.88,302t-7.63-9.54l-.15-.19h0l-.78,1.81C623.06,484.75,346.93,677.85,297.49,711.33h0l.27.21,1.91,1.5,1.57,1.23,2,1.56,1.47,1.12,2.37,1.75,1.19.87q1.79,1.3,3.61,2.57l.15.1,2.4,1.67,0,0q6.16,4.23,12.54,8.15l.2.12,2.37,1.44.33.2,2.38,1.41.19.11q5.14,3,10.42,5.81l.08,0,2.37,1.24.5.26,2.26,1.16.58.29,2.28,1.14.44.22q2.54,1.25,5.12,2.45t5.17,2.35l.6.26,2.16.94.85.36,2.1.89.9.37,2.11.87.81.32q3.73,1.5,7.52,2.9l.51.19,2.06.75,1.08.39,1.94.68,1.21.42,1.9.64,1.26.42,1.89.62,1.24.4,1.93.61.78.24q2,.61,4,1.19l1.39.4,1.76.5,1.49.41,1.73.47,1.55.41,1.7.44,1.62.41,1.66.41,1.76.42,1.54.36,3.14.7,1.41.3,1.94.41,1.53.31,1.84.36,1.56.3,1.85.34,1.54.28,1.94.33,1.44.24,2.3.37,1.09.17,3.33.49,1.17.16,2.26.3,1.39.17,2.08.25,1.43.16,2.08.22,1.41.14,2.21.21,1.27.12,2.89.24.59,0,3.47.24L463,775l2.41.14,1.34.07,2.21.1,1.39.05,2.22.07,1.35,0,2.4,0,1.15,0,3.55,0q11.44,0,22.66-.86,4.21-.32,8.38-.76l2.78-.3q3.7-.42,7.37-.94t7.31-1.12q3.64-.6,7.25-1.3l3.6-.71q5.39-1.1,10.71-2.4,3.55-.87,7.06-1.82,8.78-2.38,17.33-5.27l3.41-1.18q6.8-2.4,13.45-5.11A293.54,293.54,0,0,0,636.73,731q3-1.88,6-3.83,8.89-5.85,17.32-12.31A296.23,296.23,0,0,0,714.86,660q6.46-8.42,12.31-17.32,1.95-3,3.83-6a293.54,293.54,0,0,0,22.73-44.41q2.72-6.65,5.11-13.45.6-1.7,1.18-3.41,2.89-8.55,5.27-17.33,1-3.51,1.82-7.06,1.3-5.32,2.4-10.71.37-1.8.71-3.6.69-3.61,1.3-7.25t1.12-7.31q.51-3.67.94-7.37.63-5.55,1.06-11.16.85-11.22.86-22.66Q775.5,479.2,775.48,477.4Z"/><path class="cls-2" d="M775.48,477.4c0-.39,0-.79,0-1.18,0-.81,0-1.61,0-2.42,0-.47,0-.93,0-1.4q0-1.1-.07-2.19,0-.74-.06-1.47,0-1.06-.09-2.12,0-.74-.07-1.49Q775,464.08,775,463c0-.49-.06-1-.09-1.46q-.07-1.1-.15-2.19c0-.46-.06-.91-.1-1.37-.06-.83-.13-1.66-.21-2.49,0-.35-.06-.7-.09-1q-.16-1.74-.33-3.48c0-.34-.07-.68-.11-1-.09-.83-.17-1.66-.27-2.48-.05-.47-.11-.94-.17-1.41q-.12-1-.25-2.08c-.06-.51-.13-1-.2-1.53s-.17-1.3-.26-2-.15-1-.22-1.57-.18-1.27-.28-1.91-.16-1.05-.24-1.58-.2-1.26-.3-1.9-.17-1-.26-1.56-.22-1.29-.33-1.94-.17-1-.26-1.5c-.13-.75-.28-1.5-.42-2.25s-.26-1.36-.39-2-.31-1.6-.48-2.4c-.11-.53-.22-1.06-.33-1.6s-.25-1.19-.38-1.78-.25-1.13-.37-1.69l-.37-1.67-.4-1.73-.38-1.61-.43-1.76-.39-1.56-.46-1.79-.39-1.49c-.16-.61-.32-1.22-.49-1.83l-.38-1.36q-1-3.6-2.08-7.16l-.32-1c-.21-.68-.42-1.35-.64-2l-.38-1.2q-.32-1-.65-2l-.4-1.21-.67-2-.41-1.17-.71-2-.39-1.08q-.38-1.05-.76-2.1l-.33-.87c-.28-.76-.57-1.53-.86-2.29l0-.09q-1.62-4.23-3.36-8.39l-.18-.43q-.49-1.17-1-2.34l-.31-.71-1-2.25-.34-.76-1-2.24-.32-.7-1.07-2.31-.25-.52q-3.28-6.92-6.89-13.64l0-.08q-.68-1.27-1.38-2.52l-.19-.34-1.36-2.43-.21-.38-1.4-2.44-.15-.26q-5.46-9.38-11.59-18.32l-.07-.1-1.73-2.49-.06-.09Q718.67,307,714.88,302t-7.63-9.54l-.15-.19h0l-.78,1.81C623.06,484.75,346.93,677.85,297.49,711.33h0l.27.21,1.91,1.5,1.57,1.23,2,1.56,1.47,1.12,2.37,1.75,1.19.87q1.79,1.3,3.61,2.57l.15.1,2.4,1.67,0,0q6.16,4.23,12.54,8.15l.2.12,2.37,1.44.33.2,2.38,1.41.19.11q5.14,3,10.42,5.81l.08,0,2.37,1.24.5.26,2.26,1.16.58.29,2.28,1.14.44.22q2.54,1.25,5.12,2.45t5.17,2.35l.6.26,2.16.94.85.36,2.1.89.9.37,2.11.87.81.32q3.73,1.5,7.52,2.9l.51.19,2.06.75,1.08.39,1.94.68,1.21.42,1.9.64,1.26.42,1.89.62,1.24.4,1.93.61.78.24q2,.61,4,1.19l1.39.4,1.76.5,1.49.41,1.73.47,1.55.41,1.7.44,1.62.41,1.66.41,1.76.42,1.54.36,3.14.7,1.41.3,1.94.41,1.53.31,1.84.36,1.56.3,1.85.34,1.54.28,1.94.33,1.44.24,2.3.37,1.09.17,3.33.49,1.17.16,2.26.3,1.39.17,2.08.25,1.43.16,2.08.22,1.41.14,2.21.21,1.27.12,2.89.24.59,0,3.47.24L463,775l2.41.14,1.34.07,2.21.1,1.39.05,2.22.07,1.35,0,2.4,0,1.15,0,3.55,0q11.44,0,22.66-.86,4.21-.32,8.38-.76l2.78-.3q3.7-.42,7.37-.94t7.31-1.12q3.64-.6,7.25-1.3l3.6-.71q5.39-1.1,10.71-2.4,3.55-.87,7.06-1.82,8.78-2.38,17.33-5.27l3.41-1.18q6.8-2.4,13.45-5.11A293.54,293.54,0,0,0,636.73,731q3-1.88,6-3.83,8.89-5.85,17.32-12.31A296.23,296.23,0,0,0,714.86,660q6.46-8.42,12.31-17.32,1.95-3,3.83-6a293.54,293.54,0,0,0,22.73-44.41q2.72-6.65,5.11-13.45.6-1.7,1.18-3.41,2.89-8.55,5.27-17.33,1-3.51,1.82-7.06,1.3-5.32,2.4-10.71.37-1.8.71-3.6.69-3.61,1.3-7.25t1.12-7.31q.51-3.67.94-7.37.63-5.55,1.06-11.16.85-11.22.86-22.66Q775.5,479.2,775.48,477.4Z"/></g></g></svg>