<svg xmlns="http://www.w3.org/2000/svg" viewBox="0 0 961.2 961.2"><defs><style>.cls-1{fill:#cc0f16;}.cls-2{fill:#fff;}</style></defs><title>opera</title><g id="Layer_2" data-name="Layer 2"><g id="Layer_1-2" data-name="Layer 1"><circle class="cls-1" cx="480.6" cy="480.6" r="480.6"/><path class="cls-2" d="M479.5,193c-157.14,0-270.08,114-270.08,284.95,0,152.14,109.83,290.31,270.1,290.31,161.84,0,272.25-138.13,272.25-290.31C751.77,305.58,635.23,193,479.5,193ZM579.67,473c0,95.14-5.11,230.6-100.15,230.6v0c-93.7,0-97.43-135.54-97.43-230.5,0-111.45,10.43-218.29,97.43-218.29S579.67,363.05,579.67,473Z"/><path class="cls-2" d="M800,512.77a1.5,1.5,0,0,0,0-3,1.5,1.5,0,0,0,0,3Z"/></g></g></svg>