<svg xmlns="http://www.w3.org/2000/svg" viewBox="0 0 743.91 780.24"><defs><style>.cls-1{fill:none;}.cls-2{fill:#fff;}.cls-3{fill:#cc0f16;}</style></defs><title>Asset 106</title><g id="Layer_2" data-name="Layer 2"><g id="Layer_1-2" data-name="Layer 1"><path class="cls-1" d="M181,30.93H289.94q10.89,0,10.89-10.83T289.94,9.26H181q-10.9,0-10.89,10.83T181,30.93Z"/><path class="cls-2" d="M425.13,604l-.08,16.94h0a18.66,18.66,0,0,1-5.83,13.72,18.92,18.92,0,0,1-13.79,5.78H63.86a18.93,18.93,0,0,1-13.8-5.78,18.69,18.69,0,0,1-5.82-13.72V122.73A18.68,18.68,0,0,1,50.07,109a18.94,18.94,0,0,1,13.8-5.79h344a18.92,18.92,0,0,1,13.8,5.79,18.66,18.66,0,0,1,5.82,13.71l-.15,30.49A229.31,229.31,0,0,1,451.2,152c6.64,0,13.22.3,19.71.86V78q0-31.7-23.3-54.85T392.42,0H78.49Q46.6,0,23.3,23.17T0,78V702.21q0,31.69,23.3,54.86t55.19,23.17H392.42q31.88,0,55.18-23.17t23.31-54.86V604.64c-6.5.56-13.07.86-19.71.86A229.07,229.07,0,0,1,425.13,604ZM186.41,47.14h98.12q9.81,0,9.8,9.76t-9.8,9.76H186.41q-9.81,0-9.81-9.76T186.41,47.14Zm76.2,682.06a38.45,38.45,0,0,1-54.29,0,37.89,37.89,0,0,1,0-54,38.42,38.42,0,0,1,54.29,0,37.9,37.9,0,0,1,0,54Z"/><circle class="cls-3" cx="464.73" cy="372.05" r="279.18"/><path class="cls-2" d="M464,175.19c-107.55,0-184.85,78-184.85,195,0,104.13,75.17,198.7,184.86,198.7,110.77,0,186.34-94.54,186.34-198.7C650.33,252.27,570.56,175.19,464,175.19Zm68.56,191.69c0,65.12-3.5,157.83-68.55,157.83h0c-64.13,0-66.68-92.77-66.68-157.76,0-76.28,7.14-149.4,66.68-149.4S532.54,291.6,532.54,366.88Z"/><path class="cls-2" d="M654.62,418.26a1.5,1.5,0,0,0,0-3,1.5,1.5,0,0,0,0,3Z"/></g></g></svg>