<svg xmlns="http://www.w3.org/2000/svg" xmlns:xlink="http://www.w3.org/1999/xlink" viewBox="0 0 962 962"><defs><style>.cls-1{fill:none;}.cls-2{fill:#a4cd2f;}.cls-3{clip-path:url(#clip-path);}.cls-4{fill:#c41828;}.cls-5{fill:#fff;}.cls-6{fill:url(#linear-gradient);}.cls-7{fill:url(#linear-gradient-2);}.cls-8{fill:#db9118;}.cls-9{fill:#c62626;}.cls-10{fill:#b2162d;}.cls-11{fill:#dd4057;}.cls-12{fill:#2b2b2b;}</style><clipPath id="clip-path"><circle class="cls-1" cx="481" cy="481" r="339.47"/></clipPath><linearGradient id="linear-gradient" x1="317.35" y1="284.74" x2="683.42" y2="284.74" gradientUnits="userSpaceOnUse"><stop offset="0" stop-color="#203643"/><stop offset="0.34" stop-color="#192d3a"/><stop offset="0.92" stop-color="#071420"/><stop offset="1" stop-color="#04101c"/></linearGradient><linearGradient id="linear-gradient-2" x1="117.07" y1="514.59" x2="612.19" y2="514.59" xlink:href="#linear-gradient"/></defs><title>puffin</title><g id="Layer_2" data-name="Layer 2"><g id="Layer_1-2" data-name="Layer 1"><circle class="cls-2" cx="481" cy="481" r="481"/><g class="cls-3"><path class="cls-1" d="M790.68,608.94c0,.34,0,.67,0,1l.19-.54Z"/><path class="cls-4" d="M790.71,609.93c.52.41.51.13.19-.54Z"/><path class="cls-5" d="M611.74,590.1s78.89,204.22-138.4,245.24c-213.06,40.22-385.9,0-385.9,0L263.25,707.76l-7.66-110.45,323.24-13.07Z"/><path class="cls-6" d="M317.35,201.49s118.11-86.56,275.45-5c10.37,5.86,64.47,37.87,90.61,118.11L651,408s13.52-124-87-188.89C488.66,162.27,317.35,201.49,317.35,201.49Z"/><path class="cls-7" d="M282.64,231.7c0,23-3.16,303.4,294.38,307.46,0,0,23.89,20.74,35.16,49.14,0,0-146.06,133.44-347.58,11.72,26.6,24.34,103.69,144.26-135.25,197.46-21.19-6.31-8.57-241.64-8.57-241.64L124.85,353s28.4,7.21,42.83,23.44c38.32,32.46,51.84-18,51.84-18S240.71,273.62,282.64,231.7Z"/><path class="cls-5" d="M319.61,200.59s335-109.1,333.61,200.61c-7.66,26.6-19.39,59.51-19.39,59.51l-57.7,79.79S284,553.58,281.74,233.05C308.79,206.45,319.61,200.59,319.61,200.59Z"/><circle class="cls-8" cx="621.2" cy="458.91" r="28.85"/><path class="cls-9" d="M538,358.24s-36.82,12.62-43.17-52.89c-1.16-44.73,30.61-34.67,35.36-32.41s24.85,13.45,28.16,47.55C561.75,355.59,538,358.24,538,358.24Z"/><path d="M531.36,331.84s-19.6,5.52-21-28.88c.7-23.39,17-17.21,19.41-15.89s12.59,7.75,13.32,25.65C543.84,331.15,531.36,331.84,531.36,331.84Z"/><path class="cls-10" d="M790.68,608.94l.23.45c33-90.39,3.82-169.06-21.38-211.8-25.4-43.09-86.11-83-86.11-83L633.75,459.18C642,465.14,788.13,570.82,790.68,608.94Z"/><polygon class="cls-4" points="575.67 540.06 575.94 540.13 590.1 520.11 575.67 540.06"/><path class="cls-11" d="M790.68,608.94C788.13,570.82,642,465.14,633.75,459.18l-.37,1.08L590.1,520.11l-14.16,20L785.3,600.47S789.31,606.36,790.68,608.94Z"/><ellipse class="cls-5" cx="530.59" cy="301.8" rx="4.51" ry="7.44" transform="translate(-77.86 252.83) rotate(-25.03)"/><path class="cls-12" d="M347.56,234.4S453.5,272.72,481,269.12s41.48-36.07,42.83-37-2.7,22.09-5.86,25.7-9,14-24.79,19.84-64-9.47-74.38-12.17S347.56,234.4,347.56,234.4Z"/></g></g></g></svg>