<svg xmlns="http://www.w3.org/2000/svg" viewBox="0 0 721.02 780.82"><defs><style>.cls-1{fill:none;}.cls-2{fill:#fff;}.cls-3{fill:#2490f8;}.cls-4{fill:#eee;}.cls-5{fill:silver;}.cls-6{fill:#f5374b;}.cls-7{fill:#e22741;}</style></defs><title>Asset 105</title><g id="Layer_2" data-name="Layer 2"><g id="Layer_1-2" data-name="Layer 1"><path class="cls-1" d="M153.08,26.62H262q10.89,0,10.89-10.83T262,4.95H153.08q-10.9,0-10.89,10.83T153.08,26.62Z"/><path class="cls-2" d="M425.45,604.46l-.08,16.95h0a18.68,18.68,0,0,1-5.83,13.73,18.93,18.93,0,0,1-13.8,5.79H63.91a19,19,0,0,1-13.81-5.79,18.7,18.7,0,0,1-5.83-13.73V122.83A18.69,18.69,0,0,1,50.1,109.1a19,19,0,0,1,13.81-5.8H408.17A18.93,18.93,0,0,1,422,109.1a18.67,18.67,0,0,1,5.82,13.72l-.15,30.52a229.48,229.48,0,0,1,23.87-1.25c6.65,0,13.23.3,19.73.86V78.08q0-31.72-23.32-54.9T392.72,0H78.55Q46.63,0,23.32,23.18T0,78.08V702.74q0,31.72,23.32,54.9t55.23,23.19H392.72q31.9,0,55.22-23.19t23.32-54.9V605.09c-6.5.56-13.08.86-19.73.86A229.24,229.24,0,0,1,425.45,604.46ZM186.54,47.17h98.19q9.82,0,9.81,9.76t-9.81,9.76H186.54q-9.82,0-9.82-9.76T186.54,47.17ZM262.8,729.74a38.48,38.48,0,0,1-54.33,0,37.92,37.92,0,0,1,0-54,38.45,38.45,0,0,1,54.33,0,37.93,37.93,0,0,1,0,54Z"/><path class="cls-3" d="M721,370.31c0-145.92-112-265.66-254.76-278-8-.69-16.08-1.06-24.26-1.06a282.15,282.15,0,0,0-29.35,1.54C272.35,107.49,163,226.12,163,370.31c0,143.25,108,261.26,246.95,277.17A281.85,281.85,0,0,0,442,649.32c8.17,0,16.26-.37,24.26-1.06C609,636,721,516.23,721,370.31Z"/><path class="cls-3" d="M273.49,543.63,262.9,554.22a3.4,3.4,0,0,1-4.78,0l-.18.12.12-.18a3.4,3.4,0,0,1,0-4.78l10.58-10.58L408.29,336.6,610.53,197l10.58-10.58a3.4,3.4,0,0,1,4.78,0l.17-.12-.12.17a3.4,3.4,0,0,1,0,4.78l-10.6,10.6L475.71,404Z"/><polygon class="cls-4" points="442 370.31 408.29 336.6 268.67 538.83 258.06 554.19 257.94 554.37 442 370.31"/><polygon class="cls-5" points="442 370.31 257.94 554.37 258.11 554.24 273.49 543.63 475.71 404.01 442 370.31"/><polygon class="cls-6" points="442 370.31 626.06 186.24 625.88 186.37 610.53 196.97 408.29 336.6 442 370.31"/><polygon class="cls-7" points="625.94 186.42 626.06 186.24 442 370.31 475.71 404.01 615.32 201.8 625.94 186.42"/></g></g></svg>