<svg xmlns="http://www.w3.org/2000/svg" viewBox="0 0 960 960"><defs><style>.cls-1{fill:#2490f8;}.cls-2{fill:#eee;}.cls-3{fill:silver;}.cls-4{fill:#f5374b;}.cls-5{fill:#e22741;}</style></defs><title>safari</title><g id="Layer_2" data-name="Layer 2"><g id="Layer_1-2" data-name="Layer 1"><circle class="cls-1" cx="480" cy="480" r="480"/><path class="cls-2" d="M167.74,798.11a5.85,5.85,0,0,1-4.14-10l49.67-49.67a5.85,5.85,0,1,1,8.28,8.28l-49.67,49.67A5.85,5.85,0,0,1,167.74,798.11Z"/><path class="cls-2" d="M742.59,223.27a5.85,5.85,0,0,1-4.14-10l49.67-49.67a5.85,5.85,0,0,1,8.28,8.28l-49.67,49.67A5.86,5.86,0,0,1,742.59,223.27Z"/><polygon class="cls-2" points="537.99 537.99 796.64 163.36 422.01 422.01 163.36 796.64 537.99 537.99"/><polygon class="cls-3" points="537.99 537.99 796.64 163.36 163.36 796.64 537.99 537.99"/><polygon class="cls-4" points="537.99 537.99 796.64 163.36 422.01 422.01 537.99 537.99"/><polygon class="cls-5" points="537.99 537.99 796.64 163.36 480 480 537.99 537.99"/></g></g></svg>