<svg xmlns="http://www.w3.org/2000/svg" viewBox="0 0 962 962"><defs><style>.cls-1{fill:#706cf5;}.cls-2{fill:#fff;stroke:#fff;stroke-miterlimit:10;stroke-width:6px;}</style></defs><title>samsung_browser</title><g id="Layer_2" data-name="Layer 2"><g id="Layer_1-2" data-name="Layer 1"><circle class="cls-1" cx="481" cy="481" r="481"/><path class="cls-2" d="M662.06,661.11c-8.95,0-17.92.39-26.84-.09-13-.71-26.06-2-39.07-3.17-10.55-1-21.11-2-31.6-3.41-12.48-1.69-25-3.47-37.32-5.85-18.3-3.52-36.61-7.14-54.71-11.55-19.14-4.66-38.28-9.58-57-15.68-28.62-9.33-57-19.44-85.23-29.89-13.17-4.88-25.82-11.19-38.6-17.09-30.93-14.27-60.7-30.67-88.61-50.23-12.19-8.55-23.87-17.87-35.46-27.24a204.5,204.5,0,0,1-44.1-49c-8-12.45-13.61-25.73-15.28-40.64-2-17.93,3.9-33.06,15.55-46.24C137.15,346,154.43,337,173,330.12c18.07-6.73,36.78-10.78,55.81-13.57a4.64,4.64,0,0,0,2.71-1.9,304.14,304.14,0,0,1,157.79-117A327.64,327.64,0,0,1,441.44,186a282.57,282.57,0,0,1,58.61-2c16.55,1,33.11,3.91,49.37,7.34,24.71,5.21,48.21,14.24,70.58,26,17.89,9.41,35.13,19.94,50.43,33.24,11.35,9.87,22.71,19.84,33,30.73a282.15,282.15,0,0,1,39.1,52.87,301.87,301.87,0,0,1,27.65,63,261.63,261.63,0,0,1,10.59,49.06c.58,5.4,1.25,10.8,1.6,16.22.23,3.5,2.29,5.67,4.61,7.81,10.17,9.34,20.87,18.18,30.37,28.16,15.06,15.83,27.44,33.55,33.81,54.89q9.09,30.46-10.28,55.52c-12.21,15.83-29.06,25-47.1,32.43-19.37,7.93-39.73,12.24-60.28,15.59-8.44,1.37-17,2-25.55,2.58-15.3,1-30.62,1.62-45.92,2.4ZM742.5,486.83c-.8-11.24-1.26-22.52-2.5-33.71A228.1,228.1,0,0,0,735.57,428,261.54,261.54,0,0,0,574.1,241.91c-36.69-14-74.66-19.17-113.82-16.18a254,254,0,0,0-89.69,23.48q-75.6,35.62-117.1,108.3a254.24,254.24,0,0,0-33.65,125.31c0,2.5.7,4.05,2.88,5.34,11.61,6.83,23,14.13,34.74,20.62,38.66,21.3,79.26,38.22,120.86,52.81a1068.07,1068.07,0,0,0,146,39.81c30.48,6,61.15,11,92.16,13.41,15.21,1.19,30.44,2.35,45.69,2.75,13.6.35,27.23-.35,40.84-.64a6.43,6.43,0,0,0,6.16-3.67C731,573.93,741.74,531.78,742.5,486.83ZM179.8,453.34a310,310,0,0,1,28.09-98.54c-1.78,0-2.93-.24-3.93,0-13,3.56-25.66,8-36.66,16.09-15.48,11.43-19.92,25.69-15.41,42.6C156,428.8,166,440.6,176.67,451.76,177.33,452.44,178.45,452.68,179.8,453.34Zm603.34,61.94a325.87,325.87,0,0,1-24.55,92.61c15.36-4.74,28.73-10.16,39.15-21.06,8.47-8.86,11.79-19.46,9.55-31.49C804.26,539.13,794.47,526.81,783.14,515.27Z"/><path class="cls-2" d="M690.71,698.84c-59.57,55.61-129.82,85.12-211.25,84.5-87.53-.66-161.62-34.23-221.4-98.13-32.31-34.53-54.81-75-68.11-121.16,7.31,4.53,14,8.83,20.83,12.86,10.73,6.32,21.62,12.35,32.3,18.74a15.13,15.13,0,0,1,5.6,5.56,251,251,0,0,0,34.47,50.62c16.72,19.11,35.46,35.86,57,49.41a263.85,263.85,0,0,0,85.15,35c24,5.24,48.16,6.52,72.45,5.41a242,242,0,0,0,55.53-9.5,273.11,273.11,0,0,0,51.83-21,135.87,135.87,0,0,0,16.4-9.75c4-2.89,8-2.35,12.36-2.19,9.73.36,19.48.25,29.22.24,2.44,0,4.88-.5,7.32-.53C677,698.79,683.61,698.84,690.71,698.84Z"/></g></g></svg>