<svg xmlns="http://www.w3.org/2000/svg" xmlns:xlink="http://www.w3.org/1999/xlink" viewBox="0 0 905.95 960"><defs><style>.cls-1{fill:#fff;}.cls-2{fill:#e0e0e0;}.cls-3{fill:url(#Degradado_sin_nombre_10);}</style><linearGradient id="Degradado_sin_nombre_10" x1="438.22" y1="960" x2="438.22" gradientUnits="userSpaceOnUse"><stop offset="0" stop-color="#ed6c28"/><stop offset="1" stop-color="#ffc300"/></linearGradient></defs><title>Asset 112</title><g id="Layer_2" data-name="Layer 2"><g id="Layer_1-2" data-name="Layer 1"><path class="cls-1" d="M614.5,564S764.67,323.75,886.43,330.82C830,145,657.26,9.75,453,9.75c-250.17,0-453,202.8-453,453A451.58,451.58,0,0,0,109.39,757.92C110.12,758.06,501.79,836.81,614.5,564Z"/><path class="cls-2" d="M453,915.7c250.17,0,453-202.8,453-453a452.93,452.93,0,0,0-19.51-131.9C764.67,323.75,614.5,564,614.5,564,501.79,836.81,110.12,758.06,109.39,757.92,192.46,854.52,315.57,915.7,453,915.7Z"/><path class="cls-3" d="M761.51,148.55S547.41-32.59,328.62,56.1c-169.22,99.57,135,268.16,264.95,346.39,21.79,14.22,343.15,233.44,83.33,479.84-303.41,223-558.52-105-558.52-105S299.13,940.89,492.71,903.66C626,863.5,599.12,784.43,592.71,779s-29.06-105.42-253-207.5C46.58,411.69,103,210,103,210S158.11-3.31,402.12,0C689.72,0,761.51,148.55,761.51,148.55Z"/></g></g></svg>