<svg xmlns="http://www.w3.org/2000/svg" viewBox="0 0 958 958"><defs><style>.cls-1{fill:#ed8000;}.cls-2{fill:#fff;}</style></defs><title>Asset 111</title><g id="Layer_2" data-name="Layer 2"><g id="Layer_1-2" data-name="Layer 1"><circle class="cls-1" cx="479" cy="479" r="479"/><path class="cls-2" d="M173.24,586.88c1.9-12.5,3.16-25.14,5.8-37.49,7.75-36.27,26.71-66.76,49.92-95,18.45-22.46,37.35-44.61,54.65-67.93,16.26-21.91,21.93-47,15.19-74.06-7-28-33-48.28-61.83-49-21.28-.56-40.27,5.56-57.49,17.79a5.31,5.31,0,0,1-4.18,1c3-5.27,5.85-10.69,9.18-15.78,26.08-39.95,59.59-72,102.59-93,43.17-21.09,85.81-16.3,126.52,7.28,43.88,25.41,66.49,65.56,75.17,114.2,5.92,33.18,2,65.26-15,95-12,21-29.34,37.16-48.9,50.84-23.1,16.15-46.84,31.38-70,47.38-17.44,12-33.83,25.39-47.27,41.89C285.8,556.56,274.11,587.2,273,621.79c-1.27,40.53,8.78,78.2,30.34,112.3,16.17,25.58,40.22,42.12,68.33,52.72,9.58,3.61,19.41,6.58,29,11.16-12.51,0-25,.41-37.52-.07-58.78-2.26-104.84-29.19-140.9-74.3-22.71-28.41-39.64-59.91-45.76-96.33-1.39-8.24-2.2-16.57-3.28-24.86Q173.24,594.64,173.24,586.88Z"/><path class="cls-2" d="M319.19,576.36a98.07,98.07,0,0,1,38.09-51.3c35.24-24.48,73.71-31.3,114.87-18.53,48.14,14.93,85.66,43.68,109.48,88.56,15.59,29.36,20.24,61.23,16.24,94-2.17,17.81-6.52,35.35-9.85,52.84,37.47,1.54,65,19.48,81.2,55.76H424.53l-.33-.91c5.25-1.81,10.43-3.87,15.76-5.39,21.62-6.18,41.45-15.57,57.78-31.44,21.17-20.6,33-45.91,37.37-74.85,4.37-29.28,1.36-57.68-12.83-84.07-19.66-36.57-51.1-57.12-91.54-63.18-41.36-6.19-77.37,6.4-107.84,35C321.65,574,320.43,575.18,319.19,576.36Z"/><path class="cls-2" d="M498.39,431.33c24.47-11.89,49.22-22.94,73-35.8,15.22-8.24,29.09-19,43.32-29,2.05-1.44,3.6-4.84,3.83-7.46,1.76-20.44,3.9-40.8,12.82-59.62,3.66-7.72,8.47-14.88,13.12-22.92,10.05,9.31,15.47,20.27,20.24,31.49a130.26,130.26,0,0,1,7.48,22.62c1.3,5.89,4.28,8.79,9.71,10.56A136.77,136.77,0,0,1,736.5,374.5c28,27.76,41.65,61.66,43.35,100.71.18,4.09-.47,8.28.21,12.27,1.29,7.63-2.64,10.83-9.15,12.6-30.65,8.33-60.83,8.85-89.92-5.83-22.08-11.14-43.66-23.33-66-33.83-34.16-16-70-26.33-108-28-2.58-.11-5.15-.51-7.72-.8A2.72,2.72,0,0,1,498.39,431.33Z"/><path class="cls-2" d="M408.68,756.38c-49.74,0-91.47-40.47-91.61-88.77-.15-50.92,41.4-91.13,94.13-91.08,48,0,91.32,42.25,91.51,89.08C502.91,715.63,460.65,756.42,408.68,756.38Zm1.69-51.62c22.4.08,40-16.86,40-38.54,0-22.24-17.33-39.24-40-39.26-22.42,0-39.81,16.76-40,38.61C370.12,687.63,387.54,704.67,410.37,704.76Z"/><path class="cls-2" d="M784.76,580.63c-2.9-.15-4,.07-4.94-.29-24.18-9.71-47.39-4.51-70.23,4.75-17,6.88-33.79,14.19-52.44,15a107.92,107.92,0,0,1-16.76-.52c-11.22-1.27-18.93-7.07-24.75-17.17C596.42,549,571,521.27,537.69,501.29a200.75,200.75,0,0,0-92.9-28.37c-9.84-.58-19.68-1-30-3,7.34-2.43,14.55-5.35,22-7.2,24.44-6,49.18-4.95,73.87-1.89,43.45,5.38,83.32,20.73,119.86,44.63,31.32,20.48,65.6,31.51,102.74,35,19.25,1.83,36.71,8.26,46.27,27.2C781.45,571.45,782.72,575.5,784.76,580.63Z"/></g></g></svg>