<svg xmlns="http://www.w3.org/2000/svg" viewBox="0 0 962 962"><defs><style>.cls-1{fill:#5376aa;}.cls-2{fill:#fff;}</style></defs><title>water_fox</title><g id="Layer_2" data-name="Layer 2"><g id="Layer_1-2" data-name="Layer 1"><circle class="cls-1" cx="481" cy="481" r="481"/><path class="cls-2" d="M358.52,373.64c34.43,12.34,63.68,28.64,87.75,58.66-40.92-2.25-73.68,10.18-97.94,40.81C330.27,495.9,323,522.33,325.9,551.22c6.34,64.09,63,115.4,126.21,114.25,53.08-1,109.16-41,106.89-120.32,29,22.73,45.73,51.52,53.91,85.54,8.12,33.76,2.88,66.73-6.33,100.33,2.82-2.54,5.95-4.81,8.43-7.65,49-56,64.64-118.92,37.17-189.63-14.47-37.25-21.46-74.67-10.45-113.91,12.4-44.19,39.54-76.62,79.73-98.33,3-1.6,6.37-2.4,11.7-4.35-3,43.14,17.79,76.79,37,111.24,30.32,54.34,24.88,111.48,8.68,167.85-40.1,139.51-169.7,231-314.26,223.77-143-7.18-262.08-111.69-289.22-253.85C144.79,405.91,247.75,246.5,406.75,208.5c12.39-3,20.09-7.61,26.42-20.24,17-34,46.58-48.69,87-46.46C497.25,176.52,492.75,211,516.57,246L510,203.9l3.72-3.89c19.06,8.39,38.09,16.86,57.19,25.16,23.47,10.19,46.69,21.12,70.67,29.93,9.46,3.47,20.69,2.09,31.18,2.93-16.64,52.57-77.59,94.28-136.58,96.12-45.31,1.41-90.59,4.91-135.76,8.86C386.27,364.23,372.48,370,358.52,373.64Z"/></g></g></svg>