<svg xmlns="http://www.w3.org/2000/svg" xmlns:xlink="http://www.w3.org/1999/xlink" viewBox="0 0 865.94 1183.68"><defs><style>.cls-1{fill:url(#linear-gradient);}.cls-2{fill:url(#linear-gradient-2);}</style><linearGradient id="linear-gradient" x1="432.97" y1="1183.68" x2="432.97" gradientUnits="userSpaceOnUse"><stop offset="0" stop-color="#fc4364"/><stop offset="1" stop-color="#ffd957"/></linearGradient><linearGradient id="linear-gradient-2" x1="425.29" y1="944.68" x2="425.29" y2="112.21" xlink:href="#linear-gradient"/></defs><title>Asset 154</title><g id="Layer_2" data-name="Layer 2"><g id="Layer_1-2" data-name="Layer 1"><path class="cls-1" d="M785.65,0H80.26A80.22,80.22,0,0,0,0,80.4V1103.31a80.28,80.28,0,0,0,80.26,80.37H785.65a80.38,80.38,0,0,0,80.3-80.37V80.4A80.28,80.28,0,0,0,785.65,0ZM433,1153.56a47.74,47.74,0,1,1,47.74-47.7A47.69,47.69,0,0,1,433,1153.56Zm351.72-137.3H81.27V96.59H784.71Z"/><path class="cls-2" d="M156.73,112.21V237.8L195.85,205,235,237.8V112.21ZM693.91,340.86H425.27V301.46H693.86v39.41Zm0,150.17H425.27V451.66H693.86V491ZM156.68,603.26H693.83v39.49H156.68Zm0,150.29H693.83V793H156.68Zm0,151.64H693.83v39.49H156.68Zm75.4-615.68L156.68,502.6h46l14-43.31h80.83l14.44,43.31h47.17l-75.4-213.09H232.08Zm53.45,133.11H229l28.27-85.5Z"/></g></g></svg>