<svg xmlns="http://www.w3.org/2000/svg" xmlns:xlink="http://www.w3.org/1999/xlink" viewBox="0 0 670.56 1184.27"><defs><style>.cls-1{fill:url(#linear-gradient);}.cls-2{fill:url(#linear-gradient-2);}.cls-3{fill:url(#linear-gradient-3);}</style><linearGradient id="linear-gradient" x1="279.02" y1="819.28" x2="279.02" y2="559.3" gradientUnits="userSpaceOnUse"><stop offset="0" stop-color="#5d59ff"/><stop offset="1" stop-color="#b895ff"/></linearGradient><linearGradient id="linear-gradient-2" x1="447.29" y1="819.48" x2="447.29" y2="609.11" xlink:href="#linear-gradient"/><linearGradient id="linear-gradient-3" x1="335.28" y1="1184.27" x2="335.28" y2="0" xlink:href="#linear-gradient"/></defs><title>Asset 150</title><g id="Layer_2" data-name="Layer 2"><g id="Layer_1-2" data-name="Layer 1"><path class="cls-1" d="M142,819.28c-.14-.52-.18-.67-.22-.82-2.26-10.33,2.07-16.78,11.47-21,22.68-10.26,45.14-21,67.84-31.25,4.27-1.93,7-4.42,8.18-8.85a105.7,105.7,0,0,1,3.5-10.67c.69-1.74,1.69-4.09,3.14-4.66,3.93-1.53,4.87-4.4,5.09-8a30.67,30.67,0,0,1,.57-4.85c1.73-7.72,1-14.78-4.91-20.74a9.9,9.9,0,0,1-2.23-4.31q-6.13-22.81-12.06-45.67c-.74-2.87-.09-5.1,2.62-7.19,1.54-1.19,2.27-4.2,2.33-6.42.32-12.55.41-25.11.4-37.67,0-8.84,3.44-16.1,9.43-22.36,10.66-11.16,24.27-16.81,38.84-20.41,8.21-2,16.59-3.42,24.93-4.88a15.77,15.77,0,0,1,8,1c-1.25,1.08-2.5,2.15-3.75,3.23-3.1,2.7-3.29,5.38,0,8.17,6.06,5.21,12,10.57,18.11,15.72,6.59,5.55,9.45,12.6,9.4,21.1-.08,12.72-.14,25.45.14,38.17,0,2.26,1.83,4.46,2.71,6.72.56,1.43,1.42,3,1.3,4.39-.73,8.86-.72,17.79-5.38,26-2.36,4.16-3,9.28-4.67,13.84-1.41,3.78-3.46,7.32-4.91,11.09s-3.22,7.89-3.74,12c-.65,5.14-.2,10.42-.13,15.64,0,1.09.11,2.71.79,3.17,5.76,3.92,6.32,10.44,8,16.22s5.24,8.68,10.65,10.95c21.17,8.86,42.14,18.2,63.18,27.37,1.19.52,2.33,1.17,3.48,1.78,12.5,6.57,13.67,8.74,12.32,23.31Z"/><path class="cls-2" d="M529.36,819.48h-98c0-5.47.3-10.81-.13-16.08-.21-2.49-1.17-5.67-2.94-7.15-6-5-12-10.06-18.81-13.78-11.11-6.09-22.79-11.14-35.43-17.21,3.14-1.71,5.52-3.59,8.22-4.33,4.48-1.23,7.34-3.76,7.85-8.26.69-6.11,1.1-12.27,1.23-18.41.08-3.58-2.11-6-5.51-7.31-5.75-2.29-11.44-4.74-17.13-7.17-3-1.27-4.25-3.29-3-6.62,8.3-21.77,10.52-44.58,12.06-67.59.42-6.3,3-12.64,5.44-18.58a20.46,20.46,0,0,1,13.91-12.14,31.29,31.29,0,0,0,4.52-1.85c25.26-11.54,52.12,3.79,55.29,31.59,1.66,14.56,2.83,29.2,5.05,43.67,1.18,7.66,4,15.07,6.32,22.55,2,6.49,1.78,7.18-4.6,9.94-4.78,2.07-9.56,4.18-14.44,6-3.82,1.43-6.21,4-6,8a128.25,128.25,0,0,0,2.09,19.76c.46,2.25,3.56,4.16,5.77,5.79,1.5,1.11,4,1,5.3,2.24C467.06,772.64,481.13,776,494,781.79c5.77,2.61,11.75,5,17.1,8.29C521.63,796.68,527.29,806.68,529.36,819.48Z"/><path class="cls-3" d="M584.46,0H86.1A86.12,86.12,0,0,0,0,86.33V1097.94a86.08,86.08,0,0,0,86.1,86.33H584.46a86.26,86.26,0,0,0,86.1-86.33V86.33A86.15,86.15,0,0,0,584.46,0ZM212.31,52.47H458.25c6.24,0,11.21,9.28,11.21,20.71,0,11.65-5,20.93-11.21,20.93H212.31c-6.3,0-11.21-9.28-11.21-20.93,0-11.43,4.92-20.71,11.21-20.71ZM335.25,1099a55,55,0,1,1,55-55,55.08,55.08,0,0,1-55,55Zm270.8-188.56H64.51V145.65H606.05Zm0,0"/></g></g></svg>