<svg xmlns="http://www.w3.org/2000/svg" xmlns:xlink="http://www.w3.org/1999/xlink" viewBox="0 0 865.94 1183.68"><defs><style>.cls-1{fill:url(#linear-gradient);}.cls-2{fill:url(#linear-gradient-2);}.cls-3{fill:url(#linear-gradient-3);}</style><linearGradient id="linear-gradient" x1="376.74" y1="905.96" x2="376.74" y2="646.09" gradientUnits="userSpaceOnUse"><stop offset="0" stop-color="#f18a4d"/><stop offset="1" stop-color="#b5e83c"/></linearGradient><linearGradient id="linear-gradient-2" x1="544.94" y1="906.16" x2="544.94" y2="695.88" xlink:href="#linear-gradient"/><linearGradient id="linear-gradient-3" x1="432.97" y1="1183.68" x2="432.97" y2="0" xlink:href="#linear-gradient"/></defs><title>Asset 152</title><g id="Layer_2" data-name="Layer 2"><g id="Layer_1-2" data-name="Layer 1"><path class="cls-1" d="M239.78,906c-.14-.52-.18-.67-.22-.82-2.26-10.33,2.07-16.77,11.46-21,22.67-10.26,45.13-21,67.81-31.24,4.27-1.93,7-4.42,8.18-8.84a105.65,105.65,0,0,1,3.5-10.67c.68-1.74,1.69-4.09,3.14-4.65,3.93-1.53,4.87-4.4,5.09-8a30.65,30.65,0,0,1,.57-4.85c1.73-7.72,1-14.78-4.91-20.73a9.89,9.89,0,0,1-2.23-4.31Q326,768,320.11,745.15c-.74-2.86-.09-5.1,2.62-7.18,1.54-1.19,2.27-4.2,2.33-6.42.32-12.55.41-25.1.4-37.66,0-8.84,3.44-16.09,9.43-22.35,10.66-11.15,24.26-16.8,38.82-20.4,8.21-2,16.58-3.42,24.92-4.87a15.77,15.77,0,0,1,8,1c-1.25,1.08-2.5,2.15-3.74,3.23-3.1,2.7-3.29,5.37,0,8.16,6.05,5.21,12,10.57,18.1,15.71,6.59,5.54,9.44,12.6,9.39,21.09-.08,12.72-.14,25.44.14,38.15,0,2.26,1.83,4.46,2.71,6.72.56,1.43,1.42,3,1.3,4.39-.73,8.86-.72,17.78-5.38,26-2.36,4.15-3,9.27-4.67,13.84-1.41,3.78-3.46,7.32-4.9,11.09s-3.22,7.89-3.74,12c-.64,5.14-.2,10.41-.13,15.63,0,1.09.11,2.71.79,3.17,5.76,3.92,6.32,10.43,8,16.21s5.24,8.68,10.64,10.94c21.16,8.86,42.12,18.19,63.15,27.36,1.19.52,2.33,1.17,3.48,1.78,12.49,6.56,13.67,8.74,12.31,23.3Z"/><path class="cls-2" d="M627,906.16H529c0-5.47.3-10.8-.13-16.08-.21-2.49-1.17-5.67-2.94-7.15-6-5-12-10.06-18.8-13.77C496,863.08,484.34,858,471.7,852c3.14-1.71,5.52-3.59,8.22-4.33,4.48-1.23,7.34-3.76,7.85-8.26.69-6.11,1.1-12.26,1.23-18.41.08-3.58-2.11-5.95-5.51-7.3-5.75-2.29-11.43-4.74-17.12-7.17-3-1.27-4.25-3.29-3-6.62,8.3-21.76,10.51-44.56,12.05-67.56.42-6.3,3-12.63,5.44-18.57a20.45,20.45,0,0,1,13.9-12.14,31.28,31.28,0,0,0,4.52-1.85c25.25-11.53,52.09,3.79,55.26,31.58,1.66,14.56,2.83,29.18,5,43.65,1.18,7.66,4,15.07,6.32,22.54,2,6.49,1.78,7.18-4.59,9.93-4.78,2.07-9.56,4.17-14.43,6-3.81,1.43-6.21,4-6,8A128.2,128.2,0,0,0,543,841.19c.46,2.25,3.56,4.16,5.77,5.79,1.5,1.11,4,1,5.3,2.24,10.65,10.13,24.71,13.48,37.54,19.27,5.77,2.61,11.75,5,17.09,8.29C619.24,883.37,624.9,893.37,627,906.16Z"/><path class="cls-3" d="M785.65,0H80.26A80.22,80.22,0,0,0,0,80.4V1103.31a80.28,80.28,0,0,0,80.26,80.37H785.65a80.38,80.38,0,0,0,80.3-80.37V80.4A80.28,80.28,0,0,0,785.65,0ZM433,1153.56a47.74,47.74,0,1,1,47.74-47.7A47.69,47.69,0,0,1,433,1153.56Zm351.72-137.3H81.27V96.59H784.71Z"/></g></g></svg>