<?xml version="1.0" encoding="utf-8"?>
<!-- Generator: Adobe Illustrator 16.0.0, SVG Export Plug-In . SVG Version: 6.00 Build 0)  -->
<!DOCTYPE svg PUBLIC "-//W3C//DTD SVG 1.1//EN" "http://www.w3.org/Graphics/SVG/1.1/DTD/svg11.dtd">
<svg version="1.1" id="Layer_1" xmlns="http://www.w3.org/2000/svg" xmlns:xlink="http://www.w3.org/1999/xlink" x="0px" y="0px"
	 width="205.769px" height="205.859px" viewBox="0 0 205.769 205.859" enable-background="new 0 0 205.769 205.859"
	 xml:space="preserve">
<g>
	<g>
		<linearGradient id="SVGID_1_" gradientUnits="userSpaceOnUse" x1="-6099.8857" y1="5303.9458" x2="-6099.8857" y2="5097.6006">
			<stop  offset="0" style="stop-color:#FF9656"/>
			<stop  offset="1" style="stop-color:#FFD270"/>
		</linearGradient>
		<path fill="url(#SVGID_1_)" d="M-6019.645,5120.527h-10.312v22.927h-36.685v-22.927h-66.49v22.927h-36.685v-22.927h-10.316
			c-12.607,0-22.927,10.316-22.927,22.927v137.564c0,12.607,10.319,22.927,22.927,22.927h160.488
			c12.612,0,22.932-10.319,22.932-22.927v-137.564C-5996.713,5130.843-6007.032,5120.527-6019.645,5120.527z M-6019.645,5281.019
			h-160.488v-108.511h160.488V5281.019z M-6143.446,5097.601h-16.051v38.977h16.051V5097.601z M-6040.276,5097.601h-16.049v38.977
			h16.049V5097.601z"/>
	</g>
</g>
<g>
	<linearGradient id="SVGID_2_" gradientUnits="userSpaceOnUse" x1="-6099.3887" y1="5257.7671" x2="-6099.3887" y2="5193.7139">
		<stop  offset="0" style="stop-color:#498CFF"/>
		<stop  offset="1" style="stop-color:#37F8FF"/>
	</linearGradient>
	<path fill="url(#SVGID_2_)" d="M-6097.798,5194.768l8.544,20.223l21.873,1.88c1.517,0.128,2.136,2.023,0.979,3.021l-16.588,14.376
		l4.975,21.383c0.342,1.483-1.27,2.652-2.572,1.862l-18.792-11.334l-18.799,11.334c-1.308,0.788-2.914-0.379-2.576-1.862
		l4.979-21.383l-16.602-14.385c-1.154-0.997-0.535-2.884,0.98-3.02l21.879-1.875l8.543-20.221
		C-6100.377,5193.362-6098.392,5193.362-6097.798,5194.768L-6097.798,5194.768z"/>
</g>
<g>
	<linearGradient id="SVGID_3_" gradientUnits="userSpaceOnUse" x1="-5623.2432" y1="4910.5024" x2="-5623.2432" y2="4704.4541">
		<stop  offset="0" style="stop-color:#FF9656"/>
		<stop  offset="1" style="stop-color:#FFD270"/>
	</linearGradient>
	<path fill="url(#SVGID_3_)" d="M-5555.667,4736.692h-35.031c-5.097-3.991-10.906-7.052-17.292-8.959l13.213-13.213
		c2.306-2.305,2.306-6.031,0-8.336c-2.306-2.305-6.032-2.305-8.332,0l-18.363,18.402c-0.306,0.311-0.574,0.621-0.748,0.975
		c-0.313,0-0.624,0-0.977,0c-0.311,0-0.625,0-0.931,0c-0.226-0.354-0.49-0.665-0.757-0.975l-18.353-18.357
		c-2.312-2.305-6.031-2.305-8.337,0c-2.306,2.305-2.306,6.031,0,8.335l13.213,13.213c-6.343,1.907-12.194,4.964-17.292,8.955
		h-35.031c-22.654-0.04-41.146,18.447-41.146,41.062v80.611c0,22.611,18.492,41.101,41.102,41.101h0.532v4.08
		c0,3.814,3.105,6.917,6.918,6.917h4.213c3.811,0,6.918-3.103,6.918-6.917v-4.08h97.813v2.351c0,3.814,3.126,8.646,6.937,8.646
		h4.211c3.814,0,6.901-4.832,6.901-8.646v-2.351h0.531c22.609,0,41.101-18.49,41.101-41.101v-80.611
		C-5514.564,4755.179-5533.056,4736.692-5555.667,4736.692z M-5680.53,4876.405c-14.367,0-26.159-11.749-26.159-26.161v-63.672
		c0-14.367,11.747-26.159,26.159-26.159h88.727c14.362,0,26.158,11.748,26.158,26.159v63.672c0,14.365-11.746,26.161-26.158,26.161
		H-5680.53L-5680.53,4876.405z M-5540.637,4844.391c-3.637,0-6.562-2.925-6.562-6.562c0-3.637,2.925-6.563,6.562-6.563
		c3.639,0,6.562,2.926,6.562,6.563C-5534.074,4841.466-5537.047,4844.391-5540.637,4844.391z M-5540.637,4824.75
		c-3.637,0-6.562-2.925-6.562-6.562c0-3.638,2.925-6.562,6.562-6.562c3.639,0,6.562,2.924,6.562,6.562
		C-5534.074,4821.824-5537.047,4824.75-5540.637,4824.75z M-5540.637,4805.104c-3.637,0-6.562-2.924-6.562-6.559
		c0-3.636,2.925-6.566,6.562-6.566c3.639,0,6.562,2.93,6.562,6.566C-5534.074,4802.18-5537.047,4805.104-5540.637,4805.104z"/>
</g>
<linearGradient id="SVGID_4_" gradientUnits="userSpaceOnUse" x1="-5635.2637" y1="4860.313" x2="-5635.2637" y2="4788.0435">
	<stop  offset="0" style="stop-color:#498CFF"/>
	<stop  offset="1" style="stop-color:#37F8FF"/>
</linearGradient>
<path fill="url(#SVGID_4_)" d="M-5601.165,4827.738l-31.549,31.544c-0.669,0.674-1.567,1.031-2.506,1.031
	c-0.937,0-1.835-0.356-2.509-1.031l-31.634-31.59c-4.386-4.388-6.801-10.204-6.801-16.424c0-6.221,2.415-12.035,6.801-16.424
	c4.385-4.385,10.204-6.801,16.375-6.801c6.222,0,12.044,2.416,16.425,6.801l1.299,1.3l1.254-1.254
	c4.387-4.386,10.2-6.802,16.421-6.802c6.176,0,12.038,2.417,16.424,6.802c4.386,4.384,6.801,10.202,6.801,16.424
	C-5594.364,4817.489-5596.779,4823.347-5601.165,4827.738z"/>
<linearGradient id="SVGID_5_" gradientUnits="userSpaceOnUse" x1="-5183.6133" y1="4539.4121" x2="-5183.6133" y2="4342.9443">
	<stop  offset="0" style="stop-color:#FF9656"/>
	<stop  offset="1" style="stop-color:#FFD270"/>
</linearGradient>
<path fill="url(#SVGID_5_)" d="M-5221.961,4342.944c-0.008,0-0.016,0-0.023,0c-2.559,0-4.964,0.997-6.78,2.808
	c-1.837,1.833-2.847,4.272-2.847,6.87v145.12c0,5.321,4.346,9.659,9.692,9.676c22.521,0.054,60.263,4.746,86.304,31.994v-151.874
	c0-1.803-0.465-3.496-1.334-4.899C-5158.319,4348.228-5199.382,4342.997-5221.961,4342.944z"/>
<linearGradient id="SVGID_6_" gradientUnits="userSpaceOnUse" x1="-5072.5947" y1="4539.4121" x2="-5072.5947" y2="4342.9443">
	<stop  offset="0" style="stop-color:#FF9656"/>
	<stop  offset="1" style="stop-color:#FFD270"/>
</linearGradient>
<path fill="url(#SVGID_6_)" d="M-5024.597,4497.742v-145.12c0-2.598-1.016-5.037-2.853-6.87c-1.817-1.811-4.226-2.808-6.779-2.808
	c-0.008,0-0.017,0-0.024,0c-22.575,0.053-63.636,5.284-85.012,39.695c-0.869,1.403-1.329,3.096-1.329,4.899v151.874
	c26.039-27.249,63.778-31.945,86.304-31.994C-5028.943,4507.401-5024.597,4503.063-5024.597,4497.742z"/>
<linearGradient id="SVGID_7_" gradientUnits="userSpaceOnUse" x1="-5050.8965" y1="4548.8604" x2="-5050.8965" y2="4376.4102">
	<stop  offset="0" style="stop-color:#498CFF"/>
	<stop  offset="1" style="stop-color:#37F8FF"/>
</linearGradient>
<path fill="url(#SVGID_7_)" d="M-5003.618,4376.41h-6.989v120.838c0,13.53-11.025,24.564-24.578,24.597
	c-19.029,0.051-50.408,3.769-72.626,24.8c38.43-9.41,78.944-3.293,102.034,1.97c2.884,0.656,5.861-0.019,8.173-1.862
	c2.305-1.838,3.623-4.584,3.623-7.531v-153.175C-4993.981,4380.734-4998.306,4376.41-5003.618,4376.41z"/>
<linearGradient id="SVGID_8_" gradientUnits="userSpaceOnUse" x1="-5206.415" y1="4548.8584" x2="-5206.415" y2="4376.4102">
	<stop  offset="0" style="stop-color:#498CFF"/>
	<stop  offset="1" style="stop-color:#37F8FF"/>
</linearGradient>
<path fill="url(#SVGID_8_)" d="M-5246.707,4497.249V4376.41h-6.986c-5.315,0-9.639,4.324-9.639,9.637v153.175
	c0,2.947,1.322,5.692,3.623,7.526c2.308,1.839,5.283,2.523,8.173,1.864c23.089-5.265,63.604-11.377,102.038-1.967
	c-22.224-21.031-53.601-24.754-72.631-24.8C-5235.682,4521.813-5246.707,4510.779-5246.707,4497.249z"/>
<linearGradient id="SVGID_9_" gradientUnits="userSpaceOnUse" x1="-4646.126" y1="4172.7056" x2="-4646.126" y2="3965.8716">
	<stop  offset="0" style="stop-color:#FF9656"/>
	<stop  offset="1" style="stop-color:#FFD270"/>
</linearGradient>
<path fill-rule="evenodd" clip-rule="evenodd" fill="url(#SVGID_9_)" d="M-4753.066,4172.706c-0.004-3.502-0.017-6.998,0.012-10.495
	c0.004-0.335,0.195-0.756,0.441-0.989c2.045-1.955,4.314-3.616,6.765-5.006c8.964-5.096,17.912-10.233,27.38-14.36
	c9.092-3.958,18.225-7.819,27.34-11.725c0.721-0.307,1.424-0.647,2.145-0.944c1.472-0.603,2.481-1.649,2.984-3.146
	c1.243-3.722,2.454-7.464,3.689-11.196c0.236-0.717,0.49-1.433,0.817-2.112c0.58-1.21,1.554-2.028,2.847-2.359
	c1.529-0.392,2.29-1.501,2.453-2.884c0.573-4.927,1.023-9.868,1.506-14.812c0.127-1.277-0.259-2.455-1.088-3.402
	c-4.478-5.114-6.821-11.146-7.868-17.783c-0.226-1.432-0.712-2.851-1.28-4.192c-1.935-4.547-2.913-9.361-4.16-14.109
	c-0.879-3.357-1.112-6.789-1.414-10.217c-0.172-1.958,0.548-3.022,2.302-3.815c0.45-0.204,0.953-0.615,1.116-1.048
	c0.333-0.899,0.618-1.876,0.631-2.825c0.09-9.542,0.105-19.078,0.188-28.624c0.024-3.174,0.082-6.354,0.949-9.456
	c1.186-4.254,3.512-7.819,6.502-10.998c5.709-6.073,12.657-10.245,20.413-13.137c7.422-2.768,15.082-4.604,22.889-5.889
	c2.528-0.421,5.052-0.903,7.599-1.215c1.347-0.163,2.741-0.097,4.095,0.024c0.368,0.034,0.69,0.655,1.106,1.08
	c-0.637,0.459-1.209,0.794-1.691,1.219c-0.982,0.868-2.028,1.703-2.846,2.708c-1.028,1.259-0.925,2.477,0.088,3.746
	c0.443,0.548,0.97,1.038,1.497,1.509c4.573,4.061,9.081,8.195,13.743,12.15c5.135,4.351,7.34,9.896,7.336,16.495
	c-0.008,10.424,0.013,20.843,0.032,31.264c0,0.778,0.05,1.562,0.171,2.336c0.17,1.035,0.832,1.742,1.76,2.2
	c1.138,0.556,1.587,1.28,1.473,2.578c-0.285,3.287-0.61,6.571-0.924,9.86c-0.167,1.701-0.345,3.402-0.536,5.103
	c-0.045,0.381-0.083,0.811-0.278,1.121c-2.367,3.662-3.685,7.747-4.866,11.894c-1.068,3.729-2.024,7.497-3.645,11.045
	c-0.154,0.333-0.344,0.651-0.563,0.937c-2.405,3.052-3.763,6.56-3.952,10.393c-0.212,4.24-0.097,8.502-0.073,12.755
	c0.009,0.893,0.137,1.795,0.367,2.651c0.107,0.421,0.509,0.899,0.901,1.088c1.685,0.821,2.649,2.191,3.19,3.918
	c0.833,2.63,1.628,5.271,2.47,7.9c0.384,1.183,0.899,2.323,1.272,3.51c0.628,2.023,2.08,3.197,3.937,3.966
	c2.17,0.891,4.352,1.742,6.528,2.617c16.416,6.601,32.633,13.643,48.316,21.859c3.537,1.854,6.771,4.098,9.541,6.989
	c0.078,0.09,0.186,0.149,0.281,0.222c0,3.865,0,7.73,0,11.599C-4610.476,4172.706-4681.771,4172.706-4753.066,4172.706z"/>
<linearGradient id="SVGID_10_" gradientUnits="userSpaceOnUse" x1="-4028.709" y1="3801.8579" x2="-4028.709" y2="3594.9917">
	<stop  offset="0" style="stop-color:#FF9656"/>
	<stop  offset="1" style="stop-color:#FFD270"/>
</linearGradient>
<path fill-rule="evenodd" clip-rule="evenodd" fill="url(#SVGID_10_)" d="M-3930.034,3801.858c-65.907,0-131.61,0-197.435,0
	c0-3.592-0.017-7.132,0.031-10.669c0-0.333,0.328-0.744,0.616-0.966c2.514-1.948,4.942-4.033,7.598-5.764
	c14.677-9.579,30.565-16.818,46.489-23.98c1.399-0.627,2.756-1.342,4.155-1.948c1.552-0.667,2.573-1.791,3.063-3.384
	c1.159-3.771,2.319-7.546,3.419-11.338c0.606-2.085,1.537-3.746,3.812-4.445c1.166-0.36,1.661-1.531,1.782-2.687
	c0.504-4.98,1.038-9.956,1.349-14.948c0.073-1.126-0.444-2.525-1.155-3.442c-3.888-5.021-5.965-10.724-6.969-16.924
	c-0.303-1.851-0.88-3.678-1.492-5.464c-2.627-7.745-4.48-15.642-4.933-23.835c-0.081-1.362,0.137-2.732,1.482-3.322
	c1.911-0.844,2.224-2.422,2.26-4.151c0.063-2.991,0.032-5.978,0.056-8.966c0.065-7.545,0.17-15.095,0.178-22.641
	c0.01-7.243,2.782-13.298,7.632-18.544c5.982-6.475,13.369-10.675,21.591-13.577c7.986-2.818,16.261-4.386,24.578-5.752
	c1.136-0.187,2.34-0.133,3.496,0.008c0.453,0.053,0.842,0.64,1.313,1.03c-1.163,0.974-2.183,1.71-3.067,2.575
	c-2.368,2.304-2.356,4.099,0.017,6.395c4.288,4.155,8.536,8.363,12.94,12.396c4.795,4.394,6.805,9.878,6.828,16.212
	c0.045,10.537,0.031,21.069,0.016,31.607c-0.003,2.017,0.173,3.8,2.3,4.915c0.558,0.291,0.857,1.634,0.8,2.458
	c-0.246,3.985-0.742,7.953-0.994,11.944c-0.141,2.344-1.018,4.372-1.834,6.53c-1.699,4.471-2.975,9.1-4.37,13.675
	c-0.978,3.196-1.871,6.377-3.747,9.247c-2.014,3.071-2.691,6.649-2.771,10.278c-0.097,4.075-0.009,8.148,0.044,12.23
	c0.017,1.307,0.48,2.381,1.743,3.089c1.507,0.849,2.077,2.396,2.545,3.964c1.023,3.444,2.119,6.859,3.063,10.314
	c0.705,2.575,2.385,4.051,4.763,5.061c15.727,6.702,31.251,13.826,46.234,22.096c3.562,1.969,7.112,3.954,10.164,6.718
	c1.689,1.524,2.691,3.059,2.465,5.492C-3930.232,3796.135-3930.034,3798.968-3930.034,3801.858z"/>
<linearGradient id="SVGID_11_" gradientUnits="userSpaceOnUse" x1="-4153.4717" y1="3801.8394" x2="-4153.4717" y2="3631.3486">
	<stop  offset="0" style="stop-color:#498CFF"/>
	<stop  offset="1" style="stop-color:#37F8FF"/>
</linearGradient>
<path fill-rule="evenodd" clip-rule="evenodd" fill="url(#SVGID_11_)" d="M-4098.189,3759.432
	c-4.866,2.615-9.718,4.999-14.353,7.756c-6.025,3.578-12.005,7.263-17.755,11.26c-2.749,1.908-4.943,4.612-7.334,7.01
	c-0.314,0.307-0.419,0.937-0.419,1.422c-0.032,4.518-0.017,9.041-0.017,13.561c0,0.44,0,0.875,0,1.398c-25.055,0-50.018,0-75.076,0
	c-0.028-0.281-0.085-0.582-0.085-0.886c-0.009-1.985,0.13-3.973-0.044-5.934c-0.168-1.858,0.432-3.16,1.937-4.183
	c1.462-0.999,2.828-2.15,4.315-3.108c10.234-6.576,20.978-12.183,32.101-17.085c3.687-1.625,7.311-3.386,10.981-5.056
	c1.288-0.59,2.169-1.516,2.582-2.865c0.979-3.201,1.941-6.403,2.898-9.604c0.496-1.653,1.298-2.931,3.064-3.617
	c0.69-0.267,1.413-1.33,1.508-2.111c0.521-4.24,0.925-8.499,1.179-12.768c0.058-0.935-0.44-2.082-1.038-2.861
	c-3.12-4.079-4.822-8.699-5.678-13.707c-0.279-1.617-0.736-3.222-1.263-4.777c-2.134-6.325-3.698-12.76-4.106-19.45
	c-0.104-1.717,0.137-3.06,1.912-3.892c0.528-0.255,0.945-1.229,1.011-1.912c0.186-1.96,0.206-3.944,0.222-5.921
	c0.033-6.661,0-13.322,0.081-19.975c0.024-2.093,0.186-4.208,0.542-6.262c0.545-3.192,1.936-6.078,3.981-8.58
	c4.543-5.566,9.95-10.109,16.309-13.476c3.604-1.912,7.461-2.365,11.556-2.458c5.159-0.109,9.744,1.167,13.955,3.908
	c2.595,1.69,5.069,3.593,7.444,5.579c1.908,1.605,3.696,3.387,5.36,5.242c3.573,4.001,5.393,8.747,5.441,14.13
	c0.061,7.186,0.092,14.368,0.145,21.551c0.009,1.854,0.032,3.714,0.098,5.569c0.044,1.293,0.363,2.417,1.754,3.031
	c1.196,0.525,1.391,1.694,1.326,2.886c-0.355,6.855-1.985,13.439-4.116,19.939c-0.771,2.364-1.252,4.824-1.786,7.262
	c-0.912,4.111-2.639,7.829-5.124,11.245c-0.663,0.914-1.173,2.219-1.115,3.31c0.21,4.026,0.68,8.034,1.067,12.053
	c0.134,1.305,0.711,2.268,2.053,2.692c1.361,0.427,2.037,1.523,2.432,2.809C-4099.536,3754.867-4098.857,3757.188-4098.189,3759.432
	z"/>
<linearGradient id="SVGID_12_" gradientUnits="userSpaceOnUse" x1="-3908.1025" y1="3801.8335" x2="-3908.1025" y2="3634.168">
	<stop  offset="0" style="stop-color:#498CFF"/>
	<stop  offset="1" style="stop-color:#37F8FF"/>
</linearGradient>
<path fill-rule="evenodd" clip-rule="evenodd" fill="url(#SVGID_12_)" d="M-3849.188,3801.833c-23.478,0-46.872,0-70.403,0
	c0-0.492,0-0.924,0-1.358c0-4.644,0.024-9.287-0.023-13.927c0-0.541-0.252-1.174-0.59-1.606
	c-4.579-5.899-10.302-10.406-16.937-13.802c-7.355-3.766-14.692-7.566-22.035-11.344c-0.389-0.203-0.781-0.393-1.277-0.639
	c1.75-1.896,3.406-3.638,6.062-4.079c2.539-0.42,4.203-2.009,4.834-4.51c1.403-5.55,2.263-11.143,1.357-16.888
	c-0.402-2.554-1.587-4.321-4.065-5.375c-4.038-1.73-7.995-3.658-11.956-5.55c-2.824-1.347-3.232-2.373-2.441-5.404
	c1.841-7.057,3.823-14.082,5.434-21.187c1.543-6.815,2.101-13.783,2.364-20.772c0.222-6.01,0.356-12.023,1.701-17.921
	c0.917-4.039,2.315-7.895,4.567-11.394c2.046-3.184,4.721-5.549,8.392-6.769c1.665-0.554,3.313-1.338,4.793-2.284
	c5.451-3.448,11.151-3.545,17.064-1.52c9.39,3.218,16.313,8.99,19.348,18.753c1.584,5.102,2.356,10.364,2.458,15.688
	c0.307,15.843,2.841,31.291,7.764,46.359c1.37,4.183,0.955,4.98-3.04,6.859c-3.718,1.759-7.412,3.569-11.186,5.182
	c-2.296,0.982-3.478,2.609-3.89,4.971c-1.047,5.985-0.13,11.814,1.423,17.578c0.63,2.315,2.271,3.71,4.607,4.127
	c2.014,0.363,3.671,1.326,4.931,2.841c2.442,2.926,5.53,4.862,8.965,6.402c6.65,2.991,13.226,6.151,19.895,9.081
	c7.77,3.42,14.199,8.265,18.162,15.958C-3851.009,3792.987-3849.389,3798.399-3849.188,3801.833z"/>
<linearGradient id="SVGID_13_" gradientUnits="userSpaceOnUse" x1="-3519.2803" y1="3405.9326" x2="-3519.2803" y2="3200.7051">
	<stop  offset="0" style="stop-color:#FF9656"/>
	<stop  offset="1" style="stop-color:#FFD270"/>
</linearGradient>
<path fill-rule="evenodd" clip-rule="evenodd" fill="url(#SVGID_13_)" d="M-3421.388,3405.933c-65.384,0-130.566,0-195.87,0
	c0-3.564-0.016-7.076,0.033-10.586c0-0.329,0.323-0.736,0.607-0.958c2.496-1.933,4.904-4,7.539-5.717
	c14.559-9.504,30.322-16.685,46.12-23.791c1.388-0.621,2.735-1.33,4.121-1.932c1.541-0.662,2.556-1.777,3.042-3.356
	c1.15-3.742,2.3-7.487,3.391-11.248c0.603-2.07,1.524-3.717,3.781-4.411c1.16-0.357,1.647-1.52,1.769-2.667
	c0.502-4.94,1.03-9.875,1.339-14.829c0.072-1.118-0.439-2.505-1.146-3.416c-3.857-4.981-5.919-10.638-6.913-16.789
	c-0.3-1.836-0.874-3.649-1.479-5.422c-2.606-7.682-4.448-15.518-4.897-23.645c-0.078-1.352,0.137-2.711,1.473-3.298
	c1.896-0.836,2.204-2.4,2.24-4.117c0.064-2.967,0.033-5.93,0.059-8.894c0.063-7.487,0.167-14.977,0.175-22.464
	c0.009-7.185,2.758-13.192,7.572-18.396c5.933-6.424,13.264-10.589,21.42-13.469c7.922-2.794,16.13-4.35,24.383-5.705
	c1.126-0.185,2.321-0.132,3.468,0.008c0.448,0.051,0.835,0.632,1.305,1.021c-1.156,0.966-2.166,1.697-3.045,2.555
	c-2.35,2.286-2.337,4.066,0.017,6.343c4.255,4.123,8.469,8.296,12.839,12.298c4.755,4.358,6.748,9.801,6.771,16.083
	c0.046,10.452,0.033,20.903,0.017,31.356c-0.004,2,0.173,3.769,2.282,4.875c0.553,0.29,0.85,1.62,0.794,2.438
	c-0.245,3.955-0.736,7.892-0.986,11.849c-0.14,2.327-1.011,4.339-1.821,6.48c-1.684,4.434-2.949,9.026-4.334,13.564
	c-0.971,3.173-1.855,6.328-3.717,9.175c-1.996,3.047-2.67,6.596-2.752,10.197c-0.096,4.041-0.008,8.083,0.045,12.132
	c0.017,1.296,0.478,2.362,1.729,3.064c1.496,0.842,2.061,2.378,2.526,3.934c1.015,3.416,2.101,6.805,3.039,10.233
	c0.698,2.555,2.366,4.018,4.724,5.021c15.602,6.648,31.004,13.717,45.869,21.92c3.535,1.954,7.057,3.923,10.084,6.666
	c1.675,1.512,2.671,3.034,2.445,5.448C-3421.585,3400.253-3421.388,3403.065-3421.388,3405.933z"/>
<linearGradient id="SVGID_14_" gradientUnits="userSpaceOnUse" x1="-3399.6299" y1="3405.9087" x2="-3399.6299" y2="3239.5713">
	<stop  offset="0" style="stop-color:#498CFF"/>
	<stop  offset="1" style="stop-color:#37F8FF"/>
</linearGradient>
<path fill-rule="evenodd" clip-rule="evenodd" fill="url(#SVGID_14_)" d="M-3341.18,3405.909c-23.293,0-46.502,0-69.848,0
	c0-0.49,0-0.919,0-1.347c0-4.607,0.024-9.215-0.023-13.817c0-0.538-0.248-1.164-0.586-1.593
	c-4.542-5.853-10.221-10.324-16.801-13.693c-7.299-3.736-14.576-7.506-21.86-11.255c-0.386-0.201-0.773-0.389-1.269-0.635
	c1.736-1.879,3.381-3.608,6.016-4.045c2.52-0.417,4.17-1.993,4.796-4.475c1.392-5.505,2.245-11.055,1.347-16.753
	c-0.401-2.533-1.575-4.286-4.033-5.333c-4.007-1.716-7.932-3.628-11.861-5.505c-2.803-1.335-3.208-2.353-2.422-5.361
	c1.824-7.001,3.794-13.97,5.391-21.02c1.531-6.76,2.084-13.673,2.345-20.606c0.22-5.963,0.353-11.93,1.688-17.781
	c0.911-4.005,2.298-7.83,4.53-11.303c2.029-3.158,4.685-5.505,8.324-6.716c1.654-0.549,3.29-1.326,4.756-2.265
	c5.41-3.42,11.063-3.517,16.932-1.507c9.313,3.191,16.182,8.917,19.192,18.604c1.573,5.061,2.339,10.282,2.439,15.562
	c0.306,15.719,2.818,31.044,7.702,45.992c1.359,4.151,0.948,4.941-3.016,6.806c-3.688,1.745-7.353,3.54-11.099,5.141
	c-2.276,0.974-3.448,2.59-3.858,4.932c-1.038,5.938-0.127,11.719,1.412,17.438c0.626,2.297,2.255,3.682,4.571,4.095
	c1.996,0.36,3.643,1.314,4.893,2.818c2.421,2.902,5.486,4.824,8.893,6.352c6.597,2.967,13.12,6.102,19.737,9.009
	c7.707,3.393,14.086,8.2,18.021,15.831C-3342.988,3397.132-3341.38,3402.5-3341.18,3405.909z"/>
<g>
	<linearGradient id="SVGID_15_" gradientUnits="userSpaceOnUse" x1="-2950.4658" y1="3013.7837" x2="-2950.4658" y2="2807.083">
		<stop  offset="0" style="stop-color:#FF9656"/>
		<stop  offset="1" style="stop-color:#FFD270"/>
	</linearGradient>
	<path fill="url(#SVGID_15_)" d="M-2847.015,2823.833c-11.451-11.253-27.166-16.75-47.179-16.75c-5.603,0-11.224,1-17.055,2.91
		c-5.857,1.907-11.241,4.499-16.188,7.761c-4.937,3.36-9.211,6.399-12.805,9.214c-3.583,2.916-6.957,5.942-10.22,9.192
		c-3.269-3.25-6.633-6.277-10.226-9.192c-3.594-2.815-7.871-5.854-12.805-9.214c-5.056-3.262-10.443-5.854-16.176-7.761
		c-5.854-1.91-11.464-2.91-17.075-2.91c-20.104,0-35.845,5.497-47.184,16.75c-11.463,10.995-17.076,26.506-17.076,46.275
		c0,5.952,1.02,12.126,3.154,18.529c2.016,6.397,4.5,11.796,7.177,16.278c2.69,4.497,5.735,8.896,9.12,13.17
		c3.469,4.15,5.952,7.163,7.512,8.742c1.576,1.68,2.7,2.822,3.601,3.487l84.026,81.107c1.56,1.583,3.597,2.362,5.951,2.362
		c2.363,0,4.277-0.778,5.945-2.362l83.804-80.774c20.553-20.567,30.783-40.78,30.783-60.54
		C-2829.929,2850.339-2835.54,2834.828-2847.015,2823.833z"/>
</g>
<g>
	<linearGradient id="SVGID_16_" gradientUnits="userSpaceOnUse" x1="-2860.8369" y1="2990.6094" x2="-2860.8369" y2="2884.9575">
		<stop  offset="0" style="stop-color:#498CFF"/>
		<stop  offset="1" style="stop-color:#37F8FF"/>
	</linearGradient>
	<path fill="url(#SVGID_16_)" d="M-2807.96,2893.519c-5.853-5.752-13.885-8.562-24.113-8.562c-2.865,0-5.738,0.511-8.718,1.487
		c-2.994,0.975-5.746,2.3-8.274,3.967c-2.523,1.717-4.709,3.271-6.545,4.709c-1.832,1.49-3.557,3.037-5.224,4.699
		c-1.671-1.662-3.39-3.208-5.228-4.699c-1.836-1.439-4.022-2.992-6.545-4.709c-2.584-1.667-5.337-2.993-8.268-3.967
		c-2.992-0.976-5.859-1.487-8.727-1.487c-10.276,0-18.322,2.81-24.119,8.562c-5.857,5.62-8.727,13.548-8.727,23.653
		c0,3.042,0.52,6.198,1.611,9.471c1.031,3.27,2.301,6.029,3.668,8.32c1.375,2.299,2.932,4.547,4.662,6.731
		c1.773,2.122,3.043,3.662,3.84,4.469c0.806,0.859,1.38,1.442,1.84,1.782l42.949,41.457c0.797,0.809,1.838,1.207,3.042,1.207
		c1.207,0,2.187-0.398,3.039-1.207l42.834-41.287c10.506-10.513,15.734-20.844,15.734-30.944
		C-2799.227,2907.067-2802.095,2899.139-2807.96,2893.519z"/>
</g>
<linearGradient id="SVGID_17_" gradientUnits="userSpaceOnUse" x1="-2546.8428" y1="2618.3081" x2="-2546.8428" y2="2411.5225">
	<stop  offset="0" style="stop-color:#498CFF"/>
	<stop  offset="1" style="stop-color:#37F8FF"/>
</linearGradient>
<path fill="url(#SVGID_17_)" d="M-2546.843,2411.522c-14.274,77.541-25.85,89.155-103.392,103.391
	c77.542,14.305,89.117,25.849,103.392,103.395c14.266-77.545,25.845-89.09,103.391-103.395
	C-2520.998,2500.678-2532.577,2489.063-2546.843,2411.522z"/>
<linearGradient id="SVGID_18_" gradientUnits="userSpaceOnUse" x1="-2427.1475" y1="2503.5518" x2="-2427.1475" y2="2444.9482">
	<stop  offset="0" style="stop-color:#FF9656"/>
	<stop  offset="1" style="stop-color:#FFD270"/>
</linearGradient>
<path fill="url(#SVGID_18_)" d="M-2427.131,2444.948c-4.037,21.987-7.331,25.281-29.314,29.316
	c21.983,4.037,25.277,7.335,29.314,29.288c4.038-21.953,7.297-25.25,29.281-29.288
	C-2419.834,2470.229-2423.093,2466.936-2427.131,2444.948z"/>
<linearGradient id="SVGID_19_" gradientUnits="userSpaceOnUse" x1="-2400.5215" y1="2573.5127" x2="-2400.5215" y2="2514.9136">
	<stop  offset="0" style="stop-color:#FF9656"/>
	<stop  offset="1" style="stop-color:#FFD270"/>
</linearGradient>
<path fill="url(#SVGID_19_)" d="M-2400.505,2514.914c-4.039,21.987-7.332,25.28-29.316,29.318
	c21.984,4.041,25.277,7.329,29.316,29.281c4.041-21.953,7.297-25.24,29.283-29.281
	C-2393.208,2540.193-2396.464,2536.9-2400.505,2514.914z"/>
<linearGradient id="SVGID_20_" gradientUnits="userSpaceOnUse" x1="-2124.1133" y1="2214.5703" x2="-2124.1133" y2="2007.6484">
	<stop  offset="0" style="stop-color:#FF9656"/>
	<stop  offset="1" style="stop-color:#FFD270"/>
</linearGradient>
<path fill-rule="evenodd" clip-rule="evenodd" fill="url(#SVGID_20_)" d="M-2215.078,2175.479c0.146-1.201,0.318-2.404,0.498-3.607
	c0.992-6.339,3.539-12.078,7.152-17.354c5.738-8.215,13.242-14.375,22.097-18.906c6.969-3.578,14.374-5.807,22.127-6.763
	c9.278-1.099,18.374-0.391,27.153,2.943c4.393,1.697,8.469,3.928,12.114,6.899c0.104,0.105,0.21,0.179,0.459,0.323
	c0-0.359,0-0.643,0-0.891c0-41.285,0-82.53,0-123.75c0-0.884,0.078-1.843,0.39-2.653c0.708-2.165,2.336-3.364,4.531-3.893
	c0.141-0.039,0.32-0.109,0.461-0.179c0.957,0,1.91,0,2.872,0c0.421,0.069,0.815,0.14,1.239,0.209
	c4.711,0.673,9.029,2.446,13.242,4.533c4.951,2.483,8.959,5.948,12.176,10.411c1.665,2.336,3.332,4.641,4.995,6.938
	c4.741,6.663,10.835,11.615,18.587,14.45c2.905,1.063,5.916,1.982,8.78,3.114c5.42,2.122,10.45,4.882,14.734,8.85
	c3.792,3.473,6.587,7.577,7.751,12.682c0.25,1.13,0.355,2.333,0.57,3.504c0,1.059,0,2.083,0,3.15
	c-0.142,1.133-0.289,2.266-0.503,3.403c-0.173,1.059-0.771,1.698-1.8,1.907c-0.957,0.28-1.846-0.14-2.444-1.063
	c-4.034-6.199-9.953-9.313-17.102-10.407c-3.962-0.565-7.896-0.355-11.79,0.035c-6.09,0.635-12.184,0.848-18.272,0.635
	c-6.442-0.21-12.892-0.811-19.052-2.765c-2.188-0.669-4.282-1.732-6.408-2.582c-0.141-0.069-0.242-0.14-0.494-0.209
	c0,0.315,0,0.603,0,0.884c0,32.783-0.035,65.541,0.039,98.321c0.031,9.777-2.94,18.417-8.71,26.137
	c-6.804,9.201-15.761,15.613-26.274,19.901c-6.799,2.795-13.885,4.353-21.209,4.743c-0.215,0.039-0.389,0.069-0.604,0.14
	c-1.837,0-3.754,0-5.596,0c-0.209-0.032-0.389-0.071-0.563-0.102c-2.831-0.394-5.665-0.53-8.427-1.102
	c-7.936-1.628-15.122-4.887-21.212-10.337c-5.878-5.241-9.663-11.72-11.011-19.546c-0.18-1.239-0.32-2.476-0.498-3.684
	C-2215.078,2178.383-2215.078,2176.895-2215.078,2175.479z"/>
<linearGradient id="SVGID_21_" gradientUnits="userSpaceOnUse" x1="-2038.126" y1="2199.2368" x2="-2038.126" y2="2096.5234">
	<stop  offset="0" style="stop-color:#498CFF"/>
	<stop  offset="1" style="stop-color:#37F8FF"/>
</linearGradient>
<path fill-rule="evenodd" clip-rule="evenodd" fill="url(#SVGID_21_)" d="M-2083.291,2179.836c0.069-0.6,0.145-1.165,0.253-1.765
	c0.53-3.158,1.737-6.024,3.575-8.613c2.834-4.107,6.548-7.152,10.979-9.415c3.429-1.767,7.078-2.87,10.933-3.325
	c4.641-0.573,9.139-0.218,13.491,1.449c2.2,0.813,4.221,1.947,6.021,3.433c0.073,0.032,0.107,0.072,0.213,0.145
	c0-0.184,0-0.323,0-0.425c0-20.502,0-41.003,0.039-61.468c0-0.424,0.031-0.888,0.18-1.276c0.35-1.064,1.164-1.698,2.262-1.951
	c0.07-0.031,0.141-0.071,0.211-0.102c0.502,0,0.953,0,1.416,0c0.211,0.031,0.429,0.071,0.604,0.102
	c2.335,0.323,4.497,1.238,6.589,2.27c2.44,1.199,4.461,2.936,6.049,5.167c0.814,1.136,1.629,2.306,2.48,3.434
	c2.372,3.333,5.386,5.771,9.205,7.157c1.453,0.56,2.939,0.989,4.393,1.558c2.689,1.063,5.17,2.44,7.293,4.392
	c1.876,1.768,3.254,3.785,3.857,6.299c0.109,0.569,0.18,1.169,0.288,1.738c0,0.529,0,1.059,0,1.596
	c-0.077,0.524-0.179,1.094-0.249,1.696c-0.069,0.491-0.394,0.776-0.883,0.915c-0.503,0.144-0.924-0.069-1.247-0.529
	c-1.978-3.08-4.913-4.637-8.487-5.167c-1.92-0.28-3.901-0.178-5.849,0.032c-3.007,0.288-6.051,0.428-9.065,0.288
	c-3.223-0.071-6.408-0.39-9.453-1.347c-1.098-0.358-2.121-0.854-3.185-1.273c-0.074-0.075-0.144-0.075-0.249-0.144
	c0,0.179,0,0.319,0,0.462c0,16.249-0.035,32.536,0.035,48.822c0,4.821-1.488,9.144-4.318,12.963
	c-3.402,4.566-7.826,7.755-13.07,9.877c-3.359,1.381-6.865,2.157-10.514,2.375c-0.107,0-0.209,0.031-0.284,0.031
	c-0.919,0-1.872,0-2.796,0c-0.109,0-0.178-0.031-0.279-0.031c-1.387-0.179-2.804-0.289-4.182-0.569
	c-3.929-0.779-7.508-2.406-10.518-5.092c-2.936-2.625-4.815-5.848-5.485-9.742c-0.108-0.599-0.184-1.203-0.253-1.806
	C-2083.291,2181.288-2083.291,2180.579-2083.291,2179.836z"/>
<linearGradient id="SVGID_22_" gradientUnits="userSpaceOnUse" x1="-1723.7549" y1="1807.1262" x2="-1723.7549" y2="1600.2556">
	<stop  offset="0" style="stop-color:#FF9656"/>
	<stop  offset="1" style="stop-color:#FFD270"/>
</linearGradient>
<path fill="url(#SVGID_22_)" d="M-1620.255,1655.016c0,1.229,0,2.461,0,3.726c-0.212,1.333-0.355,2.668-0.707,4.005
	c-2.462,10.475-5.025,20.955-7.559,31.431c-7.412,30.724-14.904,61.481-22.32,92.241c-3.408,14.271-17.258,23.166-31.569,20.105
	c-5.731-1.23-11.419-2.741-17.151-4.108c-23.73-5.733-47.463-11.501-71.186-17.196c-12.129-2.953-24.256-5.798-36.316-8.82
	c-13.986-3.519-22.633-17.295-19.578-31.39c2.249-10.231,4.887-20.391,7.347-30.583c7.524-31.183,15.084-62.364,22.603-93.505
	c3.484-14.453,17.686-23.347,32.131-19.938c15.61,3.691,31.216,7.522,46.823,11.288c25.558,6.184,51.186,12.337,76.741,18.593
	c10.41,2.566,16.981,9.208,19.896,19.475C-1620.685,1651.854-1620.54,1653.431-1620.255,1655.016z M-1691.903,1740.12
	c-8.717,0-15.741,6.993-15.741,15.714c0,8.577,7.024,15.64,15.671,15.678c8.722,0,15.787-6.992,15.787-15.749
	C-1676.187,1747.183-1683.252,1740.156-1691.903,1740.12z M-1755.597,1667.285c8.721-0.039,15.715-7.066,15.715-15.779
	c0-8.651-7.143-15.648-15.854-15.613c-8.647,0.036-15.605,7.101-15.605,15.823
	C-1771.31,1660.292-1764.209,1667.315-1755.597,1667.285z M-1671.651,1687.603c8.434,0.101,15.609-6.923,15.748-15.362
	c0.14-8.718-6.754-15.927-15.361-16.031c-8.824-0.139-15.993,6.749-16.061,15.466
	C-1687.435,1680.428-1680.507,1687.464-1671.651,1687.603z M-1775.914,1719.834c-8.542-0.069-15.648,6.931-15.679,15.539
	c-0.109,8.688,6.893,15.749,15.609,15.823c8.646,0.069,15.714-6.893,15.783-15.61
	C-1760.093,1726.935-1767.163,1719.873-1775.914,1719.834z M-1708.704,1706.234c0.031-8.646-7.026-15.717-15.748-15.717
	c-8.578,0-15.678,7.101-15.64,15.679c0,8.72,7.031,15.752,15.748,15.752C-1715.73,1721.98-1708.704,1714.956-1708.704,1706.234z"/>
<linearGradient id="SVGID_23_" gradientUnits="userSpaceOnUse" x1="-1603.1924" y1="1800.4419" x2="-1603.1924" y2="1673.8301">
	<stop  offset="0" style="stop-color:#498CFF"/>
	<stop  offset="1" style="stop-color:#37F8FF"/>
</linearGradient>
<path fill="url(#SVGID_23_)" d="M-1666.485,1715.184c0-0.743,0-1.457,0-2.199c0-0.102,0.069-0.246,0.069-0.351
	c0.854-6.553,4.356-11.085,10.552-13.351c5.807-2.122,11.685-4.068,17.529-6.125c17.662-6.124,35.295-12.289,52.93-18.409
	c2.371-0.85,4.82-1.138,7.297-0.748c6.27,1.028,10.626,4.501,12.748,10.521c7.152,20.395,14.234,40.82,21.348,61.255
	c1.173,3.394,2.376,6.794,3.508,10.2c0.281,0.951,0.39,1.979,0.604,2.972c0,0.775,0,1.558,0,2.332
	c-0.038,0.285-0.109,0.608-0.144,0.923c-1.063,6.304-4.532,10.696-10.592,12.822c-20.566,7.185-41.14,14.336-61.748,21.524
	c-3.225,1.094-6.439,2.231-9.703,3.294c-0.988,0.319-2.049,0.39-3.115,0.599c-0.674,0-1.344,0-2.052,0
	c-0.567-0.069-1.094-0.139-1.667-0.25c-5.98-1.234-10.127-4.703-12.143-10.478c-7.224-20.569-14.342-41.144-21.529-61.717
	c-1.133-3.255-2.266-6.514-3.328-9.773C-1666.237,1717.232-1666.307,1716.173-1666.485,1715.184z M-1626.296,1721.484
	c0-5.096-4.143-9.205-9.208-9.205c-5.101,0-9.239,4.14-9.239,9.205c0,5.096,4.139,9.274,9.239,9.274
	C-1630.407,1730.726-1626.296,1726.58-1626.296,1721.484z M-1580.095,1752.784c0,5.101,4.111,9.209,9.209,9.209
	c5.065,0,9.207-4.148,9.24-9.209c0-5.1-4.175-9.275-9.271-9.239C-1576.021,1743.545-1580.13,1747.684-1580.095,1752.784z
	 M-1587.597,1714.051c5.096,0,9.246-4.112,9.246-9.205c0-5.104-4.111-9.244-9.177-9.282c-5.136,0-9.271,4.146-9.271,9.244
	C-1596.798,1709.907-1592.698,1714.051-1587.597,1714.051z M-1618.823,1760.218c-5.102,0-9.213,4.108-9.244,9.208
	c0,5.1,4.143,9.244,9.207,9.274c5.102,0,9.236-4.139,9.236-9.239C-1609.624,1764.326-1613.728,1760.218-1618.823,1760.218z"/>
<g>
	<linearGradient id="SVGID_24_" gradientUnits="userSpaceOnUse" x1="-1168.332" y1="1282.981" x2="-1168.332" y2="1203.6489">
		<stop  offset="0" style="stop-color:#498CFF"/>
		<stop  offset="1" style="stop-color:#37F8FF"/>
	</linearGradient>
	<path fill="url(#SVGID_24_)" d="M-1128.625,1210.053c-4.394-4.244-10.418-6.404-18.119-6.404c-2.122,0-4.32,0.373-6.518,1.117
		c-2.23,0.746-4.312,1.71-6.248,2.974c-1.857,1.27-3.494,2.46-4.91,3.541c-1.342,1.117-2.679,2.266-3.906,3.534
		c-1.229-1.268-2.533-2.417-3.908-3.534c-1.416-1.081-3.053-2.271-4.952-3.541c-1.898-1.264-3.976-2.229-6.211-2.974
		c-2.234-0.744-4.39-1.117-6.552-1.117c-7.667,0-13.73,2.16-18.08,6.404c-4.391,4.276-6.557,10.188-6.557,17.783
		c0,2.271,0.383,4.657,1.197,7.103c0.822,2.421,1.75,4.51,2.754,6.252c1.047,1.751,2.229,3.388,3.498,5.024
		c1.34,1.641,2.307,2.758,2.904,3.388c0.589,0.639,1.039,1.081,1.412,1.342l32.223,31.068c0.598,0.671,1.374,0.967,2.271,0.967
		c0.887,0,1.637-0.296,2.271-0.967l32.145-30.961c7.893-7.885,11.833-15.623,11.833-23.216
		C-1122.078,1220.241-1124.234,1214.329-1128.625,1210.053z"/>
</g>
<g>
	<linearGradient id="SVGID_25_" gradientUnits="userSpaceOnUse" x1="-1249.3584" y1="1410.1631" x2="-1249.3584" y2="1203.6489">
		<stop  offset="0" style="stop-color:#FF9656"/>
		<stop  offset="1" style="stop-color:#FFD270"/>
	</linearGradient>
	<path fill-rule="evenodd" clip-rule="evenodd" fill="url(#SVGID_25_)" d="M-1288.26,1203.649
		c7.594,1.71,10.352,7.444,11.611,14.251c0.74,3.647,0.414,7.329-0.516,10.938c-1.71,6.666-2.087,13.434-1.637,20.283
		c1.261,19.125,6.695,37.177,14.951,54.4c0.971,1.932,2.088,3.871,3.314,5.659c0.672,0.962,1.639,1.784,2.607,2.45
		c1.635,1.044,3.236,0.934,4.354-0.109c1.191-1.151,1.375-3.049,0.56-4.728c-1.529-3.047-3.093-6.027-4.436-9.152
		c-5.242-12.129-9.595-24.485-12.353-37.431c-0.74-3.54-1.15-7.109-1.223-10.716c-0.111-8.482,9.189-13.246,16.334-8.966
		c2.418,1.444,4.129,3.568,5.58,5.914c2.791,4.504,4.469,9.448,6.328,14.357c2.303,6.146,4.541,12.247,7.069,18.237
		c2.381,5.732,6.178,10.496,10.266,15.107c7.889,9.006,15.627,18.122,22.183,28.131c5.617,8.559,9.777,17.638,11.682,27.758
		c1.043,5.623,1.635,11.314,1.71,16.97c0.188,12.132,0.222,24.226,0.303,36.314c0,4.025-1.718,5.957-5.733,6.665
		c-0.186,0.037-0.367,0.111-0.597,0.184c-11.31,0-22.622,0-33.97,0c-2.418-0.519-3.981-1.862-4.504-4.312
		c-0.152-0.524-0.227-1.084-0.301-1.637c-0.515-4.541-0.892-9.042-1.488-13.547c-0.443-3.649-1.186-7.224-2.604-10.611
		c-0.703-1.637-1.786-2.896-3.309-3.903c-15.111-9.599-28.688-20.981-40.3-34.677c-10.868-12.799-18.679-27.091-22.514-43.532
		c-2.377-10.311-3.757-20.769-4.129-31.334c-0.485-13.921,0.372-27.722,3.422-41.343c1.191-5.099,2.679-10.123,5.249-14.772
		c1.751-3.125,4.198-5.319,7.664-6.289c0.708-0.184,1.416-0.372,2.119-0.557C-1289.824,1203.649-1289.043,1203.649-1288.26,1203.649
		z"/>
	<linearGradient id="SVGID_26_" gradientUnits="userSpaceOnUse" x1="-1087.3096" y1="1410.1631" x2="-1087.3096" y2="1203.6489">
		<stop  offset="0" style="stop-color:#FF9656"/>
		<stop  offset="1" style="stop-color:#FFD270"/>
	</linearGradient>
	<path fill-rule="evenodd" clip-rule="evenodd" fill="url(#SVGID_26_)" d="M-1140.789,1410.163c-0.561-0.146-1.16-0.256-1.717-0.408
		c-2.974-0.819-4.5-2.718-4.576-5.803c0-5.097-0.037-10.16,0-15.217c0.041-7.296,0.041-14.551,0.265-21.813
		c0.328-10.864,1.818-21.505,6.252-31.548c3.532-8.002,8.181-15.258,13.577-22.071c5.434-6.881,10.979-13.649,16.742-20.237
		c5.027-5.692,8.855-12.091,11.578-19.166c2.492-6.399,4.61-12.946,7.176-19.309c1.31-3.319,3.02-6.477,4.877-9.493
		c2.051-3.347,5.029-5.504,9.039-6.101c5.998-0.892,11.613,3.724,11.871,9.754c0.26,5.353-0.782,10.488-2.117,15.623
		c-3.576,14.14-8.412,27.836-14.959,40.855c-0.293,0.598-0.676,1.191-0.969,1.784c-0.74,1.458-0.521,3.314,0.601,4.432
		c1.035,1.081,2.521,1.19,4.124,0.336c1.523-0.746,2.718-1.895,3.463-3.385c2.232-4.354,4.575-8.67,6.472-13.138
		c4.69-11.163,8.038-22.701,9.974-34.641c1.338-8.226,1.931-16.482,0.895-24.821c-0.412-3.052-1.195-5.99-1.71-9.005
		c-0.823-4.423-0.597-8.778,0.93-13.021c1.816-5.135,4.946-9.006,10.602-10.124c0.743,0,1.528,0,2.308,0
		c0.15,0.074,0.299,0.147,0.481,0.185c3.798,0.67,6.925,2.422,8.749,5.916c1.486,2.794,2.864,5.732,3.867,8.707
		c3.351,10.201,4.611,20.803,5.212,31.482c0.741,13.617-0.073,27.128-2.426,40.562c-3.159,18.155-10.45,34.377-22.132,48.662
		c-12.059,14.739-26.384,26.903-42.42,37.138c-1.342,0.821-2.381,1.864-2.904,3.28c-0.818,2.525-1.785,4.983-2.198,7.59
		c-0.854,5.578-1.451,11.236-2.083,16.813c-0.335,3.127-1.447,5.508-4.877,6.178
		C-1118.129,1410.163-1129.443,1410.163-1140.789,1410.163z"/>
</g>
<linearGradient id="SVGID_27_" gradientUnits="userSpaceOnUse" x1="-729.1982" y1="950.9275" x2="-729.1982" y2="796.6167">
	<stop  offset="0" style="stop-color:#FF9656"/>
	<stop  offset="1" style="stop-color:#FFD270"/>
</linearGradient>
<path fill-rule="evenodd" clip-rule="evenodd" fill="url(#SVGID_27_)" d="M-726.067,796.617c1.402,0.138,2.806,0.269,4.206,0.432
	c9.41,1.07,18.156,4.042,26.162,9.046c14.952,9.342,24.595,22.624,28.832,39.773c1.4,5.807,1.966,11.683,1.535,17.624
	c-0.033,0.831,0.131,1.666,0.131,2.468c-0.066,6.571-1.6,12.841-3.969,18.922c-3.172,8.172-7.709,15.61-12.877,22.659
	c-6.441,8.774-13.782,16.747-21.658,24.219c-6.475,6.174-13.25,11.98-20.391,17.354c-3.172,2.403-7.143,2.435-10.245,0
	c-15.917-12.581-30.433-26.56-42.44-42.945c-5.403-7.374-10.082-15.216-13.217-23.824c-1.838-5.106-3.137-10.351-3.172-15.786
	c-0.094-6.34-0.094-12.679,1.238-18.954c3.098-14.316,10.142-26.26,21.285-35.734c8.744-7.508,18.854-12.249,30.199-14.251
	c2.438-0.432,4.84-0.57,7.279-0.863c0.264-0.038,0.529-0.074,0.83-0.138C-730.27,796.617-728.131,796.617-726.067,796.617z
	 M-729.268,885.109c13.714-0.028,24.725-11.043,24.692-24.687c-0.034-13.551-11.048-24.464-24.692-24.496
	c-13.486,0-24.59,11.083-24.561,24.496C-753.791,874.094-742.818,885.109-729.268,885.109z"/>
<linearGradient id="SVGID_28_" gradientUnits="userSpaceOnUse" x1="-806.0146" y1="1002.272" x2="-806.0146" y2="919.1455">
	<stop  offset="0" style="stop-color:#498CFF"/>
	<stop  offset="1" style="stop-color:#37F8FF"/>
</linearGradient>
<path fill-rule="evenodd" clip-rule="evenodd" fill="url(#SVGID_28_)" d="M-831.64,1001.971c0.364-0.965,0.728-1.903,1.065-2.871
	c8.111-24.39,16.215-48.821,24.325-73.248c0.135-0.363,0.438-0.795,0.798-1.031c2.773-1.906,5.574-3.771,8.41-5.676
	c0.205,0.236,0.402,0.398,0.569,0.607c5.206,5.169,10.347,10.379,15.517,15.546c0.399,0.371,0.566,0.769,0.566,1.298
	c0,13.051-0.037,26.133,0,39.179c0,0.636-0.198,0.905-0.736,1.166c-16.549,8.276-33.063,16.583-49.579,24.861
	c-0.272,0.168-0.537,0.297-0.806,0.469C-831.543,1002.169-831.576,1002.071-831.64,1001.971z"/>
<linearGradient id="SVGID_29_" gradientUnits="userSpaceOnUse" x1="-652.3848" y1="1002.272" x2="-652.3848" y2="919.1157">
	<stop  offset="0" style="stop-color:#498CFF"/>
	<stop  offset="1" style="stop-color:#37F8FF"/>
</linearGradient>
<path fill-rule="evenodd" clip-rule="evenodd" fill="url(#SVGID_29_)" d="M-626.922,1002.272c-0.236-0.135-0.473-0.301-0.701-0.436
	c-16.485-8.274-32.97-16.553-49.451-24.794c-0.701-0.333-0.936-0.697-0.936-1.501c0.031-12.981,0-25.958,0-38.944
	c0-0.53,0.169-0.927,0.565-1.298c5.174-5.167,10.309-10.376,15.479-15.546c0.172-0.208,0.307-0.403,0.501-0.637
	c0.335,0.2,0.505,0.334,0.737,0.465c2.569,1.734,5.139,3.441,7.707,5.172c0.367,0.264,0.701,0.699,0.835,1.1
	c8.409,25.13,16.751,50.291,25.097,75.449c0.064,0.232,0.23,0.433,0.328,0.669C-626.824,1002.071-626.857,1002.169-626.922,1002.272
	z"/>
<linearGradient id="SVGID_30_" gradientUnits="userSpaceOnUse" x1="-729.2002" y1="1002.272" x2="-729.2002" y2="948.7153">
	<stop  offset="0" style="stop-color:#498CFF"/>
	<stop  offset="1" style="stop-color:#37F8FF"/>
</linearGradient>
<path fill-rule="evenodd" clip-rule="evenodd" fill="url(#SVGID_30_)" d="M-729.438,1002.272c-0.229-0.172-0.492-0.335-0.765-0.501
	c-12.209-6.144-24.461-12.281-36.701-18.417c-0.405-0.208-0.735-0.337-0.735-0.941c0.032-11.043,0.032-22.09,0.032-33.168
	c0-0.099,0-0.234,0.033-0.529c0.265,0.295,0.468,0.463,0.67,0.664c6.504,6.543,13.047,13.115,19.582,19.659
	c4.178,4.14,9.146,6.672,14.984,7.336c8.176,0.937,15.314-1.503,21.193-7.309c6.602-6.469,13.076-13.078,19.619-19.651
	c0.162-0.203,0.328-0.43,0.5-0.699c0.066,0.064,0.135,0.097,0.201,0.134c0,0.231,0.027,0.427,0.027,0.667
	c0,10.909,0,21.822,0.037,32.766c0,0.6-0.232,0.835-0.737,1.071c-12.239,6.136-24.488,12.273-36.736,18.417
	c-0.264,0.167-0.501,0.33-0.731,0.501C-729.133,1002.272-729.268,1002.272-729.438,1002.272z"/>
<linearGradient id="SVGID_31_" gradientUnits="userSpaceOnUse" x1="-338.6631" y1="509.5054" x2="-338.6631" y2="421.2441">
	<stop  offset="0" style="stop-color:#FF9656"/>
	<stop  offset="1" style="stop-color:#FFD270"/>
</linearGradient>
<path fill="url(#SVGID_31_)" d="M-456.743,482.381c0-10.617,0-21.237,0-31.837c0.261-0.233,0.524-0.423,0.778-0.672
	c9.348-9.294,18.693-18.609,28.045-27.92c0.477-0.498,0.936-0.708,1.622-0.708c58.421,0.016,116.845,0.016,175.268,0
	c0.653,0,1.109,0.179,1.585,0.638c9.369,9.364,18.769,18.712,28.158,28.06c0.207,0.231,0.471,0.41,0.703,0.602
	c0,10.551,0,21.115,0,31.662c-0.125,0.883-0.248,1.766-0.388,2.628c-2.667,15.562-16.899,26.269-32.511,24.429
	c-12.68-1.479-22.775-10.63-25.488-23.144c-0.283-1.196-0.425-2.432-0.641-3.669c-0.771,7.184-3.594,13.375-8.711,18.439
	c-5.15,5.098-11.376,7.956-18.592,8.48c-6.808,0.514-13.124-1.09-18.75-4.954c-7.707-5.292-11.943-12.683-13.018-21.977
	c-0.723,7.09-3.493,13.211-8.484,18.25c-5.01,5.069-11.08,7.998-18.17,8.632c-8.146,0.74-15.469-1.449-21.766-6.704
	c-6.281-5.24-9.721-12.048-10.604-20.167c-0.191,0.994-0.312,1.962-0.49,2.929c-2.702,15.384-17.729,26.285-33.187,23.764
	c-12.518-2.042-20.672-9.365-24.34-21.535C-456.229,485.911-456.406,484.108-456.743,482.381z"/>
<path fill-rule="evenodd" clip-rule="evenodd" fill="#FFFFFF" d="M-220.584,450.544c-0.232-0.192-0.496-0.371-0.703-0.602
	c-9.39-9.348-18.789-18.696-28.158-28.06c-0.476-0.459-0.932-0.638-1.585-0.638c-58.423,0.016-116.847,0.016-175.268,0
	c-0.687,0-1.146,0.21-1.622,0.708c-9.352,9.311-18.697,18.625-28.045,27.92c-0.254,0.249-0.518,0.439-0.778,0.672
	c0-19.63,0-39.25,0-58.864c78.726,0,157.446,0,236.159,0C-220.584,411.294-220.584,430.914-220.584,450.544z M-427.18,413.836
	c59.021,0,118.01,0,177.012,0c0-7.342,0-14.628,0-21.961c-59.023,0-117.99,0-177.012,0
	C-427.18,399.23-427.18,406.514-427.18,413.836z"/>
<linearGradient id="SVGID_32_" gradientUnits="userSpaceOnUse" x1="-338.6826" y1="597.6401" x2="-338.6826" y2="527.4541">
	<stop  offset="0" style="stop-color:#FF9656"/>
	<stop  offset="1" style="stop-color:#FFD270"/>
</linearGradient>
<path fill-rule="evenodd" clip-rule="evenodd" fill="url(#SVGID_32_)" d="M-441.925,597.64c0-23.355,0-46.676,0-70.138
	c4.602,2.595,9.452,4.028,14.692,4.028c5.223,0,10.072-1.413,14.73-4.061c0,16.123,0,32.085,0,48.12c49.25,0,98.357,0,147.605,0
	c0-15.98,0-31.963,0-48.136c4.692,2.644,9.561,4.077,14.783,4.077c5.221,0,10.074-1.413,14.674-4.028c0,23.43,0,46.767,0,70.138
	C-304.234,597.64-373.027,597.64-441.925,597.64z"/>
<linearGradient id="SVGID_33_" gradientUnits="userSpaceOnUse" x1="-338.6738" y1="413.8364" x2="-338.6738" y2="391.875">
	<stop  offset="0" style="stop-color:#498CFF"/>
	<stop  offset="1" style="stop-color:#37F8FF"/>
</linearGradient>
<path fill-rule="evenodd" clip-rule="evenodd" fill="url(#SVGID_33_)" d="M-427.18,413.836c0-7.322,0-14.606,0-21.961
	c59.021,0,117.988,0,177.012,0c0,7.333,0,14.62,0,21.961C-309.17,413.836-368.158,413.836-427.18,413.836z"/>
<linearGradient id="SVGID_34_" gradientUnits="userSpaceOnUse" x1="102.9277" y1="205.8594" x2="102.9277" y2="0">
	<stop  offset="0" style="stop-color:#498CFF"/>
	<stop  offset="1" style="stop-color:#37F8FF"/>
</linearGradient>
<path fill="url(#SVGID_34_)" d="M205.855,102.933c0,56.856-46.069,102.927-102.928,102.927C46.106,205.859,0,159.789,0,102.933
	C0,46.079,46.106,0,102.928,0C159.786,0,205.855,46.079,205.855,102.933z"/>
<g>
	<g>
		<linearGradient id="SVGID_35_" gradientUnits="userSpaceOnUse" x1="149.208" y1="202.8589" x2="149.208" y2="20.7627">
			<stop  offset="0" style="stop-color:#FF9656"/>
			<stop  offset="1" style="stop-color:#FFD270"/>
		</linearGradient>
		<path fill="url(#SVGID_35_)" d="M188.443,45.648l-3.102,0.988l-16.396,1.448l-4.61,7.407l-3.391-1.061l-13.042-11.775l-1.904-6.13
			l-2.535-6.489l-8.176-7.402l-9.693-1.871l-0.247,4.411l9.512,9.273l4.624,5.461l-5.217,2.747l-4.229-1.267l-6.383-2.68l0.212-5.11
			l-8.318-3.423l-2.784,12.054l-8.429,1.907l0.851,6.737l10.959,2.105l1.867-10.75l9.098,1.342l4.156,2.472h6.772l4.614,9.229
			l12.271,12.413l-0.92,4.862l-9.866-1.272l-17.061,8.603L114.775,94.61l-1.59,6.562h-4.402l-8.221-3.813l-8.003,3.813l1.979,8.387
			l3.491-3.984l6.094-0.174l-0.418,7.545l5.078,1.48l5.033,5.671l8.253-2.322l9.407,1.48l10.965,2.959l5.461,0.631l9.273,10.542
			l17.871,10.505l-11.562,22.063l-12.193,5.681l-4.658,12.651l-17.657,11.775l-1.867,6.796
			c45.158-10.887,78.746-51.43,78.746-99.926C205.855,81.746,199.441,62.044,188.443,45.648z"/>
		<linearGradient id="SVGID_36_" gradientUnits="userSpaceOnUse" x1="59.7471" y1="205.8594" x2="59.7471" y2="49.3521">
			<stop  offset="0" style="stop-color:#FF9656"/>
			<stop  offset="1" style="stop-color:#FFD270"/>
		</linearGradient>
		<path fill="url(#SVGID_36_)" d="M114.775,156.724l-7.473-13.892l6.834-14.343l-6.834-2.083l-7.758-7.752l-17.131-3.806
			l-5.639-11.916v7.053h-2.541L59.499,90V73.566L48.682,55.979l-17.169,3.065h-11.56l-5.816-3.805l7.44-5.887l-7.44,1.69
			C5.219,66.306,0,84.007,0,102.933c0,56.82,46.106,102.927,102.928,102.927c4.375,0,8.668-0.387,12.938-0.918l-1.09-12.44
			c0,0,4.719-18.506,4.719-19.14C119.494,172.725,114.775,156.724,114.775,156.724z"/>
		<linearGradient id="SVGID_37_" gradientUnits="userSpaceOnUse" x1="85.1416" y1="37.4399" x2="85.1416" y2="0">
			<stop  offset="0" style="stop-color:#FF9656"/>
			<stop  offset="1" style="stop-color:#FFD270"/>
		</linearGradient>
		<path fill="url(#SVGID_37_)" d="M38.277,33.203l18.263-2.564l8.425-4.623l9.479,2.749l15.157-0.842l5.221-8.175l7.542,1.268
			l18.4-1.732l5.074-5.602l7.123-4.761l10.118,1.521l3.659-0.566C133.448,3.63,118.613,0,102.928,0
			C70.993,0,42.441,14.562,23.544,37.44h0.073L38.277,33.203z M107.303,10.229l10.506-5.782l6.729,3.911l-9.762,7.436l-9.342,0.919
			l-4.196-2.717L107.303,10.229z M76.137,11.07l4.649,1.943l6.075-1.943l3.305,5.75l-14.029,3.703l-6.733-3.951
			C69.403,16.571,75.998,12.307,76.137,11.07z"/>
	</g>
</g>
<linearGradient id="SVGID_38_" gradientUnits="userSpaceOnUse" x1="428.8213" y1="-231.7168" x2="428.8213" y2="-252.3672">
	<stop  offset="0" style="stop-color:#498CFF"/>
	<stop  offset="1" style="stop-color:#37F8FF"/>
</linearGradient>
<rect x="418.496" y="-252.367" fill="url(#SVGID_38_)" width="20.649" height="20.65"/>
<linearGradient id="SVGID_39_" gradientUnits="userSpaceOnUse" x1="428.8213" y1="-262.6919" x2="428.8213" y2="-355.6172">
	<stop  offset="0" style="stop-color:#498CFF"/>
	<stop  offset="1" style="stop-color:#37F8FF"/>
</linearGradient>
<path fill="url(#SVGID_39_)" d="M428.82-355.617c-22.818,0-41.3,18.482-41.3,41.3h20.649c0-11.358,9.293-20.651,20.65-20.651
	s20.65,9.293,20.65,20.651c0,20.65-30.975,18.069-30.975,51.625h20.649c0-23.231,30.976-25.812,30.976-51.625
	C470.121-337.135,451.639-355.617,428.82-355.617z"/>
<linearGradient id="SVGID_40_" gradientUnits="userSpaceOnUse" x1="428.8203" y1="-190.417" x2="428.8203" y2="-396.9171">
	<stop  offset="0" style="stop-color:#FF9656"/>
	<stop  offset="1" style="stop-color:#FFD270"/>
</linearGradient>
<path fill="url(#SVGID_40_)" d="M428.82-396.917c-56.994,0-103.25,46.256-103.25,103.25c0,56.993,46.256,103.25,103.25,103.25
	c56.993,0,103.25-46.257,103.25-103.25C532.07-350.661,485.813-396.917,428.82-396.917z M428.82-211.067
	c-45.533,0-82.6-37.067-82.6-82.6c0-45.534,37.066-82.6,82.6-82.6s82.6,37.066,82.6,82.6
	C511.42-248.134,474.354-211.067,428.82-211.067z"/>
</svg>
