<?xml version="1.0" encoding="utf-8"?>
<!-- Generator: Adobe Illustrator 21.0.2, SVG Export Plug-In . SVG Version: 6.00 Build 0)  -->
<svg version="1.1" id="Layer_1" xmlns="http://www.w3.org/2000/svg" xmlns:xlink="http://www.w3.org/1999/xlink" x="0px" y="0px"
	 viewBox="0 0 279 206.8" style="enable-background:new 0 0 279 206.8;" xml:space="preserve">
<style type="text/css">
	.st0{fill:url(#SVGID_1_);}
	.st1{fill:url(#SVGID_2_);}
	.st2{fill:url(#SVGID_3_);}
	.st3{fill:url(#SVGID_4_);}
	.st4{fill:url(#SVGID_5_);}
	.st5{fill:url(#SVGID_6_);}
	.st6{fill:url(#SVGID_7_);}
	.st7{fill:url(#SVGID_8_);}
	.st8{fill:url(#SVGID_9_);}
	.st9{fill:url(#SVGID_10_);}
	.st10{fill:url(#SVGID_11_);}
	.st11{fill:url(#SVGID_12_);}
	.st12{fill:url(#SVGID_13_);}
	.st13{fill:url(#SVGID_14_);}
	.st14{fill:url(#SVGID_15_);}
	.st15{fill:url(#SVGID_16_);}
	.st16{fill:url(#SVGID_17_);}
	.st17{fill:url(#SVGID_18_);}
	.st18{fill:url(#SVGID_19_);}
	.st19{fill:url(#SVGID_20_);}
	.st20{fill:url(#SVGID_21_);}
	.st21{fill:url(#SVGID_22_);}
	.st22{fill:url(#SVGID_23_);}
	.st23{fill:url(#SVGID_24_);}
	.st24{fill:url(#SVGID_25_);}
	.st25{fill:url(#SVGID_26_);}
	.st26{fill:url(#SVGID_27_);}
	.st27{fill:url(#SVGID_28_);}
	.st28{fill:url(#SVGID_29_);}
	.st29{fill:url(#SVGID_30_);}
	.st30{fill:url(#SVGID_31_);}
	.st31{fill:#FFFFFF;}
	.st32{fill:url(#SVGID_32_);}
	.st33{fill:url(#SVGID_33_);}
	.st34{fill:url(#SVGID_34_);}
	.st35{fill:url(#SVGID_35_);}
	.st36{fill:url(#SVGID_36_);}
	.st37{fill:url(#SVGID_37_);}
	.st38{fill:url(#SVGID_38_);}
	.st39{fill:url(#SVGID_39_);}
	.st40{fill:url(#SVGID_40_);}
</style>
<g>
	<g>
		
			<linearGradient id="SVGID_1_" gradientUnits="userSpaceOnUse" x1="-3449.6514" y1="-2684.8328" x2="-3449.6514" y2="-2478.4878" gradientTransform="matrix(1 0 0 -1 0 207.59)">
			<stop  offset="0" style="stop-color:#FF9656"/>
			<stop  offset="1" style="stop-color:#FFD270"/>
		</linearGradient>
		<path class="st0" d="M-3369.4,2709h-10.3v22.9h-36.7V2709h-66.5v22.9h-36.7V2709h-10.3c-12.6,0-22.9,10.3-22.9,22.9v137.6
			c0,12.6,10.3,22.9,22.9,22.9h160.5c12.6,0,22.9-10.3,22.9-22.9v-137.6C-3346.5,2719.3-3356.8,2709-3369.4,2709z M-3369.4,2869.5
			h-160.5V2761h160.5V2869.5z M-3493.2,2686.1h-16.1v39h16.1V2686.1z M-3390,2686.1h-16v39h16V2686.1z"/>
	</g>
</g>
<g>
	
		<linearGradient id="SVGID_2_" gradientUnits="userSpaceOnUse" x1="-3449.1533" y1="-2638.6545" x2="-3449.1533" y2="-2574.6011" gradientTransform="matrix(1 0 0 -1 0 207.59)">
		<stop  offset="0" style="stop-color:#498CFF"/>
		<stop  offset="1" style="stop-color:#37F8FF"/>
	</linearGradient>
	<path class="st1" d="M-3447.6,2783.2l8.5,20.2l21.9,1.9c1.5,0.1,2.1,2,1,3l-16.6,14.4l5,21.4c0.3,1.5-1.3,2.7-2.6,1.9l-18.8-11.3
		l-18.8,11.3c-1.3,0.8-2.9-0.4-2.6-1.9l5-21.4l-16.6-14.4c-1.2-1-0.5-2.9,1-3l21.9-1.9l8.5-20.2
		C-3450.1,2781.8-3448.2,2781.8-3447.6,2783.2L-3447.6,2783.2z"/>
</g>
<g>
	
		<linearGradient id="SVGID_3_" gradientUnits="userSpaceOnUse" x1="-2973.0088" y1="-2291.3904" x2="-2973.0088" y2="-2085.3425" gradientTransform="matrix(1 0 0 -1 0 207.59)">
		<stop  offset="0" style="stop-color:#FF9656"/>
		<stop  offset="1" style="stop-color:#FFD270"/>
	</linearGradient>
	<path class="st2" d="M-2905.4,2325.2h-35c-5.1-4-10.9-7.1-17.3-9l13.2-13.2c2.3-2.3,2.3-6,0-8.3s-6-2.3-8.3,0l-18.4,18.4
		c-0.3,0.3-0.6,0.6-0.7,1c-0.3,0-0.6,0-1,0c-0.3,0-0.6,0-0.9,0c-0.2-0.4-0.5-0.7-0.8-1l-18.4-18.4c-2.3-2.3-6-2.3-8.3,0
		s-2.3,6,0,8.3l13.2,13.2c-6.3,1.9-12.2,5-17.3,9h-35c-22.7,0-41.1,18.4-41.1,41.1v80.6c0,22.6,18.5,41.1,41.1,41.1h0.5v4.1
		c0,3.8,3.1,6.9,6.9,6.9h4.2c3.8,0,6.9-3.1,6.9-6.9v-4.1h97.8v2.4c0,3.8,3.1,8.6,6.9,8.6h4.2c3.8,0,6.9-4.8,6.9-8.6v-2.4h0.5
		c22.6,0,41.1-18.5,41.1-41.1v-80.6C-2864.3,2343.7-2882.8,2325.2-2905.4,2325.2z M-3030.3,2464.9c-14.4,0-26.2-11.7-26.2-26.2
		v-63.7c0-14.4,11.7-26.2,26.2-26.2h88.7c14.4,0,26.2,11.7,26.2,26.2v63.7c0,14.4-11.7,26.2-26.2,26.2H-3030.3L-3030.3,2464.9z
		 M-2890.4,2432.9c-3.6,0-6.6-2.9-6.6-6.6s2.9-6.6,6.6-6.6c3.6,0,6.6,2.9,6.6,6.6C-2883.8,2429.9-2886.8,2432.9-2890.4,2432.9z
		 M-2890.4,2413.2c-3.6,0-6.6-2.9-6.6-6.6c0-3.6,2.9-6.6,6.6-6.6c3.6,0,6.6,2.9,6.6,6.6C-2883.8,2410.3-2886.8,2413.2-2890.4,2413.2
		z M-2890.4,2393.6c-3.6,0-6.6-2.9-6.6-6.6c0-3.6,2.9-6.6,6.6-6.6c3.6,0,6.6,2.9,6.6,6.6
		C-2883.8,2390.7-2886.8,2393.6-2890.4,2393.6z"/>
</g>
<linearGradient id="SVGID_4_" gradientUnits="userSpaceOnUse" x1="-2985.03" y1="-2241.2" x2="-2985.03" y2="-2168.9297" gradientTransform="matrix(1 0 0 -1 0 207.59)">
	<stop  offset="0" style="stop-color:#498CFF"/>
	<stop  offset="1" style="stop-color:#37F8FF"/>
</linearGradient>
<path class="st3" d="M-2950.9,2416.2l-31.5,31.5c-0.7,0.7-1.6,1-2.5,1c-0.9,0-1.8-0.4-2.5-1l-31.6-31.6c-4.4-4.4-6.8-10.2-6.8-16.4
	c0-6.2,2.4-12,6.8-16.4c4.4-4.4,10.2-6.8,16.4-6.8c6.2,0,12,2.4,16.4,6.8l1.3,1.3l1.3-1.3c4.4-4.4,10.2-6.8,16.4-6.8
	c6.2,0,12,2.4,16.4,6.8c4.4,4.4,6.8,10.2,6.8,16.4C-2944.1,2406-2946.5,2411.8-2950.9,2416.2z"/>
<linearGradient id="SVGID_5_" gradientUnits="userSpaceOnUse" x1="-2533.3789" y1="-1920.2999" x2="-2533.3789" y2="-1723.832" gradientTransform="matrix(1 0 0 -1 0 207.59)">
	<stop  offset="0" style="stop-color:#FF9656"/>
	<stop  offset="1" style="stop-color:#FFD270"/>
</linearGradient>
<path class="st4" d="M-2571.7,1931.4C-2571.7,1931.4-2571.7,1931.4-2571.7,1931.4c-2.6,0-5,1-6.8,2.8c-1.8,1.8-2.8,4.3-2.8,6.9
	v145.1c0,5.3,4.3,9.7,9.7,9.7c22.5,0.1,60.3,4.7,86.3,32V1976c0-1.8-0.5-3.5-1.3-4.9C-2508.1,1936.7-2549.1,1931.5-2571.7,1931.4z"
	/>
<linearGradient id="SVGID_6_" gradientUnits="userSpaceOnUse" x1="-2422.3606" y1="-1920.2999" x2="-2422.3606" y2="-1723.832" gradientTransform="matrix(1 0 0 -1 0 207.59)">
	<stop  offset="0" style="stop-color:#FF9656"/>
	<stop  offset="1" style="stop-color:#FFD270"/>
</linearGradient>
<path class="st5" d="M-2374.4,2086.2v-145.1c0-2.6-1-5-2.9-6.9c-1.8-1.8-4.2-2.8-6.8-2.8c0,0,0,0,0,0c-22.6,0.1-63.6,5.3-85,39.7
	c-0.9,1.4-1.3,3.1-1.3,4.9v151.9c26-27.2,63.8-31.9,86.3-32C-2378.7,2095.9-2374.4,2091.5-2374.4,2086.2z"/>
<linearGradient id="SVGID_7_" gradientUnits="userSpaceOnUse" x1="-2400.6619" y1="-1929.7478" x2="-2400.6619" y2="-1757.298" gradientTransform="matrix(1 0 0 -1 0 207.59)">
	<stop  offset="0" style="stop-color:#498CFF"/>
	<stop  offset="1" style="stop-color:#37F8FF"/>
</linearGradient>
<path class="st6" d="M-2353.4,1964.9h-7v120.8c0,13.5-11,24.6-24.6,24.6c-19,0.1-50.4,3.8-72.6,24.8c38.4-9.4,78.9-3.3,102,2
	c2.9,0.7,5.9,0,8.2-1.9c2.3-1.8,3.6-4.6,3.6-7.5v-153.2C-2343.7,1969.2-2348.1,1964.9-2353.4,1964.9z"/>
<linearGradient id="SVGID_8_" gradientUnits="userSpaceOnUse" x1="-2556.1807" y1="-1929.7452" x2="-2556.1807" y2="-1757.2981" gradientTransform="matrix(1 0 0 -1 0 207.59)">
	<stop  offset="0" style="stop-color:#498CFF"/>
	<stop  offset="1" style="stop-color:#37F8FF"/>
</linearGradient>
<path class="st7" d="M-2596.5,2085.7v-120.8h-7c-5.3,0-9.6,4.3-9.6,9.6v153.2c0,2.9,1.3,5.7,3.6,7.5c2.3,1.8,5.3,2.5,8.2,1.9
	c23.1-5.3,63.6-11.4,102-2c-22.2-21-53.6-24.8-72.6-24.8C-2585.4,2110.3-2596.5,2099.3-2596.5,2085.7z"/>
<linearGradient id="SVGID_9_" gradientUnits="userSpaceOnUse" x1="-1995.8915" y1="-1553.593" x2="-1995.8915" y2="-1346.7578" gradientTransform="matrix(1 0 0 -1 0 207.59)">
	<stop  offset="0" style="stop-color:#FF9656"/>
	<stop  offset="1" style="stop-color:#FFD270"/>
</linearGradient>
<path class="st8" d="M-2102.8,1761.2c0-3.5,0-7,0-10.5c0-0.3,0.2-0.8,0.4-1c2-2,4.3-3.6,6.8-5c9-5.1,17.9-10.2,27.4-14.4
	c9.1-4,18.2-7.8,27.3-11.7c0.7-0.3,1.4-0.6,2.1-0.9c1.5-0.6,2.5-1.6,3-3.1c1.2-3.7,2.5-7.5,3.7-11.2c0.2-0.7,0.5-1.4,0.8-2.1
	c0.6-1.2,1.6-2,2.8-2.4c1.5-0.4,2.3-1.5,2.5-2.9c0.6-4.9,1-9.9,1.5-14.8c0.1-1.3-0.3-2.5-1.1-3.4c-4.5-5.1-6.8-11.1-7.9-17.8
	c-0.2-1.4-0.7-2.9-1.3-4.2c-1.9-4.5-2.9-9.4-4.2-14.1c-0.9-3.4-1.1-6.8-1.4-10.2c-0.2-2,0.5-3,2.3-3.8c0.4-0.2,1-0.6,1.1-1
	c0.3-0.9,0.6-1.9,0.6-2.8c0.1-9.5,0.1-19.1,0.2-28.6c0-3.2,0.1-6.4,0.9-9.5c1.2-4.3,3.5-7.8,6.5-11c5.7-6.1,12.7-10.2,20.4-13.1
	c7.4-2.8,15.1-4.6,22.9-5.9c2.5-0.4,5.1-0.9,7.6-1.2c1.3-0.2,2.7-0.1,4.1,0c0.4,0,0.7,0.7,1.1,1.1c-0.6,0.5-1.2,0.8-1.7,1.2
	c-1,0.9-2,1.7-2.8,2.7c-1,1.3-0.9,2.5,0.1,3.7c0.4,0.5,1,1,1.5,1.5c4.6,4.1,9.1,8.2,13.7,12.2c5.1,4.4,7.3,9.9,7.3,16.5
	c0,10.4,0,20.8,0,31.3c0,0.8,0.1,1.6,0.2,2.3c0.2,1,0.8,1.7,1.8,2.2c1.1,0.6,1.6,1.3,1.5,2.6c-0.3,3.3-0.6,6.6-0.9,9.9
	c-0.2,1.7-0.3,3.4-0.5,5.1c0,0.4-0.1,0.8-0.3,1.1c-2.4,3.7-3.7,7.7-4.9,11.9c-1.1,3.7-2,7.5-3.6,11c-0.2,0.3-0.3,0.7-0.6,0.9
	c-2.4,3.1-3.8,6.6-4,10.4c-0.2,4.2-0.1,8.5-0.1,12.8c0,0.9,0.1,1.8,0.4,2.7c0.1,0.4,0.5,0.9,0.9,1.1c1.7,0.8,2.6,2.2,3.2,3.9
	c0.8,2.6,1.6,5.3,2.5,7.9c0.4,1.2,0.9,2.3,1.3,3.5c0.6,2,2.1,3.2,3.9,4c2.2,0.9,4.4,1.7,6.5,2.6c16.4,6.6,32.6,13.6,48.3,21.9
	c3.5,1.9,6.8,4.1,9.5,7c0.1,0.1,0.2,0.1,0.3,0.2c0,3.9,0,7.7,0,11.6C-1960.2,1761.2-2031.5,1761.2-2102.8,1761.2z"/>
<linearGradient id="SVGID_10_" gradientUnits="userSpaceOnUse" x1="-1378.4758" y1="-1182.745" x2="-1378.4758" y2="-975.8782" gradientTransform="matrix(1 0 0 -1 0 207.59)">
	<stop  offset="0" style="stop-color:#FF9656"/>
	<stop  offset="1" style="stop-color:#FFD270"/>
</linearGradient>
<path class="st9" d="M-1279.8,1390.3c-65.9,0-131.6,0-197.4,0c0-3.6,0-7.1,0-10.7c0-0.3,0.3-0.7,0.6-1c2.5-1.9,4.9-4,7.6-5.8
	c14.7-9.6,30.6-16.8,46.5-24c1.4-0.6,2.8-1.3,4.2-1.9c1.6-0.7,2.6-1.8,3.1-3.4c1.2-3.8,2.3-7.5,3.4-11.3c0.6-2.1,1.5-3.7,3.8-4.4
	c1.2-0.4,1.7-1.5,1.8-2.7c0.5-5,1-10,1.3-14.9c0.1-1.1-0.4-2.5-1.2-3.4c-3.9-5-6-10.7-7-16.9c-0.3-1.9-0.9-3.7-1.5-5.5
	c-2.6-7.7-4.5-15.6-4.9-23.8c-0.1-1.4,0.1-2.7,1.5-3.3c1.9-0.8,2.2-2.4,2.3-4.2c0.1-3,0-6,0.1-9c0.1-7.5,0.2-15.1,0.2-22.6
	c0-7.2,2.8-13.3,7.6-18.5c6-6.5,13.4-10.7,21.6-13.6c8-2.8,16.3-4.4,24.6-5.8c1.1-0.2,2.3-0.1,3.5,0c0.5,0.1,0.8,0.6,1.3,1
	c-1.2,1-2.2,1.7-3.1,2.6c-2.4,2.3-2.4,4.1,0,6.4c4.3,4.2,8.5,8.4,12.9,12.4c4.8,4.4,6.8,9.9,6.8,16.2c0,10.5,0,21.1,0,31.6
	c0,2,0.2,3.8,2.3,4.9c0.6,0.3,0.9,1.6,0.8,2.5c-0.2,4-0.7,8-1,11.9c-0.1,2.3-1,4.4-1.8,6.5c-1.7,4.5-3,9.1-4.4,13.7
	c-1,3.2-1.9,6.4-3.7,9.2c-2,3.1-2.7,6.6-2.8,10.3c-0.1,4.1,0,8.1,0,12.2c0,1.3,0.5,2.4,1.7,3.1c1.5,0.8,2.1,2.4,2.5,4
	c1,3.4,2.1,6.9,3.1,10.3c0.7,2.6,2.4,4.1,4.8,5.1c15.7,6.7,31.3,13.8,46.2,22.1c3.6,2,7.1,4,10.2,6.7c1.7,1.5,2.7,3.1,2.5,5.5
	C-1280,1384.6-1279.8,1387.4-1279.8,1390.3z"/>
<linearGradient id="SVGID_11_" gradientUnits="userSpaceOnUse" x1="-1503.2375" y1="-1182.7261" x2="-1503.2375" y2="-1012.2321" gradientTransform="matrix(1 0 0 -1 0 207.59)">
	<stop  offset="0" style="stop-color:#498CFF"/>
	<stop  offset="1" style="stop-color:#37F8FF"/>
</linearGradient>
<path class="st10" d="M-1448,1347.9c-4.9,2.6-9.7,5-14.4,7.8c-6,3.6-12,7.3-17.8,11.3c-2.7,1.9-4.9,4.6-7.3,7
	c-0.3,0.3-0.4,0.9-0.4,1.4c0,4.5,0,9,0,13.6c0,0.4,0,0.9,0,1.4c-25.1,0-50,0-75.1,0c0-0.3-0.1-0.6-0.1-0.9c0-2,0.1-4,0-5.9
	c-0.2-1.9,0.4-3.2,1.9-4.2c1.5-1,2.8-2.2,4.3-3.1c10.2-6.6,21-12.2,32.1-17.1c3.7-1.6,7.3-3.4,11-5.1c1.3-0.6,2.2-1.5,2.6-2.9
	c1-3.2,1.9-6.4,2.9-9.6c0.5-1.7,1.3-2.9,3.1-3.6c0.7-0.3,1.4-1.3,1.5-2.1c0.5-4.2,0.9-8.5,1.2-12.8c0.1-0.9-0.4-2.1-1-2.9
	c-3.1-4.1-4.8-8.7-5.7-13.7c-0.3-1.6-0.7-3.2-1.3-4.8c-2.1-6.3-3.7-12.8-4.1-19.4c-0.1-1.7,0.1-3.1,1.9-3.9c0.5-0.3,0.9-1.2,1-1.9
	c0.2-2,0.2-3.9,0.2-5.9c0-6.7,0-13.3,0.1-20c0-2.1,0.2-4.2,0.5-6.3c0.5-3.2,1.9-6.1,4-8.6c4.5-5.6,9.9-10.1,16.3-13.5
	c3.6-1.9,7.5-2.4,11.6-2.5c5.2-0.1,9.7,1.2,14,3.9c2.6,1.7,5.1,3.6,7.4,5.6c1.9,1.6,3.7,3.4,5.4,5.2c3.6,4,5.4,8.7,5.4,14.1
	c0.1,7.2,0.1,14.4,0.1,21.6c0,1.9,0,3.7,0.1,5.6c0,1.3,0.4,2.4,1.8,3c1.2,0.5,1.4,1.7,1.3,2.9c-0.4,6.9-2,13.4-4.1,19.9
	c-0.8,2.4-1.3,4.8-1.8,7.3c-0.9,4.1-2.6,7.8-5.1,11.2c-0.7,0.9-1.2,2.2-1.1,3.3c0.2,4,0.7,8,1.1,12.1c0.1,1.3,0.7,2.3,2.1,2.7
	c1.4,0.4,2,1.5,2.4,2.8C-1449.3,1343.3-1448.6,1345.7-1448,1347.9z"/>
<linearGradient id="SVGID_12_" gradientUnits="userSpaceOnUse" x1="-1257.8679" y1="-1182.7211" x2="-1257.8679" y2="-1015.054" gradientTransform="matrix(1 0 0 -1 0 207.59)">
	<stop  offset="0" style="stop-color:#498CFF"/>
	<stop  offset="1" style="stop-color:#37F8FF"/>
</linearGradient>
<path class="st11" d="M-1199,1390.3c-23.5,0-46.9,0-70.4,0c0-0.5,0-0.9,0-1.4c0-4.6,0-9.3,0-13.9c0-0.5-0.3-1.2-0.6-1.6
	c-4.6-5.9-10.3-10.4-16.9-13.8c-7.4-3.8-14.7-7.6-22-11.3c-0.4-0.2-0.8-0.4-1.3-0.6c1.8-1.9,3.4-3.6,6.1-4.1c2.5-0.4,4.2-2,4.8-4.5
	c1.4-5.6,2.3-11.1,1.4-16.9c-0.4-2.6-1.6-4.3-4.1-5.4c-4-1.7-8-3.7-12-5.6c-2.8-1.3-3.2-2.4-2.4-5.4c1.8-7.1,3.8-14.1,5.4-21.2
	c1.5-6.8,2.1-13.8,2.4-20.8c0.2-6,0.4-12,1.7-17.9c0.9-4,2.3-7.9,4.6-11.4c2-3.2,4.7-5.5,8.4-6.8c1.7-0.6,3.3-1.3,4.8-2.3
	c5.5-3.4,11.2-3.5,17.1-1.5c9.4,3.2,16.3,9,19.3,18.8c1.6,5.1,2.4,10.4,2.5,15.7c0.3,15.8,2.8,31.3,7.8,46.4c1.4,4.2,1,5-3,6.9
	c-3.7,1.8-7.4,3.6-11.2,5.2c-2.3,1-3.5,2.6-3.9,5c-1,6-0.1,11.8,1.4,17.6c0.6,2.3,2.3,3.7,4.6,4.1c2,0.4,3.7,1.3,4.9,2.8
	c2.4,2.9,5.5,4.9,9,6.4c6.7,3,13.2,6.2,19.9,9.1c7.8,3.4,14.2,8.3,18.2,16C-1200.8,1381.5-1199.2,1386.9-1199,1390.3z"/>
<linearGradient id="SVGID_13_" gradientUnits="userSpaceOnUse" x1="-869.0443" y1="-786.8199" x2="-869.0443" y2="-581.5911" gradientTransform="matrix(1 0 0 -1 0 207.59)">
	<stop  offset="0" style="stop-color:#FF9656"/>
	<stop  offset="1" style="stop-color:#FFD270"/>
</linearGradient>
<path class="st12" d="M-771.2,994.4c-65.4,0-130.6,0-195.9,0c0-3.6,0-7.1,0-10.6c0-0.3,0.3-0.7,0.6-1c2.5-1.9,4.9-4,7.5-5.7
	c14.6-9.5,30.3-16.7,46.1-23.8c1.4-0.6,2.7-1.3,4.1-1.9c1.5-0.7,2.6-1.8,3-3.4c1.2-3.7,2.3-7.5,3.4-11.2c0.6-2.1,1.5-3.7,3.8-4.4
	c1.2-0.4,1.6-1.5,1.8-2.7c0.5-4.9,1-9.9,1.3-14.8c0.1-1.1-0.4-2.5-1.1-3.4c-3.9-5-5.9-10.6-6.9-16.8c-0.3-1.8-0.9-3.6-1.5-5.4
	c-2.6-7.7-4.4-15.5-4.9-23.6c-0.1-1.4,0.1-2.7,1.5-3.3c1.9-0.8,2.2-2.4,2.2-4.1c0.1-3,0-5.9,0.1-8.9c0.1-7.5,0.2-15,0.2-22.5
	c0-7.2,2.8-13.2,7.6-18.4c5.9-6.4,13.3-10.6,21.4-13.5c7.9-2.8,16.1-4.3,24.4-5.7c1.1-0.2,2.3-0.1,3.5,0c0.4,0.1,0.8,0.6,1.3,1
	c-1.2,1-2.2,1.7-3,2.6c-2.3,2.3-2.3,4.1,0,6.3c4.3,4.1,8.5,8.3,12.8,12.3c4.8,4.4,6.7,9.8,6.8,16.1c0,10.5,0,20.9,0,31.4
	c0,2,0.2,3.8,2.3,4.9c0.6,0.3,0.8,1.6,0.8,2.4c-0.2,4-0.7,7.9-1,11.8c-0.1,2.3-1,4.3-1.8,6.5c-1.7,4.4-2.9,9-4.3,13.6
	c-1,3.2-1.9,6.3-3.7,9.2c-2,3-2.7,6.6-2.8,10.2c-0.1,4,0,8.1,0,12.1c0,1.3,0.5,2.4,1.7,3.1c1.5,0.8,2.1,2.4,2.5,3.9
	c1,3.4,2.1,6.8,3,10.2c0.7,2.6,2.4,4,4.7,5c15.6,6.6,31,13.7,45.9,21.9c3.5,2,7.1,3.9,10.1,6.7c1.7,1.5,2.7,3,2.4,5.4
	C-771.4,988.7-771.2,991.5-771.2,994.4z"/>
<linearGradient id="SVGID_14_" gradientUnits="userSpaceOnUse" x1="-749.394" y1="-786.796" x2="-749.394" y2="-620.4583" gradientTransform="matrix(1 0 0 -1 0 207.59)">
	<stop  offset="0" style="stop-color:#498CFF"/>
	<stop  offset="1" style="stop-color:#37F8FF"/>
</linearGradient>
<path class="st13" d="M-690.9,994.4c-23.3,0-46.5,0-69.8,0c0-0.5,0-0.9,0-1.3c0-4.6,0-9.2,0-13.8c0-0.5-0.2-1.2-0.6-1.6
	c-4.5-5.9-10.2-10.3-16.8-13.7c-7.3-3.7-14.6-7.5-21.9-11.3c-0.4-0.2-0.8-0.4-1.3-0.6c1.7-1.9,3.4-3.6,6-4c2.5-0.4,4.2-2,4.8-4.5
	c1.4-5.5,2.2-11.1,1.3-16.8c-0.4-2.5-1.6-4.3-4-5.3c-4-1.7-7.9-3.6-11.9-5.5c-2.8-1.3-3.2-2.4-2.4-5.4c1.8-7,3.8-14,5.4-21
	c1.5-6.8,2.1-13.7,2.3-20.6c0.2-6,0.4-11.9,1.7-17.8c0.9-4,2.3-7.8,4.5-11.3c2-3.2,4.7-5.5,8.3-6.7c1.7-0.5,3.3-1.3,4.8-2.3
	c5.4-3.4,11.1-3.5,16.9-1.5c9.3,3.2,16.2,8.9,19.2,18.6c1.6,5.1,2.3,10.3,2.4,15.6c0.3,15.7,2.8,31,7.7,46c1.4,4.2,0.9,4.9-3,6.8
	c-3.7,1.7-7.4,3.5-11.1,5.1c-2.3,1-3.4,2.6-3.9,4.9c-1,5.9-0.1,11.7,1.4,17.4c0.6,2.3,2.3,3.7,4.6,4.1c2,0.4,3.6,1.3,4.9,2.8
	c2.4,2.9,5.5,4.8,8.9,6.4c6.6,3,13.1,6.1,19.7,9c7.7,3.4,14.1,8.2,18,15.8C-692.8,985.6-691.1,991-690.9,994.4z"/>
<g>
	
		<linearGradient id="SVGID_15_" gradientUnits="userSpaceOnUse" x1="-300.2325" y1="-394.671" x2="-300.2325" y2="-187.971" gradientTransform="matrix(1 0 0 -1 0 207.59)">
		<stop  offset="0" style="stop-color:#FF9656"/>
		<stop  offset="1" style="stop-color:#FFD270"/>
	</linearGradient>
	<path class="st14" d="M-196.8,412.3c-11.5-11.3-27.2-16.8-47.2-16.8c-5.6,0-11.2,1-17.1,2.9c-5.9,1.9-11.2,4.5-16.2,7.8
		c-4.9,3.4-9.2,6.4-12.8,9.2c-3.6,2.9-7,5.9-10.2,9.2c-3.3-3.2-6.6-6.3-10.2-9.2c-3.6-2.8-7.9-5.9-12.8-9.2
		c-5.1-3.3-10.4-5.9-16.2-7.8c-5.9-1.9-11.5-2.9-17.1-2.9c-20.1,0-35.8,5.5-47.2,16.8c-11.5,11-17.1,26.5-17.1,46.3
		c0,6,1,12.1,3.2,18.5c2,6.4,4.5,11.8,7.2,16.3c2.7,4.5,5.7,8.9,9.1,13.2c3.5,4.1,6,7.2,7.5,8.7c1.6,1.7,2.7,2.8,3.6,3.5l84,81.1
		c1.6,1.6,3.6,2.4,6,2.4c2.4,0,4.3-0.8,5.9-2.4l83.8-80.8c20.6-20.6,30.8-40.8,30.8-60.5C-179.7,438.8-185.3,423.3-196.8,412.3z"/>
</g>
<g>
	
		<linearGradient id="SVGID_16_" gradientUnits="userSpaceOnUse" x1="-210.6045" y1="-371.497" x2="-210.6045" y2="-265.845" gradientTransform="matrix(1 0 0 -1 0 207.59)">
		<stop  offset="0" style="stop-color:#498CFF"/>
		<stop  offset="1" style="stop-color:#37F8FF"/>
	</linearGradient>
	<path class="st15" d="M-157.7,482c-5.9-5.8-13.9-8.6-24.1-8.6c-2.9,0-5.7,0.5-8.7,1.5c-3,1-5.7,2.3-8.3,4c-2.5,1.7-4.7,3.3-6.5,4.7
		c-1.8,1.5-3.6,3-5.2,4.7c-1.7-1.7-3.4-3.2-5.2-4.7c-1.8-1.4-4-3-6.5-4.7c-2.6-1.7-5.3-3-8.3-4c-3-1-5.9-1.5-8.7-1.5
		c-10.3,0-18.3,2.8-24.1,8.6c-5.9,5.6-8.7,13.5-8.7,23.7c0,3,0.5,6.2,1.6,9.5c1,3.3,2.3,6,3.7,8.3c1.4,2.3,2.9,4.5,4.7,6.7
		c1.8,2.1,3,3.7,3.8,4.5c0.8,0.9,1.4,1.4,1.8,1.8l42.9,41.5c0.8,0.8,1.8,1.2,3,1.2c1.2,0,2.2-0.4,3-1.2l42.8-41.3
		c10.5-10.5,15.7-20.8,15.7-30.9C-149,495.5-151.9,487.6-157.7,482z"/>
</g>
<linearGradient id="SVGID_17_" gradientUnits="userSpaceOnUse" x1="103.3915" y1="0.804" x2="103.3915" y2="207.59" gradientTransform="matrix(1 0 0 -1 0 207.59)">
	<stop  offset="0" style="stop-color:#FF9656"/>
	<stop  offset="1" style="stop-color:#FFD270"/>
</linearGradient>
<path class="st16" d="M103.4,0C89.1,77.5,77.5,89.2,0,103.4c77.5,14.3,89.1,25.8,103.4,103.4c14.3-77.5,25.8-89.1,103.4-103.4
	C129.2,89.2,117.7,77.5,103.4,0z"/>
<linearGradient id="SVGID_18_" gradientUnits="userSpaceOnUse" x1="223.0875" y1="115.56" x2="223.0875" y2="174.164" gradientTransform="matrix(1 0 0 -1 0 207.59)">
	<stop  offset="0" style="stop-color:#498CFF"/>
	<stop  offset="1" style="stop-color:#37F8FF"/>
</linearGradient>
<path class="st17" d="M223.1,33.4c-4,22-7.3,25.3-29.3,29.3c22,4,25.3,7.3,29.3,29.3c4-22,7.3-25.2,29.3-29.3
	C230.4,58.7,227.1,55.4,223.1,33.4z"/>
<linearGradient id="SVGID_19_" gradientUnits="userSpaceOnUse" x1="249.7125" y1="45.6" x2="249.7125" y2="104.199" gradientTransform="matrix(1 0 0 -1 0 207.59)">
	<stop  offset="0" style="stop-color:#498CFF"/>
	<stop  offset="1" style="stop-color:#37F8FF"/>
</linearGradient>
<path class="st18" d="M249.7,103.4c-4,22-7.3,25.3-29.3,29.3c22,4,25.3,7.3,29.3,29.3c4-22,7.3-25.2,29.3-29.3
	C257,128.7,253.8,125.4,249.7,103.4z"/>
<linearGradient id="SVGID_20_" gradientUnits="userSpaceOnUse" x1="526.1191" y1="404.543" x2="526.1191" y2="611.4641" gradientTransform="matrix(1 0 0 -1 0 207.59)">
	<stop  offset="0" style="stop-color:#FF9656"/>
	<stop  offset="1" style="stop-color:#FFD270"/>
</linearGradient>
<path class="st19" d="M435.2-236c0.1-1.2,0.3-2.4,0.5-3.6c1-6.3,3.5-12.1,7.2-17.4c5.7-8.2,13.2-14.4,22.1-18.9
	c7-3.6,14.4-5.8,22.1-6.8c9.3-1.1,18.4-0.4,27.2,2.9c4.4,1.7,8.5,3.9,12.1,6.9c0.1,0.1,0.2,0.2,0.5,0.3c0-0.4,0-0.6,0-0.9
	c0-41.3,0-82.5,0-123.8c0-0.9,0.1-1.8,0.4-2.7c0.7-2.2,2.3-3.4,4.5-3.9c0.1,0,0.3-0.1,0.5-0.2c1,0,1.9,0,2.9,0
	c0.4,0.1,0.8,0.1,1.2,0.2c4.7,0.7,9,2.4,13.2,4.5c5,2.5,9,5.9,12.2,10.4c1.7,2.3,3.3,4.6,5,6.9c4.7,6.7,10.8,11.6,18.6,14.5
	c2.9,1.1,5.9,2,8.8,3.1c5.4,2.1,10.5,4.9,14.7,8.9c3.8,3.5,6.6,7.6,7.8,12.7c0.2,1.1,0.4,2.3,0.6,3.5c0,1.1,0,2.1,0,3.1
	c-0.1,1.1-0.3,2.3-0.5,3.4c-0.2,1.1-0.8,1.7-1.8,1.9c-1,0.3-1.8-0.1-2.4-1.1c-4-6.2-10-9.3-17.1-10.4c-4-0.6-7.9-0.4-11.8,0
	c-6.1,0.6-12.2,0.8-18.3,0.6c-6.4-0.2-12.9-0.8-19.1-2.8c-2.2-0.7-4.3-1.7-6.4-2.6c-0.1-0.1-0.2-0.1-0.5-0.2c0,0.3,0,0.6,0,0.9
	c0,32.8,0,65.5,0,98.3c0,9.8-2.9,18.4-8.7,26.1c-6.8,9.2-15.8,15.6-26.3,19.9c-6.8,2.8-13.9,4.4-21.2,4.7c-0.2,0-0.4,0.1-0.6,0.1
	c-1.8,0-3.8,0-5.6,0c-0.2,0-0.4-0.1-0.6-0.1c-2.8-0.4-5.7-0.5-8.4-1.1c-7.9-1.6-15.1-4.9-21.2-10.3c-5.9-5.2-9.7-11.7-11-19.5
	c-0.2-1.2-0.3-2.5-0.5-3.7C435.2-233.1,435.2-234.6,435.2-236z"/>
<linearGradient id="SVGID_21_" gradientUnits="userSpaceOnUse" x1="612.1085" y1="419.8759" x2="612.1085" y2="522.59" gradientTransform="matrix(1 0 0 -1 0 207.59)">
	<stop  offset="0" style="stop-color:#498CFF"/>
	<stop  offset="1" style="stop-color:#37F8FF"/>
</linearGradient>
<path class="st20" d="M566.9-231.7c0.1-0.6,0.1-1.2,0.3-1.8c0.5-3.2,1.7-6,3.6-8.6c2.8-4.1,6.5-7.2,11-9.4c3.4-1.8,7.1-2.9,10.9-3.3
	c4.6-0.6,9.1-0.2,13.5,1.4c2.2,0.8,4.2,1.9,6,3.4c0.1,0,0.1,0.1,0.2,0.1c0-0.2,0-0.3,0-0.4c0-20.5,0-41,0-61.5c0-0.4,0-0.9,0.2-1.3
	c0.3-1.1,1.2-1.7,2.3-2c0.1,0,0.1-0.1,0.2-0.1c0.5,0,1,0,1.4,0c0.2,0,0.4,0.1,0.6,0.1c2.3,0.3,4.5,1.2,6.6,2.3
	c2.4,1.2,4.5,2.9,6,5.2c0.8,1.1,1.6,2.3,2.5,3.4c2.4,3.3,5.4,5.8,9.2,7.2c1.5,0.6,2.9,1,4.4,1.6c2.7,1.1,5.2,2.4,7.3,4.4
	c1.9,1.8,3.3,3.8,3.9,6.3c0.1,0.6,0.2,1.2,0.3,1.7c0,0.5,0,1.1,0,1.6c-0.1,0.5-0.2,1.1-0.2,1.7c-0.1,0.5-0.4,0.8-0.9,0.9
	c-0.5,0.1-0.9-0.1-1.2-0.5c-2-3.1-4.9-4.6-8.5-5.2c-1.9-0.3-3.9-0.2-5.8,0c-3,0.3-6.1,0.4-9.1,0.3c-3.2-0.1-6.4-0.4-9.5-1.3
	c-1.1-0.4-2.1-0.9-3.2-1.3c-0.1-0.1-0.1-0.1-0.2-0.1c0,0.2,0,0.3,0,0.5c0,16.2,0,32.5,0,48.8c0,4.8-1.5,9.1-4.3,13
	c-3.4,4.6-7.8,7.8-13.1,9.9c-3.4,1.4-6.9,2.2-10.5,2.4c-0.1,0-0.2,0-0.3,0c-0.9,0-1.9,0-2.8,0c-0.1,0-0.2,0-0.3,0
	c-1.4-0.2-2.8-0.3-4.2-0.6c-3.9-0.8-7.5-2.4-10.5-5.1c-2.9-2.6-4.8-5.8-5.5-9.7c-0.1-0.6-0.2-1.2-0.3-1.8
	C566.9-230.2,566.9-230.9,566.9-231.7z"/>
<linearGradient id="SVGID_22_" gradientUnits="userSpaceOnUse" x1="926.4794" y1="811.9857" x2="926.4794" y2="1018.8555" gradientTransform="matrix(1 0 0 -1 0 207.59)">
	<stop  offset="0" style="stop-color:#FF9656"/>
	<stop  offset="1" style="stop-color:#FFD270"/>
</linearGradient>
<path class="st21" d="M1030-756.5c0,1.2,0,2.5,0,3.7c-0.2,1.3-0.4,2.7-0.7,4c-2.5,10.5-5,21-7.6,31.4c-7.4,30.7-14.9,61.5-22.3,92.2
	c-3.4,14.3-17.3,23.2-31.6,20.1c-5.7-1.2-11.4-2.7-17.2-4.1c-23.7-5.7-47.5-11.5-71.2-17.2c-12.1-3-24.3-5.8-36.3-8.8
	c-14-3.5-22.6-17.3-19.6-31.4c2.2-10.2,4.9-20.4,7.3-30.6c7.5-31.2,15.1-62.4,22.6-93.5c3.5-14.5,17.7-23.3,32.1-19.9
	c15.6,3.7,31.2,7.5,46.8,11.3c25.6,6.2,51.2,12.3,76.7,18.6c10.4,2.6,17,9.2,19.9,19.5C1029.6-759.7,1029.7-758.1,1030-756.5z
	 M958.3-671.4c-8.7,0-15.7,7-15.7,15.7c0,8.6,7,15.6,15.7,15.7c8.7,0,15.8-7,15.8-15.7C974-664.3,967-671.4,958.3-671.4z
	 M894.6-744.2c8.7,0,15.7-7.1,15.7-15.8c0-8.7-7.1-15.6-15.9-15.6c-8.6,0-15.6,7.1-15.6,15.8C878.9-751.2,886-744.2,894.6-744.2z
	 M978.6-723.9c8.4,0.1,15.6-6.9,15.7-15.4c0.1-8.7-6.8-15.9-15.4-16c-8.8-0.1-16,6.7-16.1,15.5C962.8-731.1,969.7-724.1,978.6-723.9
	z M874.3-691.7c-8.5-0.1-15.6,6.9-15.7,15.5c-0.1,8.7,6.9,15.7,15.6,15.8c8.6,0.1,15.7-6.9,15.8-15.6
	C890.1-684.6,883.1-691.6,874.3-691.7z M941.5-705.3c0-8.6-7-15.7-15.7-15.7c-8.6,0-15.7,7.1-15.6,15.7c0,8.7,7,15.8,15.7,15.8
	C934.5-689.5,941.5-696.6,941.5-705.3z"/>
<linearGradient id="SVGID_23_" gradientUnits="userSpaceOnUse" x1="1047.0415" y1="818.67" x2="1047.0415" y2="945.2831" gradientTransform="matrix(1 0 0 -1 0 207.59)">
	<stop  offset="0" style="stop-color:#498CFF"/>
	<stop  offset="1" style="stop-color:#37F8FF"/>
</linearGradient>
<path class="st22" d="M983.7-696.3c0-0.7,0-1.5,0-2.2c0-0.1,0.1-0.2,0.1-0.4c0.9-6.6,4.4-11.1,10.6-13.4c5.8-2.1,11.7-4.1,17.5-6.1
	c17.7-6.1,35.3-12.3,52.9-18.4c2.4-0.8,4.8-1.1,7.3-0.7c6.3,1,10.6,4.5,12.7,10.5c7.2,20.4,14.2,40.8,21.3,61.3
	c1.2,3.4,2.4,6.8,3.5,10.2c0.3,1,0.4,2,0.6,3c0,0.8,0,1.6,0,2.3c0,0.3-0.1,0.6-0.1,0.9c-1.1,6.3-4.5,10.7-10.6,12.8
	c-20.6,7.2-41.1,14.3-61.7,21.5c-3.2,1.1-6.4,2.2-9.7,3.3c-1,0.3-2,0.4-3.1,0.6c-0.7,0-1.3,0-2.1,0c-0.6-0.1-1.1-0.1-1.7-0.2
	c-6-1.2-10.1-4.7-12.1-10.5c-7.2-20.6-14.3-41.1-21.5-61.7c-1.1-3.3-2.3-6.5-3.3-9.8C984-694.3,983.9-695.3,983.7-696.3z
	 M1023.9-690c0-5.1-4.1-9.2-9.2-9.2c-5.1,0-9.2,4.1-9.2,9.2c0,5.1,4.1,9.3,9.2,9.3C1019.8-680.8,1023.9-684.9,1023.9-690z
	 M1070.1-658.7c0,5.1,4.1,9.2,9.2,9.2c5.1,0,9.2-4.1,9.2-9.2c0-5.1-4.2-9.3-9.3-9.2C1074.2-668,1070.1-663.8,1070.1-658.7z
	 M1062.6-697.5c5.1,0,9.2-4.1,9.2-9.2c0-5.1-4.1-9.2-9.2-9.3c-5.1,0-9.3,4.1-9.3,9.2C1053.4-701.6,1057.5-697.5,1062.6-697.5z
	 M1031.4-651.3c-5.1,0-9.2,4.1-9.2,9.2c0,5.1,4.1,9.2,9.2,9.3c5.1,0,9.2-4.1,9.2-9.2C1040.6-647.2,1036.5-651.3,1031.4-651.3z"/>
<g>
	
		<linearGradient id="SVGID_24_" gradientUnits="userSpaceOnUse" x1="1481.902" y1="1336.1329" x2="1481.902" y2="1415.464" gradientTransform="matrix(1 0 0 -1 0 207.59)">
		<stop  offset="0" style="stop-color:#498CFF"/>
		<stop  offset="1" style="stop-color:#37F8FF"/>
	</linearGradient>
	<path class="st23" d="M1521.6-1201.5c-4.4-4.2-10.4-6.4-18.1-6.4c-2.1,0-4.3,0.4-6.5,1.1c-2.2,0.7-4.3,1.7-6.2,3
		c-1.9,1.3-3.5,2.5-4.9,3.5c-1.3,1.1-2.7,2.3-3.9,3.5c-1.2-1.3-2.5-2.4-3.9-3.5c-1.4-1.1-3.1-2.3-5-3.5c-1.9-1.3-4-2.2-6.2-3
		c-2.2-0.7-4.4-1.1-6.6-1.1c-7.7,0-13.7,2.2-18.1,6.4c-4.4,4.3-6.6,10.2-6.6,17.8c0,2.3,0.4,4.7,1.2,7.1c0.8,2.4,1.8,4.5,2.8,6.3
		c1,1.8,2.2,3.4,3.5,5c1.3,1.6,2.3,2.8,2.9,3.4c0.6,0.6,1,1.1,1.4,1.3l32.2,31.1c0.6,0.7,1.4,1,2.3,1c0.9,0,1.6-0.3,2.3-1l32.1-31
		c7.9-7.9,11.8-15.6,11.8-23.2C1528.2-1191.3,1526-1197.2,1521.6-1201.5z"/>
</g>
<g>
	
		<linearGradient id="SVGID_25_" gradientUnits="userSpaceOnUse" x1="1400.8739" y1="1208.948" x2="1400.8739" y2="1415.464" gradientTransform="matrix(1 0 0 -1 0 207.59)">
		<stop  offset="0" style="stop-color:#FF9656"/>
		<stop  offset="1" style="stop-color:#FFD270"/>
	</linearGradient>
	<path class="st24" d="M1362-1207.9c7.6,1.7,10.4,7.4,11.6,14.3c0.7,3.6,0.4,7.3-0.5,10.9c-1.7,6.7-2.1,13.4-1.6,20.3
		c1.3,19.1,6.7,37.2,15,54.4c1,1.9,2.1,3.9,3.3,5.7c0.7,1,1.6,1.8,2.6,2.4c1.6,1,3.2,0.9,4.4-0.1c1.2-1.2,1.4-3,0.6-4.7
		c-1.5-3-3.1-6-4.4-9.2c-5.2-12.1-9.6-24.5-12.4-37.4c-0.7-3.5-1.2-7.1-1.2-10.7c-0.1-8.5,9.2-13.2,16.3-9c2.4,1.4,4.1,3.6,5.6,5.9
		c2.8,4.5,4.5,9.4,6.3,14.4c2.3,6.1,4.5,12.2,7.1,18.2c2.4,5.7,6.2,10.5,10.3,15.1c7.9,9,15.6,18.1,22.2,28.1
		c5.6,8.6,9.8,17.6,11.7,27.8c1,5.6,1.6,11.3,1.7,17c0.2,12.1,0.2,24.2,0.3,36.3c0,4-1.7,6-5.7,6.7c-0.2,0-0.4,0.1-0.6,0.2
		c-11.3,0-22.6,0-34,0c-2.4-0.5-4-1.9-4.5-4.3c-0.2-0.5-0.2-1.1-0.3-1.6c-0.5-4.5-0.9-9-1.5-13.5c-0.4-3.6-1.2-7.2-2.6-10.6
		c-0.7-1.6-1.8-2.9-3.3-3.9c-15.1-9.6-28.7-21-40.3-34.7c-10.9-12.8-18.7-27.1-22.5-43.5c-2.4-10.3-3.8-20.8-4.1-31.3
		c-0.5-13.9,0.4-27.7,3.4-41.3c1.2-5.1,2.7-10.1,5.2-14.8c1.8-3.1,4.2-5.3,7.7-6.3c0.7-0.2,1.4-0.4,2.1-0.6
		C1360.4-1207.9,1361.2-1207.9,1362-1207.9z"/>
	
		<linearGradient id="SVGID_26_" gradientUnits="userSpaceOnUse" x1="1562.9261" y1="1208.949" x2="1562.9261" y2="1415.4658" gradientTransform="matrix(1 0 0 -1 0 207.59)">
		<stop  offset="0" style="stop-color:#FF9656"/>
		<stop  offset="1" style="stop-color:#FFD270"/>
	</linearGradient>
	<path class="st25" d="M1509.4-1001.4c-0.6-0.1-1.2-0.3-1.7-0.4c-3-0.8-4.5-2.7-4.6-5.8c0-5.1,0-10.2,0-15.2c0-7.3,0-14.6,0.3-21.8
		c0.3-10.9,1.8-21.5,6.3-31.5c3.5-8,8.2-15.3,13.6-22.1c5.4-6.9,11-13.6,16.7-20.2c5-5.7,8.9-12.1,11.6-19.2
		c2.5-6.4,4.6-12.9,7.2-19.3c1.3-3.3,3-6.5,4.9-9.5c2.1-3.3,5-5.5,9-6.1c6-0.9,11.6,3.7,11.9,9.8c0.3,5.4-0.8,10.5-2.1,15.6
		c-3.6,14.1-8.4,27.8-15,40.9c-0.3,0.6-0.7,1.2-1,1.8c-0.7,1.5-0.5,3.3,0.6,4.4c1,1.1,2.5,1.2,4.1,0.3c1.5-0.7,2.7-1.9,3.5-3.4
		c2.2-4.4,4.6-8.7,6.5-13.1c4.7-11.2,8-22.7,10-34.6c1.3-8.2,1.9-16.5,0.9-24.8c-0.4-3.1-1.2-6-1.7-9c-0.8-4.4-0.6-8.8,0.9-13
		c1.8-5.1,4.9-9,10.6-10.1c0.7,0,1.5,0,2.3,0c0.2,0.1,0.3,0.1,0.5,0.2c3.8,0.7,6.9,2.4,8.7,5.9c1.5,2.8,2.9,5.7,3.9,8.7
		c3.4,10.2,4.6,20.8,5.2,31.5c0.7,13.6-0.1,27.1-2.4,40.6c-3.2,18.2-10.4,34.4-22.1,48.7c-12.1,14.7-26.4,26.9-42.4,37.1
		c-1.3,0.8-2.4,1.9-2.9,3.3c-0.8,2.5-1.8,5-2.2,7.6c-0.9,5.6-1.5,11.2-2.1,16.8c-0.3,3.1-1.4,5.5-4.9,6.2
		C1532.1-1001.4,1520.8-1001.4,1509.4-1001.4z"/>
</g>
<linearGradient id="SVGID_27_" gradientUnits="userSpaceOnUse" x1="1921.0361" y1="1668.1847" x2="1921.0361" y2="1822.496" gradientTransform="matrix(1 0 0 -1 0 207.59)">
	<stop  offset="0" style="stop-color:#FF9656"/>
	<stop  offset="1" style="stop-color:#FFD270"/>
</linearGradient>
<path class="st26" d="M1924.2-1614.9c1.4,0.1,2.8,0.3,4.2,0.4c9.4,1.1,18.2,4,26.2,9c15,9.3,24.6,22.6,28.8,39.8
	c1.4,5.8,2,11.7,1.5,17.6c0,0.8,0.1,1.7,0.1,2.5c-0.1,6.6-1.6,12.8-4,18.9c-3.2,8.2-7.7,15.6-12.9,22.7
	c-6.4,8.8-13.8,16.7-21.7,24.2c-6.5,6.2-13.2,12-20.4,17.4c-3.2,2.4-7.1,2.4-10.2,0c-15.9-12.6-30.4-26.6-42.4-42.9
	c-5.4-7.4-10.1-15.2-13.2-23.8c-1.8-5.1-3.1-10.4-3.2-15.8c-0.1-6.3-0.1-12.7,1.2-19c3.1-14.3,10.1-26.3,21.3-35.7
	c8.7-7.5,18.9-12.2,30.2-14.3c2.4-0.4,4.8-0.6,7.3-0.9c0.3,0,0.5-0.1,0.8-0.1C1920-1614.9,1922.1-1614.9,1924.2-1614.9z
	 M1921-1526.4c13.7,0,24.7-11,24.7-24.7c0-13.6-11-24.5-24.7-24.5c-13.5,0-24.6,11.1-24.6,24.5
	C1896.4-1537.4,1907.4-1526.4,1921-1526.4z"/>
<linearGradient id="SVGID_28_" gradientUnits="userSpaceOnUse" x1="1844.2198" y1="1616.842" x2="1844.2198" y2="1699.968" gradientTransform="matrix(1 0 0 -1 0 207.59)">
	<stop  offset="0" style="stop-color:#498CFF"/>
	<stop  offset="1" style="stop-color:#37F8FF"/>
</linearGradient>
<path class="st27" d="M1818.6-1409.6c0.4-1,0.7-1.9,1.1-2.9c8.1-24.4,16.2-48.8,24.3-73.2c0.1-0.4,0.4-0.8,0.8-1
	c2.8-1.9,5.6-3.8,8.4-5.7c0.2,0.2,0.4,0.4,0.6,0.6c5.2,5.2,10.3,10.4,15.5,15.5c0.4,0.4,0.6,0.8,0.6,1.3c0,13.1,0,26.1,0,39.2
	c0,0.6-0.2,0.9-0.7,1.2c-16.5,8.3-33.1,16.6-49.6,24.9c-0.3,0.2-0.5,0.3-0.8,0.5C1818.7-1409.4,1818.7-1409.5,1818.6-1409.6z"/>
<linearGradient id="SVGID_29_" gradientUnits="userSpaceOnUse" x1="1997.8484" y1="1616.84" x2="1997.8484" y2="1699.9958" gradientTransform="matrix(1 0 0 -1 0 207.59)">
	<stop  offset="0" style="stop-color:#498CFF"/>
	<stop  offset="1" style="stop-color:#37F8FF"/>
</linearGradient>
<path class="st28" d="M2023.3-1409.2c-0.2-0.1-0.5-0.3-0.7-0.4c-16.5-8.3-33-16.6-49.5-24.8c-0.7-0.3-0.9-0.7-0.9-1.5
	c0-13,0-26,0-38.9c0-0.5,0.2-0.9,0.6-1.3c5.2-5.2,10.3-10.4,15.5-15.5c0.2-0.2,0.3-0.4,0.5-0.6c0.3,0.2,0.5,0.3,0.7,0.5
	c2.6,1.7,5.1,3.4,7.7,5.2c0.4,0.3,0.7,0.7,0.8,1.1c8.4,25.1,16.8,50.3,25.1,75.4c0.1,0.2,0.2,0.4,0.3,0.7
	C2023.4-1409.5,2023.4-1409.4,2023.3-1409.2z"/>
<linearGradient id="SVGID_30_" gradientUnits="userSpaceOnUse" x1="1921.0339" y1="1616.8398" x2="1921.0339" y2="1670.396" gradientTransform="matrix(1 0 0 -1 0 207.59)">
	<stop  offset="0" style="stop-color:#498CFF"/>
	<stop  offset="1" style="stop-color:#37F8FF"/>
</linearGradient>
<path class="st29" d="M1920.8-1409.2c-0.2-0.2-0.5-0.3-0.8-0.5c-12.2-6.1-24.5-12.3-36.7-18.4c-0.4-0.2-0.7-0.3-0.7-0.9
	c0-11,0-22.1,0-33.2c0-0.1,0-0.2,0-0.5c0.3,0.3,0.5,0.5,0.7,0.7c6.5,6.5,13,13.1,19.6,19.7c4.2,4.1,9.1,6.7,15,7.3
	c8.2,0.9,15.3-1.5,21.2-7.3c6.6-6.5,13.1-13.1,19.6-19.7c0.2-0.2,0.3-0.4,0.5-0.7c0.1,0.1,0.1,0.1,0.2,0.1c0,0.2,0,0.4,0,0.7
	c0,10.9,0,21.8,0,32.8c0,0.6-0.2,0.8-0.7,1.1c-12.2,6.1-24.5,12.3-36.7,18.4c-0.3,0.2-0.5,0.3-0.7,0.5
	C1921.1-1409.2,1921-1409.2,1920.8-1409.2z"/>
<linearGradient id="SVGID_31_" gradientUnits="userSpaceOnUse" x1="2311.5703" y1="2109.6082" x2="2311.5703" y2="2197.8691" gradientTransform="matrix(1 0 0 -1 0 207.59)">
	<stop  offset="0" style="stop-color:#FF9656"/>
	<stop  offset="1" style="stop-color:#FFD270"/>
</linearGradient>
<path class="st30" d="M2193.5-1929.1c0-10.6,0-21.2,0-31.8c0.3-0.2,0.5-0.4,0.8-0.7c9.3-9.3,18.7-18.6,28-27.9
	c0.5-0.5,0.9-0.7,1.6-0.7c58.4,0,116.8,0,175.3,0c0.7,0,1.1,0.2,1.6,0.6c9.4,9.4,18.8,18.7,28.2,28.1c0.2,0.2,0.5,0.4,0.7,0.6
	c0,10.6,0,21.1,0,31.7c-0.1,0.9-0.2,1.8-0.4,2.6c-2.7,15.6-16.9,26.3-32.5,24.4c-12.7-1.5-22.8-10.6-25.5-23.1
	c-0.3-1.2-0.4-2.4-0.6-3.7c-0.8,7.2-3.6,13.4-8.7,18.4c-5.1,5.1-11.4,8-18.6,8.5c-6.8,0.5-13.1-1.1-18.8-5c-7.7-5.3-11.9-12.7-13-22
	c-0.7,7.1-3.5,13.2-8.5,18.2c-5,5.1-11.1,8-18.2,8.6c-8.1,0.7-15.5-1.4-21.8-6.7c-6.3-5.2-9.7-12-10.6-20.2c-0.2,1-0.3,2-0.5,2.9
	c-2.7,15.4-17.7,26.3-33.2,23.8c-12.5-2-20.7-9.4-24.3-21.5C2194-1925.6,2193.8-1927.4,2193.5-1929.1z"/>
<path class="st31" d="M2429.6-1961c-0.2-0.2-0.5-0.4-0.7-0.6c-9.4-9.3-18.8-18.7-28.2-28.1c-0.5-0.5-0.9-0.6-1.6-0.6
	c-58.4,0-116.8,0-175.3,0c-0.7,0-1.1,0.2-1.6,0.7c-9.4,9.3-18.7,18.6-28,27.9c-0.3,0.2-0.5,0.4-0.8,0.7c0-19.6,0-39.2,0-58.9
	c78.7,0,157.4,0,236.2,0C2429.6-2000.2,2429.6-1980.6,2429.6-1961z M2223.1-1997.7c59,0,118,0,177,0c0-7.3,0-14.6,0-22
	c-59,0-118,0-177,0C2223.1-2012.3,2223.1-2005,2223.1-1997.7z"/>
<linearGradient id="SVGID_32_" gradientUnits="userSpaceOnUse" x1="2311.552" y1="2021.4719" x2="2311.552" y2="2091.6592" gradientTransform="matrix(1 0 0 -1 0 207.59)">
	<stop  offset="0" style="stop-color:#FF9656"/>
	<stop  offset="1" style="stop-color:#FFD270"/>
</linearGradient>
<path class="st32" d="M2208.3-1813.9c0-23.4,0-46.7,0-70.1c4.6,2.6,9.5,4,14.7,4c5.2,0,10.1-1.4,14.7-4.1c0,16.1,0,32.1,0,48.1
	c49.2,0,98.4,0,147.6,0c0-16,0-32,0-48.1c4.7,2.6,9.6,4.1,14.8,4.1c5.2,0,10.1-1.4,14.7-4c0,23.4,0,46.8,0,70.1
	C2346-1813.9,2277.2-1813.9,2208.3-1813.9z"/>
<linearGradient id="SVGID_33_" gradientUnits="userSpaceOnUse" x1="2311.5608" y1="2205.2761" x2="2311.5608" y2="2227.2371" gradientTransform="matrix(1 0 0 -1 0 207.59)">
	<stop  offset="0" style="stop-color:#498CFF"/>
	<stop  offset="1" style="stop-color:#37F8FF"/>
</linearGradient>
<path class="st33" d="M2223.1-1997.7c0-7.3,0-14.6,0-22c59,0,118,0,177,0c0,7.3,0,14.6,0,22
	C2341.1-1997.7,2282.1-1997.7,2223.1-1997.7z"/>
<linearGradient id="SVGID_34_" gradientUnits="userSpaceOnUse" x1="2753.1621" y1="2413.2532" x2="2753.1621" y2="2619.1133" gradientTransform="matrix(1 0 0 -1 0 207.59)">
	<stop  offset="0" style="stop-color:#498CFF"/>
	<stop  offset="1" style="stop-color:#37F8FF"/>
</linearGradient>
<path class="st34" d="M2856.1-2308.6c0,56.9-46.1,102.9-102.9,102.9c-56.8,0-102.9-46.1-102.9-102.9c0-56.9,46.1-102.9,102.9-102.9
	C2810-2411.5,2856.1-2365.4,2856.1-2308.6z"/>
<g>
	<g>
		
			<linearGradient id="SVGID_35_" gradientUnits="userSpaceOnUse" x1="2799.4402" y1="2416.2551" x2="2799.4402" y2="2598.3501" gradientTransform="matrix(1 0 0 -1 0 207.59)">
			<stop  offset="0" style="stop-color:#FF9656"/>
			<stop  offset="1" style="stop-color:#FFD270"/>
		</linearGradient>
		<path class="st35" d="M2838.7-2365.9l-3.1,1l-16.4,1.4l-4.6,7.4l-3.4-1.1l-13-11.8l-1.9-6.1l-2.5-6.5l-8.2-7.4l-9.7-1.9l-0.2,4.4
			l9.5,9.3l4.6,5.5l-5.2,2.7l-4.2-1.3l-6.4-2.7l0.2-5.1l-8.3-3.4l-2.8,12.1l-8.4,1.9l0.9,6.7l11,2.1l1.9-10.8l9.1,1.3l4.2,2.5h6.8
			l4.6,9.2l12.3,12.4l-0.9,4.9l-9.9-1.3l-17.1,8.6l-12.3,14.7l-1.6,6.6h-4.4l-8.2-3.8l-8,3.8l2,8.4l3.5-4l6.1-0.2l-0.4,7.5l5.1,1.5
			l5,5.7l8.3-2.3l9.4,1.5l11,3l5.5,0.6l9.3,10.5l17.9,10.5l-11.6,22.1l-12.2,5.7l-4.7,12.7l-17.7,11.8l-1.9,6.8
			c45.2-10.9,78.7-51.4,78.7-99.9C2856.1-2329.8,2849.7-2349.5,2838.7-2365.9z"/>
		
			<linearGradient id="SVGID_36_" gradientUnits="userSpaceOnUse" x1="2709.9814" y1="2413.2544" x2="2709.9814" y2="2569.7612" gradientTransform="matrix(1 0 0 -1 0 207.59)">
			<stop  offset="0" style="stop-color:#FF9656"/>
			<stop  offset="1" style="stop-color:#FFD270"/>
		</linearGradient>
		<path class="st36" d="M2765-2254.8l-7.5-13.9l6.8-14.3l-6.8-2.1l-7.8-7.8l-17.1-3.8l-5.6-11.9v7.1h-2.5l-14.7-20v-16.4l-10.8-17.6
			l-17.2,3.1h-11.6l-5.8-3.8l7.4-5.9l-7.4,1.7c-8.9,15.3-14.1,33-14.1,51.9c0,56.8,46.1,102.9,102.9,102.9c4.4,0,8.7-0.4,12.9-0.9
			l-1.1-12.4c0,0,4.7-18.5,4.7-19.1C2769.7-2238.8,2765-2254.8,2765-2254.8z"/>
		
			<linearGradient id="SVGID_37_" gradientUnits="userSpaceOnUse" x1="2735.375" y1="2581.6711" x2="2735.375" y2="2619.1111" gradientTransform="matrix(1 0 0 -1 0 207.59)">
			<stop  offset="0" style="stop-color:#FF9656"/>
			<stop  offset="1" style="stop-color:#FFD270"/>
		</linearGradient>
		<path class="st37" d="M2688.5-2378.3l18.3-2.6l8.4-4.6l9.5,2.7l15.2-0.8l5.2-8.2l7.5,1.3l18.4-1.7l5.1-5.6l7.1-4.8l10.1,1.5
			l3.7-0.6c-13.3-6.2-28.1-9.9-43.8-9.9c-31.9,0-60.5,14.6-79.4,37.4h0.1L2688.5-2378.3z M2757.5-2401.3l10.5-5.8l6.7,3.9l-9.8,7.4
			l-9.3,0.9l-4.2-2.7L2757.5-2401.3z M2726.4-2400.5l4.6,1.9l6.1-1.9l3.3,5.8l-14,3.7l-6.7-4
			C2719.6-2395,2726.2-2399.2,2726.4-2400.5z"/>
	</g>
</g>
<linearGradient id="SVGID_38_" gradientUnits="userSpaceOnUse" x1="3079.0544" y1="2850.8301" x2="3079.0544" y2="2871.48" gradientTransform="matrix(1 0 0 -1 0 207.59)">
	<stop  offset="0" style="stop-color:#498CFF"/>
	<stop  offset="1" style="stop-color:#37F8FF"/>
</linearGradient>
<rect x="3068.7" y="-2663.9" class="st38" width="20.6" height="20.6"/>
<linearGradient id="SVGID_39_" gradientUnits="userSpaceOnUse" x1="3079.0542" y1="2881.8049" x2="3079.0542" y2="2974.73" gradientTransform="matrix(1 0 0 -1 0 207.59)">
	<stop  offset="0" style="stop-color:#498CFF"/>
	<stop  offset="1" style="stop-color:#37F8FF"/>
</linearGradient>
<path class="st39" d="M3079.1-2767.1c-22.8,0-41.3,18.5-41.3,41.3h20.6c0-11.4,9.3-20.7,20.6-20.7s20.6,9.3,20.6,20.7
	c0,20.6-31,18.1-31,51.6h20.6c0-23.2,31-25.8,31-51.6C3120.4-2748.7,3101.9-2767.1,3079.1-2767.1z"/>
<linearGradient id="SVGID_40_" gradientUnits="userSpaceOnUse" x1="3079.0549" y1="2809.5291" x2="3079.0549" y2="3016.0291" gradientTransform="matrix(1 0 0 -1 0 207.59)">
	<stop  offset="0" style="stop-color:#FF9656"/>
	<stop  offset="1" style="stop-color:#FFD270"/>
</linearGradient>
<path class="st40" d="M3079.1-2808.4c-57,0-103.2,46.3-103.2,103.2c0,57,46.3,103.2,103.2,103.2c57,0,103.2-46.3,103.2-103.2
	C3182.3-2762.2,3136-2808.4,3079.1-2808.4z M3079.1-2622.6c-45.5,0-82.6-37.1-82.6-82.6c0-45.5,37.1-82.6,82.6-82.6
	s82.6,37.1,82.6,82.6C3161.7-2659.7,3124.6-2622.6,3079.1-2622.6z"/>
</svg>
