<?xml version="1.0" encoding="utf-8"?>
<!-- Generator: Adobe Illustrator 21.0.2, SVG Export Plug-In . SVG Version: 6.00 Build 0)  -->
<svg version="1.1" id="Layer_1" xmlns="http://www.w3.org/2000/svg" xmlns:xlink="http://www.w3.org/1999/xlink" x="0px" y="0px"
	 viewBox="0 0 276.1 205.2" style="enable-background:new 0 0 276.1 205.2;" xml:space="preserve">
<style type="text/css">
	.st0{fill:url(#SVGID_1_);}
	.st1{fill:url(#SVGID_2_);}
	.st2{fill:url(#SVGID_3_);}
	.st3{fill:url(#SVGID_4_);}
	.st4{fill:url(#SVGID_5_);}
	.st5{fill:url(#SVGID_6_);}
	.st6{fill:url(#SVGID_7_);}
	.st7{fill:url(#SVGID_8_);}
	.st8{fill:url(#SVGID_9_);}
	.st9{fill:url(#SVGID_10_);}
	.st10{fill:url(#SVGID_11_);}
	.st11{fill:url(#SVGID_12_);}
	.st12{fill:url(#SVGID_13_);}
	.st13{fill:url(#SVGID_14_);}
	.st14{fill:url(#SVGID_15_);}
	.st15{fill:url(#SVGID_16_);}
	.st16{fill:url(#SVGID_17_);}
	.st17{fill:url(#SVGID_18_);}
	.st18{fill:url(#SVGID_19_);}
	.st19{fill:url(#SVGID_20_);}
	.st20{fill:url(#SVGID_21_);}
	.st21{fill:url(#SVGID_22_);}
	.st22{fill:url(#SVGID_23_);}
	.st23{fill:url(#SVGID_24_);}
	.st24{fill:url(#SVGID_25_);}
	.st25{fill:url(#SVGID_26_);}
	.st26{fill:url(#SVGID_27_);}
	.st27{fill:url(#SVGID_28_);}
	.st28{fill:url(#SVGID_29_);}
	.st29{fill:#FFFFFF;}
	.st30{fill:url(#SVGID_30_);}
	.st31{fill:url(#SVGID_31_);}
	.st32{fill:url(#SVGID_32_);}
	.st33{fill:url(#SVGID_33_);}
	.st34{fill:url(#SVGID_34_);}
	.st35{fill:url(#SVGID_35_);}
	.st36{fill:url(#SVGID_36_);}
	.st37{fill:url(#SVGID_37_);}
	.st38{fill:url(#SVGID_38_);}
	.st39{fill:url(#SVGID_39_);}
	.st40{fill:url(#SVGID_40_);}
</style>
<g>
	<g>
		
			<linearGradient id="SVGID_1_" gradientUnits="userSpaceOnUse" x1="-2482.6255" y1="-1895.24" x2="-2482.6255" y2="-1688.896" gradientTransform="matrix(1 0 0 -1 0 208)">
			<stop  offset="0" style="stop-color:#FF9656"/>
			<stop  offset="1" style="stop-color:#FFD270"/>
		</linearGradient>
		<path class="st0" d="M-2402.4,1919.8h-10.3v22.9h-36.7v-22.9h-66.5v22.9h-36.7v-22.9h-10.3c-12.6,0-22.9,10.3-22.9,22.9v137.6
			c0,12.6,10.3,22.9,22.9,22.9h160.5c12.6,0,22.9-10.3,22.9-22.9v-137.6C-2379.5,1930.1-2389.8,1919.8-2402.4,1919.8z
			 M-2402.4,2080.3h-160.5v-108.5h160.5V2080.3z M-2526.2,1896.9h-16.1v39h16.1V1896.9z M-2423,1896.9h-16v39h16V1896.9z"/>
	</g>
</g>
<g>
	
		<linearGradient id="SVGID_2_" gradientUnits="userSpaceOnUse" x1="-2482.1274" y1="-1849.0616" x2="-2482.1274" y2="-1785.0081" gradientTransform="matrix(1 0 0 -1 0 208)">
		<stop  offset="0" style="stop-color:#498CFF"/>
		<stop  offset="1" style="stop-color:#37F8FF"/>
	</linearGradient>
	<path class="st1" d="M-2480.5,1994.1l8.5,20.2l21.9,1.9c1.5,0.1,2.1,2,1,3l-16.6,14.4l5,21.4c0.3,1.5-1.3,2.7-2.6,1.9l-18.8-11.3
		l-18.8,11.3c-1.3,0.8-2.9-0.4-2.6-1.9l5-21.4l-16.6-14.4c-1.2-1-0.5-2.9,1-3l21.9-1.9l8.5-20.2
		C-2483.1,1992.7-2481.1,1992.7-2480.5,1994.1L-2480.5,1994.1z"/>
</g>
<g>
	
		<linearGradient id="SVGID_3_" gradientUnits="userSpaceOnUse" x1="-2005.9814" y1="-1501.7977" x2="-2005.9814" y2="-1295.7502" gradientTransform="matrix(1 0 0 -1 0 208)">
		<stop  offset="0" style="stop-color:#FF9656"/>
		<stop  offset="1" style="stop-color:#FFD270"/>
	</linearGradient>
	<path class="st2" d="M-1938.4,1536h-35c-5.1-4-10.9-7.1-17.3-9l13.2-13.2c2.3-2.3,2.3-6,0-8.3s-6-2.3-8.3,0l-18.4,18.4
		c-0.3,0.3-0.6,0.6-0.7,1c-0.3,0-0.6,0-1,0c-0.3,0-0.6,0-0.9,0c-0.2-0.4-0.5-0.7-0.8-1l-18.4-18.4c-2.3-2.3-6-2.3-8.3,0
		s-2.3,6,0,8.3l13.2,13.2c-6.3,1.9-12.2,5-17.3,9h-35c-22.7,0-41.1,18.4-41.1,41.1v80.6c0,22.6,18.5,41.1,41.1,41.1h0.5v4.1
		c0,3.8,3.1,6.9,6.9,6.9h4.2c3.8,0,6.9-3.1,6.9-6.9v-4.1h97.8v2.4c0,3.8,3.1,8.6,6.9,8.6h4.2c3.8,0,6.9-4.8,6.9-8.6v-2.4h0.5
		c22.6,0,41.1-18.5,41.1-41.1v-80.6C-1897.3,1554.5-1915.8,1536-1938.4,1536z M-2063.3,1675.7c-14.4,0-26.2-11.7-26.2-26.2v-63.7
		c0-14.4,11.7-26.2,26.2-26.2h88.7c14.4,0,26.2,11.7,26.2,26.2v63.7c0,14.4-11.7,26.2-26.2,26.2H-2063.3L-2063.3,1675.7z
		 M-1923.4,1643.7c-3.6,0-6.6-2.9-6.6-6.6s2.9-6.6,6.6-6.6c3.6,0,6.6,2.9,6.6,6.6C-1916.8,1640.8-1919.8,1643.7-1923.4,1643.7z
		 M-1923.4,1624c-3.6,0-6.6-2.9-6.6-6.6c0-3.6,2.9-6.6,6.6-6.6c3.6,0,6.6,2.9,6.6,6.6C-1916.8,1621.1-1919.8,1624-1923.4,1624z
		 M-1923.4,1604.4c-3.6,0-6.6-2.9-6.6-6.6c0-3.6,2.9-6.6,6.6-6.6c3.6,0,6.6,2.9,6.6,6.6C-1916.8,1601.5-1919.8,1604.4-1923.4,1604.4
		z"/>
</g>
<linearGradient id="SVGID_4_" gradientUnits="userSpaceOnUse" x1="-2018.0031" y1="-1451.6079" x2="-2018.0031" y2="-1379.338" gradientTransform="matrix(1 0 0 -1 0 208)">
	<stop  offset="0" style="stop-color:#498CFF"/>
	<stop  offset="1" style="stop-color:#37F8FF"/>
</linearGradient>
<path class="st3" d="M-1983.9,1627l-31.5,31.5c-0.7,0.7-1.6,1-2.5,1c-0.9,0-1.8-0.4-2.5-1l-31.6-31.6c-4.4-4.4-6.8-10.2-6.8-16.4
	c0-6.2,2.4-12,6.8-16.4c4.4-4.4,10.2-6.8,16.4-6.8c6.2,0,12,2.4,16.4,6.8l1.3,1.3l1.3-1.3c4.4-4.4,10.2-6.8,16.4-6.8
	c6.2,0,12,2.4,16.4,6.8c4.4,4.4,6.8,10.2,6.8,16.4C-1977.1,1616.8-1979.5,1622.6-1983.9,1627z"/>
<linearGradient id="SVGID_5_" gradientUnits="userSpaceOnUse" x1="-1566.3521" y1="-1130.707" x2="-1566.3521" y2="-934.239" gradientTransform="matrix(1 0 0 -1 0 208)">
	<stop  offset="0" style="stop-color:#FF9656"/>
	<stop  offset="1" style="stop-color:#FFD270"/>
</linearGradient>
<path class="st4" d="M-1604.7,1142.2C-1604.7,1142.2-1604.7,1142.2-1604.7,1142.2c-2.6,0-5,1-6.8,2.8c-1.8,1.8-2.8,4.3-2.8,6.9V1297
	c0,5.3,4.3,9.7,9.7,9.7c22.5,0.1,60.3,4.7,86.3,32v-151.9c0-1.8-0.5-3.5-1.3-4.9C-1541.1,1147.5-1582.1,1142.3-1604.7,1142.2z"/>
<linearGradient id="SVGID_6_" gradientUnits="userSpaceOnUse" x1="-1455.3346" y1="-1130.707" x2="-1455.3346" y2="-934.239" gradientTransform="matrix(1 0 0 -1 0 208)">
	<stop  offset="0" style="stop-color:#FF9656"/>
	<stop  offset="1" style="stop-color:#FFD270"/>
</linearGradient>
<path class="st5" d="M-1407.3,1297v-145.1c0-2.6-1-5-2.9-6.9c-1.8-1.8-4.2-2.8-6.8-2.8c0,0,0,0,0,0c-22.6,0.1-63.6,5.3-85,39.7
	c-0.9,1.4-1.3,3.1-1.3,4.9v151.9c26-27.2,63.8-31.9,86.3-32C-1411.7,1306.7-1407.3,1302.4-1407.3,1297z"/>
<linearGradient id="SVGID_7_" gradientUnits="userSpaceOnUse" x1="-1433.635" y1="-1140.155" x2="-1433.635" y2="-967.705" gradientTransform="matrix(1 0 0 -1 0 208)">
	<stop  offset="0" style="stop-color:#498CFF"/>
	<stop  offset="1" style="stop-color:#37F8FF"/>
</linearGradient>
<path class="st6" d="M-1386.4,1175.7h-7v120.8c0,13.5-11,24.6-24.6,24.6c-19,0.1-50.4,3.8-72.6,24.8c38.4-9.4,78.9-3.3,102,2
	c2.9,0.7,5.9,0,8.2-1.9c2.3-1.8,3.6-4.6,3.6-7.5v-153.2C-1376.7,1180-1381,1175.7-1386.4,1175.7z"/>
<linearGradient id="SVGID_8_" gradientUnits="userSpaceOnUse" x1="-1589.1541" y1="-1140.1523" x2="-1589.1541" y2="-967.705" gradientTransform="matrix(1 0 0 -1 0 208)">
	<stop  offset="0" style="stop-color:#498CFF"/>
	<stop  offset="1" style="stop-color:#37F8FF"/>
</linearGradient>
<path class="st7" d="M-1629.4,1296.5v-120.8h-7c-5.3,0-9.6,4.3-9.6,9.6v153.2c0,2.9,1.3,5.7,3.6,7.5c2.3,1.8,5.3,2.5,8.2,1.9
	c23.1-5.3,63.6-11.4,102-2c-22.2-21-53.6-24.8-72.6-24.8C-1618.4,1321.1-1629.4,1310.1-1629.4,1296.5z"/>
<linearGradient id="SVGID_9_" gradientUnits="userSpaceOnUse" x1="-1028.8654" y1="-764" x2="-1028.8654" y2="-557.165" gradientTransform="matrix(1 0 0 -1 0 208)">
	<stop  offset="0" style="stop-color:#FF9656"/>
	<stop  offset="1" style="stop-color:#FFD270"/>
</linearGradient>
<path class="st8" d="M-1135.8,972c0-3.5,0-7,0-10.5c0-0.3,0.2-0.8,0.4-1c2-2,4.3-3.6,6.8-5c9-5.1,17.9-10.2,27.4-14.4
	c9.1-4,18.2-7.8,27.3-11.7c0.7-0.3,1.4-0.6,2.1-0.9c1.5-0.6,2.5-1.6,3-3.1c1.2-3.7,2.5-7.5,3.7-11.2c0.2-0.7,0.5-1.4,0.8-2.1
	c0.6-1.2,1.6-2,2.8-2.4c1.5-0.4,2.3-1.5,2.5-2.9c0.6-4.9,1-9.9,1.5-14.8c0.1-1.3-0.3-2.5-1.1-3.4c-4.5-5.1-6.8-11.1-7.9-17.8
	c-0.2-1.4-0.7-2.9-1.3-4.2c-1.9-4.5-2.9-9.4-4.2-14.1c-0.9-3.4-1.1-6.8-1.4-10.2c-0.2-2,0.5-3,2.3-3.8c0.4-0.2,1-0.6,1.1-1
	c0.3-0.9,0.6-1.9,0.6-2.8c0.1-9.5,0.1-19.1,0.2-28.6c0-3.2,0.1-6.4,0.9-9.5c1.2-4.3,3.5-7.8,6.5-11c5.7-6.1,12.7-10.2,20.4-13.1
	c7.4-2.8,15.1-4.6,22.9-5.9c2.5-0.4,5.1-0.9,7.6-1.2c1.3-0.2,2.7-0.1,4.1,0c0.4,0,0.7,0.7,1.1,1.1c-0.6,0.5-1.2,0.8-1.7,1.2
	c-1,0.9-2,1.7-2.8,2.7c-1,1.3-0.9,2.5,0.1,3.7c0.4,0.5,1,1,1.5,1.5c4.6,4.1,9.1,8.2,13.7,12.2c5.1,4.4,7.3,9.9,7.3,16.5
	c0,10.4,0,20.8,0,31.3c0,0.8,0,1.6,0.2,2.3c0.2,1,0.8,1.7,1.8,2.2c1.1,0.6,1.6,1.3,1.5,2.6c-0.3,3.3-0.6,6.6-0.9,9.9
	c-0.2,1.7-0.3,3.4-0.5,5.1c0,0.4-0.1,0.8-0.3,1.1c-2.4,3.7-3.7,7.7-4.9,11.9c-1.1,3.7-2,7.5-3.6,11c-0.2,0.3-0.3,0.7-0.6,0.9
	c-2.4,3.1-3.8,6.6-4,10.4c-0.2,4.2-0.1,8.5-0.1,12.8c0,0.9,0.1,1.8,0.4,2.7c0.1,0.4,0.5,0.9,0.9,1.1c1.7,0.8,2.6,2.2,3.2,3.9
	c0.8,2.6,1.6,5.3,2.5,7.9c0.4,1.2,0.9,2.3,1.3,3.5c0.6,2,2.1,3.2,3.9,4c2.2,0.9,4.4,1.7,6.5,2.6c16.4,6.6,32.6,13.6,48.3,21.9
	c3.5,1.9,6.8,4.1,9.5,7c0.1,0.1,0.2,0.1,0.3,0.2c0,3.9,0,7.7,0,11.6C-993.2,972-1064.5,972-1135.8,972z"/>
<linearGradient id="SVGID_10_" gradientUnits="userSpaceOnUse" x1="-411.4486" y1="-393.153" x2="-411.4486" y2="-186.2859" gradientTransform="matrix(1 0 0 -1 0 208)">
	<stop  offset="0" style="stop-color:#FF9656"/>
	<stop  offset="1" style="stop-color:#FFD270"/>
</linearGradient>
<path class="st9" d="M-312.8,601.2c-65.9,0-131.6,0-197.4,0c0-3.6,0-7.1,0-10.7c0-0.3,0.3-0.7,0.6-1c2.5-1.9,4.9-4,7.6-5.8
	c14.7-9.6,30.6-16.8,46.5-24c1.4-0.6,2.8-1.3,4.2-1.9c1.6-0.7,2.6-1.8,3.1-3.4c1.2-3.8,2.3-7.5,3.4-11.3c0.6-2.1,1.5-3.7,3.8-4.4
	c1.2-0.4,1.7-1.5,1.8-2.7c0.5-5,1-10,1.3-14.9c0.1-1.1-0.4-2.5-1.2-3.4c-3.9-5-6-10.7-7-16.9c-0.3-1.9-0.9-3.7-1.5-5.5
	c-2.6-7.7-4.5-15.6-4.9-23.8c-0.1-1.4,0.1-2.7,1.5-3.3c1.9-0.8,2.2-2.4,2.3-4.2c0.1-3,0-6,0.1-9c0.1-7.5,0.2-15.1,0.2-22.6
	c0-7.2,2.8-13.3,7.6-18.5c6-6.5,13.4-10.7,21.6-13.6c8-2.8,16.3-4.4,24.6-5.8c1.1-0.2,2.3-0.1,3.5,0c0.5,0.1,0.8,0.6,1.3,1
	c-1.2,1-2.2,1.7-3.1,2.6c-2.4,2.3-2.4,4.1,0,6.4c4.3,4.2,8.5,8.4,12.9,12.4c4.8,4.4,6.8,9.9,6.8,16.2c0,10.5,0,21.1,0,31.6
	c0,2,0.2,3.8,2.3,4.9c0.6,0.3,0.9,1.6,0.8,2.5c-0.2,4-0.7,8-1,11.9c-0.1,2.3-1,4.4-1.8,6.5c-1.7,4.5-3,9.1-4.4,13.7
	c-1,3.2-1.9,6.4-3.7,9.2c-2,3.1-2.7,6.6-2.8,10.3c-0.1,4.1,0,8.1,0,12.2c0,1.3,0.5,2.4,1.7,3.1c1.5,0.8,2.1,2.4,2.5,4
	c1,3.4,2.1,6.9,3.1,10.3c0.7,2.6,2.4,4.1,4.8,5.1c15.7,6.7,31.3,13.8,46.2,22.1c3.6,2,7.1,4,10.2,6.7c1.7,1.5,2.7,3.1,2.5,5.5
	C-313,595.4-312.8,598.3-312.8,601.2z"/>
<linearGradient id="SVGID_11_" gradientUnits="userSpaceOnUse" x1="-536.2117" y1="-393.134" x2="-536.2117" y2="-222.6395" gradientTransform="matrix(1 0 0 -1 0 208)">
	<stop  offset="0" style="stop-color:#498CFF"/>
	<stop  offset="1" style="stop-color:#37F8FF"/>
</linearGradient>
<path class="st10" d="M-480.9,558.7c-4.9,2.6-9.7,5-14.4,7.8c-6,3.6-12,7.3-17.8,11.3c-2.7,1.9-4.9,4.6-7.3,7
	c-0.3,0.3-0.4,0.9-0.4,1.4c0,4.5,0,9,0,13.6c0,0.4,0,0.9,0,1.4c-25.1,0-50,0-75.1,0c0-0.3-0.1-0.6-0.1-0.9c0-2,0.1-4,0-5.9
	c-0.2-1.9,0.4-3.2,1.9-4.2c1.5-1,2.8-2.2,4.3-3.1c10.2-6.6,21-12.2,32.1-17.1c3.7-1.6,7.3-3.4,11-5.1c1.3-0.6,2.2-1.5,2.6-2.9
	c1-3.2,1.9-6.4,2.9-9.6c0.5-1.7,1.3-2.9,3.1-3.6c0.7-0.3,1.4-1.3,1.5-2.1c0.5-4.2,0.9-8.5,1.2-12.8c0.1-0.9-0.4-2.1-1-2.9
	c-3.1-4.1-4.8-8.7-5.7-13.7c-0.3-1.6-0.7-3.2-1.3-4.8c-2.1-6.3-3.7-12.8-4.1-19.5c-0.1-1.7,0.1-3.1,1.9-3.9c0.5-0.3,0.9-1.2,1-1.9
	c0.2-2,0.2-3.9,0.2-5.9c0-6.7,0-13.3,0.1-20c0-2.1,0.2-4.2,0.5-6.3c0.5-3.2,1.9-6.1,4-8.6c4.5-5.6,10-10.1,16.3-13.5
	c3.6-1.9,7.5-2.4,11.6-2.5c5.2-0.1,9.7,1.2,14,3.9c2.6,1.7,5.1,3.6,7.4,5.6c1.9,1.6,3.7,3.4,5.4,5.2c3.6,4,5.4,8.7,5.4,14.1
	c0.1,7.2,0.1,14.4,0.1,21.6c0,1.9,0,3.7,0.1,5.6c0,1.3,0.4,2.4,1.8,3c1.2,0.5,1.4,1.7,1.3,2.9c-0.4,6.9-2,13.4-4.1,19.9
	c-0.8,2.4-1.3,4.8-1.8,7.3c-0.9,4.1-2.6,7.8-5.1,11.2c-0.7,0.9-1.2,2.2-1.1,3.3c0.2,4,0.7,8,1.1,12.1c0.1,1.3,0.7,2.3,2.1,2.7
	c1.4,0.4,2,1.5,2.4,2.8C-482.3,554.2-481.6,556.5-480.9,558.7z"/>
<linearGradient id="SVGID_12_" gradientUnits="userSpaceOnUse" x1="-290.842" y1="-393.128" x2="-290.842" y2="-225.4613" gradientTransform="matrix(1 0 0 -1 0 208)">
	<stop  offset="0" style="stop-color:#498CFF"/>
	<stop  offset="1" style="stop-color:#37F8FF"/>
</linearGradient>
<path class="st11" d="M-231.9,601.1c-23.5,0-46.9,0-70.4,0c0-0.5,0-0.9,0-1.4c0-4.6,0-9.3,0-13.9c0-0.5-0.3-1.2-0.6-1.6
	c-4.6-5.9-10.3-10.4-16.9-13.8c-7.4-3.8-14.7-7.6-22-11.3c-0.4-0.2-0.8-0.4-1.3-0.6c1.8-1.9,3.4-3.6,6.1-4.1c2.5-0.4,4.2-2,4.8-4.5
	c1.4-5.5,2.3-11.1,1.4-16.9c-0.4-2.6-1.6-4.3-4.1-5.4c-4-1.7-8-3.7-12-5.5c-2.8-1.3-3.2-2.4-2.4-5.4c1.8-7.1,3.8-14.1,5.4-21.2
	c1.5-6.8,2.1-13.8,2.4-20.8c0.2-6,0.4-12,1.7-17.9c0.9-4,2.3-7.9,4.6-11.4c2-3.2,4.7-5.5,8.4-6.8c1.7-0.6,3.3-1.3,4.8-2.3
	c5.5-3.4,11.2-3.5,17.1-1.5c9.4,3.2,16.3,9,19.3,18.8c1.6,5.1,2.4,10.4,2.5,15.7c0.3,15.8,2.8,31.3,7.8,46.4c1.4,4.2,1,5-3,6.9
	c-3.7,1.8-7.4,3.6-11.2,5.2c-2.3,1-3.5,2.6-3.9,5c-1,6-0.1,11.8,1.4,17.6c0.6,2.3,2.3,3.7,4.6,4.1c2,0.4,3.7,1.3,4.9,2.8
	c2.4,2.9,5.5,4.9,9,6.4c6.6,3,13.2,6.2,19.9,9.1c7.8,3.4,14.2,8.3,18.2,16C-233.7,592.3-232.1,597.7-231.9,601.1z"/>
<g>
	
		<linearGradient id="SVGID_13_" gradientUnits="userSpaceOnUse" x1="666.7935" y1="394.922" x2="666.7935" y2="601.622" gradientTransform="matrix(1 0 0 -1 0 208)">
		<stop  offset="0" style="stop-color:#FF9656"/>
		<stop  offset="1" style="stop-color:#FFD270"/>
	</linearGradient>
	<path class="st12" d="M770.2-376.9c-11.5-11.3-27.2-16.8-47.2-16.8c-5.6,0-11.2,1-17.1,2.9c-5.9,1.9-11.2,4.5-16.2,7.8
		c-4.9,3.4-9.2,6.4-12.8,9.2c-3.6,2.9-7,5.9-10.2,9.2c-3.3-3.2-6.6-6.3-10.2-9.2c-3.6-2.8-7.9-5.9-12.8-9.2
		c-5.1-3.3-10.4-5.9-16.2-7.8c-5.9-1.9-11.5-2.9-17.1-2.9c-20.1,0-35.8,5.5-47.2,16.8c-11.5,11-17.1,26.5-17.1,46.3
		c0,6,1,12.1,3.2,18.5c2,6.4,4.5,11.8,7.2,16.3c2.7,4.5,5.7,8.9,9.1,13.2c3.5,4.1,6,7.2,7.5,8.7c1.6,1.7,2.7,2.8,3.6,3.5l84,81.1
		c1.6,1.6,3.6,2.4,6,2.4c2.4,0,4.3-0.8,5.9-2.4l83.8-80.8c20.6-20.6,30.8-40.8,30.8-60.5C787.3-350.4,781.7-365.9,770.2-376.9z"/>
</g>
<g>
	
		<linearGradient id="SVGID_14_" gradientUnits="userSpaceOnUse" x1="756.4226" y1="418.096" x2="756.4226" y2="523.748" gradientTransform="matrix(1 0 0 -1 0 208)">
		<stop  offset="0" style="stop-color:#498CFF"/>
		<stop  offset="1" style="stop-color:#37F8FF"/>
	</linearGradient>
	<path class="st13" d="M809.3-307.2c-5.9-5.8-13.9-8.6-24.1-8.6c-2.9,0-5.7,0.5-8.7,1.5c-3,1-5.7,2.3-8.3,4
		c-2.5,1.7-4.7,3.3-6.5,4.7c-1.8,1.5-3.6,3-5.2,4.7c-1.7-1.7-3.4-3.2-5.2-4.7c-1.8-1.4-4-3-6.5-4.7c-2.6-1.7-5.3-3-8.3-4
		c-3-1-5.9-1.5-8.7-1.5c-10.3,0-18.3,2.8-24.1,8.6c-5.9,5.6-8.7,13.5-8.7,23.7c0,3,0.5,6.2,1.6,9.5c1,3.3,2.3,6,3.7,8.3
		c1.4,2.3,2.9,4.5,4.7,6.7c1.8,2.1,3,3.7,3.8,4.5c0.8,0.9,1.4,1.4,1.8,1.8l42.9,41.5c0.8,0.8,1.8,1.2,3,1.2c1.2,0,2.2-0.4,3-1.2
		l42.8-41.3c10.5-10.5,15.7-20.8,15.7-30.9C818-293.6,815.2-301.6,809.3-307.2z"/>
</g>
<linearGradient id="SVGID_15_" gradientUnits="userSpaceOnUse" x1="1070.4175" y1="790.397" x2="1070.4175" y2="997.183" gradientTransform="matrix(1 0 0 -1 0 208)">
	<stop  offset="0" style="stop-color:#498CFF"/>
	<stop  offset="1" style="stop-color:#37F8FF"/>
</linearGradient>
<path class="st14" d="M1070.4-789.2c-14.3,77.5-25.8,89.2-103.4,103.4c77.5,14.3,89.1,25.8,103.4,103.4
	c14.3-77.5,25.8-89.1,103.4-103.4C1096.3-700,1084.7-711.6,1070.4-789.2z"/>
<linearGradient id="SVGID_16_" gradientUnits="userSpaceOnUse" x1="1190.1135" y1="905.153" x2="1190.1135" y2="963.757" gradientTransform="matrix(1 0 0 -1 0 208)">
	<stop  offset="0" style="stop-color:#FF9656"/>
	<stop  offset="1" style="stop-color:#FFD270"/>
</linearGradient>
<path class="st15" d="M1190.1-755.8c-4,22-7.3,25.3-29.3,29.3c22,4,25.3,7.3,29.3,29.3c4-22,7.3-25.2,29.3-29.3
	C1197.4-730.5,1194.2-733.8,1190.1-755.8z"/>
<linearGradient id="SVGID_17_" gradientUnits="userSpaceOnUse" x1="1216.7394" y1="835.193" x2="1216.7394" y2="893.792" gradientTransform="matrix(1 0 0 -1 0 208)">
	<stop  offset="0" style="stop-color:#FF9656"/>
	<stop  offset="1" style="stop-color:#FFD270"/>
</linearGradient>
<path class="st16" d="M1216.8-685.8c-4,22-7.3,25.3-29.3,29.3c22,4,25.3,7.3,29.3,29.3c4-22,7.3-25.2,29.3-29.3
	C1224.1-660.5,1220.8-663.8,1216.8-685.8z"/>
<linearGradient id="SVGID_18_" gradientUnits="userSpaceOnUse" x1="1493.1459" y1="1194.1357" x2="1493.1459" y2="1401.0568" gradientTransform="matrix(1 0 0 -1 0 208)">
	<stop  offset="0" style="stop-color:#FF9656"/>
	<stop  offset="1" style="stop-color:#FFD270"/>
</linearGradient>
<path class="st17" d="M1402.2-1025.2c0.1-1.2,0.3-2.4,0.5-3.6c1-6.3,3.5-12.1,7.2-17.4c5.7-8.2,13.2-14.4,22.1-18.9
	c7-3.6,14.4-5.8,22.1-6.8c9.3-1.1,18.4-0.4,27.2,2.9c4.4,1.7,8.5,3.9,12.1,6.9c0.1,0.1,0.2,0.2,0.5,0.3c0-0.4,0-0.6,0-0.9
	c0-41.3,0-82.5,0-123.8c0-0.9,0.1-1.8,0.4-2.7c0.7-2.2,2.3-3.4,4.5-3.9c0.1,0,0.3-0.1,0.5-0.2c1,0,1.9,0,2.9,0
	c0.4,0.1,0.8,0.1,1.2,0.2c4.7,0.7,9,2.4,13.2,4.5c5,2.5,9,5.9,12.2,10.4c1.7,2.3,3.3,4.6,5,6.9c4.7,6.7,10.8,11.6,18.6,14.4
	c2.9,1.1,5.9,2,8.8,3.1c5.4,2.1,10.4,4.9,14.7,8.8c3.8,3.5,6.6,7.6,7.8,12.7c0.2,1.1,0.4,2.3,0.6,3.5c0,1.1,0,2.1,0,3.2
	c-0.1,1.1-0.3,2.3-0.5,3.4c-0.2,1.1-0.8,1.7-1.8,1.9c-1,0.3-1.8-0.1-2.4-1.1c-4-6.2-10-9.3-17.1-10.4c-4-0.6-7.9-0.4-11.8,0
	c-6.1,0.6-12.2,0.8-18.3,0.6c-6.4-0.2-12.9-0.8-19.1-2.8c-2.2-0.7-4.3-1.7-6.4-2.6c-0.1-0.1-0.2-0.1-0.5-0.2c0,0.3,0,0.6,0,0.9
	c0,32.8,0,65.5,0,98.3c0,9.8-2.9,18.4-8.7,26.1c-6.8,9.2-15.8,15.6-26.3,19.9c-6.8,2.8-13.9,4.4-21.2,4.7c-0.2,0-0.4,0.1-0.6,0.1
	c-1.8,0-3.8,0-5.6,0c-0.2,0-0.4-0.1-0.6-0.1c-2.8-0.4-5.7-0.5-8.4-1.1c-7.9-1.6-15.1-4.9-21.2-10.3c-5.9-5.2-9.7-11.7-11-19.5
	c-0.2-1.2-0.3-2.5-0.5-3.7C1402.2-1022.3,1402.2-1023.8,1402.2-1025.2z"/>
<linearGradient id="SVGID_19_" gradientUnits="userSpaceOnUse" x1="1579.1351" y1="1209.4683" x2="1579.1351" y2="1312.1823" gradientTransform="matrix(1 0 0 -1 0 208)">
	<stop  offset="0" style="stop-color:#498CFF"/>
	<stop  offset="1" style="stop-color:#37F8FF"/>
</linearGradient>
<path class="st18" d="M1534-1020.9c0.1-0.6,0.1-1.2,0.3-1.8c0.5-3.2,1.7-6,3.6-8.6c2.8-4.1,6.5-7.2,11-9.4c3.4-1.8,7.1-2.9,10.9-3.3
	c4.6-0.6,9.1-0.2,13.5,1.4c2.2,0.8,4.2,1.9,6,3.4c0.1,0,0.1,0.1,0.2,0.1c0-0.2,0-0.3,0-0.4c0-20.5,0-41,0-61.5c0-0.4,0-0.9,0.2-1.3
	c0.3-1.1,1.2-1.7,2.3-2c0.1,0,0.1-0.1,0.2-0.1c0.5,0,1,0,1.4,0c0.2,0,0.4,0.1,0.6,0.1c2.3,0.3,4.5,1.2,6.6,2.3
	c2.4,1.2,4.5,2.9,6,5.2c0.8,1.1,1.6,2.3,2.5,3.4c2.4,3.3,5.4,5.8,9.2,7.2c1.5,0.6,2.9,1,4.4,1.6c2.7,1.1,5.2,2.4,7.3,4.4
	c1.9,1.8,3.3,3.8,3.9,6.3c0.1,0.6,0.2,1.2,0.3,1.7c0,0.5,0,1.1,0,1.6c-0.1,0.5-0.2,1.1-0.2,1.7c-0.1,0.5-0.4,0.8-0.9,0.9
	c-0.5,0.1-0.9-0.1-1.2-0.5c-2-3.1-4.9-4.6-8.5-5.2c-1.9-0.3-3.9-0.2-5.8,0c-3,0.3-6.1,0.4-9.1,0.3c-3.2-0.1-6.4-0.4-9.5-1.3
	c-1.1-0.4-2.1-0.9-3.2-1.3c-0.1-0.1-0.1-0.1-0.2-0.1c0,0.2,0,0.3,0,0.5c0,16.2,0,32.5,0,48.8c0,4.8-1.5,9.1-4.3,13
	c-3.4,4.6-7.8,7.8-13.1,9.9c-3.4,1.4-6.9,2.2-10.5,2.4c-0.1,0-0.2,0-0.3,0c-0.9,0-1.9,0-2.8,0c-0.1,0-0.2,0-0.3,0
	c-1.4-0.2-2.8-0.3-4.2-0.6c-3.9-0.8-7.5-2.4-10.5-5.1c-2.9-2.6-4.8-5.8-5.5-9.7c-0.1-0.6-0.2-1.2-0.3-1.8
	C1534-1019.4,1534-1020.1,1534-1020.9z"/>
<linearGradient id="SVGID_20_" gradientUnits="userSpaceOnUse" x1="1893.5065" y1="1601.5786" x2="1893.5065" y2="1808.4486" gradientTransform="matrix(1 0 0 -1 0 208)">
	<stop  offset="0" style="stop-color:#FF9656"/>
	<stop  offset="1" style="stop-color:#FFD270"/>
</linearGradient>
<path class="st19" d="M1997-1545.7c0,1.2,0,2.5,0,3.7c-0.2,1.3-0.4,2.7-0.7,4c-2.5,10.5-5,21-7.6,31.4
	c-7.4,30.7-14.9,61.5-22.3,92.2c-3.4,14.3-17.3,23.2-31.6,20.1c-5.7-1.2-11.4-2.7-17.2-4.1c-23.7-5.7-47.5-11.5-71.2-17.2
	c-12.1-3-24.3-5.8-36.3-8.8c-14-3.5-22.6-17.3-19.6-31.4c2.2-10.2,4.9-20.4,7.3-30.6c7.5-31.2,15.1-62.4,22.6-93.5
	c3.5-14.5,17.7-23.3,32.1-19.9c15.6,3.7,31.2,7.5,46.8,11.3c25.6,6.2,51.2,12.3,76.7,18.6c10.4,2.6,17,9.2,19.9,19.5
	C1996.6-1548.9,1996.7-1547.3,1997-1545.7z M1925.4-1460.6c-8.7,0-15.7,7-15.7,15.7c0,8.6,7,15.6,15.7,15.7c8.7,0,15.8-7,15.8-15.7
	C1941.1-1453.5,1934-1460.5,1925.4-1460.6z M1861.7-1533.4c8.7,0,15.7-7.1,15.7-15.8c0-8.7-7.1-15.6-15.9-15.6
	c-8.6,0-15.6,7.1-15.6,15.8C1846-1540.4,1853.1-1533.4,1861.7-1533.4z M1945.6-1513.1c8.4,0.1,15.6-6.9,15.7-15.4
	c0.1-8.7-6.8-15.9-15.4-16c-8.8-0.1-16,6.7-16.1,15.5C1929.8-1520.3,1936.8-1513.2,1945.6-1513.1z M1841.3-1480.9
	c-8.5-0.1-15.6,6.9-15.7,15.5c-0.1,8.7,6.9,15.7,15.6,15.8c8.6,0.1,15.7-6.9,15.8-15.6C1857.2-1473.8,1850.1-1480.8,1841.3-1480.9z
	 M1908.6-1494.5c0-8.6-7-15.7-15.7-15.7c-8.6,0-15.7,7.1-15.6,15.7c0,8.7,7,15.8,15.7,15.8
	C1901.5-1478.7,1908.6-1485.7,1908.6-1494.5z"/>
<linearGradient id="SVGID_21_" gradientUnits="userSpaceOnUse" x1="2014.0675" y1="1608.262" x2="2014.0675" y2="1734.875" gradientTransform="matrix(1 0 0 -1 0 208)">
	<stop  offset="0" style="stop-color:#498CFF"/>
	<stop  offset="1" style="stop-color:#37F8FF"/>
</linearGradient>
<path class="st20" d="M1950.8-1485.5c0-0.7,0-1.5,0-2.2c0-0.1,0.1-0.2,0.1-0.4c0.9-6.6,4.4-11.1,10.6-13.4
	c5.8-2.1,11.7-4.1,17.5-6.1c17.7-6.1,35.3-12.3,52.9-18.4c2.4-0.8,4.8-1.1,7.3-0.7c6.3,1,10.6,4.5,12.7,10.5
	c7.2,20.4,14.2,40.8,21.3,61.3c1.2,3.4,2.4,6.8,3.5,10.2c0.3,1,0.4,2,0.6,3c0,0.8,0,1.6,0,2.3c0,0.3-0.1,0.6-0.1,0.9
	c-1.1,6.3-4.5,10.7-10.6,12.8c-20.6,7.2-41.1,14.3-61.7,21.5c-3.2,1.1-6.4,2.2-9.7,3.3c-1,0.3-2,0.4-3.1,0.6c-0.7,0-1.3,0-2.1,0
	c-0.6-0.1-1.1-0.1-1.7-0.2c-6-1.2-10.1-4.7-12.1-10.5c-7.2-20.6-14.3-41.1-21.5-61.7c-1.1-3.3-2.3-6.5-3.3-9.8
	C1951-1483.5,1951-1484.5,1950.8-1485.5z M1991-1479.2c0-5.1-4.1-9.2-9.2-9.2c-5.1,0-9.2,4.1-9.2,9.2c0,5.1,4.1,9.3,9.2,9.3
	C1986.9-1470,1991-1474.1,1991-1479.2z M2037.2-1447.9c0,5.1,4.1,9.2,9.2,9.2c5.1,0,9.2-4.1,9.2-9.2c0-5.1-4.2-9.3-9.3-9.2
	C2041.2-1457.2,2037.1-1453,2037.2-1447.9z M2029.7-1486.7c5.1,0,9.2-4.1,9.2-9.2c0-5.1-4.1-9.2-9.2-9.3c-5.1,0-9.3,4.1-9.3,9.2
	C2020.5-1490.8,2024.6-1486.7,2029.7-1486.7z M1998.4-1440.5c-5.1,0-9.2,4.1-9.2,9.2c0,5.1,4.1,9.2,9.2,9.3c5.1,0,9.2-4.1,9.2-9.2
	C2007.6-1436.4,2003.5-1440.5,1998.4-1440.5z"/>
<g>
	
		<linearGradient id="SVGID_22_" gradientUnits="userSpaceOnUse" x1="2448.9292" y1="2125.7251" x2="2448.9292" y2="2205.0562" gradientTransform="matrix(1 0 0 -1 0 208)">
		<stop  offset="0" style="stop-color:#498CFF"/>
		<stop  offset="1" style="stop-color:#37F8FF"/>
	</linearGradient>
	<path class="st21" d="M2488.6-1990.7c-4.4-4.2-10.4-6.4-18.1-6.4c-2.1,0-4.3,0.4-6.5,1.1c-2.2,0.7-4.3,1.7-6.2,3
		c-1.9,1.3-3.5,2.5-4.9,3.5c-1.3,1.1-2.7,2.3-3.9,3.5c-1.2-1.3-2.5-2.4-3.9-3.5c-1.4-1.1-3.1-2.3-5-3.5c-1.9-1.3-4-2.2-6.2-3
		c-2.2-0.7-4.4-1.1-6.6-1.1c-7.7,0-13.7,2.2-18.1,6.4c-4.4,4.3-6.6,10.2-6.6,17.8c0,2.3,0.4,4.7,1.2,7.1c0.8,2.4,1.8,4.5,2.8,6.3
		c1,1.8,2.2,3.4,3.5,5c1.3,1.6,2.3,2.8,2.9,3.4c0.6,0.6,1,1.1,1.4,1.3l32.2,31.1c0.6,0.7,1.4,1,2.3,1c0.9,0,1.6-0.3,2.3-1l32.1-31
		c7.9-7.9,11.8-15.6,11.8-23.2C2495.2-1980.5,2493-1986.4,2488.6-1990.7z"/>
</g>
<g>
	
		<linearGradient id="SVGID_23_" gradientUnits="userSpaceOnUse" x1="2367.9001" y1="1998.5399" x2="2367.9001" y2="2205.0562" gradientTransform="matrix(1 0 0 -1 0 208)">
		<stop  offset="0" style="stop-color:#FF9656"/>
		<stop  offset="1" style="stop-color:#FFD270"/>
	</linearGradient>
	<path class="st22" d="M2329-1997.1c7.6,1.7,10.4,7.4,11.6,14.3c0.7,3.6,0.4,7.3-0.5,10.9c-1.7,6.7-2.1,13.4-1.6,20.3
		c1.3,19.1,6.7,37.2,15,54.4c1,1.9,2.1,3.9,3.3,5.7c0.7,1,1.6,1.8,2.6,2.4c1.6,1,3.2,0.9,4.4-0.1c1.2-1.2,1.4-3,0.6-4.7
		c-1.5-3-3.1-6-4.4-9.2c-5.2-12.1-9.6-24.5-12.4-37.4c-0.7-3.5-1.1-7.1-1.2-10.7c-0.1-8.5,9.2-13.2,16.3-9c2.4,1.4,4.1,3.6,5.6,5.9
		c2.8,4.5,4.5,9.4,6.3,14.4c2.3,6.1,4.5,12.2,7.1,18.2c2.4,5.7,6.2,10.5,10.3,15.1c7.9,9,15.6,18.1,22.2,28.1
		c5.6,8.6,9.8,17.6,11.7,27.8c1,5.6,1.6,11.3,1.7,17c0.2,12.1,0.2,24.2,0.3,36.3c0,4-1.7,6-5.7,6.7c-0.2,0-0.4,0.1-0.6,0.2
		c-11.3,0-22.6,0-34,0c-2.4-0.5-4-1.9-4.5-4.3c-0.2-0.5-0.2-1.1-0.3-1.6c-0.5-4.5-0.9-9-1.5-13.5c-0.4-3.6-1.2-7.2-2.6-10.6
		c-0.7-1.6-1.8-2.9-3.3-3.9c-15.1-9.6-28.7-21-40.3-34.7c-10.9-12.8-18.7-27.1-22.5-43.5c-2.4-10.3-3.8-20.8-4.1-31.3
		c-0.5-13.9,0.4-27.7,3.4-41.3c1.2-5.1,2.7-10.1,5.2-14.8c1.8-3.1,4.2-5.3,7.7-6.3c0.7-0.2,1.4-0.4,2.1-0.6
		C2327.4-1997.1,2328.2-1997.1,2329-1997.1z"/>
	
		<linearGradient id="SVGID_24_" gradientUnits="userSpaceOnUse" x1="2529.9531" y1="1998.542" x2="2529.9531" y2="2205.0586" gradientTransform="matrix(1 0 0 -1 0 208)">
		<stop  offset="0" style="stop-color:#FF9656"/>
		<stop  offset="1" style="stop-color:#FFD270"/>
	</linearGradient>
	<path class="st23" d="M2476.5-1790.5c-0.6-0.1-1.2-0.3-1.7-0.4c-3-0.8-4.5-2.7-4.6-5.8c0-5.1,0-10.2,0-15.2c0-7.3,0-14.6,0.3-21.8
		c0.3-10.9,1.8-21.5,6.3-31.5c3.5-8,8.2-15.3,13.6-22.1c5.4-6.9,11-13.6,16.7-20.2c5-5.7,8.9-12.1,11.6-19.2
		c2.5-6.4,4.6-12.9,7.2-19.3c1.3-3.3,3-6.5,4.9-9.5c2.1-3.3,5-5.5,9-6.1c6-0.9,11.6,3.7,11.9,9.8c0.3,5.4-0.8,10.5-2.1,15.6
		c-3.6,14.1-8.4,27.8-15,40.9c-0.3,0.6-0.7,1.2-1,1.8c-0.7,1.5-0.5,3.3,0.6,4.4c1,1.1,2.5,1.2,4.1,0.3c1.5-0.7,2.7-1.9,3.5-3.4
		c2.2-4.4,4.6-8.7,6.5-13.1c4.7-11.2,8-22.7,10-34.6c1.3-8.2,1.9-16.5,0.9-24.8c-0.4-3.1-1.2-6-1.7-9c-0.8-4.4-0.6-8.8,0.9-13
		c1.8-5.1,4.9-9,10.6-10.1c0.7,0,1.5,0,2.3,0c0.1,0.1,0.3,0.1,0.5,0.2c3.8,0.7,6.9,2.4,8.7,5.9c1.5,2.8,2.9,5.7,3.9,8.7
		c3.4,10.2,4.6,20.8,5.2,31.5c0.7,13.6-0.1,27.1-2.4,40.6c-3.2,18.2-10.4,34.4-22.1,48.7c-12.1,14.7-26.4,26.9-42.4,37.1
		c-1.3,0.8-2.4,1.9-2.9,3.3c-0.8,2.5-1.8,5-2.2,7.6c-0.9,5.6-1.5,11.2-2.1,16.8c-0.3,3.1-1.4,5.5-4.9,6.2
		C2499.1-1790.5,2487.8-1790.5,2476.5-1790.5z"/>
</g>
<linearGradient id="SVGID_25_" gradientUnits="userSpaceOnUse" x1="2888.0623" y1="2457.7769" x2="2888.0623" y2="2612.0879" gradientTransform="matrix(1 0 0 -1 0 208)">
	<stop  offset="0" style="stop-color:#FF9656"/>
	<stop  offset="1" style="stop-color:#FFD270"/>
</linearGradient>
<path class="st24" d="M2891.2-2404.1c1.4,0.1,2.8,0.3,4.2,0.4c9.4,1.1,18.2,4,26.2,9c15,9.3,24.6,22.6,28.8,39.8
	c1.4,5.8,2,11.7,1.5,17.6c0,0.8,0.1,1.7,0.1,2.5c-0.1,6.6-1.6,12.8-4,18.9c-3.2,8.2-7.7,15.6-12.9,22.7
	c-6.4,8.8-13.8,16.7-21.7,24.2c-6.5,6.2-13.2,12-20.4,17.4c-3.2,2.4-7.1,2.4-10.2,0c-15.9-12.6-30.4-26.6-42.4-42.9
	c-5.4-7.4-10.1-15.2-13.2-23.8c-1.8-5.1-3.1-10.4-3.2-15.8c-0.1-6.3-0.1-12.7,1.2-19c3.1-14.3,10.1-26.3,21.3-35.7
	c8.7-7.5,18.9-12.2,30.2-14.3c2.4-0.4,4.8-0.6,7.3-0.9c0.3,0,0.5-0.1,0.8-0.1C2887-2404.1,2889.1-2404.1,2891.2-2404.1z
	 M2888-2315.6c13.7,0,24.7-11,24.7-24.7c0-13.6-11-24.5-24.7-24.5c-13.5,0-24.6,11.1-24.6,24.5
	C2863.5-2326.6,2874.4-2315.6,2888-2315.6z"/>
<linearGradient id="SVGID_26_" gradientUnits="userSpaceOnUse" x1="2811.2461" y1="2406.4341" x2="2811.2461" y2="2489.5601" gradientTransform="matrix(1 0 0 -1 0 208)">
	<stop  offset="0" style="stop-color:#498CFF"/>
	<stop  offset="1" style="stop-color:#37F8FF"/>
</linearGradient>
<path class="st25" d="M2785.6-2198.7c0.4-1,0.7-1.9,1.1-2.9c8.1-24.4,16.2-48.8,24.3-73.2c0.1-0.4,0.4-0.8,0.8-1
	c2.8-1.9,5.6-3.8,8.4-5.7c0.2,0.2,0.4,0.4,0.6,0.6c5.2,5.2,10.3,10.4,15.5,15.5c0.4,0.4,0.6,0.8,0.6,1.3c0,13.1,0,26.1,0,39.2
	c0,0.6-0.2,0.9-0.7,1.2c-16.5,8.3-33.1,16.6-49.6,24.9c-0.3,0.2-0.5,0.3-0.8,0.5C2785.7-2198.5,2785.7-2198.6,2785.6-2198.7z"/>
<linearGradient id="SVGID_27_" gradientUnits="userSpaceOnUse" x1="2964.8755" y1="2406.4331" x2="2964.8755" y2="2489.5891" gradientTransform="matrix(1 0 0 -1 0 208)">
	<stop  offset="0" style="stop-color:#498CFF"/>
	<stop  offset="1" style="stop-color:#37F8FF"/>
</linearGradient>
<path class="st26" d="M2990.3-2198.4c-0.2-0.1-0.5-0.3-0.7-0.4c-16.5-8.3-33-16.6-49.5-24.8c-0.7-0.3-0.9-0.7-0.9-1.5
	c0-13,0-26,0-38.9c0-0.5,0.2-0.9,0.6-1.3c5.2-5.2,10.3-10.4,15.5-15.5c0.2-0.2,0.3-0.4,0.5-0.6c0.3,0.2,0.5,0.3,0.7,0.5
	c2.6,1.7,5.1,3.4,7.7,5.2c0.4,0.3,0.7,0.7,0.8,1.1c8.4,25.1,16.8,50.3,25.1,75.4c0.1,0.2,0.2,0.4,0.3,0.7
	C2990.4-2198.6,2990.4-2198.5,2990.3-2198.4z"/>
<linearGradient id="SVGID_28_" gradientUnits="userSpaceOnUse" x1="2888.0601" y1="2406.4329" x2="2888.0601" y2="2459.989" gradientTransform="matrix(1 0 0 -1 0 208)">
	<stop  offset="0" style="stop-color:#498CFF"/>
	<stop  offset="1" style="stop-color:#37F8FF"/>
</linearGradient>
<path class="st27" d="M2887.8-2198.4c-0.2-0.2-0.5-0.3-0.8-0.5c-12.2-6.1-24.5-12.3-36.7-18.4c-0.4-0.2-0.7-0.3-0.7-0.9
	c0-11,0-22.1,0-33.2c0-0.1,0-0.2,0-0.5c0.3,0.3,0.5,0.5,0.7,0.7c6.5,6.5,13,13.1,19.6,19.7c4.2,4.1,9.1,6.7,15,7.3
	c8.2,0.9,15.3-1.5,21.2-7.3c6.6-6.5,13.1-13.1,19.6-19.7c0.2-0.2,0.3-0.4,0.5-0.7c0.1,0.1,0.1,0.1,0.2,0.1c0,0.2,0,0.4,0,0.7
	c0,10.9,0,21.8,0,32.8c0,0.6-0.2,0.8-0.7,1.1c-12.2,6.1-24.5,12.3-36.7,18.4c-0.3,0.2-0.5,0.3-0.7,0.5
	C2888.1-2198.4,2888-2198.4,2887.8-2198.4z"/>
<linearGradient id="SVGID_29_" gradientUnits="userSpaceOnUse" x1="3278.5974" y1="2899.2004" x2="3278.5974" y2="2987.4609" gradientTransform="matrix(1 0 0 -1 0 208)">
	<stop  offset="0" style="stop-color:#FF9656"/>
	<stop  offset="1" style="stop-color:#FFD270"/>
</linearGradient>
<path class="st28" d="M3160.5-2718.3c0-10.6,0-21.2,0-31.8c0.3-0.2,0.5-0.4,0.8-0.7c9.3-9.3,18.7-18.6,28-27.9
	c0.5-0.5,0.9-0.7,1.6-0.7c58.4,0,116.8,0,175.3,0c0.7,0,1.1,0.2,1.6,0.6c9.4,9.4,18.8,18.7,28.2,28.1c0.2,0.2,0.5,0.4,0.7,0.6
	c0,10.6,0,21.1,0,31.7c-0.1,0.9-0.2,1.8-0.4,2.6c-2.7,15.6-16.9,26.3-32.5,24.4c-12.7-1.5-22.8-10.6-25.5-23.1
	c-0.3-1.2-0.4-2.4-0.6-3.7c-0.8,7.2-3.6,13.4-8.7,18.4c-5.1,5.1-11.4,8-18.6,8.5c-6.8,0.5-13.1-1.1-18.8-5c-7.7-5.3-11.9-12.7-13-22
	c-0.7,7.1-3.5,13.2-8.5,18.2c-5,5.1-11.1,8-18.2,8.6c-8.1,0.7-15.5-1.4-21.8-6.7c-6.3-5.2-9.7-12-10.6-20.2c-0.2,1-0.3,2-0.5,2.9
	c-2.7,15.4-17.7,26.3-33.2,23.8c-12.5-2-20.7-9.4-24.3-21.5C3161-2714.8,3160.9-2716.6,3160.5-2718.3z"/>
<path class="st29" d="M3396.7-2750.2c-0.2-0.2-0.5-0.4-0.7-0.6c-9.4-9.3-18.8-18.7-28.2-28.1c-0.5-0.5-0.9-0.6-1.6-0.6
	c-58.4,0-116.8,0-175.3,0c-0.7,0-1.1,0.2-1.6,0.7c-9.4,9.3-18.7,18.6-28,27.9c-0.3,0.2-0.5,0.4-0.8,0.7c0-19.6,0-39.2,0-58.9
	c78.7,0,157.4,0,236.2,0C3396.7-2789.4,3396.7-2769.8,3396.7-2750.2z M3190.1-2786.9c59,0,118,0,177,0c0-7.3,0-14.6,0-22
	c-59,0-118,0-177,0C3190.1-2801.5,3190.1-2794.2,3190.1-2786.9z"/>
<linearGradient id="SVGID_30_" gradientUnits="userSpaceOnUse" x1="3278.5779" y1="2811.0649" x2="3278.5779" y2="2881.2517" gradientTransform="matrix(1 0 0 -1 0 208)">
	<stop  offset="0" style="stop-color:#FF9656"/>
	<stop  offset="1" style="stop-color:#FFD270"/>
</linearGradient>
<path class="st30" d="M3175.3-2603.1c0-23.4,0-46.7,0-70.1c4.6,2.6,9.5,4,14.7,4c5.2,0,10.1-1.4,14.7-4.1c0,16.1,0,32.1,0,48.1
	c49.2,0,98.4,0,147.6,0c0-16,0-32,0-48.1c4.7,2.6,9.6,4.1,14.8,4.1c5.2,0,10.1-1.4,14.7-4c0,23.4,0,46.8,0,70.1
	C3313-2603.1,3244.2-2603.1,3175.3-2603.1z"/>
<linearGradient id="SVGID_31_" gradientUnits="userSpaceOnUse" x1="3278.5869" y1="2994.8689" x2="3278.5869" y2="3016.8298" gradientTransform="matrix(1 0 0 -1 0 208)">
	<stop  offset="0" style="stop-color:#498CFF"/>
	<stop  offset="1" style="stop-color:#37F8FF"/>
</linearGradient>
<path class="st31" d="M3190.1-2786.9c0-7.3,0-14.6,0-22c59,0,118,0,177,0c0,7.3,0,14.6,0,22
	C3308.1-2786.9,3249.1-2786.9,3190.1-2786.9z"/>
<linearGradient id="SVGID_32_" gradientUnits="userSpaceOnUse" x1="3720.188" y1="3202.845" x2="3720.188" y2="3408.7051" gradientTransform="matrix(1 0 0 -1 0 208)">
	<stop  offset="0" style="stop-color:#498CFF"/>
	<stop  offset="1" style="stop-color:#37F8FF"/>
</linearGradient>
<path class="st32" d="M3823.1-3097.8c0,56.9-46.1,102.9-102.9,102.9c-56.8,0-102.9-46.1-102.9-102.9c0-56.9,46.1-102.9,102.9-102.9
	C3777-3200.7,3823.1-3154.6,3823.1-3097.8z"/>
<g>
	<g>
		
			<linearGradient id="SVGID_33_" gradientUnits="userSpaceOnUse" x1="3766.4663" y1="3205.8469" x2="3766.4663" y2="3387.9419" gradientTransform="matrix(1 0 0 -1 0 208)">
			<stop  offset="0" style="stop-color:#FF9656"/>
			<stop  offset="1" style="stop-color:#FFD270"/>
		</linearGradient>
		<path class="st33" d="M3805.7-3155.1l-3.1,1l-16.4,1.4l-4.6,7.4l-3.4-1.1l-13-11.8l-1.9-6.1l-2.5-6.5l-8.2-7.4l-9.7-1.9l-0.2,4.4
			l9.5,9.3l4.6,5.5l-5.2,2.7l-4.2-1.3l-6.4-2.7l0.2-5.1l-8.3-3.4l-2.8,12.1l-8.4,1.9l0.9,6.7l11,2.1l1.9-10.8l9.1,1.3l4.2,2.5h6.8
			l4.6,9.2l12.3,12.4l-0.9,4.9l-9.9-1.3l-17.1,8.6l-12.3,14.7l-1.6,6.6h-4.4l-8.2-3.8l-8,3.8l2,8.4l3.5-4l6.1-0.2l-0.4,7.5l5.1,1.5
			l5,5.7l8.3-2.3l9.4,1.5l11,3l5.5,0.6l9.3,10.5l17.9,10.5l-11.6,22.1l-12.2,5.7l-4.7,12.7l-17.7,11.8l-1.9,6.8
			c45.2-10.9,78.7-51.4,78.7-99.9C3823.1-3119,3816.7-3138.7,3805.7-3155.1z"/>
		
			<linearGradient id="SVGID_34_" gradientUnits="userSpaceOnUse" x1="3677.0073" y1="3202.8472" x2="3677.0073" y2="3359.354" gradientTransform="matrix(1 0 0 -1 0 208)">
			<stop  offset="0" style="stop-color:#FF9656"/>
			<stop  offset="1" style="stop-color:#FFD270"/>
		</linearGradient>
		<path class="st34" d="M3732-3044l-7.5-13.9l6.8-14.3l-6.8-2.1l-7.8-7.8l-17.1-3.8l-5.6-11.9v7.1h-2.5l-14.7-20v-16.4l-10.8-17.6
			l-17.2,3.1h-11.6l-5.8-3.8l7.4-5.9l-7.4,1.7c-8.9,15.3-14.1,33-14.1,51.9c0,56.8,46.1,102.9,102.9,102.9c4.4,0,8.7-0.4,12.9-0.9
			l-1.1-12.4c0,0,4.7-18.5,4.7-19.1C3736.8-3028,3732-3044,3732-3044z"/>
		
			<linearGradient id="SVGID_35_" gradientUnits="userSpaceOnUse" x1="3702.4011" y1="3371.2639" x2="3702.4011" y2="3408.7039" gradientTransform="matrix(1 0 0 -1 0 208)">
			<stop  offset="0" style="stop-color:#FF9656"/>
			<stop  offset="1" style="stop-color:#FFD270"/>
		</linearGradient>
		<path class="st35" d="M3655.5-3167.5l18.3-2.6l8.4-4.6l9.5,2.7l15.2-0.8l5.2-8.2l7.5,1.3l18.4-1.7l5.1-5.6l7.1-4.8l10.1,1.5
			l3.7-0.6c-13.3-6.2-28.1-9.9-43.8-9.9c-31.9,0-60.5,14.6-79.4,37.4h0.1L3655.5-3167.5z M3724.6-3190.5l10.5-5.8l6.7,3.9l-9.8,7.4
			l-9.3,0.9l-4.2-2.7L3724.6-3190.5z M3693.4-3189.6l4.6,1.9l6.1-1.9l3.3,5.8l-14,3.7l-6.7-4
			C3686.7-3184.1,3693.3-3188.4,3693.4-3189.6z"/>
	</g>
</g>
<linearGradient id="SVGID_36_" gradientUnits="userSpaceOnUse" x1="4046.0815" y1="3640.4221" x2="4046.0815" y2="3661.072" gradientTransform="matrix(1 0 0 -1 0 208)">
	<stop  offset="0" style="stop-color:#498CFF"/>
	<stop  offset="1" style="stop-color:#37F8FF"/>
</linearGradient>
<rect x="4035.8" y="-3453.1" class="st36" width="20.6" height="20.6"/>
<linearGradient id="SVGID_37_" gradientUnits="userSpaceOnUse" x1="4046.0803" y1="3671.397" x2="4046.0803" y2="3764.322" gradientTransform="matrix(1 0 0 -1 0 208)">
	<stop  offset="0" style="stop-color:#498CFF"/>
	<stop  offset="1" style="stop-color:#37F8FF"/>
</linearGradient>
<path class="st37" d="M4046.1-3556.3c-22.8,0-41.3,18.5-41.3,41.3h20.6c0-11.4,9.3-20.7,20.6-20.7s20.6,9.3,20.6,20.7
	c0,20.6-31,18.1-31,51.6h20.6c0-23.2,31-25.8,31-51.6C4087.4-3537.8,4068.9-3556.3,4046.1-3556.3z"/>
<linearGradient id="SVGID_38_" gradientUnits="userSpaceOnUse" x1="4046.0811" y1="3599.1221" x2="4046.0811" y2="3805.6221" gradientTransform="matrix(1 0 0 -1 0 208)">
	<stop  offset="0" style="stop-color:#FF9656"/>
	<stop  offset="1" style="stop-color:#FFD270"/>
</linearGradient>
<path class="st38" d="M4046.1-3597.6c-57,0-103.2,46.3-103.2,103.2c0,57,46.3,103.2,103.2,103.2c57,0,103.2-46.3,103.2-103.2
	C4149.3-3551.4,4103.1-3597.6,4046.1-3597.6z M4046.1-3411.8c-45.5,0-82.6-37.1-82.6-82.6c0-45.5,37.1-82.6,82.6-82.6
	s82.6,37.1,82.6,82.6C4128.7-3448.8,4091.6-3411.8,4046.1-3411.8z"/>
<linearGradient id="SVGID_39_" gradientUnits="userSpaceOnUse" x1="105.8135" y1="205.204" x2="105.8135" y2="-9.294093e-04">
	<stop  offset="0" style="stop-color:#FF9656"/>
	<stop  offset="1" style="stop-color:#FFD270"/>
</linearGradient>
<path class="st39" d="M173,160l-35.6-17.8c-3.4-1.7-5.5-5.1-5.5-8.8v-12.6c0.9-1,1.8-2.2,2.7-3.5c4.6-6.5,8.3-13.8,11-21.6
	c5.3-2.4,8.7-7.6,8.7-13.5V67.2c0-3.6-1.3-7.1-3.7-9.8V37.5c0.2-2.1,1-14.3-7.8-24.3C135.1,4.4,122.7,0,105.8,0s-29.3,4.4-37,13.2
	c-8.8,10.1-8,22.3-7.8,24.3v19.8c-2.4,2.7-3.7,6.2-3.7,9.8v14.9c0,4.5,2.1,8.8,5.6,11.6c3.4,13.5,10.6,23.7,13.1,27V133
	c0,3.6-2,6.9-5.1,8.7l-33.3,18.2C26.7,165.7,20,177.1,20,189.4v15.8h171.6v-15.1C191.6,177.3,184.5,165.8,173,160z"/>
<linearGradient id="SVGID_40_" gradientUnits="userSpaceOnUse" x1="204.1328" y1="205.204" x2="204.1328" y2="19.1652">
	<stop  offset="0" style="stop-color:#498CFF"/>
	<stop  offset="1" style="stop-color:#37F8FF"/>
</linearGradient>
<path class="st40" d="M240.4,164.3l-36.3-15.7c-0.9-0.4-1.8-1.5-2.6-2.9l24.3,0c0,0,1.4,0.1,3.6,0.1c4,0,9.8-0.5,14.9-2.6
	c3-1.3,5.3-3.9,6.2-7.1c0.9-3.2,0.3-6.7-1.6-9.4c-7-9.9-23.2-35.8-23.7-62c0-0.5-1.5-45.1-45.6-45.4c-4.4,0-8.6,0.6-12.6,1.5
	c3,7.8,2.7,14.8,2.5,17.1v17.7c2.4,3.4,3.7,7.5,3.7,11.7v14.9c0,7.1-3.7,13.7-9.7,17.4c-2.8,7.5-6.5,14.6-11,21
	c-0.6,0.8-1.1,1.5-1.7,2.3v10.7c0,1.6,0.9,3.1,2.4,3.8L189,155c13.4,6.7,21.7,20.1,21.7,35.1v15.1h46.6v-13.8
	C257.3,179.9,250.9,169.5,240.4,164.3z"/>
</svg>
