<?xml version="1.0" encoding="utf-8"?>
<!-- Generator: Adobe Illustrator 21.0.2, SVG Export Plug-In . SVG Version: 6.00 Build 0)  -->
<svg version="1.1" id="Layer_1" xmlns="http://www.w3.org/2000/svg" xmlns:xlink="http://www.w3.org/1999/xlink" x="0px" y="0px"
	 viewBox="0 0 364.1 206.9" style="enable-background:new 0 0 364.1 206.9;" xml:space="preserve">
<style type="text/css">
	.st0{fill:url(#SVGID_1_);}
	.st1{fill:url(#SVGID_2_);}
	.st2{fill:url(#SVGID_3_);}
	.st3{fill:url(#SVGID_4_);}
	.st4{fill:url(#SVGID_5_);}
	.st5{fill:url(#SVGID_6_);}
	.st6{fill:url(#SVGID_7_);}
	.st7{fill:url(#SVGID_8_);}
	.st8{fill:url(#SVGID_9_);}
	.st9{fill:url(#SVGID_10_);}
	.st10{fill:url(#SVGID_11_);}
	.st11{fill:url(#SVGID_12_);}
	.st12{fill:url(#SVGID_13_);}
	.st13{fill:url(#SVGID_14_);}
	.st14{fill:url(#SVGID_15_);}
	.st15{fill:url(#SVGID_16_);}
	.st16{fill:url(#SVGID_17_);}
	.st17{fill:url(#SVGID_18_);}
	.st18{fill:url(#SVGID_19_);}
	.st19{fill:url(#SVGID_20_);}
	.st20{fill:url(#SVGID_21_);}
	.st21{fill:url(#SVGID_22_);}
	.st22{fill:url(#SVGID_23_);}
	.st23{fill:url(#SVGID_24_);}
	.st24{fill:url(#SVGID_25_);}
	.st25{fill:url(#SVGID_26_);}
	.st26{fill:url(#SVGID_27_);}
	.st27{fill:url(#SVGID_28_);}
	.st28{fill:#FFFFFF;}
	.st29{fill:url(#SVGID_29_);}
	.st30{fill:url(#SVGID_30_);}
	.st31{fill:url(#SVGID_31_);}
	.st32{fill:url(#SVGID_32_);}
	.st33{fill:url(#SVGID_33_);}
	.st34{fill:url(#SVGID_34_);}
	.st35{fill:url(#SVGID_35_);}
	.st36{fill:url(#SVGID_36_);}
	.st37{fill:url(#SVGID_37_);}
	.st38{fill:url(#SVGID_38_);}
	.st39{fill:url(#SVGID_39_);}
	.st40{fill:url(#SVGID_40_);}
</style>
<g>
	<g>
		
			<linearGradient id="SVGID_1_" gradientUnits="userSpaceOnUse" x1="-1886.5876" y1="-1500.954" x2="-1886.5876" y2="-1294.609" gradientTransform="matrix(1 0 0 -1 0 208)">
			<stop  offset="0" style="stop-color:#FF9656"/>
			<stop  offset="1" style="stop-color:#FFD270"/>
		</linearGradient>
		<path class="st0" d="M-1806.3,1525.5h-10.3v22.9h-36.7v-22.9h-66.5v22.9h-36.7v-22.9h-10.3c-12.6,0-22.9,10.3-22.9,22.9V1686
			c0,12.6,10.3,22.9,22.9,22.9h160.5c12.6,0,22.9-10.3,22.9-22.9v-137.6C-1783.4,1535.9-1793.7,1525.5-1806.3,1525.5z M-1806.3,1686
			h-160.5v-108.5h160.5V1686z M-1930.1,1502.6h-16.1v39h16.1V1502.6z M-1827,1502.6h-16v39h16V1502.6z"/>
	</g>
</g>
<g>
	
		<linearGradient id="SVGID_2_" gradientUnits="userSpaceOnUse" x1="-1886.0896" y1="-1454.7756" x2="-1886.0896" y2="-1390.722" gradientTransform="matrix(1 0 0 -1 0 208)">
		<stop  offset="0" style="stop-color:#498CFF"/>
		<stop  offset="1" style="stop-color:#37F8FF"/>
	</linearGradient>
	<path class="st1" d="M-1884.5,1599.8l8.5,20.2l21.9,1.9c1.5,0.1,2.1,2,1,3l-16.6,14.4l5,21.4c0.3,1.5-1.3,2.7-2.6,1.9l-18.8-11.3
		l-18.8,11.3c-1.3,0.8-2.9-0.4-2.6-1.9l5-21.4l-16.6-14.4c-1.2-1-0.5-2.9,1-3l21.9-1.9l8.5-20.2
		C-1887.1,1598.4-1885.1,1598.4-1884.5,1599.8L-1884.5,1599.8z"/>
</g>
<g>
	
		<linearGradient id="SVGID_3_" gradientUnits="userSpaceOnUse" x1="-1409.9436" y1="-1107.5106" x2="-1409.9436" y2="-901.4631" gradientTransform="matrix(1 0 0 -1 0 208)">
		<stop  offset="0" style="stop-color:#FF9656"/>
		<stop  offset="1" style="stop-color:#FFD270"/>
	</linearGradient>
	<path class="st2" d="M-1342.4,1141.7h-35c-5.1-4-10.9-7.1-17.3-9l13.2-13.2c2.3-2.3,2.3-6,0-8.3s-6-2.3-8.3,0l-18.4,18.4
		c-0.3,0.3-0.6,0.6-0.7,1c-0.3,0-0.6,0-1,0c-0.3,0-0.6,0-0.9,0c-0.2-0.4-0.5-0.7-0.8-1l-18.4-18.4c-2.3-2.3-6-2.3-8.3,0
		s-2.3,6,0,8.3l13.2,13.2c-6.3,1.9-12.2,5-17.3,9h-35c-22.7,0-41.1,18.4-41.1,41.1v80.6c0,22.6,18.5,41.1,41.1,41.1h0.5v4.1
		c0,3.8,3.1,6.9,6.9,6.9h4.2c3.8,0,6.9-3.1,6.9-6.9v-4.1h97.8v2.4c0,3.8,3.1,8.6,6.9,8.6h4.2c3.8,0,6.9-4.8,6.9-8.6v-2.4h0.5
		c22.6,0,41.1-18.5,41.1-41.1v-80.6C-1301.3,1160.2-1319.8,1141.7-1342.4,1141.7z M-1467.2,1281.4c-14.4,0-26.2-11.7-26.2-26.2
		v-63.7c0-14.4,11.7-26.2,26.2-26.2h88.7c14.4,0,26.2,11.7,26.2,26.2v63.7c0,14.4-11.7,26.2-26.2,26.2H-1467.2L-1467.2,1281.4z
		 M-1327.3,1249.4c-3.6,0-6.6-2.9-6.6-6.6s2.9-6.6,6.6-6.6c3.6,0,6.6,2.9,6.6,6.6C-1320.8,1246.5-1323.7,1249.4-1327.3,1249.4z
		 M-1327.3,1229.8c-3.6,0-6.6-2.9-6.6-6.6c0-3.6,2.9-6.6,6.6-6.6c3.6,0,6.6,2.9,6.6,6.6C-1320.8,1226.8-1323.7,1229.8-1327.3,1229.8
		z M-1327.3,1210.1c-3.6,0-6.6-2.9-6.6-6.6c0-3.6,2.9-6.6,6.6-6.6c3.6,0,6.6,2.9,6.6,6.6
		C-1320.8,1207.2-1323.7,1210.1-1327.3,1210.1z"/>
</g>
<linearGradient id="SVGID_4_" gradientUnits="userSpaceOnUse" x1="-1421.965" y1="-1057.3209" x2="-1421.965" y2="-985.051" gradientTransform="matrix(1 0 0 -1 0 208)">
	<stop  offset="0" style="stop-color:#498CFF"/>
	<stop  offset="1" style="stop-color:#37F8FF"/>
</linearGradient>
<path class="st3" d="M-1387.9,1232.7l-31.5,31.5c-0.7,0.7-1.6,1-2.5,1c-0.9,0-1.8-0.4-2.5-1l-31.6-31.6c-4.4-4.4-6.8-10.2-6.8-16.4
	c0-6.2,2.4-12,6.8-16.4c4.4-4.4,10.2-6.8,16.4-6.8c6.2,0,12,2.4,16.4,6.8l1.3,1.3l1.3-1.3c4.4-4.4,10.2-6.8,16.4-6.8
	c6.2,0,12,2.4,16.4,6.8c4.4,4.4,6.8,10.2,6.8,16.4C-1381.1,1222.5-1383.5,1228.4-1387.9,1232.7z"/>
<linearGradient id="SVGID_5_" gradientUnits="userSpaceOnUse" x1="-970.314" y1="-736.421" x2="-970.314" y2="-539.953" gradientTransform="matrix(1 0 0 -1 0 208)">
	<stop  offset="0" style="stop-color:#FF9656"/>
	<stop  offset="1" style="stop-color:#FFD270"/>
</linearGradient>
<path class="st4" d="M-1008.7,748C-1008.7,748-1008.7,748-1008.7,748c-2.6,0-5,1-6.8,2.8c-1.8,1.8-2.8,4.3-2.8,6.9v145.1
	c0,5.3,4.3,9.7,9.7,9.7c22.5,0.1,60.3,4.7,86.3,32V792.5c0-1.8-0.5-3.5-1.3-4.9C-945,753.2-986.1,748-1008.7,748z"/>
<linearGradient id="SVGID_6_" gradientUnits="userSpaceOnUse" x1="-859.2965" y1="-736.42" x2="-859.2965" y2="-539.952" gradientTransform="matrix(1 0 0 -1 0 208)">
	<stop  offset="0" style="stop-color:#FF9656"/>
	<stop  offset="1" style="stop-color:#FFD270"/>
</linearGradient>
<path class="st5" d="M-811.3,902.8V757.6c0-2.6-1-5-2.9-6.9c-1.8-1.8-4.2-2.8-6.8-2.8c0,0,0,0,0,0c-22.6,0.1-63.6,5.3-85,39.7
	c-0.9,1.4-1.3,3.1-1.3,4.9v151.9c26-27.2,63.8-31.9,86.3-32C-815.6,912.4-811.3,908.1-811.3,902.8z"/>
<linearGradient id="SVGID_7_" gradientUnits="userSpaceOnUse" x1="-837.597" y1="-745.868" x2="-837.597" y2="-573.418" gradientTransform="matrix(1 0 0 -1 0 208)">
	<stop  offset="0" style="stop-color:#498CFF"/>
	<stop  offset="1" style="stop-color:#37F8FF"/>
</linearGradient>
<path class="st6" d="M-790.3,781.4h-7v120.8c0,13.5-11,24.6-24.6,24.6c-19,0.1-50.4,3.8-72.6,24.8c38.4-9.4,78.9-3.3,102,2
	c2.9,0.7,5.9,0,8.2-1.9c2.3-1.8,3.6-4.6,3.6-7.5V791.1C-780.7,785.7-785,781.4-790.3,781.4z"/>
<linearGradient id="SVGID_8_" gradientUnits="userSpaceOnUse" x1="-993.116" y1="-745.8654" x2="-993.116" y2="-573.418" gradientTransform="matrix(1 0 0 -1 0 208)">
	<stop  offset="0" style="stop-color:#498CFF"/>
	<stop  offset="1" style="stop-color:#37F8FF"/>
</linearGradient>
<path class="st7" d="M-1033.4,902.3V781.4h-7c-5.3,0-9.6,4.3-9.6,9.6v153.2c0,2.9,1.3,5.7,3.6,7.5c2.3,1.8,5.3,2.5,8.2,1.9
	c23.1-5.3,63.6-11.4,102-2c-22.2-21-53.6-24.8-72.6-24.8C-1022.4,926.8-1033.4,915.8-1033.4,902.3z"/>
<linearGradient id="SVGID_9_" gradientUnits="userSpaceOnUse" x1="-432.8272" y1="-369.714" x2="-432.8272" y2="-162.879" gradientTransform="matrix(1 0 0 -1 0 208)">
	<stop  offset="0" style="stop-color:#FF9656"/>
	<stop  offset="1" style="stop-color:#FFD270"/>
</linearGradient>
<path class="st8" d="M-539.8,577.7c0-3.5,0-7,0-10.5c0-0.3,0.2-0.8,0.4-1c2-2,4.3-3.6,6.8-5c9-5.1,17.9-10.2,27.4-14.4
	c9.1-4,18.2-7.8,27.3-11.7c0.7-0.3,1.4-0.6,2.1-0.9c1.5-0.6,2.5-1.6,3-3.1c1.2-3.7,2.5-7.5,3.7-11.2c0.2-0.7,0.5-1.4,0.8-2.1
	c0.6-1.2,1.6-2,2.8-2.4c1.5-0.4,2.3-1.5,2.5-2.9c0.6-4.9,1-9.9,1.5-14.8c0.1-1.3-0.3-2.5-1.1-3.4c-4.5-5.1-6.8-11.1-7.9-17.8
	c-0.2-1.4-0.7-2.9-1.3-4.2c-1.9-4.5-2.9-9.4-4.2-14.1c-0.9-3.4-1.1-6.8-1.4-10.2c-0.2-2,0.5-3,2.3-3.8c0.5-0.2,1-0.6,1.1-1
	c0.3-0.9,0.6-1.9,0.6-2.8c0.1-9.5,0.1-19.1,0.2-28.6c0-3.2,0.1-6.4,0.9-9.5c1.2-4.3,3.5-7.8,6.5-11c5.7-6.1,12.7-10.2,20.4-13.1
	c7.4-2.8,15.1-4.6,22.9-5.9c2.5-0.4,5.1-0.9,7.6-1.2c1.3-0.2,2.7-0.1,4.1,0c0.4,0,0.7,0.7,1.1,1.1c-0.6,0.5-1.2,0.8-1.7,1.2
	c-1,0.9-2,1.7-2.8,2.7c-1,1.3-0.9,2.5,0.1,3.7c0.4,0.5,1,1,1.5,1.5c4.6,4.1,9.1,8.2,13.7,12.1c5.1,4.4,7.3,9.9,7.3,16.5
	c0,10.4,0,20.8,0,31.3c0,0.8,0,1.6,0.2,2.3c0.2,1,0.8,1.7,1.8,2.2c1.1,0.6,1.6,1.3,1.5,2.6c-0.3,3.3-0.6,6.6-0.9,9.9
	c-0.2,1.7-0.3,3.4-0.5,5.1c0,0.4-0.1,0.8-0.3,1.1c-2.4,3.7-3.7,7.7-4.9,11.9c-1.1,3.7-2,7.5-3.6,11c-0.2,0.3-0.3,0.7-0.6,0.9
	c-2.4,3.1-3.8,6.6-4,10.4c-0.2,4.2-0.1,8.5-0.1,12.8c0,0.9,0.1,1.8,0.4,2.7c0.1,0.4,0.5,0.9,0.9,1.1c1.7,0.8,2.6,2.2,3.2,3.9
	c0.8,2.6,1.6,5.3,2.5,7.9c0.4,1.2,0.9,2.3,1.3,3.5c0.6,2,2.1,3.2,3.9,4c2.2,0.9,4.4,1.7,6.5,2.6c16.4,6.6,32.6,13.6,48.3,21.9
	c3.5,1.9,6.8,4.1,9.5,7c0.1,0.1,0.2,0.1,0.3,0.2c0,3.9,0,7.7,0,11.6C-397.2,577.7-468.5,577.7-539.8,577.7z"/>
<linearGradient id="SVGID_10_" gradientUnits="userSpaceOnUse" x1="694.0197" y1="397.059" x2="694.0197" y2="602.2879" gradientTransform="matrix(1 0 0 -1 0 208)">
	<stop  offset="0" style="stop-color:#FF9656"/>
	<stop  offset="1" style="stop-color:#FFD270"/>
</linearGradient>
<path class="st9" d="M791.9-189.1c-65.4,0-130.6,0-195.9,0c0-3.6,0-7.1,0-10.6c0-0.3,0.3-0.7,0.6-1c2.5-1.9,4.9-4,7.5-5.7
	c14.6-9.5,30.3-16.7,46.1-23.8c1.4-0.6,2.7-1.3,4.1-1.9c1.5-0.7,2.6-1.8,3-3.4c1.2-3.7,2.3-7.5,3.4-11.2c0.6-2.1,1.5-3.7,3.8-4.4
	c1.2-0.4,1.6-1.5,1.8-2.7c0.5-4.9,1-9.9,1.3-14.8c0.1-1.1-0.4-2.5-1.1-3.4c-3.9-5-5.9-10.6-6.9-16.8c-0.3-1.8-0.9-3.6-1.5-5.4
	c-2.6-7.7-4.4-15.5-4.9-23.6c-0.1-1.4,0.1-2.7,1.5-3.3c1.9-0.8,2.2-2.4,2.2-4.1c0.1-3,0-5.9,0.1-8.9c0.1-7.5,0.2-15,0.2-22.5
	c0-7.2,2.8-13.2,7.6-18.4c5.9-6.4,13.3-10.6,21.4-13.5c7.9-2.8,16.1-4.4,24.4-5.7c1.1-0.2,2.3-0.1,3.5,0c0.4,0.1,0.8,0.6,1.3,1
	c-1.2,1-2.2,1.7-3,2.6c-2.3,2.3-2.3,4.1,0,6.3c4.3,4.1,8.5,8.3,12.8,12.3c4.8,4.4,6.7,9.8,6.8,16.1c0,10.5,0,20.9,0,31.4
	c0,2,0.2,3.8,2.3,4.9c0.6,0.3,0.8,1.6,0.8,2.4c-0.2,4-0.7,7.9-1,11.8c-0.1,2.3-1,4.3-1.8,6.5c-1.7,4.4-2.9,9-4.3,13.6
	c-1,3.2-1.9,6.3-3.7,9.2c-2,3-2.7,6.6-2.8,10.2c-0.1,4,0,8.1,0,12.1c0,1.3,0.5,2.4,1.7,3.1c1.5,0.8,2.1,2.4,2.5,3.9
	c1,3.4,2.1,6.8,3,10.2c0.7,2.6,2.4,4,4.7,5c15.6,6.6,31,13.7,45.9,21.9c3.5,2,7.1,3.9,10.1,6.7c1.7,1.5,2.7,3,2.4,5.4
	C791.7-194.7,791.9-191.9,791.9-189.1z"/>
<linearGradient id="SVGID_11_" gradientUnits="userSpaceOnUse" x1="813.67" y1="397.083" x2="813.67" y2="563.4207" gradientTransform="matrix(1 0 0 -1 0 208)">
	<stop  offset="0" style="stop-color:#498CFF"/>
	<stop  offset="1" style="stop-color:#37F8FF"/>
</linearGradient>
<path class="st10" d="M872.1-189.1c-23.3,0-46.5,0-69.8,0c0-0.5,0-0.9,0-1.3c0-4.6,0-9.2,0-13.8c0-0.5-0.2-1.2-0.6-1.6
	c-4.5-5.9-10.2-10.3-16.8-13.7c-7.3-3.7-14.6-7.5-21.9-11.3c-0.4-0.2-0.8-0.4-1.3-0.6c1.7-1.9,3.4-3.6,6-4c2.5-0.4,4.2-2,4.8-4.5
	c1.4-5.5,2.2-11.1,1.3-16.8c-0.4-2.5-1.6-4.3-4-5.3c-4-1.7-7.9-3.6-11.9-5.5c-2.8-1.3-3.2-2.4-2.4-5.4c1.8-7,3.8-14,5.4-21
	c1.5-6.8,2.1-13.7,2.3-20.6c0.2-6,0.4-11.9,1.7-17.8c0.9-4,2.3-7.8,4.5-11.3c2-3.2,4.7-5.5,8.3-6.7c1.7-0.5,3.3-1.3,4.8-2.3
	c5.4-3.4,11.1-3.5,16.9-1.5c9.3,3.2,16.2,8.9,19.2,18.6c1.6,5.1,2.3,10.3,2.4,15.6c0.3,15.7,2.8,31,7.7,46c1.4,4.2,0.9,4.9-3,6.8
	c-3.7,1.7-7.4,3.5-11.1,5.1c-2.3,1-3.4,2.6-3.9,4.9c-1,5.9-0.1,11.7,1.4,17.4c0.6,2.3,2.3,3.7,4.6,4.1c2,0.4,3.6,1.3,4.9,2.8
	c2.4,2.9,5.5,4.8,8.9,6.4c6.6,3,13.1,6.1,19.7,9c7.7,3.4,14.1,8.2,18,15.8C870.3-197.9,871.9-192.5,872.1-189.1z"/>
<g>
	
		<linearGradient id="SVGID_12_" gradientUnits="userSpaceOnUse" x1="1262.8315" y1="789.209" x2="1262.8315" y2="995.909" gradientTransform="matrix(1 0 0 -1 0 208)">
		<stop  offset="0" style="stop-color:#FF9656"/>
		<stop  offset="1" style="stop-color:#FFD270"/>
	</linearGradient>
	<path class="st11" d="M1366.3-771.2c-11.5-11.3-27.2-16.8-47.2-16.8c-5.6,0-11.2,1-17.1,2.9c-5.9,1.9-11.2,4.5-16.2,7.8
		c-4.9,3.4-9.2,6.4-12.8,9.2c-3.6,2.9-7,5.9-10.2,9.2c-3.3-3.2-6.6-6.3-10.2-9.2c-3.6-2.8-7.9-5.9-12.8-9.2
		c-5.1-3.3-10.4-5.9-16.2-7.8c-5.9-1.9-11.5-2.9-17.1-2.9c-20.1,0-35.8,5.5-47.2,16.8c-11.5,11-17.1,26.5-17.1,46.3
		c0,6,1,12.1,3.2,18.5c2,6.4,4.5,11.8,7.2,16.3c2.7,4.5,5.7,8.9,9.1,13.2c3.5,4.2,6,7.2,7.5,8.7c1.6,1.7,2.7,2.8,3.6,3.5l84,81.1
		c1.6,1.6,3.6,2.4,6,2.4c2.4,0,4.3-0.8,5.9-2.4l83.8-80.8c20.6-20.6,30.8-40.8,30.8-60.5C1383.4-744.7,1377.8-760.2,1366.3-771.2z"
		/>
</g>
<g>
	
		<linearGradient id="SVGID_13_" gradientUnits="userSpaceOnUse" x1="1352.4601" y1="812.383" x2="1352.4601" y2="918.035" gradientTransform="matrix(1 0 0 -1 0 208)">
		<stop  offset="0" style="stop-color:#498CFF"/>
		<stop  offset="1" style="stop-color:#37F8FF"/>
	</linearGradient>
	<path class="st12" d="M1405.3-701.5c-5.9-5.8-13.9-8.6-24.1-8.6c-2.9,0-5.7,0.5-8.7,1.5c-3,1-5.7,2.3-8.3,4
		c-2.5,1.7-4.7,3.3-6.5,4.7c-1.8,1.5-3.6,3-5.2,4.7c-1.7-1.7-3.4-3.2-5.2-4.7c-1.8-1.4-4-3-6.5-4.7c-2.6-1.7-5.3-3-8.3-4
		c-3-1-5.9-1.5-8.7-1.5c-10.3,0-18.3,2.8-24.1,8.6c-5.9,5.6-8.7,13.5-8.7,23.7c0,3,0.5,6.2,1.6,9.5c1,3.3,2.3,6,3.7,8.3
		c1.4,2.3,2.9,4.5,4.7,6.7c1.8,2.1,3,3.7,3.8,4.5c0.8,0.9,1.4,1.4,1.8,1.8l42.9,41.5c0.8,0.8,1.8,1.2,3,1.2c1.2,0,2.2-0.4,3-1.2
		l42.8-41.3c10.5-10.5,15.7-20.8,15.7-30.9C1414.1-687.9,1411.2-695.9,1405.3-701.5z"/>
</g>
<linearGradient id="SVGID_14_" gradientUnits="userSpaceOnUse" x1="1666.4556" y1="1184.683" x2="1666.4556" y2="1391.469" gradientTransform="matrix(1 0 0 -1 0 208)">
	<stop  offset="0" style="stop-color:#498CFF"/>
	<stop  offset="1" style="stop-color:#37F8FF"/>
</linearGradient>
<path class="st13" d="M1666.5-1183.5c-14.3,77.5-25.8,89.2-103.4,103.4c77.5,14.3,89.1,25.8,103.4,103.4
	c14.3-77.5,25.8-89.1,103.4-103.4C1692.3-1094.3,1680.7-1105.9,1666.5-1183.5z"/>
<linearGradient id="SVGID_15_" gradientUnits="userSpaceOnUse" x1="1786.1515" y1="1299.439" x2="1786.1515" y2="1358.043" gradientTransform="matrix(1 0 0 -1 0 208)">
	<stop  offset="0" style="stop-color:#FF9656"/>
	<stop  offset="1" style="stop-color:#FFD270"/>
</linearGradient>
<path class="st14" d="M1786.2-1150c-4,22-7.3,25.3-29.3,29.3c22,4,25.3,7.3,29.3,29.3c4-22,7.3-25.2,29.3-29.3
	C1793.5-1124.8,1790.2-1128.1,1786.2-1150z"/>
<linearGradient id="SVGID_16_" gradientUnits="userSpaceOnUse" x1="1812.7773" y1="1229.479" x2="1812.7773" y2="1288.078" gradientTransform="matrix(1 0 0 -1 0 208)">
	<stop  offset="0" style="stop-color:#FF9656"/>
	<stop  offset="1" style="stop-color:#FFD270"/>
</linearGradient>
<path class="st15" d="M1812.8-1080.1c-4,22-7.3,25.3-29.3,29.3c22,4,25.3,7.3,29.3,29.3c4-22,7.3-25.2,29.3-29.3
	C1820.1-1054.8,1816.8-1058.1,1812.8-1080.1z"/>
<linearGradient id="SVGID_17_" gradientUnits="userSpaceOnUse" x1="2089.1841" y1="1588.4227" x2="2089.1841" y2="1795.3438" gradientTransform="matrix(1 0 0 -1 0 208)">
	<stop  offset="0" style="stop-color:#FF9656"/>
	<stop  offset="1" style="stop-color:#FFD270"/>
</linearGradient>
<path class="st16" d="M1998.2-1419.5c0.1-1.2,0.3-2.4,0.5-3.6c1-6.3,3.5-12.1,7.2-17.4c5.7-8.2,13.2-14.4,22.1-18.9
	c7-3.6,14.4-5.8,22.1-6.8c9.3-1.1,18.4-0.4,27.2,2.9c4.4,1.7,8.5,3.9,12.1,6.9c0.1,0.1,0.2,0.2,0.5,0.3c0-0.4,0-0.6,0-0.9
	c0-41.3,0-82.5,0-123.8c0-0.9,0.1-1.8,0.4-2.7c0.7-2.2,2.3-3.4,4.5-3.9c0.1,0,0.3-0.1,0.5-0.2c1,0,1.9,0,2.9,0
	c0.4,0.1,0.8,0.1,1.2,0.2c4.7,0.7,9,2.4,13.2,4.5c5,2.5,9,5.9,12.2,10.4c1.7,2.3,3.3,4.6,5,6.9c4.7,6.7,10.8,11.6,18.6,14.4
	c2.9,1.1,5.9,2,8.8,3.1c5.4,2.1,10.4,4.9,14.7,8.8c3.8,3.5,6.6,7.6,7.8,12.7c0.2,1.1,0.4,2.3,0.6,3.5c0,1.1,0,2.1,0,3.2
	c-0.1,1.1-0.3,2.3-0.5,3.4c-0.2,1.1-0.8,1.7-1.8,1.9c-1,0.3-1.8-0.1-2.4-1.1c-4-6.2-10-9.3-17.1-10.4c-4-0.6-7.9-0.4-11.8,0
	c-6.1,0.6-12.2,0.8-18.3,0.6c-6.4-0.2-12.9-0.8-19.1-2.8c-2.2-0.7-4.3-1.7-6.4-2.6c-0.1-0.1-0.2-0.1-0.5-0.2c0,0.3,0,0.6,0,0.9
	c0,32.8,0,65.5,0,98.3c0,9.8-2.9,18.4-8.7,26.1c-6.8,9.2-15.8,15.6-26.3,19.9c-6.8,2.8-13.9,4.4-21.2,4.7c-0.2,0-0.4,0.1-0.6,0.1
	c-1.8,0-3.8,0-5.6,0c-0.2,0-0.4-0.1-0.6-0.1c-2.8-0.4-5.7-0.5-8.4-1.1c-7.9-1.6-15.1-4.9-21.2-10.3c-5.9-5.2-9.7-11.7-11-19.5
	c-0.2-1.2-0.3-2.5-0.5-3.7C1998.2-1416.6,1998.2-1418.1,1998.2-1419.5z"/>
<linearGradient id="SVGID_18_" gradientUnits="userSpaceOnUse" x1="2175.1733" y1="1603.7554" x2="2175.1733" y2="1706.4692" gradientTransform="matrix(1 0 0 -1 0 208)">
	<stop  offset="0" style="stop-color:#498CFF"/>
	<stop  offset="1" style="stop-color:#37F8FF"/>
</linearGradient>
<path class="st17" d="M2130-1415.2c0.1-0.6,0.1-1.2,0.3-1.8c0.5-3.2,1.7-6,3.6-8.6c2.8-4.1,6.5-7.2,11-9.4c3.4-1.8,7.1-2.9,10.9-3.3
	c4.6-0.6,9.1-0.2,13.5,1.4c2.2,0.8,4.2,1.9,6,3.4c0.1,0,0.1,0.1,0.2,0.1c0-0.2,0-0.3,0-0.4c0-20.5,0-41,0-61.5c0-0.4,0-0.9,0.2-1.3
	c0.4-1.1,1.2-1.7,2.3-2c0.1,0,0.1-0.1,0.2-0.1c0.5,0,1,0,1.4,0c0.2,0,0.4,0.1,0.6,0.1c2.3,0.3,4.5,1.2,6.6,2.3
	c2.4,1.2,4.5,2.9,6,5.2c0.8,1.1,1.6,2.3,2.5,3.4c2.4,3.3,5.4,5.8,9.2,7.2c1.5,0.6,2.9,1,4.4,1.6c2.7,1.1,5.2,2.4,7.3,4.4
	c1.9,1.8,3.3,3.8,3.9,6.3c0.1,0.6,0.2,1.2,0.3,1.7c0,0.5,0,1.1,0,1.6c-0.1,0.5-0.2,1.1-0.2,1.7c-0.1,0.5-0.4,0.8-0.9,0.9
	c-0.5,0.1-0.9-0.1-1.2-0.5c-2-3.1-4.9-4.6-8.5-5.2c-1.9-0.3-3.9-0.2-5.8,0c-3,0.3-6.1,0.4-9.1,0.3c-3.2-0.1-6.4-0.4-9.5-1.3
	c-1.1-0.4-2.1-0.9-3.2-1.3c-0.1-0.1-0.1-0.1-0.2-0.1c0,0.2,0,0.3,0,0.5c0,16.2,0,32.5,0,48.8c0,4.8-1.5,9.1-4.3,13
	c-3.4,4.6-7.8,7.8-13.1,9.9c-3.4,1.4-6.9,2.2-10.5,2.4c-0.1,0-0.2,0-0.3,0c-0.9,0-1.9,0-2.8,0c-0.1,0-0.2,0-0.3,0
	c-1.4-0.2-2.8-0.3-4.2-0.6c-3.9-0.8-7.5-2.4-10.5-5.1c-2.9-2.6-4.8-5.8-5.5-9.7c-0.1-0.6-0.2-1.2-0.3-1.8
	C2130-1413.7,2130-1414.4,2130-1415.2z"/>
<linearGradient id="SVGID_19_" gradientUnits="userSpaceOnUse" x1="2489.5444" y1="1995.8656" x2="2489.5444" y2="2202.7356" gradientTransform="matrix(1 0 0 -1 0 208)">
	<stop  offset="0" style="stop-color:#FF9656"/>
	<stop  offset="1" style="stop-color:#FFD270"/>
</linearGradient>
<path class="st18" d="M2593-1940c0,1.2,0,2.5,0,3.7c-0.2,1.3-0.4,2.7-0.7,4c-2.5,10.5-5,21-7.6,31.4c-7.4,30.7-14.9,61.5-22.3,92.2
	c-3.4,14.3-17.3,23.2-31.6,20.1c-5.7-1.2-11.4-2.7-17.2-4.1c-23.7-5.7-47.5-11.5-71.2-17.2c-12.1-3-24.3-5.8-36.3-8.8
	c-14-3.5-22.6-17.3-19.6-31.4c2.2-10.2,4.9-20.4,7.3-30.6c7.5-31.2,15.1-62.4,22.6-93.5c3.5-14.5,17.7-23.3,32.1-19.9
	c15.6,3.7,31.2,7.5,46.8,11.3c25.6,6.2,51.2,12.3,76.7,18.6c10.4,2.6,17,9.2,19.9,19.5C2592.6-1943.1,2592.8-1941.6,2593-1940z
	 M2521.4-1854.9c-8.7,0-15.7,7-15.7,15.7c0,8.6,7,15.6,15.7,15.7c8.7,0,15.8-7,15.8-15.7C2537.1-1847.8,2530-1854.8,2521.4-1854.9z
	 M2457.7-1927.7c8.7,0,15.7-7.1,15.7-15.8c0-8.7-7.1-15.6-15.9-15.6c-8.6,0-15.6,7.1-15.6,15.8
	C2442-1934.7,2449.1-1927.7,2457.7-1927.7z M2541.6-1907.4c8.4,0.1,15.6-6.9,15.7-15.4c0.1-8.7-6.8-15.9-15.4-16
	c-8.8-0.1-16,6.7-16.1,15.5C2525.9-1914.6,2532.8-1907.5,2541.6-1907.4z M2437.4-1875.2c-8.5-0.1-15.6,6.9-15.7,15.5
	c-0.1,8.7,6.9,15.7,15.6,15.8c8.6,0.1,15.7-6.9,15.8-15.6C2453.2-1868.1,2446.1-1875.1,2437.4-1875.2z M2504.6-1888.8
	c0-8.6-7-15.7-15.7-15.7c-8.6,0-15.7,7.1-15.6,15.7c0,8.7,7,15.8,15.7,15.8C2497.6-1873,2504.6-1880,2504.6-1888.8z"/>
<linearGradient id="SVGID_20_" gradientUnits="userSpaceOnUse" x1="2610.1055" y1="2002.549" x2="2610.1055" y2="2129.1621" gradientTransform="matrix(1 0 0 -1 0 208)">
	<stop  offset="0" style="stop-color:#498CFF"/>
	<stop  offset="1" style="stop-color:#37F8FF"/>
</linearGradient>
<path class="st19" d="M2546.8-1879.8c0-0.7,0-1.5,0-2.2c0-0.1,0.1-0.2,0.1-0.4c0.9-6.6,4.4-11.1,10.6-13.4
	c5.8-2.1,11.7-4.1,17.5-6.1c17.7-6.1,35.3-12.3,52.9-18.4c2.4-0.8,4.8-1.1,7.3-0.7c6.3,1,10.6,4.5,12.7,10.5
	c7.2,20.4,14.2,40.8,21.3,61.3c1.2,3.4,2.4,6.8,3.5,10.2c0.3,1,0.4,2,0.6,3c0,0.8,0,1.6,0,2.3c0,0.3-0.1,0.6-0.1,0.9
	c-1.1,6.3-4.5,10.7-10.6,12.8c-20.6,7.2-41.1,14.3-61.7,21.5c-3.2,1.1-6.4,2.2-9.7,3.3c-1,0.3-2,0.4-3.1,0.6c-0.7,0-1.3,0-2.1,0
	c-0.6-0.1-1.1-0.1-1.7-0.2c-6-1.2-10.1-4.7-12.1-10.5c-7.2-20.6-14.3-41.1-21.5-61.7c-1.1-3.3-2.3-6.5-3.3-9.8
	C2547.1-1877.8,2547-1878.8,2546.8-1879.8z M2587-1873.5c0-5.1-4.1-9.2-9.2-9.2c-5.1,0-9.2,4.1-9.2,9.2c0,5.1,4.1,9.3,9.2,9.3
	C2582.9-1864.3,2587-1868.4,2587-1873.5z M2633.2-1842.2c0,5.1,4.1,9.2,9.2,9.2c5.1,0,9.2-4.1,9.2-9.2c0-5.1-4.2-9.3-9.3-9.2
	C2637.3-1851.4,2633.2-1847.3,2633.2-1842.2z M2625.7-1880.9c5.1,0,9.2-4.1,9.2-9.2c0-5.1-4.1-9.2-9.2-9.3c-5.1,0-9.3,4.1-9.3,9.2
	C2616.5-1885.1,2620.6-1880.9,2625.7-1880.9z M2594.5-1834.8c-5.1,0-9.2,4.1-9.2,9.2c0,5.1,4.1,9.2,9.2,9.3c5.1,0,9.2-4.1,9.2-9.2
	C2603.7-1830.7,2599.6-1834.8,2594.5-1834.8z"/>
<g>
	
		<linearGradient id="SVGID_21_" gradientUnits="userSpaceOnUse" x1="3044.9673" y1="2520.012" x2="3044.9673" y2="2599.343" gradientTransform="matrix(1 0 0 -1 0 208)">
		<stop  offset="0" style="stop-color:#498CFF"/>
		<stop  offset="1" style="stop-color:#37F8FF"/>
	</linearGradient>
	<path class="st20" d="M3084.7-2384.9c-4.4-4.2-10.4-6.4-18.1-6.4c-2.1,0-4.3,0.4-6.5,1.1c-2.2,0.7-4.3,1.7-6.2,3
		c-1.9,1.3-3.5,2.5-4.9,3.5c-1.3,1.1-2.7,2.3-3.9,3.5c-1.2-1.3-2.5-2.4-3.9-3.5c-1.4-1.1-3.1-2.3-5-3.5c-1.9-1.3-4-2.2-6.2-3
		c-2.2-0.7-4.4-1.1-6.6-1.1c-7.7,0-13.7,2.2-18.1,6.4c-4.4,4.3-6.6,10.2-6.6,17.8c0,2.3,0.4,4.7,1.2,7.1c0.8,2.4,1.8,4.5,2.8,6.3
		c1,1.8,2.2,3.4,3.5,5c1.3,1.6,2.3,2.8,2.9,3.4c0.6,0.6,1,1.1,1.4,1.3l32.2,31.1c0.6,0.7,1.4,1,2.3,1c0.9,0,1.6-0.3,2.3-1l32.1-31
		c7.9-7.9,11.8-15.6,11.8-23.2C3091.2-2374.8,3089.1-2380.7,3084.7-2384.9z"/>
</g>
<g>
	
		<linearGradient id="SVGID_22_" gradientUnits="userSpaceOnUse" x1="2963.9382" y1="2392.8271" x2="2963.9382" y2="2599.343" gradientTransform="matrix(1 0 0 -1 0 208)">
		<stop  offset="0" style="stop-color:#FF9656"/>
		<stop  offset="1" style="stop-color:#FFD270"/>
	</linearGradient>
	<path class="st21" d="M2925-2391.3c7.6,1.7,10.4,7.4,11.6,14.3c0.7,3.6,0.4,7.3-0.5,10.9c-1.7,6.7-2.1,13.4-1.6,20.3
		c1.3,19.1,6.7,37.2,15,54.4c1,1.9,2.1,3.9,3.3,5.7c0.7,1,1.6,1.8,2.6,2.4c1.6,1,3.2,0.9,4.4-0.1c1.2-1.2,1.4-3,0.6-4.7
		c-1.5-3-3.1-6-4.4-9.2c-5.2-12.1-9.6-24.5-12.4-37.4c-0.7-3.5-1.1-7.1-1.2-10.7c-0.1-8.5,9.2-13.2,16.3-9c2.4,1.4,4.1,3.6,5.6,5.9
		c2.8,4.5,4.5,9.4,6.3,14.4c2.3,6.1,4.5,12.2,7.1,18.2c2.4,5.7,6.2,10.5,10.3,15.1c7.9,9,15.6,18.1,22.2,28.1
		c5.6,8.6,9.8,17.6,11.7,27.8c1,5.6,1.6,11.3,1.7,17c0.2,12.1,0.2,24.2,0.3,36.3c0,4-1.7,6-5.7,6.7c-0.2,0-0.4,0.1-0.6,0.2
		c-11.3,0-22.6,0-34,0c-2.4-0.5-4-1.9-4.5-4.3c-0.2-0.5-0.2-1.1-0.3-1.6c-0.5-4.5-0.9-9-1.5-13.5c-0.4-3.6-1.2-7.2-2.6-10.6
		c-0.7-1.6-1.8-2.9-3.3-3.9c-15.1-9.6-28.7-21-40.3-34.7c-10.9-12.8-18.7-27.1-22.5-43.5c-2.4-10.3-3.8-20.8-4.1-31.3
		c-0.5-13.9,0.4-27.7,3.4-41.3c1.2-5.1,2.7-10.1,5.2-14.8c1.8-3.1,4.2-5.3,7.7-6.3c0.7-0.2,1.4-0.4,2.1-0.6
		C2923.5-2391.3,2924.3-2391.3,2925-2391.3z"/>
	
		<linearGradient id="SVGID_23_" gradientUnits="userSpaceOnUse" x1="3125.9912" y1="2392.8291" x2="3125.9912" y2="2599.3467" gradientTransform="matrix(1 0 0 -1 0 208)">
		<stop  offset="0" style="stop-color:#FF9656"/>
		<stop  offset="1" style="stop-color:#FFD270"/>
	</linearGradient>
	<path class="st22" d="M3072.5-2184.8c-0.6-0.1-1.2-0.3-1.7-0.4c-3-0.8-4.5-2.7-4.6-5.8c0-5.1,0-10.2,0-15.2c0-7.3,0-14.6,0.3-21.8
		c0.3-10.9,1.8-21.5,6.3-31.5c3.5-8,8.2-15.3,13.6-22.1c5.4-6.9,11-13.6,16.7-20.2c5-5.7,8.9-12.1,11.6-19.2
		c2.5-6.4,4.6-12.9,7.2-19.3c1.3-3.3,3-6.5,4.9-9.5c2.1-3.3,5-5.5,9-6.1c6-0.9,11.6,3.7,11.9,9.8c0.3,5.4-0.8,10.5-2.1,15.6
		c-3.6,14.1-8.4,27.8-15,40.9c-0.3,0.6-0.7,1.2-1,1.8c-0.7,1.5-0.5,3.3,0.6,4.4c1,1.1,2.5,1.2,4.1,0.3c1.5-0.7,2.7-1.9,3.5-3.4
		c2.2-4.4,4.6-8.7,6.5-13.1c4.7-11.2,8-22.7,10-34.6c1.3-8.2,1.9-16.5,0.9-24.8c-0.4-3.1-1.2-6-1.7-9c-0.8-4.4-0.6-8.8,0.9-13
		c1.8-5.1,4.9-9,10.6-10.1c0.7,0,1.5,0,2.3,0c0.1,0.1,0.3,0.1,0.5,0.2c3.8,0.7,6.9,2.4,8.7,5.9c1.5,2.8,2.9,5.7,3.9,8.7
		c3.4,10.2,4.6,20.8,5.2,31.5c0.7,13.6-0.1,27.1-2.4,40.6c-3.2,18.2-10.4,34.4-22.1,48.7c-12.1,14.7-26.4,26.9-42.4,37.1
		c-1.3,0.8-2.4,1.9-2.9,3.3c-0.8,2.5-1.8,5-2.2,7.6c-0.9,5.6-1.5,11.2-2.1,16.8c-0.3,3.1-1.4,5.5-4.9,6.2
		C3095.2-2184.8,3083.9-2184.8,3072.5-2184.8z"/>
</g>
<linearGradient id="SVGID_24_" gradientUnits="userSpaceOnUse" x1="3484.1001" y1="2852.064" x2="3484.1001" y2="3006.375" gradientTransform="matrix(1 0 0 -1 0 208)">
	<stop  offset="0" style="stop-color:#FF9656"/>
	<stop  offset="1" style="stop-color:#FFD270"/>
</linearGradient>
<path class="st23" d="M3487.2-2798.4c1.4,0.1,2.8,0.3,4.2,0.4c9.4,1.1,18.2,4,26.2,9c15,9.3,24.6,22.6,28.8,39.8
	c1.4,5.8,2,11.7,1.5,17.6c0,0.8,0.1,1.7,0.1,2.5c-0.1,6.6-1.6,12.8-4,18.9c-3.2,8.2-7.7,15.6-12.9,22.7
	c-6.4,8.8-13.8,16.7-21.7,24.2c-6.5,6.2-13.2,12-20.4,17.4c-3.2,2.4-7.1,2.4-10.2,0c-15.9-12.6-30.4-26.6-42.4-42.9
	c-5.4-7.4-10.1-15.2-13.2-23.8c-1.8-5.1-3.1-10.4-3.2-15.8c-0.1-6.3-0.1-12.7,1.2-19c3.1-14.3,10.1-26.3,21.3-35.7
	c8.7-7.5,18.9-12.2,30.2-14.3c2.4-0.4,4.8-0.6,7.3-0.9c0.3,0,0.5-0.1,0.8-0.1C3483-2798.4,3485.2-2798.4,3487.2-2798.4z
	 M3484-2709.9c13.7,0,24.7-11,24.7-24.7c0-13.6-11-24.5-24.7-24.5c-13.5,0-24.6,11.1-24.6,24.5
	C3459.5-2720.9,3470.5-2709.9,3484-2709.9z"/>
<linearGradient id="SVGID_25_" gradientUnits="userSpaceOnUse" x1="3407.2839" y1="2800.7212" x2="3407.2839" y2="2883.8472" gradientTransform="matrix(1 0 0 -1 0 208)">
	<stop  offset="0" style="stop-color:#498CFF"/>
	<stop  offset="1" style="stop-color:#37F8FF"/>
</linearGradient>
<path class="st24" d="M3381.7-2593c0.4-1,0.7-1.9,1.1-2.9c8.1-24.4,16.2-48.8,24.3-73.2c0.1-0.4,0.4-0.8,0.8-1
	c2.8-1.9,5.6-3.8,8.4-5.7c0.2,0.2,0.4,0.4,0.6,0.6c5.2,5.2,10.3,10.4,15.5,15.5c0.4,0.4,0.6,0.8,0.6,1.3c0,13.1,0,26.1,0,39.2
	c0,0.6-0.2,0.9-0.7,1.2c-16.5,8.3-33.1,16.6-49.6,24.9c-0.3,0.2-0.5,0.3-0.8,0.5C3381.8-2592.8,3381.7-2592.9,3381.7-2593z"/>
<linearGradient id="SVGID_26_" gradientUnits="userSpaceOnUse" x1="3560.9133" y1="2800.72" x2="3560.9133" y2="2883.876" gradientTransform="matrix(1 0 0 -1 0 208)">
	<stop  offset="0" style="stop-color:#498CFF"/>
	<stop  offset="1" style="stop-color:#37F8FF"/>
</linearGradient>
<path class="st25" d="M3586.4-2592.7c-0.2-0.1-0.5-0.3-0.7-0.4c-16.5-8.3-33-16.6-49.5-24.8c-0.7-0.3-0.9-0.7-0.9-1.5
	c0-13,0-26,0-38.9c0-0.5,0.2-0.9,0.6-1.3c5.2-5.2,10.3-10.4,15.5-15.5c0.2-0.2,0.3-0.4,0.5-0.6c0.3,0.2,0.5,0.3,0.7,0.5
	c2.6,1.7,5.1,3.4,7.7,5.2c0.4,0.3,0.7,0.7,0.8,1.1c8.4,25.1,16.8,50.3,25.1,75.4c0.1,0.2,0.2,0.4,0.3,0.7
	C3586.5-2592.9,3586.4-2592.8,3586.4-2592.7z"/>
<linearGradient id="SVGID_27_" gradientUnits="userSpaceOnUse" x1="3484.0981" y1="2800.7197" x2="3484.0981" y2="2854.2759" gradientTransform="matrix(1 0 0 -1 0 208)">
	<stop  offset="0" style="stop-color:#498CFF"/>
	<stop  offset="1" style="stop-color:#37F8FF"/>
</linearGradient>
<path class="st26" d="M3483.9-2592.7c-0.2-0.2-0.5-0.3-0.8-0.5c-12.2-6.1-24.5-12.3-36.7-18.4c-0.4-0.2-0.7-0.3-0.7-0.9
	c0-11,0-22.1,0-33.2c0-0.1,0-0.2,0-0.5c0.3,0.3,0.5,0.5,0.7,0.7c6.5,6.5,13,13.1,19.6,19.7c4.2,4.1,9.1,6.7,15,7.3
	c8.2,0.9,15.3-1.5,21.2-7.3c6.6-6.5,13.1-13.1,19.6-19.7c0.2-0.2,0.3-0.4,0.5-0.7c0.1,0.1,0.1,0.1,0.2,0.1c0,0.2,0,0.4,0,0.7
	c0,10.9,0,21.8,0,32.8c0,0.6-0.2,0.8-0.7,1.1c-12.2,6.1-24.5,12.3-36.7,18.4c-0.3,0.2-0.5,0.3-0.7,0.5
	C3484.2-2592.7,3484-2592.7,3483.9-2592.7z"/>
<linearGradient id="SVGID_28_" gradientUnits="userSpaceOnUse" x1="3874.6353" y1="3293.4875" x2="3874.6353" y2="3381.748" gradientTransform="matrix(1 0 0 -1 0 208)">
	<stop  offset="0" style="stop-color:#FF9656"/>
	<stop  offset="1" style="stop-color:#FFD270"/>
</linearGradient>
<path class="st27" d="M3756.6-3112.6c0-10.6,0-21.2,0-31.8c0.3-0.2,0.5-0.4,0.8-0.7c9.3-9.3,18.7-18.6,28-27.9
	c0.5-0.5,0.9-0.7,1.6-0.7c58.4,0,116.8,0,175.3,0c0.7,0,1.1,0.2,1.6,0.6c9.4,9.4,18.8,18.7,28.2,28.1c0.2,0.2,0.5,0.4,0.7,0.6
	c0,10.6,0,21.1,0,31.7c-0.1,0.9-0.2,1.8-0.4,2.6c-2.7,15.6-16.9,26.3-32.5,24.4c-12.7-1.5-22.8-10.6-25.5-23.1
	c-0.3-1.2-0.4-2.4-0.6-3.7c-0.8,7.2-3.6,13.4-8.7,18.4c-5.1,5.1-11.4,8-18.6,8.5c-6.8,0.5-13.1-1.1-18.8-5c-7.7-5.3-11.9-12.7-13-22
	c-0.7,7.1-3.5,13.2-8.5,18.2c-5,5.1-11.1,8-18.2,8.6c-8.1,0.7-15.5-1.4-21.8-6.7c-6.3-5.2-9.7-12-10.6-20.2c-0.2,1-0.3,2-0.5,2.9
	c-2.7,15.4-17.7,26.3-33.2,23.8c-12.5-2-20.7-9.4-24.3-21.5C3757.1-3109.1,3756.9-3110.9,3756.6-3112.6z"/>
<path class="st28" d="M3992.7-3144.4c-0.2-0.2-0.5-0.4-0.7-0.6c-9.4-9.3-18.8-18.7-28.2-28.1c-0.5-0.5-0.9-0.6-1.6-0.6
	c-58.4,0-116.8,0-175.3,0c-0.7,0-1.1,0.2-1.6,0.7c-9.4,9.3-18.7,18.6-28,27.9c-0.3,0.2-0.5,0.4-0.8,0.7c0-19.6,0-39.2,0-58.9
	c78.7,0,157.4,0,236.2,0C3992.7-3183.7,3992.7-3164.1,3992.7-3144.4z M3786.1-3181.2c59,0,118,0,177,0c0-7.3,0-14.6,0-22
	c-59,0-118,0-177,0C3786.1-3195.8,3786.1-3188.5,3786.1-3181.2z"/>
<linearGradient id="SVGID_29_" gradientUnits="userSpaceOnUse" x1="3874.616" y1="3205.3521" x2="3874.616" y2="3275.5388" gradientTransform="matrix(1 0 0 -1 0 208)">
	<stop  offset="0" style="stop-color:#FF9656"/>
	<stop  offset="1" style="stop-color:#FFD270"/>
</linearGradient>
<path class="st29" d="M3771.4-2997.4c0-23.4,0-46.7,0-70.1c4.6,2.6,9.5,4,14.7,4c5.2,0,10.1-1.4,14.7-4.1c0,16.1,0,32.1,0,48.1
	c49.2,0,98.4,0,147.6,0c0-16,0-32,0-48.1c4.7,2.6,9.6,4.1,14.8,4.1c5.2,0,10.1-1.4,14.7-4c0,23.4,0,46.8,0,70.1
	C3909.1-2997.4,3840.3-2997.4,3771.4-2997.4z"/>
<linearGradient id="SVGID_30_" gradientUnits="userSpaceOnUse" x1="3874.6248" y1="3389.155" x2="3874.6248" y2="3411.116" gradientTransform="matrix(1 0 0 -1 0 208)">
	<stop  offset="0" style="stop-color:#498CFF"/>
	<stop  offset="1" style="stop-color:#37F8FF"/>
</linearGradient>
<path class="st30" d="M3786.1-3181.2c0-7.3,0-14.6,0-22c59,0,118,0,177,0c0,7.3,0,14.6,0,22
	C3904.1-3181.2,3845.1-3181.2,3786.1-3181.2z"/>
<linearGradient id="SVGID_31_" gradientUnits="userSpaceOnUse" x1="4316.2256" y1="3597.1321" x2="4316.2256" y2="3802.9922" gradientTransform="matrix(1 0 0 -1 0 208)">
	<stop  offset="0" style="stop-color:#498CFF"/>
	<stop  offset="1" style="stop-color:#37F8FF"/>
</linearGradient>
<path class="st31" d="M4419.2-3492.1c0,56.9-46.1,102.9-102.9,102.9c-56.8,0-102.9-46.1-102.9-102.9c0-56.9,46.1-102.9,102.9-102.9
	C4373.1-3595,4419.2-3548.9,4419.2-3492.1z"/>
<g>
	<g>
		
			<linearGradient id="SVGID_32_" gradientUnits="userSpaceOnUse" x1="4362.5059" y1="3600.134" x2="4362.5059" y2="3782.229" gradientTransform="matrix(1 0 0 -1 0 208)">
			<stop  offset="0" style="stop-color:#FF9656"/>
			<stop  offset="1" style="stop-color:#FFD270"/>
		</linearGradient>
		<path class="st32" d="M4401.7-3549.3l-3.1,1l-16.4,1.4l-4.6,7.4l-3.4-1.1l-13-11.8l-1.9-6.1l-2.5-6.5l-8.2-7.4l-9.7-1.9l-0.2,4.4
			l9.5,9.3l4.6,5.5l-5.2,2.7l-4.2-1.3l-6.4-2.7l0.2-5.1l-8.3-3.4l-2.8,12.1l-8.4,1.9l0.9,6.7l11,2.1l1.9-10.8l9.1,1.3l4.2,2.5h6.8
			l4.6,9.2l12.3,12.4l-0.9,4.9l-9.9-1.3l-17.1,8.6l-12.3,14.7l-1.6,6.6h-4.4l-8.2-3.8l-8,3.8l2,8.4l3.5-4l6.1-0.2l-0.4,7.5l5.1,1.5
			l5,5.7l8.3-2.3l9.4,1.5l11,3l5.5,0.6l9.3,10.5l17.9,10.5l-11.6,22.1l-12.2,5.7l-4.7,12.7l-17.7,11.8l-1.9,6.8
			c45.2-10.9,78.7-51.4,78.7-99.9C4419.2-3513.2,4412.7-3532.9,4401.7-3549.3z"/>
		
			<linearGradient id="SVGID_33_" gradientUnits="userSpaceOnUse" x1="4273.0459" y1="3597.1343" x2="4273.0459" y2="3753.6411" gradientTransform="matrix(1 0 0 -1 0 208)">
			<stop  offset="0" style="stop-color:#FF9656"/>
			<stop  offset="1" style="stop-color:#FFD270"/>
		</linearGradient>
		<path class="st33" d="M4328.1-3438.3l-7.5-13.9l6.8-14.3l-6.8-2.1l-7.8-7.8l-17.1-3.8l-5.6-11.9v7.1h-2.5l-14.7-20v-16.4
			L4262-3539l-17.2,3.1h-11.6l-5.8-3.8l7.4-5.9l-7.4,1.7c-8.9,15.3-14.1,33-14.1,51.9c0,56.8,46.1,102.9,102.9,102.9
			c4.4,0,8.7-0.4,12.9-0.9l-1.1-12.4c0,0,4.7-18.5,4.7-19.1C4332.8-3422.3,4328.1-3438.3,4328.1-3438.3z"/>
		
			<linearGradient id="SVGID_34_" gradientUnits="userSpaceOnUse" x1="4298.4404" y1="3765.551" x2="4298.4404" y2="3802.991" gradientTransform="matrix(1 0 0 -1 0 208)">
			<stop  offset="0" style="stop-color:#FF9656"/>
			<stop  offset="1" style="stop-color:#FFD270"/>
		</linearGradient>
		<path class="st34" d="M4251.6-3561.8l18.3-2.6l8.4-4.6l9.5,2.7l15.2-0.8l5.2-8.2l7.5,1.3l18.4-1.7l5.1-5.6l7.1-4.8l10.1,1.5
			l3.7-0.6c-13.3-6.2-28.1-9.9-43.8-9.9c-31.9,0-60.5,14.6-79.4,37.4h0.1L4251.6-3561.8z M4320.6-3584.8l10.5-5.8l6.7,3.9l-9.8,7.4
			l-9.3,0.9l-4.2-2.7L4320.6-3584.8z M4289.4-3583.9l4.6,1.9l6.1-1.9l3.3,5.8l-14,3.7l-6.7-4
			C4282.7-3578.4,4289.3-3582.7,4289.4-3583.9z"/>
	</g>
</g>
<linearGradient id="SVGID_35_" gradientUnits="userSpaceOnUse" x1="4642.1191" y1="4034.709" x2="4642.1191" y2="4055.3589" gradientTransform="matrix(1 0 0 -1 0 208)">
	<stop  offset="0" style="stop-color:#498CFF"/>
	<stop  offset="1" style="stop-color:#37F8FF"/>
</linearGradient>
<rect x="4631.8" y="-3847.4" class="st35" width="20.6" height="20.6"/>
<linearGradient id="SVGID_36_" gradientUnits="userSpaceOnUse" x1="4642.1187" y1="4065.6838" x2="4642.1187" y2="4158.6089" gradientTransform="matrix(1 0 0 -1 0 208)">
	<stop  offset="0" style="stop-color:#498CFF"/>
	<stop  offset="1" style="stop-color:#37F8FF"/>
</linearGradient>
<path class="st36" d="M4642.1-3950.6c-22.8,0-41.3,18.5-41.3,41.3h20.6c0-11.4,9.3-20.7,20.6-20.7s20.6,9.3,20.6,20.7
	c0,20.6-31,18.1-31,51.6h20.6c0-23.2,31-25.8,31-51.6C4683.4-3932.1,4664.9-3950.6,4642.1-3950.6z"/>
<linearGradient id="SVGID_37_" gradientUnits="userSpaceOnUse" x1="4642.1191" y1="3993.4089" x2="4642.1191" y2="4199.9092" gradientTransform="matrix(1 0 0 -1 0 208)">
	<stop  offset="0" style="stop-color:#FF9656"/>
	<stop  offset="1" style="stop-color:#FFD270"/>
</linearGradient>
<path class="st37" d="M4642.1-3991.9c-57,0-103.2,46.3-103.2,103.2c0,57,46.3,103.2,103.2,103.2c57,0,103.2-46.3,103.2-103.2
	C4745.4-3945.7,4699.1-3991.9,4642.1-3991.9z M4642.1-3806.1c-45.5,0-82.6-37.1-82.6-82.6c0-45.5,37.1-82.6,82.6-82.6
	s82.6,37.1,82.6,82.6C4724.7-3843.1,4687.7-3806.1,4642.1-3806.1z"/>
<linearGradient id="SVGID_38_" gradientUnits="userSpaceOnUse" x1="179.6264" y1="206.0355" x2="179.6264" y2="0.8305">
	<stop  offset="0" style="stop-color:#FF9656"/>
	<stop  offset="1" style="stop-color:#FFD270"/>
</linearGradient>
<path class="st38" d="M246.8,160.8L211.2,143c-3.4-1.7-5.5-5.1-5.5-8.8v-12.6c0.9-1,1.8-2.2,2.7-3.5c4.6-6.5,8.3-13.8,11-21.6
	c5.3-2.4,8.7-7.6,8.7-13.5V68c0-3.6-1.3-7.1-3.7-9.8V38.3c0.2-2.1,1-14.3-7.8-24.3c-7.7-8.7-20.1-13.2-37-13.2s-29.3,4.4-37,13.2
	c-8.8,10.1-8,22.3-7.8,24.3v19.8c-2.4,2.7-3.7,6.2-3.7,9.8v14.9c0,4.5,2.1,8.8,5.6,11.6c3.4,13.5,10.6,23.7,13.1,27v12.3
	c0,3.6-2,6.9-5.1,8.7l-33.3,18.2c-10.8,5.9-17.5,17.2-17.5,29.6V206h171.6V191C265.4,178.1,258.3,166.6,246.8,160.8z"/>
<linearGradient id="SVGID_39_" gradientUnits="userSpaceOnUse" x1="277.9458" y1="206.0355" x2="277.9458" y2="19.9967">
	<stop  offset="0" style="stop-color:#498CFF"/>
	<stop  offset="1" style="stop-color:#37F8FF"/>
</linearGradient>
<path class="st39" d="M314.2,165.1l-36.3-15.7c-0.9-0.4-1.8-1.5-2.6-2.9l24.3,0c0,0,1.4,0.1,3.6,0.1c4,0,9.8-0.5,14.9-2.6
	c3-1.3,5.3-3.9,6.2-7.1c0.9-3.2,0.3-6.7-1.6-9.4c-7-9.9-23.2-35.8-23.7-62c0-0.5-1.5-45.1-45.6-45.4c-4.4,0-8.6,0.6-12.6,1.5
	c3,7.8,2.7,14.8,2.5,17.1v17.7c2.4,3.4,3.7,7.5,3.7,11.7v14.9c0,7.1-3.7,13.7-9.7,17.4c-2.8,7.5-6.5,14.6-11,21
	c-0.6,0.8-1.1,1.5-1.7,2.3v10.7c0,1.6,0.9,3.1,2.4,3.8l35.6,17.8c13.4,6.7,21.7,20.1,21.7,35.1V206h46.6v-13.8
	C331.1,180.7,324.7,170.3,314.2,165.1z"/>
<linearGradient id="SVGID_40_" gradientUnits="userSpaceOnUse" x1="86.9458" y1="206.0355" x2="86.9458" y2="19.9967" gradientTransform="matrix(-1 0 0 1 173.8916 0)">
	<stop  offset="0" style="stop-color:#498CFF"/>
	<stop  offset="1" style="stop-color:#37F8FF"/>
</linearGradient>
<path class="st40" d="M33.8,192.2V206h46.6v-15.1c0-15,8.3-28.4,21.7-35.1l35.6-17.8c1.5-0.7,2.4-2.2,2.4-3.8v-10.7
	c-0.5-0.7-1.1-1.5-1.7-2.3c-4.5-6.4-8.2-13.4-11-21c-6-3.7-9.7-10.3-9.7-17.4V68c0-4.2,1.3-8.3,3.7-11.7V38.6
	c-0.2-2.3-0.5-9.3,2.5-17.1c-4-1-8.2-1.5-12.6-1.5c-44.1,0.4-45.5,45-45.6,45.4c-0.5,26.2-16.7,52.1-23.7,62
	c-1.9,2.7-2.5,6.2-1.6,9.4c0.9,3.2,3.2,5.8,6.2,7.1c5.1,2.2,10.9,2.6,14.9,2.6c2.2,0,3.6-0.1,3.6-0.1l24.3,0
	c-0.8,1.4-1.8,2.4-2.6,2.9l-36.3,15.7C40.2,170.3,33.8,180.7,33.8,192.2z"/>
</svg>
