<?xml version="1.0" encoding="utf-8"?>
<!-- Generator: Adobe Illustrator 21.0.2, SVG Export Plug-In . SVG Version: 6.00 Build 0)  -->
<svg version="1.1" id="Layer_1" xmlns="http://www.w3.org/2000/svg" xmlns:xlink="http://www.w3.org/1999/xlink" x="0px" y="0px"
	 viewBox="0 0 213.9 206.8" style="enable-background:new 0 0 213.9 206.8;" xml:space="preserve">
<style type="text/css">
	.st0{fill:url(#SVGID_1_);}
	.st1{fill:url(#SVGID_2_);}
	.st2{fill:url(#SVGID_3_);}
	.st3{fill:url(#SVGID_4_);}
	.st4{fill:url(#SVGID_5_);}
	.st5{fill:url(#SVGID_6_);}
	.st6{fill:url(#SVGID_7_);}
	.st7{fill:url(#SVGID_8_);}
	.st8{fill:url(#SVGID_9_);}
	.st9{fill:url(#SVGID_10_);}
	.st10{fill:url(#SVGID_11_);}
	.st11{fill:url(#SVGID_12_);}
	.st12{fill:url(#SVGID_13_);}
	.st13{fill:url(#SVGID_14_);}
	.st14{fill:url(#SVGID_15_);}
	.st15{fill:url(#SVGID_16_);}
	.st16{fill:url(#SVGID_17_);}
	.st17{fill:url(#SVGID_18_);}
	.st18{fill:url(#SVGID_19_);}
	.st19{fill:url(#SVGID_20_);}
	.st20{fill:url(#SVGID_21_);}
	.st21{fill:url(#SVGID_22_);}
	.st22{fill:url(#SVGID_23_);}
	.st23{fill:url(#SVGID_24_);}
	.st24{fill:url(#SVGID_25_);}
	.st25{fill:url(#SVGID_26_);}
	.st26{fill:url(#SVGID_27_);}
	.st27{fill:url(#SVGID_28_);}
	.st28{fill:url(#SVGID_29_);}
	.st29{fill:url(#SVGID_30_);}
	.st30{fill:#FFFFFF;}
	.st31{fill:url(#SVGID_31_);}
	.st32{fill:url(#SVGID_32_);}
	.st33{fill:url(#SVGID_33_);}
	.st34{fill:url(#SVGID_34_);}
	.st35{fill:url(#SVGID_35_);}
	.st36{fill:url(#SVGID_36_);}
	.st37{fill:url(#SVGID_37_);}
	.st38{fill:url(#SVGID_38_);}
	.st39{fill:url(#SVGID_39_);}
	.st40{fill:url(#SVGID_40_);}
</style>
<g>
	<g>
		
			<linearGradient id="SVGID_1_" gradientUnits="userSpaceOnUse" x1="-1346.8127" y1="-1130.074" x2="-1346.8127" y2="-923.729" gradientTransform="matrix(1 0 0 -1 0 208)">
			<stop  offset="0" style="stop-color:#FF9656"/>
			<stop  offset="1" style="stop-color:#FFD270"/>
		</linearGradient>
		<path class="st0" d="M-1266.6,1154.7h-10.3v22.9h-36.7v-22.9h-66.5v22.9h-36.7v-22.9h-10.3c-12.6,0-22.9,10.3-22.9,22.9v137.6
			c0,12.6,10.3,22.9,22.9,22.9h160.5c12.6,0,22.9-10.3,22.9-22.9v-137.6C-1243.6,1165-1254,1154.7-1266.6,1154.7z M-1266.6,1315.1
			h-160.5v-108.5h160.5V1315.1z M-1390.4,1131.7h-16.1v39h16.1V1131.7z M-1287.2,1131.7h-16v39h16V1131.7z"/>
	</g>
</g>
<g>
	
		<linearGradient id="SVGID_2_" gradientUnits="userSpaceOnUse" x1="-1346.3156" y1="-1083.8956" x2="-1346.3156" y2="-1019.8421" gradientTransform="matrix(1 0 0 -1 0 208)">
		<stop  offset="0" style="stop-color:#498CFF"/>
		<stop  offset="1" style="stop-color:#37F8FF"/>
	</linearGradient>
	<path class="st1" d="M-1344.7,1228.9l8.5,20.2l21.9,1.9c1.5,0.1,2.1,2,1,3l-16.6,14.4l5,21.4c0.3,1.5-1.3,2.7-2.6,1.9l-18.8-11.3
		l-18.8,11.3c-1.3,0.8-2.9-0.4-2.6-1.9l5-21.4l-16.6-14.4c-1.2-1-0.5-2.9,1-3l21.9-1.9l8.5-20.2
		C-1347.3,1227.5-1345.3,1227.5-1344.7,1228.9L-1344.7,1228.9z"/>
</g>
<g>
	
		<linearGradient id="SVGID_3_" gradientUnits="userSpaceOnUse" x1="-870.1693" y1="-736.6311" x2="-870.1693" y2="-530.5833" gradientTransform="matrix(1 0 0 -1 0 208)">
		<stop  offset="0" style="stop-color:#FF9656"/>
		<stop  offset="1" style="stop-color:#FFD270"/>
	</linearGradient>
	<path class="st2" d="M-802.6,770.8h-35c-5.1-4-10.9-7.1-17.3-9l13.2-13.2c2.3-2.3,2.3-6,0-8.3s-6-2.3-8.3,0l-18.4,18.4
		c-0.3,0.3-0.6,0.6-0.7,1c-0.3,0-0.6,0-1,0c-0.3,0-0.6,0-0.9,0c-0.2-0.4-0.5-0.7-0.8-1l-18.4-18.4c-2.3-2.3-6-2.3-8.3,0
		c-2.3,2.3-2.3,6,0,8.3l13.2,13.2c-6.3,1.9-12.2,5-17.3,9h-35c-22.7,0-41.1,18.4-41.1,41.1v80.6c0,22.6,18.5,41.1,41.1,41.1h0.5v4.1
		c0,3.8,3.1,6.9,6.9,6.9h4.2c3.8,0,6.9-3.1,6.9-6.9v-4.1h97.8v2.4c0,3.8,3.1,8.6,6.9,8.6h4.2c3.8,0,6.9-4.8,6.9-8.6v-2.4h0.5
		c22.6,0,41.1-18.5,41.1-41.1v-80.6C-761.5,789.3-780,770.8-802.6,770.8z M-927.5,910.5c-14.4,0-26.2-11.7-26.2-26.2v-63.7
		c0-14.4,11.7-26.2,26.2-26.2h88.7c14.4,0,26.2,11.7,26.2,26.2v63.7c0,14.4-11.7,26.2-26.2,26.2H-927.5L-927.5,910.5z M-787.6,878.5
		c-3.6,0-6.6-2.9-6.6-6.6s2.9-6.6,6.6-6.6c3.6,0,6.6,2.9,6.6,6.6S-784,878.5-787.6,878.5z M-787.6,858.9c-3.6,0-6.6-2.9-6.6-6.6
		c0-3.6,2.9-6.6,6.6-6.6c3.6,0,6.6,2.9,6.6,6.6C-781,856-784,858.9-787.6,858.9z M-787.6,839.2c-3.6,0-6.6-2.9-6.6-6.6
		c0-3.6,2.9-6.6,6.6-6.6c3.6,0,6.6,2.9,6.6,6.6C-781,836.3-784,839.2-787.6,839.2z"/>
</g>
<linearGradient id="SVGID_4_" gradientUnits="userSpaceOnUse" x1="-882.1909" y1="-686.441" x2="-882.1909" y2="-614.171" gradientTransform="matrix(1 0 0 -1 0 208)">
	<stop  offset="0" style="stop-color:#498CFF"/>
	<stop  offset="1" style="stop-color:#37F8FF"/>
</linearGradient>
<path class="st3" d="M-848.1,861.9l-31.5,31.5c-0.7,0.7-1.6,1-2.5,1c-0.9,0-1.8-0.4-2.5-1l-31.6-31.6c-4.4-4.4-6.8-10.2-6.8-16.4
	c0-6.2,2.4-12,6.8-16.4c4.4-4.4,10.2-6.8,16.4-6.8c6.2,0,12,2.4,16.4,6.8l1.3,1.3l1.3-1.3c4.4-4.4,10.2-6.8,16.4-6.8
	c6.2,0,12,2.4,16.4,6.8c4.4,4.4,6.8,10.2,6.8,16.4C-841.3,851.6-843.7,857.5-848.1,861.9z"/>
<linearGradient id="SVGID_5_" gradientUnits="userSpaceOnUse" x1="-430.54" y1="-365.541" x2="-430.54" y2="-169.073" gradientTransform="matrix(1 0 0 -1 0 208)">
	<stop  offset="0" style="stop-color:#FF9656"/>
	<stop  offset="1" style="stop-color:#FFD270"/>
</linearGradient>
<path class="st4" d="M-468.9,377.1C-468.9,377.1-468.9,377.1-468.9,377.1c-2.6,0-5,1-6.8,2.8c-1.8,1.8-2.8,4.3-2.8,6.9v145.1
	c0,5.3,4.3,9.7,9.7,9.7c22.5,0.1,60.3,4.7,86.3,32V421.7c0-1.8-0.5-3.5-1.3-4.9C-405.2,382.4-446.3,377.1-468.9,377.1z"/>
<linearGradient id="SVGID_6_" gradientUnits="userSpaceOnUse" x1="-319.5215" y1="-365.541" x2="-319.5215" y2="-169.073" gradientTransform="matrix(1 0 0 -1 0 208)">
	<stop  offset="0" style="stop-color:#FF9656"/>
	<stop  offset="1" style="stop-color:#FFD270"/>
</linearGradient>
<path class="st5" d="M-271.5,531.9V386.8c0-2.6-1-5-2.9-6.9c-1.8-1.8-4.2-2.8-6.8-2.8c0,0,0,0,0,0c-22.6,0.1-63.6,5.3-85,39.7
	c-0.9,1.4-1.3,3.1-1.3,4.9v151.9c26-27.2,63.8-31.9,86.3-32C-275.9,541.5-271.5,537.2-271.5,531.9z"/>
<linearGradient id="SVGID_7_" gradientUnits="userSpaceOnUse" x1="-297.823" y1="-374.989" x2="-297.823" y2="-202.539" gradientTransform="matrix(1 0 0 -1 0 208)">
	<stop  offset="0" style="stop-color:#498CFF"/>
	<stop  offset="1" style="stop-color:#37F8FF"/>
</linearGradient>
<path class="st6" d="M-250.5,410.5h-7v120.8c0,13.5-11,24.6-24.6,24.6c-19,0.1-50.4,3.8-72.6,24.8c38.4-9.4,78.9-3.3,102,2
	c2.9,0.7,5.9,0,8.2-1.9c2.3-1.8,3.6-4.6,3.6-7.5V420.2C-240.9,414.9-245.2,410.5-250.5,410.5z"/>
<linearGradient id="SVGID_8_" gradientUnits="userSpaceOnUse" x1="-453.342" y1="-374.9864" x2="-453.342" y2="-202.539" gradientTransform="matrix(1 0 0 -1 0 208)">
	<stop  offset="0" style="stop-color:#498CFF"/>
	<stop  offset="1" style="stop-color:#37F8FF"/>
</linearGradient>
<path class="st7" d="M-493.6,531.4V410.5h-7c-5.3,0-9.6,4.3-9.6,9.6v153.2c0,2.9,1.3,5.7,3.6,7.5c2.3,1.8,5.3,2.5,8.2,1.9
	c23.1-5.3,63.6-11.4,102-2c-22.2-21-53.6-24.8-72.6-24.8C-482.6,555.9-493.6,544.9-493.6,531.4z"/>
<linearGradient id="SVGID_9_" gradientUnits="userSpaceOnUse" x1="724.3634" y1="372.014" x2="724.3634" y2="578.8811" gradientTransform="matrix(1 0 0 -1 0 208)">
	<stop  offset="0" style="stop-color:#FF9656"/>
	<stop  offset="1" style="stop-color:#FFD270"/>
</linearGradient>
<path class="st8" d="M823-164c-65.9,0-131.6,0-197.4,0c0-3.6,0-7.1,0-10.7c0-0.3,0.3-0.7,0.6-1c2.5-1.9,4.9-4,7.6-5.8
	c14.7-9.6,30.6-16.8,46.5-24c1.4-0.6,2.8-1.3,4.2-1.9c1.6-0.7,2.6-1.8,3.1-3.4c1.2-3.8,2.3-7.5,3.4-11.3c0.6-2.1,1.5-3.7,3.8-4.4
	c1.2-0.4,1.7-1.5,1.8-2.7c0.5-5,1-10,1.3-14.9c0.1-1.1-0.4-2.5-1.2-3.4c-3.9-5-6-10.7-7-16.9c-0.3-1.9-0.9-3.7-1.5-5.5
	c-2.6-7.7-4.5-15.6-4.9-23.8c-0.1-1.4,0.1-2.7,1.5-3.3c1.9-0.8,2.2-2.4,2.3-4.2c0.1-3,0-6,0.1-9c0.1-7.5,0.2-15.1,0.2-22.6
	c0-7.2,2.8-13.3,7.6-18.5c6-6.5,13.4-10.7,21.6-13.6c8-2.8,16.3-4.4,24.6-5.8c1.1-0.2,2.3-0.1,3.5,0c0.5,0.1,0.8,0.6,1.3,1
	c-1.2,1-2.2,1.7-3.1,2.6c-2.4,2.3-2.4,4.1,0,6.4c4.3,4.2,8.5,8.4,12.9,12.4c4.8,4.4,6.8,9.9,6.8,16.2c0,10.5,0,21.1,0,31.6
	c0,2,0.2,3.8,2.3,4.9c0.6,0.3,0.9,1.6,0.8,2.5c-0.2,4-0.7,8-1,11.9c-0.1,2.3-1,4.4-1.8,6.5c-1.7,4.5-3,9.1-4.4,13.7
	c-1,3.2-1.9,6.4-3.7,9.2c-2,3.1-2.7,6.6-2.8,10.3c-0.1,4.1,0,8.1,0,12.2c0,1.3,0.5,2.4,1.7,3.1c1.5,0.8,2.1,2.4,2.5,4
	c1,3.4,2.1,6.9,3.1,10.3c0.7,2.6,2.4,4.1,4.8,5.1c15.7,6.7,31.3,13.8,46.2,22.1c3.6,2,7.1,4,10.2,6.7c1.7,1.5,2.7,3.1,2.5,5.5
	C822.8-169.7,823-166.9,823-164z"/>
<linearGradient id="SVGID_10_" gradientUnits="userSpaceOnUse" x1="599.6012" y1="372.033" x2="599.6012" y2="542.5275" gradientTransform="matrix(1 0 0 -1 0 208)">
	<stop  offset="0" style="stop-color:#498CFF"/>
	<stop  offset="1" style="stop-color:#37F8FF"/>
</linearGradient>
<path class="st9" d="M654.9-206.4c-4.9,2.6-9.7,5-14.4,7.8c-6,3.6-12,7.3-17.8,11.3c-2.7,1.9-4.9,4.6-7.3,7
	c-0.3,0.3-0.4,0.9-0.4,1.4c0,4.5,0,9,0,13.6c0,0.4,0,0.9,0,1.4c-25.1,0-50,0-75.1,0c0-0.3-0.1-0.6-0.1-0.9c0-2,0.1-4,0-5.9
	c-0.2-1.9,0.4-3.2,1.9-4.2c1.5-1,2.8-2.1,4.3-3.1c10.2-6.6,21-12.2,32.1-17.1c3.7-1.6,7.3-3.4,11-5.1c1.3-0.6,2.2-1.5,2.6-2.9
	c1-3.2,1.9-6.4,2.9-9.6c0.5-1.7,1.3-2.9,3.1-3.6c0.7-0.3,1.4-1.3,1.5-2.1c0.5-4.2,0.9-8.5,1.2-12.8c0.1-0.9-0.4-2.1-1-2.9
	c-3.1-4.1-4.8-8.7-5.7-13.7c-0.3-1.6-0.7-3.2-1.3-4.8c-2.1-6.3-3.7-12.8-4.1-19.4c-0.1-1.7,0.1-3.1,1.9-3.9c0.5-0.3,0.9-1.2,1-1.9
	c0.2-2,0.2-3.9,0.2-5.9c0-6.7,0-13.3,0.1-20c0-2.1,0.2-4.2,0.5-6.3c0.5-3.2,1.9-6.1,4-8.6c4.5-5.6,10-10.1,16.3-13.5
	c3.6-1.9,7.5-2.4,11.6-2.5c5.2-0.1,9.7,1.2,14,3.9c2.6,1.7,5.1,3.6,7.4,5.6c1.9,1.6,3.7,3.4,5.4,5.2c3.6,4,5.4,8.7,5.4,14.1
	c0.1,7.2,0.1,14.4,0.1,21.6c0,1.9,0,3.7,0.1,5.6c0,1.3,0.4,2.4,1.8,3c1.2,0.5,1.4,1.7,1.3,2.9c-0.4,6.9-2,13.4-4.1,19.9
	c-0.8,2.4-1.3,4.8-1.8,7.3c-0.9,4.1-2.6,7.8-5.1,11.2c-0.7,0.9-1.2,2.2-1.1,3.3c0.2,4,0.7,8,1.1,12.1c0.1,1.3,0.7,2.3,2.1,2.7
	c1.4,0.4,2,1.5,2.4,2.8C653.5-211,654.2-208.7,654.9-206.4z"/>
<linearGradient id="SVGID_11_" gradientUnits="userSpaceOnUse" x1="844.971" y1="372.038" x2="844.971" y2="539.7047" gradientTransform="matrix(1 0 0 -1 0 208)">
	<stop  offset="0" style="stop-color:#498CFF"/>
	<stop  offset="1" style="stop-color:#37F8FF"/>
</linearGradient>
<path class="st10" d="M903.9-164c-23.5,0-46.9,0-70.4,0c0-0.5,0-0.9,0-1.4c0-4.6,0-9.3,0-13.9c0-0.5-0.3-1.2-0.6-1.6
	c-4.6-5.9-10.3-10.4-16.9-13.8c-7.4-3.8-14.7-7.6-22-11.3c-0.4-0.2-0.8-0.4-1.3-0.6c1.8-1.9,3.4-3.6,6.1-4.1c2.5-0.4,4.2-2,4.8-4.5
	c1.4-5.6,2.3-11.1,1.4-16.9c-0.4-2.6-1.6-4.3-4.1-5.4c-4-1.7-8-3.7-12-5.6c-2.8-1.3-3.2-2.4-2.4-5.4c1.8-7.1,3.8-14.1,5.4-21.2
	c1.5-6.8,2.1-13.8,2.4-20.8c0.2-6,0.4-12,1.7-17.9c0.9-4,2.3-7.9,4.6-11.4c2-3.2,4.7-5.5,8.4-6.8c1.7-0.6,3.3-1.3,4.8-2.3
	c5.5-3.4,11.2-3.5,17.1-1.5c9.4,3.2,16.3,9,19.3,18.8c1.6,5.1,2.4,10.4,2.5,15.7c0.3,15.8,2.8,31.3,7.8,46.4c1.4,4.2,1,5-3,6.9
	c-3.7,1.8-7.4,3.6-11.2,5.2c-2.3,1-3.5,2.6-3.9,5c-1,6-0.1,11.8,1.4,17.6c0.6,2.3,2.3,3.7,4.6,4.1c2,0.4,3.7,1.3,4.9,2.8
	c2.4,2.9,5.5,4.9,9,6.4c6.7,3,13.2,6.2,19.9,9.1c7.8,3.4,14.2,8.3,18.2,16C902.1-172.9,903.7-167.5,903.9-164z"/>
<linearGradient id="SVGID_12_" gradientUnits="userSpaceOnUse" x1="1233.7947" y1="767.939" x2="1233.7947" y2="973.168" gradientTransform="matrix(1 0 0 -1 0 208)">
	<stop  offset="0" style="stop-color:#FF9656"/>
	<stop  offset="1" style="stop-color:#FFD270"/>
</linearGradient>
<path class="st11" d="M1331.7-559.9c-65.4,0-130.6,0-195.9,0c0-3.6,0-7.1,0-10.6c0-0.3,0.3-0.7,0.6-1c2.5-1.9,4.9-4,7.5-5.7
	c14.6-9.5,30.3-16.7,46.1-23.8c1.4-0.6,2.7-1.3,4.1-1.9c1.5-0.7,2.6-1.8,3-3.4c1.2-3.7,2.3-7.5,3.4-11.2c0.6-2.1,1.5-3.7,3.8-4.4
	c1.2-0.4,1.6-1.5,1.8-2.7c0.5-4.9,1-9.9,1.3-14.8c0.1-1.1-0.4-2.5-1.1-3.4c-3.9-5-5.9-10.6-6.9-16.8c-0.3-1.8-0.9-3.6-1.5-5.4
	c-2.6-7.7-4.4-15.5-4.9-23.6c-0.1-1.4,0.1-2.7,1.5-3.3c1.9-0.8,2.2-2.4,2.2-4.1c0.1-3,0-5.9,0.1-8.9c0.1-7.5,0.2-15,0.2-22.5
	c0-7.2,2.8-13.2,7.6-18.4c5.9-6.4,13.3-10.6,21.4-13.5c7.9-2.8,16.1-4.3,24.4-5.7c1.1-0.2,2.3-0.1,3.5,0c0.4,0.1,0.8,0.6,1.3,1
	c-1.2,1-2.2,1.7-3,2.6c-2.3,2.3-2.3,4.1,0,6.3c4.3,4.1,8.5,8.3,12.8,12.3c4.8,4.4,6.7,9.8,6.8,16.1c0,10.5,0,20.9,0,31.4
	c0,2,0.2,3.8,2.3,4.9c0.6,0.3,0.8,1.6,0.8,2.4c-0.2,4-0.7,7.9-1,11.8c-0.1,2.3-1,4.3-1.8,6.5c-1.7,4.4-2.9,9-4.3,13.6
	c-1,3.2-1.9,6.3-3.7,9.2c-2,3-2.7,6.6-2.8,10.2c-0.1,4,0,8.1,0,12.1c0,1.3,0.5,2.4,1.7,3.1c1.5,0.8,2.1,2.4,2.5,3.9
	c1,3.4,2.1,6.8,3,10.2c0.7,2.6,2.4,4,4.7,5c15.6,6.6,31,13.7,45.9,21.9c3.5,2,7.1,3.9,10.1,6.7c1.7,1.5,2.7,3,2.4,5.4
	C1331.5-565.6,1331.7-562.8,1331.7-559.9z"/>
<linearGradient id="SVGID_13_" gradientUnits="userSpaceOnUse" x1="1353.4451" y1="767.963" x2="1353.4451" y2="934.3007" gradientTransform="matrix(1 0 0 -1 0 208)">
	<stop  offset="0" style="stop-color:#498CFF"/>
	<stop  offset="1" style="stop-color:#37F8FF"/>
</linearGradient>
<path class="st12" d="M1411.9-560c-23.3,0-46.5,0-69.8,0c0-0.5,0-0.9,0-1.3c0-4.6,0-9.2,0-13.8c0-0.5-0.2-1.2-0.6-1.6
	c-4.5-5.9-10.2-10.3-16.8-13.7c-7.3-3.7-14.6-7.5-21.9-11.3c-0.4-0.2-0.8-0.4-1.3-0.6c1.7-1.9,3.4-3.6,6-4c2.5-0.4,4.2-2,4.8-4.5
	c1.4-5.5,2.2-11.1,1.3-16.8c-0.4-2.5-1.6-4.3-4-5.3c-4-1.7-7.9-3.6-11.9-5.5c-2.8-1.3-3.2-2.4-2.4-5.4c1.8-7,3.8-14,5.4-21
	c1.5-6.8,2.1-13.7,2.3-20.6c0.2-6,0.4-11.9,1.7-17.8c0.9-4,2.3-7.8,4.5-11.3c2-3.2,4.7-5.5,8.3-6.7c1.7-0.5,3.3-1.3,4.8-2.3
	c5.4-3.4,11.1-3.5,16.9-1.5c9.3,3.2,16.2,8.9,19.2,18.6c1.6,5.1,2.3,10.3,2.4,15.6c0.3,15.7,2.8,31,7.7,46c1.4,4.2,0.9,4.9-3,6.8
	c-3.7,1.7-7.4,3.5-11.1,5.1c-2.3,1-3.4,2.6-3.9,4.9c-1,5.9-0.1,11.7,1.4,17.4c0.6,2.3,2.3,3.7,4.6,4.1c2,0.4,3.6,1.3,4.9,2.8
	c2.4,2.9,5.5,4.8,8.9,6.4c6.6,3,13.1,6.1,19.7,9c7.7,3.4,14.1,8.2,18,15.8C1410.1-568.7,1411.7-563.4,1411.9-560z"/>
<g>
	
		<linearGradient id="SVGID_14_" gradientUnits="userSpaceOnUse" x1="1802.6064" y1="1160.0889" x2="1802.6064" y2="1366.7889" gradientTransform="matrix(1 0 0 -1 0 208)">
		<stop  offset="0" style="stop-color:#FF9656"/>
		<stop  offset="1" style="stop-color:#FFD270"/>
	</linearGradient>
	<path class="st13" d="M1906.1-1142c-11.5-11.3-27.2-16.8-47.2-16.8c-5.6,0-11.2,1-17.1,2.9c-5.9,1.9-11.2,4.5-16.2,7.8
		c-4.9,3.4-9.2,6.4-12.8,9.2c-3.6,2.9-7,5.9-10.2,9.2c-3.3-3.2-6.6-6.3-10.2-9.2c-3.6-2.8-7.9-5.9-12.8-9.2
		c-5.1-3.3-10.4-5.9-16.2-7.8c-5.9-1.9-11.5-2.9-17.1-2.9c-20.1,0-35.8,5.5-47.2,16.8c-11.5,11-17.1,26.5-17.1,46.3
		c0,6,1,12.1,3.2,18.5c2,6.4,4.5,11.8,7.2,16.3c2.7,4.5,5.7,8.9,9.1,13.2c3.5,4.2,6,7.2,7.5,8.7c1.6,1.7,2.7,2.8,3.6,3.5l84,81.1
		c1.6,1.6,3.6,2.4,6,2.4c2.4,0,4.3-0.8,5.9-2.4l83.8-80.8c20.6-20.6,30.8-40.8,30.8-60.5C1923.1-1115.5,1917.5-1131,1906.1-1142z"/>
</g>
<g>
	
		<linearGradient id="SVGID_15_" gradientUnits="userSpaceOnUse" x1="1892.2341" y1="1183.2632" x2="1892.2341" y2="1288.915" gradientTransform="matrix(1 0 0 -1 0 208)">
		<stop  offset="0" style="stop-color:#498CFF"/>
		<stop  offset="1" style="stop-color:#37F8FF"/>
	</linearGradient>
	<path class="st14" d="M1945.1-1072.4c-5.9-5.8-13.9-8.6-24.1-8.6c-2.9,0-5.7,0.5-8.7,1.5c-3,1-5.7,2.3-8.3,4
		c-2.5,1.7-4.7,3.3-6.5,4.7c-1.8,1.5-3.6,3-5.2,4.7c-1.7-1.7-3.4-3.2-5.2-4.7c-1.8-1.4-4-3-6.5-4.7c-2.6-1.7-5.3-3-8.3-4
		c-3-1-5.9-1.5-8.7-1.5c-10.3,0-18.3,2.8-24.1,8.6c-5.9,5.6-8.7,13.5-8.7,23.7c0,3,0.5,6.2,1.6,9.5c1,3.3,2.3,6,3.7,8.3
		c1.4,2.3,2.9,4.5,4.7,6.7c1.8,2.1,3,3.7,3.8,4.5c0.8,0.9,1.4,1.4,1.8,1.8l42.9,41.5c0.8,0.8,1.8,1.2,3,1.2c1.2,0,2.2-0.4,3-1.2
		l42.8-41.3c10.5-10.5,15.7-20.8,15.7-30.9C1953.8-1058.8,1951-1066.7,1945.1-1072.4z"/>
</g>
<linearGradient id="SVGID_16_" gradientUnits="userSpaceOnUse" x1="2206.2295" y1="1555.563" x2="2206.2295" y2="1762.349" gradientTransform="matrix(1 0 0 -1 0 208)">
	<stop  offset="0" style="stop-color:#498CFF"/>
	<stop  offset="1" style="stop-color:#37F8FF"/>
</linearGradient>
<path class="st15" d="M2206.2-1554.3c-14.3,77.5-25.9,89.2-103.4,103.4c77.5,14.3,89.1,25.8,103.4,103.4
	c14.3-77.5,25.8-89.1,103.4-103.4C2232.1-1465.2,2220.5-1476.8,2206.2-1554.3z"/>
<linearGradient id="SVGID_17_" gradientUnits="userSpaceOnUse" x1="2325.9253" y1="1670.319" x2="2325.9253" y2="1728.923" gradientTransform="matrix(1 0 0 -1 0 208)">
	<stop  offset="0" style="stop-color:#FF9656"/>
	<stop  offset="1" style="stop-color:#FFD270"/>
</linearGradient>
<path class="st16" d="M2325.9-1520.9c-4,22-7.3,25.3-29.3,29.3c22,4,25.3,7.3,29.3,29.3c4-22,7.3-25.2,29.3-29.3
	C2333.2-1495.6,2330-1498.9,2325.9-1520.9z"/>
<linearGradient id="SVGID_18_" gradientUnits="userSpaceOnUse" x1="2352.5515" y1="1600.359" x2="2352.5515" y2="1658.958" gradientTransform="matrix(1 0 0 -1 0 208)">
	<stop  offset="0" style="stop-color:#FF9656"/>
	<stop  offset="1" style="stop-color:#FFD270"/>
</linearGradient>
<path class="st17" d="M2352.6-1451c-4,22-7.3,25.3-29.3,29.3c22,4,25.3,7.3,29.3,29.3c4-22,7.3-25.2,29.3-29.3
	C2359.9-1425.7,2356.6-1429,2352.6-1451z"/>
<linearGradient id="SVGID_19_" gradientUnits="userSpaceOnUse" x1="2628.9583" y1="1959.3027" x2="2628.9583" y2="2166.2236" gradientTransform="matrix(1 0 0 -1 0 208)">
	<stop  offset="0" style="stop-color:#FF9656"/>
	<stop  offset="1" style="stop-color:#FFD270"/>
</linearGradient>
<path class="st18" d="M2538-1790.4c0.1-1.2,0.3-2.4,0.5-3.6c1-6.3,3.5-12.1,7.2-17.4c5.7-8.2,13.2-14.4,22.1-18.9
	c7-3.6,14.4-5.8,22.1-6.8c9.3-1.1,18.4-0.4,27.2,2.9c4.4,1.7,8.5,3.9,12.1,6.9c0.1,0.1,0.2,0.2,0.5,0.3c0-0.4,0-0.6,0-0.9
	c0-41.3,0-82.5,0-123.8c0-0.9,0.1-1.8,0.4-2.7c0.7-2.2,2.3-3.4,4.5-3.9c0.1,0,0.3-0.1,0.5-0.2c1,0,1.9,0,2.9,0
	c0.4,0.1,0.8,0.1,1.2,0.2c4.7,0.7,9,2.4,13.2,4.5c5,2.5,9,5.9,12.2,10.4c1.7,2.3,3.3,4.6,5,6.9c4.7,6.7,10.8,11.6,18.6,14.4
	c2.9,1.1,5.9,2,8.8,3.1c5.4,2.1,10.4,4.9,14.7,8.8c3.8,3.5,6.6,7.6,7.8,12.7c0.2,1.1,0.4,2.3,0.6,3.5c0,1.1,0,2.1,0,3.2
	c-0.1,1.1-0.3,2.3-0.5,3.4c-0.2,1.1-0.8,1.7-1.8,1.9c-1,0.3-1.8-0.1-2.4-1.1c-4-6.2-10-9.3-17.1-10.4c-4-0.6-7.9-0.4-11.8,0
	c-6.1,0.6-12.2,0.8-18.3,0.6c-6.4-0.2-12.9-0.8-19.1-2.8c-2.2-0.7-4.3-1.7-6.4-2.6c-0.1-0.1-0.2-0.1-0.5-0.2c0,0.3,0,0.6,0,0.9
	c0,32.8,0,65.5,0,98.3c0,9.8-2.9,18.4-8.7,26.1c-6.8,9.2-15.8,15.6-26.3,19.9c-6.8,2.8-13.9,4.4-21.2,4.7c-0.2,0-0.4,0.1-0.6,0.1
	c-1.8,0-3.8,0-5.6,0c-0.2,0-0.4-0.1-0.6-0.1c-2.8-0.4-5.7-0.5-8.4-1.1c-7.9-1.6-15.1-4.9-21.2-10.3c-5.9-5.2-9.7-11.7-11-19.5
	c-0.2-1.2-0.3-2.5-0.5-3.7C2538-1787.5,2538-1789,2538-1790.4z"/>
<linearGradient id="SVGID_20_" gradientUnits="userSpaceOnUse" x1="2714.9473" y1="1974.6354" x2="2714.9473" y2="2077.3491" gradientTransform="matrix(1 0 0 -1 0 208)">
	<stop  offset="0" style="stop-color:#498CFF"/>
	<stop  offset="1" style="stop-color:#37F8FF"/>
</linearGradient>
<path class="st19" d="M2669.8-1786c0.1-0.6,0.1-1.2,0.3-1.8c0.5-3.2,1.7-6,3.6-8.6c2.8-4.1,6.5-7.2,11-9.4c3.4-1.8,7.1-2.9,10.9-3.3
	c4.6-0.6,9.1-0.2,13.5,1.4c2.2,0.8,4.2,1.9,6,3.4c0.1,0,0.1,0.1,0.2,0.1c0-0.2,0-0.3,0-0.4c0-20.5,0-41,0-61.5c0-0.4,0-0.9,0.2-1.3
	c0.4-1.1,1.2-1.7,2.3-2c0.1,0,0.1-0.1,0.2-0.1c0.5,0,1,0,1.4,0c0.2,0,0.4,0.1,0.6,0.1c2.3,0.3,4.5,1.2,6.6,2.3
	c2.4,1.2,4.5,2.9,6,5.2c0.8,1.1,1.6,2.3,2.5,3.4c2.4,3.3,5.4,5.8,9.2,7.2c1.5,0.6,2.9,1,4.4,1.6c2.7,1.1,5.2,2.4,7.3,4.4
	c1.9,1.8,3.3,3.8,3.9,6.3c0.1,0.6,0.2,1.2,0.3,1.7c0,0.5,0,1.1,0,1.6c-0.1,0.5-0.2,1.1-0.2,1.7c-0.1,0.5-0.4,0.8-0.9,0.9
	c-0.5,0.1-0.9-0.1-1.2-0.5c-2-3.1-4.9-4.6-8.5-5.2c-1.9-0.3-3.9-0.2-5.8,0c-3,0.3-6.1,0.4-9.1,0.3c-3.2-0.1-6.4-0.4-9.5-1.3
	c-1.1-0.4-2.1-0.9-3.2-1.3c-0.1-0.1-0.1-0.1-0.2-0.1c0,0.2,0,0.3,0,0.5c0,16.2,0,32.5,0,48.8c0,4.8-1.5,9.1-4.3,13
	c-3.4,4.6-7.8,7.8-13.1,9.9c-3.4,1.4-6.9,2.2-10.5,2.4c-0.1,0-0.2,0-0.3,0c-0.9,0-1.9,0-2.8,0c-0.1,0-0.2,0-0.3,0
	c-1.4-0.2-2.8-0.3-4.2-0.6c-3.9-0.8-7.5-2.4-10.5-5.1c-2.9-2.6-4.8-5.8-5.5-9.7c-0.1-0.6-0.2-1.2-0.3-1.8
	C2669.8-1784.6,2669.8-1785.3,2669.8-1786z"/>
<linearGradient id="SVGID_21_" gradientUnits="userSpaceOnUse" x1="3029.3186" y1="2366.7449" x2="3029.3186" y2="2573.6145" gradientTransform="matrix(1 0 0 -1 0 208)">
	<stop  offset="0" style="stop-color:#FF9656"/>
	<stop  offset="1" style="stop-color:#FFD270"/>
</linearGradient>
<path class="st20" d="M3132.8-2310.9c0,1.2,0,2.5,0,3.7c-0.2,1.3-0.4,2.7-0.7,4c-2.5,10.5-5,21-7.6,31.4
	c-7.4,30.7-14.9,61.5-22.3,92.2c-3.4,14.3-17.3,23.2-31.6,20.1c-5.7-1.2-11.4-2.7-17.2-4.1c-23.7-5.7-47.5-11.5-71.2-17.2
	c-12.1-3-24.3-5.8-36.3-8.8c-14-3.5-22.6-17.3-19.6-31.4c2.2-10.2,4.9-20.4,7.3-30.6c7.5-31.2,15.1-62.4,22.6-93.5
	c3.5-14.5,17.7-23.3,32.1-19.9c15.6,3.7,31.2,7.5,46.8,11.3c25.6,6.2,51.2,12.3,76.7,18.6c10.4,2.6,17,9.2,19.9,19.5
	C3132.4-2314,3132.5-2312.4,3132.8-2310.9z M3061.2-2225.8c-8.7,0-15.7,7-15.7,15.7c0,8.6,7,15.6,15.7,15.7c8.7,0,15.8-7,15.8-15.7
	C3076.9-2218.7,3069.8-2225.7,3061.2-2225.8z M2997.5-2298.6c8.7,0,15.7-7.1,15.7-15.8c0-8.7-7.1-15.6-15.9-15.6
	c-8.6,0-15.6,7.1-15.6,15.8C2981.8-2305.6,2988.9-2298.6,2997.5-2298.6z M3081.4-2278.3c8.4,0.1,15.6-6.9,15.7-15.4
	c0.1-8.7-6.8-15.9-15.4-16c-8.8-0.1-16,6.7-16.1,15.5C3065.6-2285.4,3072.6-2278.4,3081.4-2278.3z M2977.2-2246
	c-8.5-0.1-15.6,6.9-15.7,15.5c-0.1,8.7,6.9,15.7,15.6,15.8c8.6,0.1,15.7-6.9,15.8-15.6C2993-2238.9,2985.9-2246,2977.2-2246z
	 M3044.4-2259.6c0-8.6-7-15.7-15.7-15.7c-8.6,0-15.7,7.1-15.6,15.7c0,8.7,7,15.8,15.7,15.8
	C3037.3-2243.9,3044.4-2250.9,3044.4-2259.6z"/>
<linearGradient id="SVGID_22_" gradientUnits="userSpaceOnUse" x1="3149.8804" y1="2373.4292" x2="3149.8804" y2="2500.0422" gradientTransform="matrix(1 0 0 -1 0 208)">
	<stop  offset="0" style="stop-color:#498CFF"/>
	<stop  offset="1" style="stop-color:#37F8FF"/>
</linearGradient>
<path class="st21" d="M3086.6-2250.7c0-0.7,0-1.5,0-2.2c0-0.1,0.1-0.2,0.1-0.4c0.9-6.6,4.4-11.1,10.6-13.4
	c5.8-2.1,11.7-4.1,17.5-6.1c17.7-6.1,35.3-12.3,52.9-18.4c2.4-0.9,4.8-1.1,7.3-0.7c6.3,1,10.6,4.5,12.7,10.5
	c7.2,20.4,14.2,40.8,21.3,61.3c1.2,3.4,2.4,6.8,3.5,10.2c0.3,1,0.4,2,0.6,3c0,0.8,0,1.6,0,2.3c0,0.3-0.1,0.6-0.1,0.9
	c-1.1,6.3-4.5,10.7-10.6,12.8c-20.6,7.2-41.1,14.3-61.7,21.5c-3.2,1.1-6.4,2.2-9.7,3.3c-1,0.3-2,0.4-3.1,0.6c-0.7,0-1.3,0-2.1,0
	c-0.6-0.1-1.1-0.1-1.7-0.2c-6-1.2-10.1-4.7-12.1-10.5c-7.2-20.6-14.3-41.1-21.5-61.7c-1.1-3.3-2.3-6.5-3.3-9.8
	C3086.8-2248.6,3086.8-2249.7,3086.6-2250.7z M3126.8-2244.4c0-5.1-4.1-9.2-9.2-9.2c-5.1,0-9.2,4.1-9.2,9.2c0,5.1,4.1,9.3,9.2,9.3
	C3122.7-2235.1,3126.8-2239.3,3126.8-2244.4z M3173-2213.1c0,5.1,4.1,9.2,9.2,9.2c5.1,0,9.2-4.1,9.2-9.2c0-5.1-4.2-9.3-9.3-9.2
	C3177.1-2222.3,3172.9-2218.2,3173-2213.1z M3165.5-2251.8c5.1,0,9.2-4.1,9.2-9.2c0-5.1-4.1-9.2-9.2-9.3c-5.1,0-9.3,4.1-9.3,9.2
	C3156.3-2256,3160.4-2251.8,3165.5-2251.8z M3134.2-2205.7c-5.1,0-9.2,4.1-9.2,9.2c0,5.1,4.1,9.2,9.2,9.3c5.1,0,9.2-4.1,9.2-9.2
	C3143.4-2201.5,3139.3-2205.7,3134.2-2205.7z"/>
<g>
	
		<linearGradient id="SVGID_23_" gradientUnits="userSpaceOnUse" x1="3584.7412" y1="2890.8921" x2="3584.7412" y2="2970.2231" gradientTransform="matrix(1 0 0 -1 0 208)">
		<stop  offset="0" style="stop-color:#498CFF"/>
		<stop  offset="1" style="stop-color:#37F8FF"/>
	</linearGradient>
	<path class="st22" d="M3624.4-2755.8c-4.4-4.2-10.4-6.4-18.1-6.4c-2.1,0-4.3,0.4-6.5,1.1c-2.2,0.7-4.3,1.7-6.2,3
		c-1.9,1.3-3.5,2.5-4.9,3.5c-1.3,1.1-2.7,2.3-3.9,3.5c-1.2-1.3-2.5-2.4-3.9-3.5c-1.4-1.1-3.1-2.3-5-3.5c-1.9-1.3-4-2.2-6.2-3
		c-2.2-0.7-4.4-1.1-6.6-1.1c-7.7,0-13.7,2.2-18.1,6.4c-4.4,4.3-6.6,10.2-6.6,17.8c0,2.3,0.4,4.7,1.2,7.1c0.8,2.4,1.8,4.5,2.8,6.3
		c1,1.8,2.2,3.4,3.5,5c1.3,1.6,2.3,2.8,2.9,3.4c0.6,0.6,1,1.1,1.4,1.3l32.2,31.1c0.6,0.7,1.4,1,2.3,1c0.9,0,1.6-0.3,2.3-1l32.1-31
		c7.9-7.9,11.8-15.6,11.8-23.2C3631-2745.6,3628.8-2751.5,3624.4-2755.8z"/>
</g>
<g>
	
		<linearGradient id="SVGID_24_" gradientUnits="userSpaceOnUse" x1="3503.7122" y1="2763.707" x2="3503.7122" y2="2970.2229" gradientTransform="matrix(1 0 0 -1 0 208)">
		<stop  offset="0" style="stop-color:#FF9656"/>
		<stop  offset="1" style="stop-color:#FFD270"/>
	</linearGradient>
	<path class="st23" d="M3464.8-2762.2c7.6,1.7,10.4,7.4,11.6,14.3c0.7,3.6,0.4,7.3-0.5,10.9c-1.7,6.7-2.1,13.4-1.6,20.3
		c1.3,19.1,6.7,37.2,15,54.4c1,1.9,2.1,3.9,3.3,5.7c0.7,1,1.6,1.8,2.6,2.4c1.6,1,3.2,0.9,4.4-0.1c1.2-1.2,1.4-3,0.6-4.7
		c-1.5-3-3.1-6-4.4-9.2c-5.2-12.1-9.6-24.5-12.4-37.4c-0.7-3.5-1.1-7.1-1.2-10.7c-0.1-8.5,9.2-13.2,16.3-9c2.4,1.4,4.1,3.6,5.6,5.9
		c2.8,4.5,4.5,9.4,6.3,14.4c2.3,6.1,4.5,12.2,7.1,18.2c2.4,5.7,6.2,10.5,10.3,15.1c7.9,9,15.6,18.1,22.2,28.1
		c5.6,8.6,9.8,17.6,11.7,27.8c1,5.6,1.6,11.3,1.7,17c0.2,12.1,0.2,24.2,0.3,36.3c0,4-1.7,6-5.7,6.7c-0.2,0-0.4,0.1-0.6,0.2
		c-11.3,0-22.6,0-34,0c-2.4-0.5-4-1.9-4.5-4.3c-0.2-0.5-0.2-1.1-0.3-1.6c-0.5-4.5-0.9-9-1.5-13.5c-0.4-3.6-1.2-7.2-2.6-10.6
		c-0.7-1.6-1.8-2.9-3.3-3.9c-15.1-9.6-28.7-21-40.3-34.7c-10.9-12.8-18.7-27.1-22.5-43.5c-2.4-10.3-3.8-20.8-4.1-31.3
		c-0.5-13.9,0.4-27.7,3.4-41.3c1.2-5.1,2.7-10.1,5.2-14.8c1.8-3.1,4.2-5.3,7.7-6.3c0.7-0.2,1.4-0.4,2.1-0.6
		C3463.2-2762.2,3464-2762.2,3464.8-2762.2z"/>
	
		<linearGradient id="SVGID_25_" gradientUnits="userSpaceOnUse" x1="3665.7651" y1="2763.708" x2="3665.7651" y2="2970.2256" gradientTransform="matrix(1 0 0 -1 0 208)">
		<stop  offset="0" style="stop-color:#FF9656"/>
		<stop  offset="1" style="stop-color:#FFD270"/>
	</linearGradient>
	<path class="st24" d="M3612.3-2555.7c-0.6-0.1-1.2-0.3-1.7-0.4c-3-0.8-4.5-2.7-4.6-5.8c0-5.1,0-10.2,0-15.2c0-7.3,0-14.6,0.3-21.8
		c0.3-10.9,1.8-21.5,6.3-31.5c3.5-8,8.2-15.3,13.6-22.1c5.4-6.9,11-13.6,16.7-20.2c5-5.7,8.9-12.1,11.6-19.2
		c2.5-6.4,4.6-12.9,7.2-19.3c1.3-3.3,3-6.5,4.9-9.5c2.1-3.3,5-5.5,9-6.1c6-0.9,11.6,3.7,11.9,9.8c0.3,5.4-0.8,10.5-2.1,15.6
		c-3.6,14.1-8.4,27.8-15,40.9c-0.3,0.6-0.7,1.2-1,1.8c-0.7,1.5-0.5,3.3,0.6,4.4c1,1.1,2.5,1.2,4.1,0.3c1.5-0.7,2.7-1.9,3.5-3.4
		c2.2-4.4,4.6-8.7,6.5-13.1c4.7-11.2,8-22.7,10-34.6c1.3-8.2,1.9-16.5,0.9-24.8c-0.4-3.1-1.2-6-1.7-9c-0.8-4.4-0.6-8.8,0.9-13
		c1.8-5.1,4.9-9,10.6-10.1c0.7,0,1.5,0,2.3,0c0.1,0.1,0.3,0.1,0.5,0.2c3.8,0.7,6.9,2.4,8.7,5.9c1.5,2.8,2.9,5.7,3.9,8.7
		c3.4,10.2,4.6,20.8,5.2,31.5c0.7,13.6-0.1,27.1-2.4,40.6c-3.2,18.2-10.4,34.4-22.1,48.7c-12.1,14.7-26.4,26.9-42.4,37.1
		c-1.3,0.8-2.4,1.9-2.9,3.3c-0.8,2.5-1.8,5-2.2,7.6c-0.9,5.6-1.5,11.2-2.1,16.8c-0.3,3.1-1.4,5.5-4.9,6.2
		C3634.9-2555.7,3623.6-2555.7,3612.3-2555.7z"/>
</g>
<linearGradient id="SVGID_26_" gradientUnits="userSpaceOnUse" x1="4023.8752" y1="3222.9438" x2="4023.8752" y2="3377.2549" gradientTransform="matrix(1 0 0 -1 0 208)">
	<stop  offset="0" style="stop-color:#FF9656"/>
	<stop  offset="1" style="stop-color:#FFD270"/>
</linearGradient>
<path class="st25" d="M4027-3169.3c1.4,0.1,2.8,0.3,4.2,0.4c9.4,1.1,18.2,4,26.2,9c15,9.3,24.6,22.6,28.8,39.8
	c1.4,5.8,2,11.7,1.5,17.6c0,0.8,0.1,1.7,0.1,2.5c-0.1,6.6-1.6,12.8-4,18.9c-3.2,8.2-7.7,15.6-12.9,22.7
	c-6.4,8.8-13.8,16.7-21.7,24.2c-6.5,6.2-13.2,12-20.4,17.4c-3.2,2.4-7.1,2.4-10.2,0c-15.9-12.6-30.4-26.6-42.4-42.9
	c-5.4-7.4-10.1-15.2-13.2-23.8c-1.8-5.1-3.1-10.4-3.2-15.8c-0.1-6.3-0.1-12.7,1.2-19c3.1-14.3,10.1-26.3,21.3-35.7
	c8.7-7.5,18.9-12.2,30.2-14.3c2.4-0.4,4.8-0.6,7.3-0.9c0.3,0,0.5-0.1,0.8-0.1C4022.8-3169.3,4024.9-3169.3,4027-3169.3z
	 M4023.8-3080.8c13.7,0,24.7-11,24.7-24.7c0-13.6-11-24.5-24.7-24.5c-13.5,0-24.6,11.1-24.6,24.5
	C3999.3-3091.8,4010.3-3080.8,4023.8-3080.8z"/>
<linearGradient id="SVGID_27_" gradientUnits="userSpaceOnUse" x1="3947.0591" y1="3171.6011" x2="3947.0591" y2="3254.7271" gradientTransform="matrix(1 0 0 -1 0 208)">
	<stop  offset="0" style="stop-color:#498CFF"/>
	<stop  offset="1" style="stop-color:#37F8FF"/>
</linearGradient>
<path class="st26" d="M3921.4-2963.9c0.4-1,0.7-1.9,1.1-2.9c8.1-24.4,16.2-48.8,24.3-73.2c0.1-0.4,0.4-0.8,0.8-1
	c2.8-1.9,5.6-3.8,8.4-5.7c0.2,0.2,0.4,0.4,0.6,0.6c5.2,5.2,10.3,10.4,15.5,15.5c0.4,0.4,0.6,0.8,0.6,1.3c0,13.1,0,26.1,0,39.2
	c0,0.6-0.2,0.9-0.7,1.2c-16.5,8.3-33.1,16.6-49.6,24.9c-0.3,0.2-0.5,0.3-0.8,0.5C3921.5-2963.7,3921.5-2963.8,3921.4-2963.9z"/>
<linearGradient id="SVGID_28_" gradientUnits="userSpaceOnUse" x1="4100.6875" y1="3171.6001" x2="4100.6875" y2="3254.7561" gradientTransform="matrix(1 0 0 -1 0 208)">
	<stop  offset="0" style="stop-color:#498CFF"/>
	<stop  offset="1" style="stop-color:#37F8FF"/>
</linearGradient>
<path class="st27" d="M4126.2-2963.6c-0.2-0.1-0.5-0.3-0.7-0.4c-16.5-8.3-33-16.6-49.5-24.8c-0.7-0.3-0.9-0.7-0.9-1.5
	c0-13,0-26,0-38.9c0-0.5,0.2-0.9,0.6-1.3c5.2-5.2,10.3-10.4,15.5-15.5c0.2-0.2,0.3-0.4,0.5-0.6c0.3,0.2,0.5,0.3,0.7,0.5
	c2.6,1.7,5.1,3.4,7.7,5.2c0.4,0.3,0.7,0.7,0.8,1.1c8.4,25.1,16.8,50.3,25.1,75.4c0.1,0.2,0.2,0.4,0.3,0.7
	C4126.2-2963.8,4126.2-2963.7,4126.2-2963.6z"/>
<linearGradient id="SVGID_29_" gradientUnits="userSpaceOnUse" x1="4023.873" y1="3171.5999" x2="4023.873" y2="3225.156" gradientTransform="matrix(1 0 0 -1 0 208)">
	<stop  offset="0" style="stop-color:#498CFF"/>
	<stop  offset="1" style="stop-color:#37F8FF"/>
</linearGradient>
<path class="st28" d="M4023.6-2963.6c-0.2-0.2-0.5-0.3-0.8-0.5c-12.2-6.1-24.5-12.3-36.7-18.4c-0.4-0.2-0.7-0.3-0.7-0.9
	c0-11,0-22.1,0-33.2c0-0.1,0-0.2,0-0.5c0.3,0.3,0.5,0.5,0.7,0.7c6.5,6.5,13,13.1,19.6,19.7c4.2,4.1,9.1,6.7,15,7.3
	c8.2,0.9,15.3-1.5,21.2-7.3c6.6-6.5,13.1-13.1,19.6-19.7c0.2-0.2,0.3-0.4,0.5-0.7c0.1,0.1,0.1,0.1,0.2,0.1c0,0.2,0,0.4,0,0.7
	c0,10.9,0,21.8,0,32.8c0,0.6-0.2,0.8-0.7,1.1c-12.2,6.1-24.5,12.3-36.7,18.4c-0.3,0.2-0.5,0.3-0.7,0.5
	C4023.9-2963.6,4023.8-2963.6,4023.6-2963.6z"/>
<linearGradient id="SVGID_30_" gradientUnits="userSpaceOnUse" x1="4414.4097" y1="3664.3674" x2="4414.4097" y2="3752.6279" gradientTransform="matrix(1 0 0 -1 0 208)">
	<stop  offset="0" style="stop-color:#FF9656"/>
	<stop  offset="1" style="stop-color:#FFD270"/>
</linearGradient>
<path class="st29" d="M4296.3-3483.5c0-10.6,0-21.2,0-31.8c0.3-0.2,0.5-0.4,0.8-0.7c9.3-9.3,18.7-18.6,28-27.9
	c0.5-0.5,0.9-0.7,1.6-0.7c58.4,0,116.8,0,175.3,0c0.7,0,1.1,0.2,1.6,0.6c9.4,9.4,18.8,18.7,28.2,28.1c0.2,0.2,0.5,0.4,0.7,0.6
	c0,10.6,0,21.1,0,31.7c-0.1,0.9-0.2,1.8-0.4,2.6c-2.7,15.6-16.9,26.3-32.5,24.4c-12.7-1.5-22.8-10.6-25.5-23.1
	c-0.3-1.2-0.4-2.4-0.6-3.7c-0.8,7.2-3.6,13.4-8.7,18.4c-5.1,5.1-11.4,8-18.6,8.5c-6.8,0.5-13.1-1.1-18.8-5c-7.7-5.3-11.9-12.7-13-22
	c-0.7,7.1-3.5,13.2-8.5,18.2c-5,5.1-11.1,8-18.2,8.6c-8.1,0.7-15.5-1.4-21.8-6.7c-6.3-5.2-9.7-12-10.6-20.2c-0.2,1-0.3,2-0.5,2.9
	c-2.7,15.4-17.7,26.3-33.2,23.8c-12.5-2-20.7-9.4-24.3-21.5C4296.8-3480,4296.7-3481.8,4296.3-3483.5z"/>
<path class="st30" d="M4532.5-3515.3c-0.2-0.2-0.5-0.4-0.7-0.6c-9.4-9.3-18.8-18.7-28.2-28.1c-0.5-0.5-0.9-0.6-1.6-0.6
	c-58.4,0-116.8,0-175.3,0c-0.7,0-1.1,0.2-1.6,0.7c-9.4,9.3-18.7,18.6-28,27.9c-0.3,0.2-0.5,0.4-0.8,0.7c0-19.6,0-39.2,0-58.9
	c78.7,0,157.4,0,236.2,0C4532.5-3554.6,4532.5-3535,4532.5-3515.3z M4325.9-3552c59,0,118,0,177,0c0-7.3,0-14.6,0-22
	c-59,0-118,0-177,0C4325.9-3566.6,4325.9-3559.4,4325.9-3552z"/>
<linearGradient id="SVGID_31_" gradientUnits="userSpaceOnUse" x1="4414.3896" y1="3576.231" x2="4414.3896" y2="3646.4177" gradientTransform="matrix(1 0 0 -1 0 208)">
	<stop  offset="0" style="stop-color:#FF9656"/>
	<stop  offset="1" style="stop-color:#FFD270"/>
</linearGradient>
<path class="st31" d="M4311.1-3368.2c0-23.4,0-46.7,0-70.1c4.6,2.6,9.5,4,14.7,4c5.2,0,10.1-1.4,14.7-4.1c0,16.1,0,32.1,0,48.1
	c49.2,0,98.4,0,147.6,0c0-16,0-32,0-48.1c4.7,2.6,9.6,4.1,14.8,4.1c5.2,0,10.1-1.4,14.7-4c0,23.4,0,46.8,0,70.1
	C4448.8-3368.2,4380-3368.2,4311.1-3368.2z"/>
<linearGradient id="SVGID_32_" gradientUnits="userSpaceOnUse" x1="4414.3999" y1="3760.0349" x2="4414.3999" y2="3781.9958" gradientTransform="matrix(1 0 0 -1 0 208)">
	<stop  offset="0" style="stop-color:#498CFF"/>
	<stop  offset="1" style="stop-color:#37F8FF"/>
</linearGradient>
<path class="st32" d="M4325.9-3552c0-7.3,0-14.6,0-22c59,0,118,0,177,0c0,7.3,0,14.6,0,22C4443.9-3552,4384.9-3552,4325.9-3552z"/>
<linearGradient id="SVGID_33_" gradientUnits="userSpaceOnUse" x1="4856.001" y1="3968.012" x2="4856.001" y2="4173.8721" gradientTransform="matrix(1 0 0 -1 0 208)">
	<stop  offset="0" style="stop-color:#498CFF"/>
	<stop  offset="1" style="stop-color:#37F8FF"/>
</linearGradient>
<path class="st33" d="M4958.9-3862.9c0,56.9-46.1,102.9-102.9,102.9c-56.8,0-102.9-46.1-102.9-102.9c0-56.9,46.1-102.9,102.9-102.9
	C4912.9-3965.9,4958.9-3919.8,4958.9-3862.9z"/>
<g>
	<g>
		
			<linearGradient id="SVGID_34_" gradientUnits="userSpaceOnUse" x1="4902.2808" y1="3971.0142" x2="4902.2808" y2="4153.1094" gradientTransform="matrix(1 0 0 -1 0 208)">
			<stop  offset="0" style="stop-color:#FF9656"/>
			<stop  offset="1" style="stop-color:#FFD270"/>
		</linearGradient>
		<path class="st34" d="M4941.5-3920.2l-3.1,1l-16.4,1.4l-4.6,7.4l-3.4-1.1l-13-11.8l-1.9-6.1l-2.5-6.5l-8.2-7.4l-9.7-1.9l-0.2,4.4
			l9.5,9.3l4.6,5.5l-5.2,2.7l-4.2-1.3l-6.4-2.7l0.2-5.1l-8.3-3.4l-2.8,12.1l-8.4,1.9l0.9,6.7l11,2.1l1.9-10.8l9.1,1.3l4.2,2.5h6.8
			l4.6,9.2l12.3,12.4l-0.9,4.9l-9.9-1.3l-17.1,8.6l-12.3,14.7l-1.6,6.6h-4.4l-8.2-3.8l-8,3.8l2,8.4l3.5-4l6.1-0.2l-0.4,7.5l5.1,1.5
			l5,5.7l8.3-2.3l9.4,1.5l11,3l5.5,0.6l9.3,10.5l17.9,10.5l-11.6,22.1l-12.2,5.7l-4.7,12.7l-17.7,11.8l-1.9,6.8
			c45.2-10.9,78.7-51.4,78.7-99.9C4958.9-3884.1,4952.5-3903.8,4941.5-3920.2z"/>
		
			<linearGradient id="SVGID_35_" gradientUnits="userSpaceOnUse" x1="4812.8208" y1="3968.0132" x2="4812.8208" y2="4124.52" gradientTransform="matrix(1 0 0 -1 0 208)">
			<stop  offset="0" style="stop-color:#FF9656"/>
			<stop  offset="1" style="stop-color:#FFD270"/>
		</linearGradient>
		<path class="st35" d="M4867.8-3809.1l-7.5-13.9l6.8-14.3l-6.8-2.1l-7.8-7.8l-17.1-3.8l-5.6-11.9v7.1h-2.5l-14.7-20v-16.4
			l-10.8-17.6l-17.2,3.1H4773l-5.8-3.8l7.4-5.9l-7.4,1.7c-8.9,15.3-14.1,33-14.1,51.9c0,56.8,46.1,102.9,102.9,102.9
			c4.4,0,8.7-0.4,12.9-0.9l-1.1-12.4c0,0,4.7-18.5,4.7-19.1C4872.6-3793.1,4867.8-3809.1,4867.8-3809.1z"/>
		
			<linearGradient id="SVGID_36_" gradientUnits="userSpaceOnUse" x1="4838.2153" y1="4136.4297" x2="4838.2153" y2="4173.8701" gradientTransform="matrix(1 0 0 -1 0 208)">
			<stop  offset="0" style="stop-color:#FF9656"/>
			<stop  offset="1" style="stop-color:#FFD270"/>
		</linearGradient>
		<path class="st36" d="M4791.4-3932.7l18.3-2.6l8.4-4.6l9.5,2.7l15.2-0.8l5.2-8.2l7.5,1.3l18.4-1.7l5.1-5.6l7.1-4.8l10.1,1.5
			l3.7-0.6c-13.3-6.2-28.1-9.9-43.8-9.9c-31.9,0-60.5,14.6-79.4,37.4h0.1L4791.4-3932.7z M4860.4-3955.6l10.5-5.8l6.7,3.9l-9.8,7.4
			l-9.3,0.9l-4.2-2.7L4860.4-3955.6z M4829.2-3954.8l4.6,1.9l6.1-1.9l3.3,5.8l-14,3.7l-6.7-4
			C4822.5-3949.3,4829.1-3953.6,4829.2-3954.8z"/>
	</g>
</g>
<linearGradient id="SVGID_37_" gradientUnits="userSpaceOnUse" x1="5181.8931" y1="4405.5889" x2="5181.8931" y2="4426.2388" gradientTransform="matrix(1 0 0 -1 0 208)">
	<stop  offset="0" style="stop-color:#498CFF"/>
	<stop  offset="1" style="stop-color:#37F8FF"/>
</linearGradient>
<rect x="5171.6" y="-4218.2" class="st37" width="20.6" height="20.6"/>
<linearGradient id="SVGID_38_" gradientUnits="userSpaceOnUse" x1="5181.8936" y1="4436.564" x2="5181.8936" y2="4529.4888" gradientTransform="matrix(1 0 0 -1 0 208)">
	<stop  offset="0" style="stop-color:#498CFF"/>
	<stop  offset="1" style="stop-color:#37F8FF"/>
</linearGradient>
<path class="st38" d="M5181.9-4321.5c-22.8,0-41.3,18.5-41.3,41.3h20.6c0-11.4,9.3-20.7,20.6-20.7s20.6,9.3,20.6,20.7
	c0,20.6-31,18.1-31,51.6h20.6c0-23.2,31-25.8,31-51.6C5223.2-4303,5204.7-4321.5,5181.9-4321.5z"/>
<linearGradient id="SVGID_39_" gradientUnits="userSpaceOnUse" x1="5181.894" y1="4364.2891" x2="5181.894" y2="4570.7891" gradientTransform="matrix(1 0 0 -1 0 208)">
	<stop  offset="0" style="stop-color:#FF9656"/>
	<stop  offset="1" style="stop-color:#FFD270"/>
</linearGradient>
<path class="st39" d="M5181.9-4362.8c-57,0-103.2,46.3-103.2,103.2c0,57,46.3,103.2,103.2,103.2c57,0,103.2-46.3,103.2-103.2
	C5285.1-4316.5,5238.9-4362.8,5181.9-4362.8z M5181.9-4176.9c-45.5,0-82.6-37.1-82.6-82.6c0-45.5,37.1-82.6,82.6-82.6
	s82.6,37.1,82.6,82.6C5264.5-4214,5227.4-4176.9,5181.9-4176.9z"/>
<linearGradient id="SVGID_40_" gradientUnits="userSpaceOnUse" x1="107.4321" y1="206.832" x2="107.4321" y2="-9.094947e-13">
	<stop  offset="0" style="stop-color:#FF9656"/>
	<stop  offset="1" style="stop-color:#FFD270"/>
</linearGradient>
<path class="st40" d="M175.2,161.3l-35.9-18c-3.4-1.7-5.5-5.1-5.5-8.9v-12.7c0.9-1.1,1.8-2.3,2.7-3.6c4.7-6.6,8.4-13.9,11.1-21.8
	c5.3-2.4,8.8-7.7,8.8-13.6v-15c0-3.6-1.4-7.1-3.8-9.9v-20c0.2-2.1,1-14.4-7.9-24.5C137,4.5,124.4,0,107.4,0S77.9,4.5,70.2,13.3
	c-8.9,10.2-8.1,22.5-7.9,24.5v20c-2.4,2.7-3.8,6.3-3.8,9.9v15c0,4.6,2.1,8.8,5.6,11.7c3.4,13.6,10.7,23.9,13.2,27.2v12.4
	c0,3.6-2,7-5.2,8.7l-33.5,18.3c-10.9,6-17.7,17.4-17.7,29.8v15.9h173v-15.2C193.9,178.7,186.7,167.1,175.2,161.3z"/>
</svg>
