<svg xmlns="http://www.w3.org/2000/svg" xmlns:xlink="http://www.w3.org/1999/xlink" viewBox="0 0 471.86 337.77"><defs><style>.cls-1{fill:url(#linear-gradient);}.cls-2{fill:url(#linear-gradient-2);}.cls-3{fill:url(#linear-gradient-3);}.cls-4{fill:url(#linear-gradient-4);}.cls-5{fill:url(#linear-gradient-5);}</style><linearGradient id="linear-gradient" x1="235.93" y1="337.77" x2="235.93" gradientUnits="userSpaceOnUse"><stop offset="0" stop-color="#ff9656"/><stop offset="1" stop-color="#ffd270"/></linearGradient><linearGradient id="linear-gradient-2" x1="235.91" y1="133" x2="235.91" y2="73.89" xlink:href="#linear-gradient"/><linearGradient id="linear-gradient-3" x1="365.21" y1="274.44" x2="365.21" y2="204.77" gradientUnits="userSpaceOnUse"><stop offset="0" stop-color="#498cff"/><stop offset="1" stop-color="#37f8ff"/></linearGradient><linearGradient id="linear-gradient-4" x1="319.03" y1="274.5" x2="319.03" y2="204.83" gradientTransform="translate(-0.18 -0.17) rotate(0.02)" xlink:href="#linear-gradient-3"/><linearGradient id="linear-gradient-5" x1="127.19" y1="183.66" x2="127.19" y2="173.11" xlink:href="#linear-gradient"/></defs><title>credit-card</title><g id="Capa_2" data-name="Capa 2"><g id="Layer_1" data-name="Layer 1"><path class="cls-1" d="M425.38,337.77H47.5A47.3,47.3,0,0,1,0,290.27V47.5A47.3,47.3,0,0,1,47.5,0H424.32a47.3,47.3,0,0,1,47.5,47.5V291.33C472.88,316.66,451.77,337.77,425.38,337.77ZM47.5,31.67A16.23,16.23,0,0,0,31.67,47.5V291.33A16.23,16.23,0,0,0,47.5,307.16H424.32a16.23,16.23,0,0,0,15.83-15.83V47.5a16.23,16.23,0,0,0-15.83-15.83Z"/><rect class="cls-2" x="15.83" y="73.89" width="440.16" height="59.11"/><circle class="cls-3" cx="365.21" cy="239.61" r="34.83"/><circle class="cls-4" cx="318.77" cy="239.61" r="34.83"/><path class="cls-5" d="M178.38,183.66H76a5.28,5.28,0,0,1,0-10.56H178.38a5,5,0,0,1,5.28,5.28C183.66,180.5,181.55,183.66,178.38,183.66Z"/></g></g></svg>