<svg xmlns="http://www.w3.org/2000/svg" viewBox="0 0 118.48 63.96"><defs><style>.cls-1{fill:#c2c2c2;}.cls-2{fill:#de6818;}.cls-3{fill:#fff;}</style></defs><title>discount</title><g id="Capa_2" data-name="Capa 2"><g id="Capa_1-2" data-name="Capa 1"><rect class="cls-1" x="41.44" y="57.5" width="14.5" height="3.33"/><path class="cls-1" d="M.12,54.55a.49.49,0,0,0-.11.4c0,.09,1.47,9,12.75,9H84.63c11.28,0,12.74-8.93,12.75-9a.5.5,0,0,0-.11-.4.5.5,0,0,0-.37-.17H.49A.49.49,0,0,0,.12,54.55Zm41.32,3h14.5v3.33H41.44Z"/><path class="cls-1" d="M75.35,43.91H15.51V7H81.88V8.54a24.88,24.88,0,0,1,7-3.22V2a2,2,0,0,0-2-2H10.51a2,2,0,0,0-2,2V48.91a2,2,0,0,0,2,2H83A25.12,25.12,0,0,1,75.35,43.91Z"/><path class="cls-2" d="M118.48,29.38A22.06,22.06,0,1,0,96.41,51.44,22.06,22.06,0,0,0,118.48,29.38Z"/><rect class="cls-3" x="93.09" y="12.29" width="6.64" height="22.15" rx="2.88" ry="2.88"/><circle class="cls-3" cx="96.41" cy="39.66" r="3.28"/></g></g></svg>