<?xml version="1.0" encoding="UTF-8" standalone="no"?>
<svg width="58px" height="37px" viewBox="0 0 58 37" version="1.1" xmlns="http://www.w3.org/2000/svg" xmlns:xlink="http://www.w3.org/1999/xlink" xmlns:sketch="http://www.bohemiancoding.com/sketch/ns">
    <title>logo@2x</title>
    <description>Created with Sketch (http://www.bohemiancoding.com/sketch)</description>
    <defs></defs>
    <g id="Page-1" stroke="none" stroke-width="1" fill="none" fill-rule="evenodd" sketch:type="MSPage">
        <g id="logo-ttf" sketch:type="MSLayerGroup" fill="#FFFFFF">
            <g id="Layer_1" sketch:type="MSShapeGroup">
                <g id="Group">
                    <path d="M57.917,15.175 L57.917,6.922 C57.917,3.1 54.817,0 50.995,0 L7.068,0 C3.245,0 0.146,3.1 0.146,6.922 L0.146,15.178 C0.19,15.177 0.235,15.175 0.279,15.175 C2.191,15.175 3.74,16.725 3.74,18.636 C3.74,20.547 2.191,22.097 0.279,22.097 C0.235,22.097 0.19,22.095 0.146,22.093 L0.146,29.551 C0.146,33.374 3.245,36.473 7.068,36.473 L50.995,36.473 C54.818,36.473 57.917,33.374 57.917,29.551 L57.917,22.097 C56.005,22.097 54.456,20.547 54.456,18.636 C54.456,16.725 56.005,15.175 57.917,15.175 L57.917,15.175 Z M22.173,11.559 C25.322,14.729 27.057,19.875 27.057,19.875 C27.057,19.875 18.507,16.805 15.741,13.652 C13.05,10.588 12.392,6.255 12.392,6.255 C12.392,6.255 19.112,8.479 22.173,11.559 L22.173,11.559 Z M21.848,25.805 C18.856,27.251 13.276,27.09 13.276,27.09 C13.276,27.09 14.729,24.061 17.461,22.514 C20.268,20.925 27.399,20.99 27.399,20.99 C27.399,20.99 24.922,24.319 21.848,25.805 L21.848,25.805 Z M34.403,27.001 C31.035,24.865 28.451,21.064 28.451,21.064 C28.451,21.064 36.218,22.063 39.548,24.27 C42.977,26.543 44.876,30.349 44.876,30.349 C44.876,30.349 37.869,29.2 34.403,27.001 L34.403,27.001 Z M41.699,14.632 C38.319,17.851 28.817,20.127 28.817,20.127 C28.817,20.127 30.624,15.033 34.051,11.922 C37.585,8.715 46.07,6.299 46.07,6.299 C46.07,6.299 45.188,11.309 41.699,14.632 L41.699,14.632 Z" id="Shape"></path>
                </g>
            </g>
        </g>
    </g>
</svg>