<svg xmlns="http://www.w3.org/2000/svg" xmlns:xlink="http://www.w3.org/1999/xlink" viewBox="0 0 236.16 205.77"><defs><style>.cls-1{fill:url(#linear-gradient)}.cls-2{fill:#fff}.cls-3{fill:url(#linear-gradient-2)}.cls-4{fill:url(#linear-gradient-3)}</style><linearGradient id="linear-gradient" x1="315.58" y1="123.67" x2="315.58" y2="35.41" gradientTransform="translate(-197.5 -6.04)" gradientUnits="userSpaceOnUse"><stop offset="0" stop-color="#ff9656"/><stop offset="1" stop-color="#ffd270"/></linearGradient><linearGradient id="linear-gradient-2" x1="315.56" y1="211.8" x2="315.56" y2="141.62" xlink:href="#linear-gradient"/><linearGradient id="linear-gradient-3" x1="315.57" y1="28" x2="315.57" y2="6.04" gradientTransform="translate(-197.5 -6.04)" gradientUnits="userSpaceOnUse"><stop offset="0" stop-color="#498cff"/><stop offset="1" stop-color="#37f8ff"/></linearGradient></defs><title>Asset 1</title><g id="Layer_2" data-name="Layer 2"><g id="Layer_1-2" data-name="Layer 1"><path class="cls-1" d="M0 90.51V58.67c.26-.23.52-.42.78-.67q14-13.94 28-27.92a2 2 0 0 1 1.62-.71h175.27a2.07 2.07 0 0 1 1.59.64l28.16 28.06a6.35 6.35 0 0 0 .7.6v31.66c-.12.88-.25 1.77-.39 2.63a29.53 29.53 0 0 1-58 1.28c-.28-1.2-.43-2.43-.64-3.67a29.57 29.57 0 0 1-8.67 18.43 29.6 29.6 0 0 1-37.34 3.53c-7.71-5.29-11.94-12.68-13-22a29.41 29.41 0 0 1-8.48 18.25 29.57 29.57 0 0 1-39.94 1.93A29.43 29.43 0 0 1 59 90.57c-.19 1-.31 2-.49 2.93-2.7 15.38-17.73 26.28-33.19 23.76C12.84 115.22 4.69 107.9 1 95.73c-.49-1.73-.66-3.5-1-5.22z"/><path class="cls-2" d="M29.56 22.16h177V.19h-177v21.97z"/><path class="cls-3" d="M14.82 205.77v-70.14a29.45 29.45 0 0 0 14.69 4 29.29 29.29 0 0 0 14.73-4.06v48.12h147.61v-48.11a29.63 29.63 0 0 0 14.78 4.08 29.24 29.24 0 0 0 14.67-4v70.14z"/><path class="cls-4" d="M29.56 22V0h177v22z"/></g></g></svg>