<svg xmlns="http://www.w3.org/2000/svg" xmlns:xlink="http://www.w3.org/1999/xlink" viewBox="0 0 258.08 276.34"><defs><style>.cls-1{fill:url(#linear-gradient);}.cls-2{fill:url(#linear-gradient-2);}.cls-3{fill:url(#linear-gradient-3);}.cls-4{fill:url(#linear-gradient-4);}</style><linearGradient id="linear-gradient" x1="129.04" y1="276.34" x2="129.04" y2="18.26" gradientUnits="userSpaceOnUse"><stop offset="0" stop-color="#ff9656"/><stop offset="1" stop-color="#ffd270"/></linearGradient><linearGradient id="linear-gradient-2" x1="67.26" y1="54.01" x2="67.26" y2="0" xlink:href="#linear-gradient"/><linearGradient id="linear-gradient-3" x1="190.01" y1="54.02" x2="190.01" y2="0" xlink:href="#linear-gradient"/><linearGradient id="linear-gradient-4" x1="66.37" y1="165" x2="66.37" y2="126" gradientUnits="userSpaceOnUse"><stop offset="0" stop-color="#498cff"/><stop offset="1" stop-color="#37f8ff"/></linearGradient></defs><title>cal</title><g id="Capa_2" data-name="Capa 2"><g id="Layer_1" data-name="Layer 1"><path class="cls-1" d="M258.08,99.84V58.07c0-21.57-19-39.14-42.69-39.75h0v9.55h0V43a25.38,25.38,0,1,1-50.77,0V18.26h-72V43a25.39,25.39,0,1,1-50.77,0v-15h0V18.37h0C18.61,19.34,0,36.76,0,58.07V232.41a44,44,0,0,0,43.93,43.93H214.15a44,44,0,0,0,43.93-43.93V99.84ZM239,232.41a24.84,24.84,0,0,1-24.81,24.81H43.93a24.84,24.84,0,0,1-24.81-24.81V99.84H239Z"/><path class="cls-2" d="M56.21,11V43a11,11,0,0,0,22.1,0V11a11,11,0,1,0-22.1,0Z"/><path class="cls-3" d="M190,0a11,11,0,0,0-11.05,11V43a11.05,11.05,0,0,0,22.1,0V11A11.06,11.06,0,0,0,190,0Z"/><rect class="cls-4" x="46.87" y="126" width="39" height="39" rx="12" ry="12"/></g></g></svg>