<svg xmlns="http://www.w3.org/2000/svg" xmlns:xlink="http://www.w3.org/1999/xlink" viewBox="0 0 471.8 292.2"><defs><style>.cls-1{fill:url(#linear-gradient);}.cls-2{fill:url(#linear-gradient-2);}.cls-3{fill:url(#linear-gradient-3);}.cls-4{fill:url(#linear-gradient-4);}</style><linearGradient id="linear-gradient" x1="105.6" y1="170.9" x2="105.6" y2="121.3" gradientUnits="userSpaceOnUse"><stop offset="0" stop-color="#ff9656"/><stop offset="1" stop-color="#ffd270"/></linearGradient><linearGradient id="linear-gradient-2" x1="235.9" y1="235.7" x2="235.9" y2="56.5" xlink:href="#linear-gradient"/><linearGradient id="linear-gradient-3" x1="235.9" y1="292.2" x2="235.9" y2="0" xlink:href="#linear-gradient"/><linearGradient id="linear-gradient-4" x1="366.2" y1="170.9" x2="366.2" y2="121.3" xlink:href="#linear-gradient"/></defs><title>cash_money</title><g id="Capa_2" data-name="Capa 2"><g id="Layer_1" data-name="Layer 1"><circle class="cls-1" cx="105.6" cy="146.1" r="24.8"/><path class="cls-2" d="M235.9,56.5a89.6,89.6,0,1,0,89.6,89.6A89.58,89.58,0,0,0,235.9,56.5Zm-5.8,74.2c1.7,2,4.8,4,9.5,6.1,10.9,4.6,18.8,9.2,23.9,13.8s7.6,11.2,7.6,19.7c0,8.1-2.6,14.7-7.7,19.6-4.4,4.2-10,6.9-16.9,8.2v11.8a2.8,2.8,0,0,1-2.8,2.8H233.5a2.8,2.8,0,0,1-2.8-2.8V198.4c-8.7-1.1-15.8-4.2-21.6-9.4-5.3-4.9-8.2-11.7-8.6-20.6a3.42,3.42,0,0,1,3.3-3.4l16.7-.3a3.19,3.19,0,0,1,3.3,2.9c.4,4.2,1.6,7.4,3.7,9.5a13.34,13.34,0,0,0,9.8,3.8c3.3,0,5.9-.9,7.6-2.9a11.38,11.38,0,0,0,2.6-7.7c0-3.7-.9-6.6-2.7-8.6s-4.9-4-9.4-6c-11-4.4-19-8.8-24-13.3s-7.5-11.1-7.5-19.8c0-7.9,2.7-14.4,8-19.5,4.8-4.6,11.1-7.5,18.9-8.6V82.2a2.8,2.8,0,0,1,2.8-2.8h10.2a2.8,2.8,0,0,1,2.8,2.8V94.9c7.3,1.5,13.2,4.7,17.6,9.9a29.61,29.61,0,0,1,7.1,18.4,3.35,3.35,0,0,1-3.3,3.4l-16.8.3a3,3,0,0,1-3.3-2.8c-.3-3.7-1.2-6.5-2.8-8.5a9.22,9.22,0,0,0-7.8-3.7c-3.4,0-5.8,1-7.4,3.1a12.11,12.11,0,0,0-2.4,7.8A11.74,11.74,0,0,0,230.1,130.7Z"/><path class="cls-3" d="M430.9,0H40.9A41,41,0,0,0,0,40.9V251.3a41,41,0,0,0,40.9,40.9h390a41,41,0,0,0,40.9-40.9V40.9A41,41,0,0,0,430.9,0Zm6,212a42.53,42.53,0,0,0-10.2-1.3,41.35,41.35,0,0,0-41.4,41.4,43.62,43.62,0,0,0,.3,5.1H82.8a47.73,47.73,0,0,0,.7-7.6,41.35,41.35,0,0,0-41.4-41.4,44,44,0,0,0-7.3.7V83.2a35.43,35.43,0,0,0,7.3.7A41.35,41.35,0,0,0,83.5,42.5a38.39,38.39,0,0,0-.7-7.6H386.6A37.3,37.3,0,0,0,385.3,45a41.35,41.35,0,0,0,41.4,41.4,43.2,43.2,0,0,0,10.2-1.3h0Z"/><circle class="cls-4" cx="366.2" cy="146.1" r="24.8"/></g></g></svg>