<svg xmlns="http://www.w3.org/2000/svg" xmlns:xlink="http://www.w3.org/1999/xlink" viewBox="0 0 318.29 297.12"><defs><style>.cls-1{fill:url(#linear-gradient);}.cls-2{fill:url(#linear-gradient-2);}.cls-3{fill:url(#linear-gradient-3);}.cls-4{fill:url(#linear-gradient-4);}</style><linearGradient id="linear-gradient" x1="49.5" y1="293.1" x2="49.5" y2="34.32" gradientUnits="userSpaceOnUse"><stop offset="0" stop-color="#ff9656"/><stop offset="1" stop-color="#ffd270"/></linearGradient><linearGradient id="linear-gradient-2" x1="210.24" y1="182.95" x2="210.24" gradientUnits="userSpaceOnUse"><stop offset="0" stop-color="#498cff"/><stop offset="1" stop-color="#37f8ff"/></linearGradient><linearGradient id="linear-gradient-3" x1="267.99" y1="297.12" x2="267.99" y2="52.71" xlink:href="#linear-gradient"/><linearGradient id="linear-gradient-4" x1="158.35" y1="294.23" x2="158.35" y2="51.89" xlink:href="#linear-gradient"/></defs><title>d</title><g id="Layer_2" data-name="Layer 2"><g id="Layer_1-2" data-name="Layer 1"><path class="cls-1" d="M8.32,274.91l80.22,17.94c5.75,1.29,10.46-2.48,10.46-8.38V64.53A14,14,0,0,0,88.54,51.47L13,34.58A10.65,10.65,0,0,0,0,45V264.52A10.64,10.64,0,0,0,8.32,274.91Z"/><path class="cls-2" d="M279.65,69.43a69.41,69.41,0,1,0-138.81,0c0,55.3,59.82,108.62,62.37,110.87a10.64,10.64,0,0,0,14.07,0C219.83,178.05,279.65,124.73,279.65,69.43ZM210.24,95a25.59,25.59,0,1,1,25.45-25.59A25.55,25.55,0,0,1,210.24,95Z"/><path class="cls-3" d="M305.32,296.87a10.65,10.65,0,0,0,13-10.39V66.92A10.64,10.64,0,0,0,310,56.53l-17.08-3.82a84.53,84.53,0,0,1,1.67,16.72c0,26.31-11.16,54.65-33.18,84.23a265.62,265.62,0,0,1-34.25,37.83,25.54,25.54,0,0,1-9.43,5.24v69.83a14,14,0,0,0,10.46,13.06Z"/><path class="cls-4" d="M202.79,196.72a25.55,25.55,0,0,1-9.44-5.24,265.65,265.65,0,0,1-34.25-37.82c-22-29.58-33.18-57.92-33.18-84.23a84.39,84.39,0,0,1,1.85-17.54l-6.94,1.51c-3.82.83-6.94,6.34-6.94,12.23V285.55c0,5.89,4.71,9.69,10.47,8.43l67.95-14.83a14,14,0,0,0,10.47-13Z"/></g></g></svg>