<svg xmlns="http://www.w3.org/2000/svg" xmlns:xlink="http://www.w3.org/1999/xlink" viewBox="0 0 297.19 297.19"><defs><style>.cls-1{fill:url(#linear-gradient);}.cls-2{fill:url(#linear-gradient-2);}.cls-3{fill:url(#linear-gradient-3);}</style><linearGradient id="linear-gradient" x1="107.42" y1="297.18" x2="107.42" y2="0.18" gradientTransform="translate(3.9 -3.79) rotate(1.48)" gradientUnits="userSpaceOnUse"><stop offset="0" stop-color="#ff9656"/><stop offset="1" stop-color="#ffd270"/></linearGradient><linearGradient id="linear-gradient-2" x1="227.51" y1="139.15" x2="227.51" y2="0.18" xlink:href="#linear-gradient"/><linearGradient id="linear-gradient-3" x1="230.92" y1="272.33" x2="230.92" y2="157.74" gradientTransform="translate(3.9 -3.79) rotate(1.48)" gradientUnits="userSpaceOnUse"><stop offset="0" stop-color="#498cff"/><stop offset="1" stop-color="#37f8ff"/></linearGradient></defs><title>e</title><g id="Layer_2" data-name="Layer 2"><g id="Layer_1-2" data-name="Layer 1"><path class="cls-1" d="M140.58,152.89l70.8,130.31A148.49,148.49,0,0,1,.05,144.61C2.09,65.64,65.38,2.82,143.28,0l-3.84,148.22A9.27,9.27,0,0,0,140.58,152.89Z"/><path class="cls-2" d="M161.87.48l-3.6,138.92L297.19,143A148.51,148.51,0,0,0,161.87.48Zm18,21.79a130.17,130.17,0,0,1,96.46,101.59l-99-2.56Z"/><path class="cls-3" d="M227.75,274.42a148.46,148.46,0,0,0,69-112.84L164.6,158.16Z"/></g></g></svg>