<svg xmlns="http://www.w3.org/2000/svg" xmlns:xlink="http://www.w3.org/1999/xlink" viewBox="0 0 530 296.8"><defs><style>.cls-1{fill:url(#linear-gradient);}.cls-2{fill:url(#linear-gradient-2);}</style><linearGradient id="linear-gradient" y1="148.4" x2="530" y2="148.4" gradientUnits="userSpaceOnUse"><stop offset="0" stop-color="#ff9656"/><stop offset="1" stop-color="#ffd270"/></linearGradient><linearGradient id="linear-gradient-2" x1="265" y1="205.48" x2="265" y2="91.32" gradientUnits="userSpaceOnUse"><stop offset="0" stop-color="#498cff"/><stop offset="1" stop-color="#37f8ff"/></linearGradient></defs><title>t</title><g id="Layer_2" data-name="Layer 2"><g id="Layer_1-2" data-name="Layer 1"><path class="cls-1" d="M265,0C91.14,0,0,128.09,0,148.4S91.14,296.8,265,296.8,530,168.71,530,148.4,438.85,0,265,0Zm0,262.56c-65,0-117.78-51.11-117.78-114.16S200,34.24,265,34.24,382.78,85.35,382.78,148.4,330,262.56,265,262.56Z"/><path class="cls-2" d="M323.89,148.4c0,31.52-26.37,57.08-58.89,57.08s-58.89-25.56-58.89-57.08S232.47,91.32,265,91.32c17.57,0-10.78,45.23,0,57.08C274.17,158.46,323.89,133.92,323.89,148.4Z"/></g></g></svg>