<?xml version="1.0" encoding="utf-8"?>
<!-- Generator: Adobe Illustrator 21.0.2, SVG Export Plug-In . SVG Version: 6.00 Build 0)  -->
<svg version="1.1" id="Layer_1" xmlns="http://www.w3.org/2000/svg" xmlns:xlink="http://www.w3.org/1999/xlink" x="0px" y="0px"
	 viewBox="0 0 379 296.7" style="enable-background:new 0 0 379 296.7;" xml:space="preserve">
<style type="text/css">
	.st0{fill:url(#SVGID_1_);}
	.st1{fill:url(#SVGID_2_);}
	.st2{fill:url(#SVGID_3_);}
</style>
<title>device</title>
<g id="Layer_2">
	<g id="Layer_1-2">
		
			<linearGradient id="SVGID_1_" gradientUnits="userSpaceOnUse" x1="198.4471" y1="66.1131" x2="198.4471" y2="287.6025" gradientTransform="matrix(1 0 0 -1 0 297.2602)">
			<stop  offset="0" style="stop-color:#FF9656"/>
			<stop  offset="1" style="stop-color:#FFD270"/>
		</linearGradient>
		<path class="st0" d="M320.7,87.7h34V37.2c0-15.2-12.4-27.6-27.6-27.6H69.8C54.5,9.7,42.2,22,42.1,37.3v166.2
			c0,15.3,12.4,27.6,27.6,27.6h139.6v-33.1H78.2c-1.1,0-2-0.9-2-2V46.6c0-1.1,0.9-2,2-2h240.5c1.1,0,2,0.9,2,2c0,0,0,0,0,0
			L320.7,87.7z"/>
		
			<linearGradient id="SVGID_2_" gradientUnits="userSpaceOnUse" x1="110.3786" y1="10.8693" x2="110.3786" y2="50.3879" gradientTransform="matrix(1 0 0 -1 0 297.2602)">
			<stop  offset="0" style="stop-color:#FF9656"/>
			<stop  offset="1" style="stop-color:#FFD270"/>
		</linearGradient>
		<path class="st1" d="M12.3,257.8c0,15.8,11.8,28.6,26.3,28.6h169.8v-39.5h-186C16.8,246.9,12.3,251.8,12.3,257.8z"/>
		
			<linearGradient id="SVGID_3_" gradientUnits="userSpaceOnUse" x1="297.0754" y1="10.1775" x2="297.0754" y2="194.2238" gradientTransform="matrix(1 0 0 -1 0 297.2602)">
			<stop  offset="0" style="stop-color:#498CFF"/>
			<stop  offset="1" style="stop-color:#37F8FF"/>
		</linearGradient>
		<path class="st2" d="M227.5,127.3v135.4c0,13.4,10.9,24.3,24.3,24.3l0,0h90.6c13.4,0,24.3-10.9,24.3-24.3l0,0V127.3
			c0-13.4-10.9-24.3-24.3-24.3h-90.6C238.4,103,227.5,113.9,227.5,127.3z M345.9,253.1h-97.7V127.3c0-2,1.6-3.5,3.5-3.5h90.6
			c2,0,3.5,1.6,3.5,3.5L345.9,253.1z M289.7,273.2c-0.6-1.1-1-2.4-1-3.7c0-4.6,3.8-8.4,8.4-8.4s8.4,3.8,8.4,8.4c0,1.3-0.4,2.6-1,3.7
			c-2,4.1-6.9,5.8-11.1,3.8C291.8,276.1,290.4,274.8,289.7,273.2L289.7,273.2z"/>
	</g>
</g>
</svg>
