<svg xmlns="http://www.w3.org/2000/svg" xmlns:xlink="http://www.w3.org/1999/xlink" viewBox="0 0 297.99 297.99"><defs><style>.cls-1{fill:url(#linear-gradient);}.cls-2{fill:url(#linear-gradient-2);}.cls-3{fill:url(#linear-gradient-3);}</style><linearGradient id="linear-gradient" x1="267.56" y1="60.86" x2="267.56" gradientUnits="userSpaceOnUse"><stop offset="0" stop-color="#498cff"/><stop offset="1" stop-color="#37f8ff"/></linearGradient><linearGradient id="linear-gradient-2" x1="171.29" y1="218.89" x2="171.29" y2="34.52" gradientUnits="userSpaceOnUse"><stop offset="0" stop-color="#ff9656"/><stop offset="1" stop-color="#ffd270"/></linearGradient><linearGradient id="linear-gradient-3" x1="130.5" y1="297.99" x2="130.5" y2="36.99" xlink:href="#linear-gradient-2"/></defs><title>l</title><g id="Layer_2" data-name="Layer 2"><g id="Layer_1-2" data-name="Layer 1"><path class="cls-1" d="M289.81,8.18a28,28,0,0,1,0,39.51L276.64,60.86,237.12,21.35,250.29,8.18A28,28,0,0,1,289.81,8.18Z"/><polygon class="cls-2" points="92.27 166.22 79.11 218.89 131.78 205.72 263.48 74.03 223.95 34.52 92.27 166.22"/><polygon class="cls-3" points="224 170.35 224 260.99 37 260.99 37 73.99 123.59 73.99 160.58 36.99 0 36.99 0 297.99 261 297.99 261 133.1 224 170.35"/></g></g></svg>