<svg xmlns="http://www.w3.org/2000/svg" xmlns:xlink="http://www.w3.org/1999/xlink" viewBox="0 0 308 297.29"><defs><style>.cls-1{fill:url(#linear-gradient);}.cls-2{fill:url(#linear-gradient-2);}.cls-3{fill:url(#linear-gradient-3);}</style><linearGradient id="linear-gradient" x1="212.23" y1="218.5" x2="212.23" y2="172.47" gradientUnits="userSpaceOnUse"><stop offset="0" stop-color="#498cff"/><stop offset="1" stop-color="#37f8ff"/></linearGradient><linearGradient id="linear-gradient-2" x1="242.66" y1="142.41" x2="242.66" y2="101.29" xlink:href="#linear-gradient"/><linearGradient id="linear-gradient-3" x1="154" y1="297.29" x2="154" gradientUnits="userSpaceOnUse"><stop offset="0" stop-color="#ff9656"/><stop offset="1" stop-color="#ffd270"/></linearGradient></defs><title>k</title><g id="Layer_2" data-name="Layer 2"><g id="Layer_1-2" data-name="Layer 1"><ellipse class="cls-1" cx="212.23" cy="195.49" rx="15.34" ry="23.02"/><ellipse class="cls-2" cx="242.66" cy="121.85" rx="13.65" ry="20.56"/><path class="cls-3" d="M297.18,42.37,158.34.61l-.82-.19L156.7.24a16,16,0,0,0-5.47,0l-.82.19-.82.19-31,9.31-25,7.55L23.46,38.53h0L10.82,42.3A15.23,15.23,0,0,0,0,56.83V240.26a15.17,15.17,0,0,0,10.82,14.53L149.6,296.67a14.9,14.9,0,0,0,4.4.63,15.2,15.2,0,0,0,4.4-.63l138.78-41.75A15.23,15.23,0,0,0,308,240.39V56.89A15.23,15.23,0,0,0,297.18,42.37Zm-253,181.54c-7.36,0-13.39-9-13.39-20.06s6-20.06,13.39-20.06,13.39,9,13.39,20.06S51.5,223.91,44.14,223.91Zm31.63-57.16c-8.11,0-14.71-9.94-14.71-22.13s6.6-22.13,14.71-22.13,14.71,9.94,14.71,22.13S83.95,166.75,75.77,166.75ZM111.87,110c-8.49,0-15.34-10.31-15.34-23s6.85-23,15.34-23,15.34,10.31,15.34,23S120.36,110,111.87,110Zm165.76,119L169.15,261.7V35.58L277.63,68.21Z"/></g></g></svg>