<svg xmlns="http://www.w3.org/2000/svg" xmlns:xlink="http://www.w3.org/1999/xlink" viewBox="0 0 439.2 297.68"><defs><style>.cls-1{fill:url(#linear-gradient);}.cls-2{fill:url(#linear-gradient-2);}.cls-3{fill:url(#linear-gradient-3);}</style><linearGradient id="linear-gradient" x1="156.2" y1="297.68" x2="156.2" gradientUnits="userSpaceOnUse"><stop offset="0" stop-color="#ff9656"/><stop offset="1" stop-color="#ffd270"/></linearGradient><linearGradient id="linear-gradient-2" x1="323.26" y1="81.32" x2="439.2" y2="81.32" xlink:href="#linear-gradient"/><linearGradient id="linear-gradient-3" x1="341.92" y1="263.68" x2="341.92" y2="170.35" gradientUnits="userSpaceOnUse"><stop offset="0" stop-color="#498cff"/><stop offset="1" stop-color="#37f8ff"/></linearGradient></defs><title>o</title><g id="Layer_2" data-name="Layer 2"><g id="Layer_1-2" data-name="Layer 1"><path class="cls-1" d="M312.13,113.29a5.6,5.6,0,0,0-4.52-3.81L206.46,94.78,161.22,3.12a5.58,5.58,0,0,0-10,0L106,94.79,4.79,109.49A5.59,5.59,0,0,0,1.69,119l73.21,71.35L57.61,291.14a5.6,5.6,0,0,0,2.22,5.47,5.54,5.54,0,0,0,5.89.42l90.49-47.57L246.68,297a5.59,5.59,0,0,0,8.11-5.89L237.52,190.39,310.72,119A5.6,5.6,0,0,0,312.13,113.29Z"/><path class="cls-2" d="M373.09,120.44l6.54,17.74a1.7,1.7,0,0,0,3.19,0l6.54-17.74a52.31,52.31,0,0,1,31-31l17.74-6.54a1.7,1.7,0,0,0,0-3.19l-17.74-6.54a52.31,52.31,0,0,1-31-31l-6.54-17.74a1.7,1.7,0,0,0-3.19,0L373.09,42.2a52.31,52.31,0,0,1-31,31l-17.74,6.54a1.7,1.7,0,0,0,0,3.19l17.74,6.54A52.31,52.31,0,0,1,373.09,120.44Z"/><path class="cls-3" d="M335.37,248.51l5.27,14.28a1.37,1.37,0,0,0,2.56,0l5.27-14.28a42.11,42.11,0,0,1,24.94-24.94l14.28-5.27a1.37,1.37,0,0,0,0-2.56l-14.28-5.27a42.11,42.11,0,0,1-24.94-24.94l-5.27-14.28a1.37,1.37,0,0,0-2.56,0l-5.27,14.28a42.11,42.11,0,0,1-24.94,24.94l-14.28,5.27a1.37,1.37,0,0,0,0,2.56l14.28,5.27A42.11,42.11,0,0,1,335.37,248.51Z"/></g></g></svg>