<svg xmlns="http://www.w3.org/2000/svg" xmlns:xlink="http://www.w3.org/1999/xlink" viewBox="0 0 319.33 297.35"><defs><style>.cls-1{fill:url(#linear-gradient);}.cls-2{fill:url(#linear-gradient-2);}</style><linearGradient id="linear-gradient" x1="159.66" y1="165.63" x2="159.66" gradientUnits="userSpaceOnUse"><stop offset="0" stop-color="#498cff"/><stop offset="1" stop-color="#37f8ff"/></linearGradient><linearGradient id="linear-gradient-2" x1="159.66" y1="297.35" x2="159.66" y2="71.36" gradientUnits="userSpaceOnUse"><stop offset="0" stop-color="#ff9656"/><stop offset="1" stop-color="#ffd270"/></linearGradient></defs><title>s</title><g id="Layer_2" data-name="Layer 2"><g id="Layer_1-2" data-name="Layer 1"><path class="cls-1" d="M314,134.38,265.57,86V30.07a18.3,18.3,0,0,0-36.61,0v19.3l-36-36c-17.82-17.81-48.79-17.77-66.57,0l-121,121a18.31,18.31,0,1,0,25.89,25.89l121-121a10.81,10.81,0,0,1,14.81,0l121,121A18.31,18.31,0,1,0,314,134.38Z"/><path class="cls-2" d="M166,74a9,9,0,0,0-12.71,0L46.87,180.4a9,9,0,0,0-2.63,6.37v77.61a33,33,0,0,0,33,33h52.7V215.74h59.49v81.61h52.7a33,33,0,0,0,33-33V186.76a9,9,0,0,0-2.63-6.37Z"/></g></g></svg>