<?xml version="1.0" encoding="utf-8"?>
<!-- Generator: Adobe Illustrator 21.0.2, SVG Export Plug-In . SVG Version: 6.00 Build 0)  -->
<svg version="1.1" id="Layer_1" xmlns="http://www.w3.org/2000/svg" xmlns:xlink="http://www.w3.org/1999/xlink" x="0px" y="0px"
	 viewBox="0 0 389.1 298.1" style="enable-background:new 0 0 389.1 298.1;" xml:space="preserve">
<style type="text/css">
	.st0{fill:url(#SVGID_1_);}
	.st1{fill:url(#SVGID_2_);}
</style>
<title>p</title>
<g id="Layer_2">
	<g id="Layer_1-2">
		
			<linearGradient id="SVGID_1_" gradientUnits="userSpaceOnUse" x1="194.0672" y1="30.7812" x2="194.0672" y2="215.9512" gradientTransform="matrix(1 0 0 -1 0 299.2602)">
			<stop  offset="0" style="stop-color:#498CFF"/>
			<stop  offset="1" style="stop-color:#37F8FF"/>
		</linearGradient>
		<path class="st0" d="M286.1,86l-16.2,10.4l-16.2,10.4c-5.4,3.5-10.8,6.9-16.2,10.4l-32.3,20.9c-5.3,3.5-10.7,7-16,10.5l-16,10.6
			c-5.3,3.5-10.7,7-16,10.6l-16,10.6c-5.3,3.5-10.7,7.1-16,10.7l-15.9,10.7l-11.4,7.8l28.9,53c3.1,5.6,10.1,7.6,15.7,4.6
			c0.7-0.4,1.4-0.8,2-1.4l21.1-18.2l-10-5.1l-3.7-1.2c-0.2-0.1-0.2-0.3,0.2-0.7l-0.6-0.3L151,240c-4.4-2.3-6.2-7.7-3.9-12.1
			c0.4-0.8,1-1.6,1.7-2.3c7.5-7.4,15-14.8,22.5-22.3l22.4-22.3l22.3-22.4l11.2-11.2l11.1-11.2l22.3-22.5L282.8,91l7.5-7.7
			C288.9,84.2,287.5,85.1,286.1,86z"/>
		
			<linearGradient id="SVGID_2_" gradientUnits="userSpaceOnUse" x1="194.5597" y1="33.6747" x2="194.5597" y2="269.6324" gradientTransform="matrix(1 0 0 -1 0 299.2602)">
			<stop  offset="0" style="stop-color:#FF9656"/>
			<stop  offset="1" style="stop-color:#FFD270"/>
		</linearGradient>
		<path class="st1" d="M334.6,30.1c-2.9,0.9-5.6,2.1-8.2,3.7L43.8,171.1c-4.5,2.2-6.5,7.6-4.3,12.1c1.2,2.4,3.3,4.2,5.9,4.9
			l37.1,9.7c5.8-3.5,11.7-6.9,17.5-10.4l16.4-9.9c5.5-3.3,11-6.6,16.4-10l16.4-10c5.5-3.3,10.9-6.7,16.4-10.1l16.3-10.1
			c5.4-3.4,10.9-6.7,16.3-10.1l32.6-20.4c5.4-3.4,10.8-6.8,16.2-10.3l16.3-10.3l16.2-10.3c5.4-3.4,10.8-6.9,16.2-10.3l32.3-20.7
			c2.9-1.8,6.6-1,8.5,1.9c1.5,2.4,1.2,5.5-0.7,7.5l0,0c-7.3,7.6-14.7,15.2-21.9,22.8L292,99.9l-21.8,22.9l-21.8,23l-10.9,11.5
			l-10.8,11.5l-21.6,23.1l-21.6,23.2c-4.3,4.6-8.6,9.2-12.8,13.9l17.5,8.2l92.5,28.1c4.8,1.5,9.9-1.3,11.3-6.1
			c0-0.1,0.1-0.2,0.1-0.3l58-213.5C352.5,36,343.9,27.4,334.6,30.1z"/>
	</g>
</g>
</svg>
