<svg xmlns="http://www.w3.org/2000/svg" xmlns:xlink="http://www.w3.org/1999/xlink" viewBox="0 0 326.15 296.5"><defs><style>.cls-1{fill:url(#linear-gradient);}.cls-2{fill:url(#linear-gradient-2);}</style><linearGradient id="linear-gradient" x1="29.65" y1="296.5" x2="29.65" y2="118.6" gradientUnits="userSpaceOnUse"><stop offset="0" stop-color="#498cff"/><stop offset="1" stop-color="#37f8ff"/></linearGradient><linearGradient id="linear-gradient-2" x1="207.55" y1="296.5" x2="207.55" gradientUnits="userSpaceOnUse"><stop offset="0" stop-color="#ff9656"/><stop offset="1" stop-color="#ffd270"/></linearGradient></defs><title>like</title><g id="Layer_2" data-name="Layer 2"><g id="Layer_1-2" data-name="Layer 1"><rect class="cls-1" y="118.6" width="59.3" height="177.9"/><path class="cls-2" d="M326.15,133.43a29.74,29.74,0,0,0-29.65-29.65H203.1l14.82-68.2V31.13c0-5.93-3-11.86-5.93-16.31L195.69,0,97.85,97.85C91.92,102.29,89,109.7,89,118.6V266.85A29.74,29.74,0,0,0,118.6,296.5H252a29.29,29.29,0,0,0,26.68-17.79l44.48-105.26c1.48-3,1.48-7.41,1.48-10.38V133.42h1.48Z"/></g></g></svg>