<svg xmlns="http://www.w3.org/2000/svg" xmlns:xlink="http://www.w3.org/1999/xlink" viewBox="0 0 256.74 253.8"><defs><style>.cls-1{fill:url(#linear-gradient);}.cls-2{fill:url(#linear-gradient-2);}.cls-3{fill:url(#linear-gradient-3);}</style><linearGradient id="linear-gradient" x1="128.37" y1="176.39" x2="128.37" y2="78.39" gradientUnits="userSpaceOnUse"><stop offset="0" stop-color="#498cff"/><stop offset="1" stop-color="#37f8ff"/></linearGradient><linearGradient id="linear-gradient-2" x1="84.27" y1="168.55" x2="84.27" gradientUnits="userSpaceOnUse"><stop offset="0" stop-color="#ff9656"/><stop offset="1" stop-color="#ffd270"/></linearGradient><linearGradient id="linear-gradient-3" x1="172.47" y1="253.8" x2="172.47" y2="86.23" xlink:href="#linear-gradient-2"/></defs><title>links</title><g id="Capa_2" data-name="Capa 2"><g id="Layer_1" data-name="Layer 1"><path class="cls-1" d="M160.71,173.45l13.72-13.72a9.47,9.47,0,0,0,0-13.72L109.75,81.33a9.47,9.47,0,0,0-13.72,0L82.31,95.05a9.47,9.47,0,0,0,0,13.72L147,173.45A9.47,9.47,0,0,0,160.71,173.45Z"/><path class="cls-2" d="M52.92,112.69A43,43,0,0,1,40.18,82.31,43.5,43.5,0,0,1,83.29,39.2a43,43,0,0,1,30.38,12.74l24.5,24.5a9.47,9.47,0,0,0,13.72,0l13.72-13.72a9.47,9.47,0,0,0,0-13.72l-24.5-24.5A82.24,82.24,0,0,0,82.31,0C37.24,0,0,37.24,0,82.31a84,84,0,0,0,24.5,58.8L49,165.61a9.47,9.47,0,0,0,13.72,0l13.72-13.72a9.47,9.47,0,0,0,0-13.72Z"/><path class="cls-3" d="M231.26,113.67l-24.5-24.5a9.47,9.47,0,0,0-13.72,0l-13.72,13.72a9.47,9.47,0,0,0,0,13.72l24.5,24.5a43,43,0,0,1,12.74,30.38,43.5,43.5,0,0,1-43.12,43.12,43,43,0,0,1-30.38-12.74l-24.5-24.5a9.47,9.47,0,0,0-13.72,0L91.13,191.08a9.47,9.47,0,0,0,0,13.72l24.5,24.5a82.24,82.24,0,0,0,58.8,24.5c45.08,0,82.31-37.24,82.31-82.31A87.06,87.06,0,0,0,231.26,113.67Z"/></g></g></svg>