<?xml version="1.0" encoding="utf-8"?>
<!-- Generator: Adobe Illustrator 21.0.2, SVG Export Plug-In . SVG Version: 6.00 Build 0)  -->
<svg version="1.1" id="Layer_1" xmlns="http://www.w3.org/2000/svg" xmlns:xlink="http://www.w3.org/1999/xlink" x="0px" y="0px"
	 viewBox="0 0 455.7 296.7" style="enable-background:new 0 0 455.7 296.7;" xml:space="preserve">
<style type="text/css">
	.st0{fill:url(#SVGID_1_);}
	.st1{fill:url(#SVGID_2_);}
</style>
<title>r</title>
<g id="Layer_2">
	<g id="Layer_1-2">
		
			<linearGradient id="SVGID_1_" gradientUnits="userSpaceOnUse" x1="227.8542" y1="171.7778" x2="227.8542" y2="273.9501" gradientTransform="matrix(1 0 0 -1 0 297.2602)">
			<stop  offset="0" style="stop-color:#498CFF"/>
			<stop  offset="1" style="stop-color:#37F8FF"/>
		</linearGradient>
		<path class="st0" d="M227.9,125.5L391,23.8c-1.8-0.3-3.6-0.5-5.4-0.5H70.2c-1.8,0-3.6,0.2-5.4,0.5L227.9,125.5z"/>
		
			<linearGradient id="SVGID_2_" gradientUnits="userSpaceOnUse" x1="227.85" y1="23.8799" x2="227.85" y2="245.4949" gradientTransform="matrix(1 0 0 -1 0 297.2602)">
			<stop  offset="0" style="stop-color:#FF9656"/>
			<stop  offset="1" style="stop-color:#FFD270"/>
		</linearGradient>
		<path class="st1" d="M238.1,164.8c-0.2,0.1-0.5,0.2-0.7,0.4l-0.7,0.4c-1.3,0.7-2.6,1.2-4,1.5l-0.4,0.1c-1.5,0.4-3,0.5-4.5,0.6l0,0
			c-1.5,0-3-0.2-4.5-0.6l-0.4-0.1c-1.4-0.4-2.7-0.9-4-1.5l-0.7-0.4c-0.2-0.1-0.5-0.2-0.7-0.4L36.3,51.8c-0.3,1.9-0.5,3.9-0.5,5.9
			V239c0,19,15.4,34.3,34.3,34.3l0,0h315.4c19,0,34.3-15.4,34.3-34.3l0,0V57.7c0-2-0.2-4-0.5-5.9L238.1,164.8z"/>
	</g>
</g>
</svg>
