<svg xmlns="http://www.w3.org/2000/svg" xmlns:xlink="http://www.w3.org/1999/xlink" viewBox="0 0 338.49 298"><defs><style>.cls-1{fill:url(#linear-gradient);}.cls-2{fill:url(#linear-gradient-2);}.cls-3{fill:url(#linear-gradient-3);}.cls-4{fill:url(#linear-gradient-4);}</style><linearGradient id="linear-gradient" x1="169.17" y1="298" x2="169.17" y2="156" gradientUnits="userSpaceOnUse"><stop offset="0" stop-color="#ff9656"/><stop offset="1" stop-color="#ffd270"/></linearGradient><linearGradient id="linear-gradient-2" x1="239.37" y1="89.34" x2="239.37" gradientUnits="userSpaceOnUse"><stop offset="0" stop-color="#498cff"/><stop offset="1" stop-color="#37f8ff"/></linearGradient><linearGradient id="linear-gradient-3" x1="98.96" y1="89.42" x2="98.96" y2="0.03" xlink:href="#linear-gradient-2"/><linearGradient id="linear-gradient-4" x1="169.3" y1="139.43" x2="169.3" y2="109.84" xlink:href="#linear-gradient"/></defs><title>c</title><g id="Layer_2" data-name="Layer 2"><g id="Layer_1-2" data-name="Layer 1"><path class="cls-1" d="M18.82,271.36C21,286.55,35.52,298,52.7,298H285.64c17.18,0,31.74-11.45,33.84-26.45L338.34,156H0Zm230-84.93c0-5.61,5.09-10.14,11.38-10.14s11.38,4.54,11.38,10.14v60.86c0,5.61-5.09,10.14-11.38,10.14s-11.38-4.54-11.38-10.14Zm-45.52,0c0-5.61,5.09-10.14,11.38-10.14s11.38,4.54,11.38,10.14v60.86c0,5.61-5.09,10.14-11.38,10.14s-11.38-4.54-11.38-10.14Zm-45.52,0c0-5.61,5.09-10.14,11.38-10.14s11.38,4.54,11.38,10.14v60.86c0,5.61-5.09,10.14-11.38,10.14s-11.38-4.54-11.38-10.14Zm-45.52,0c0-5.61,5.09-10.14,11.38-10.14S135,180.82,135,186.43v60.86c0,5.61-5.09,10.14-11.38,10.14s-11.38-4.54-11.38-10.14Zm-45.52,0c0-5.61,5.09-10.14,11.38-10.14s11.38,4.54,11.38,10.14v60.86c0,5.61-5.09,10.14-11.38,10.14s-11.38-4.54-11.38-10.14Z"/><path class="cls-2" d="M244,89.34h32.4l-48-82.39a14,14,0,0,0-24.13,14.11Z"/><path class="cls-3" d="M134.08,21.06A14,14,0,0,0,110,6.95l-48,82.47h32.4Z"/><rect class="cls-4" x="0.11" y="109.84" width="338.38" height="29.59" rx="14.79" ry="14.79"/></g></g></svg>