<?xml version="1.0" encoding="utf-8"?>
<!-- Generator: Adobe Illustrator 21.0.2, SVG Export Plug-In . SVG Version: 6.00 Build 0)  -->
<svg version="1.1" id="Layer_1" xmlns="http://www.w3.org/2000/svg" xmlns:xlink="http://www.w3.org/1999/xlink" x="0px" y="0px"
	 viewBox="0 0 326.1 296.5" style="enable-background:new 0 0 326.1 296.5;" xml:space="preserve">
<style type="text/css">
	.st0{fill:url(#SVGID_1_);}
	.st1{fill:url(#SVGID_2_);}
	.st2{fill:url(#SVGID_3_);}
</style>
<title>like</title>
<g id="Layer_2">
	<g id="Layer_1-2">
		
			<linearGradient id="SVGID_1_" gradientUnits="userSpaceOnUse" x1="162.9947" y1="207.9303" x2="162.9947" y2="271.9124" gradientTransform="matrix(1 0 0 -1 0 298)">
			<stop  offset="0" style="stop-color:#FF9656"/>
			<stop  offset="1" style="stop-color:#FFD270"/>
		</linearGradient>
		<path class="st0" d="M315.1,26.1H10.9c-2.4,0.3-4.1,2.4-3.9,4.8v54.4c-0.2,2.4,1.5,4.5,3.9,4.8h304.1c2.4-0.3,4.1-2.4,3.9-4.8
			V30.9C319.2,28.5,317.5,26.4,315.1,26.1z M304,67.7c0.2,2.4-1.5,4.5-3.9,4.8H180c-2.4-0.2-4.2-2.4-4-4.8V48.5
			c-0.2-2.4,1.6-4.6,4-4.8H300c2.4,0.3,4.1,2.4,3.9,4.8L304,67.7z"/>
		
			<linearGradient id="SVGID_2_" gradientUnits="userSpaceOnUse" x1="162.9947" y1="121.3854" x2="162.9947" y2="185.3676" gradientTransform="matrix(1 0 0 -1 0 298)">
			<stop  offset="0" style="stop-color:#498CFF"/>
			<stop  offset="1" style="stop-color:#37F8FF"/>
		</linearGradient>
		<path class="st1" d="M315.1,112.6H10.9c-2.4,0.3-4.1,2.4-3.9,4.8v54.4c-0.2,2.4,1.5,4.5,3.9,4.8h304.1c2.4-0.3,4.1-2.4,3.9-4.8
			v-54.4C319.2,115,317.5,112.9,315.1,112.6z M304.6,154.2c0.2,2.4-1.5,4.5-3.9,4.8H158.4c-2.4-0.3-4.1-2.4-3.9-4.8v-19.1
			c-0.2-2.4,1.5-4.5,3.9-4.8h142.3c2.4,0.3,4.1,2.4,3.9,4.8V154.2z"/>
		
			<linearGradient id="SVGID_3_" gradientUnits="userSpaceOnUse" x1="162.9947" y1="34.8405" x2="162.9947" y2="98.8408" gradientTransform="matrix(1 0 0 -1 0 298)">
			<stop  offset="0" style="stop-color:#FF9656"/>
			<stop  offset="1" style="stop-color:#FFD270"/>
		</linearGradient>
		<path class="st2" d="M315.1,199.2H10.9c-2.4,0.3-4.1,2.4-3.9,4.8v54.4c-0.2,2.4,1.5,4.5,3.9,4.8h304.1c2.4-0.3,4.1-2.4,3.9-4.8
			V204C319.2,201.6,317.5,199.4,315.1,199.2z M304.6,240.8c0.2,2.4-1.5,4.5-3.9,4.8h-89.4c-2.4-0.3-4.1-2.4-3.9-4.8v-19.2
			c-0.2-2.4,1.5-4.5,3.9-4.8h89.4c2.4,0.3,4.1,2.4,3.9,4.8L304.6,240.8z"/>
	</g>
</g>
</svg>
