<svg xmlns="http://www.w3.org/2000/svg" xmlns:xlink="http://www.w3.org/1999/xlink" viewBox="0 0 340.57 298"><defs><style>.cls-1{fill:url(#linear-gradient);}.cls-2{fill:url(#linear-gradient-2);}.cls-3{fill:url(#linear-gradient-3);}.cls-4{fill:url(#linear-gradient-4);}</style><linearGradient id="linear-gradient" x1="223.7" y1="242.96" x2="223.7" gradientUnits="userSpaceOnUse"><stop offset="0" stop-color="#ff9656"/><stop offset="1" stop-color="#ffd270"/></linearGradient><linearGradient id="linear-gradient-2" x1="43.71" y1="171.07" x2="43.71" y2="71.89" xlink:href="#linear-gradient"/><linearGradient id="linear-gradient-3" x1="122.25" y1="298" x2="122.25" y2="184.14" xlink:href="#linear-gradient"/><linearGradient id="linear-gradient-4" x1="287.63" y1="161.22" x2="287.63" y2="81.74" gradientUnits="userSpaceOnUse"><stop offset="0" stop-color="#498cff"/><stop offset="1" stop-color="#37f8ff"/></linearGradient></defs><title>n</title><g id="Layer_2" data-name="Layer 2"><g id="Layer_1-2" data-name="Layer 1"><path class="cls-1" d="M340.57,121.48C340.57,54.65,321,.44,296.84,0h-27.3S204.76,48.67,111.49,67.77a290.54,290.54,0,0,0-4.67,53.71,290.42,290.42,0,0,0,4.67,53.71C204.76,194.29,269.55,243,269.55,243h27.3C321,242.52,340.57,188.31,340.57,121.48Zm-44.71,97.93c-1.73,1.93-5.11,5.17-8.23,5.17s-6.5-3.24-8.23-5.17c-4.2-4.68-8.25-12-11.7-21.06-7.74-20.36-12-47.66-12-76.87S260,65,267.7,44.61c3.46-9.1,7.5-16.39,11.7-21.06,1.73-1.93,5.11-5.17,8.23-5.17s6.5,3.24,8.23,5.17c4.2,4.68,8.25,12,11.7,21.06,7.74,20.36,12,47.66,12,76.87s-4.26,56.5-12,76.87C304.11,207.45,300.06,214.73,295.86,219.41Z"/><path class="cls-2" d="M83.75,121.48a325.78,325.78,0,0,1,3.68-49.59,321.65,321.65,0,0,1-46.68,3.43H18.45L0,106.82v29.32l18.45,31.49h22.3a321.84,321.84,0,0,1,46.68,3.43A326,326,0,0,1,83.75,121.48Z"/><path class="cls-3" d="M122.44,192.29l-42.57-8.15,27.22,106.94a8.88,8.88,0,0,0,12.2,6.2l39.43-15.78a9.08,9.08,0,0,0,4.72-13Z"/><path class="cls-4" d="M287.63,161.22c-1.2,0-2.5-1.25-3.17-2a26.52,26.52,0,0,1-4.51-8.12c-3-7.85-4.62-18.37-4.62-29.63S277,99.7,279.95,91.85a26.59,26.59,0,0,1,4.51-8.12c.67-.74,2-2,3.17-2s2.51,1.25,3.17,2a26.48,26.48,0,0,1,4.51,8.12c3,7.85,4.62,18.37,4.62,29.63s-1.64,21.78-4.62,29.63a26.56,26.56,0,0,1-4.51,8.12C290.14,160,288.84,161.22,287.63,161.22Z"/></g></g></svg>