<svg xmlns="http://www.w3.org/2000/svg" xmlns:xlink="http://www.w3.org/1999/xlink" viewBox="0 0 376 296.43"><defs><style>.cls-1{fill:url(#linear-gradient);}.cls-2{fill:url(#linear-gradient-2);}.cls-3{fill:url(#linear-gradient-3);}</style><linearGradient id="linear-gradient" x1="188" y1="237.56" x2="188" gradientTransform="matrix(-1, 0, 0, 1, 376, 0)" gradientUnits="userSpaceOnUse"><stop offset="0" stop-color="#ff9656"/><stop offset="1" stop-color="#ffd270"/></linearGradient><linearGradient id="linear-gradient-2" x1="290.05" y1="258.2" x2="290.05" y2="198.04" gradientTransform="matrix(-1, 0, 0, 1, 376, 0)" gradientUnits="userSpaceOnUse"><stop offset="0" stop-color="#498cff"/><stop offset="1" stop-color="#37f8ff"/></linearGradient><linearGradient id="linear-gradient-3" x1="226.84" y1="296.43" x2="226.84" y2="208.19" xlink:href="#linear-gradient"/></defs><title>mind10</title><g id="Layer_2" data-name="Layer 2"><g id="Layer_1-2" data-name="Layer 1"><path class="cls-1" d="M369.49,144.05c-12,4.42-26-.83-30.5,15.18-.47,1.67-6.78,3.54-8.81,2.43-2.32-1.26-4.89-7.21-3.89-8.59,5.43-7.46,10.66-17.82,18.28-20.45,35-12.06,38.08-18.37,22.39-48.82-8.85,7.28-18.36,14.91-27.65,22.8-4.12,3.5-7.54,7.82-11.72,11.23-7.77,6.33-15.36,13.23-24.12,17.8-2.9,1.51-9.17-3.41-13.9-5.4,3.3-3.44,6.26-7.3,10-10.17,2.71-2.08,8.11-1.93,9.42-4.35,7.75-14.27,20.26-22.19,34-29.68,8.05-4.38,7.22-25-1.42-32.2-18.19-15.26-37.34-29.41-63.83-30.29-1.5,5.27-2.07,11.14-4.84,15.67-1.92,3.15-6.87,4.46-10.46,6.59-1.5-3.36-4.92-7.23-4.2-10C263.07,17.52,251,9.53,237.67,7.42A635.11,635.11,0,0,0,154.75,0c-17.81-.44-28.93,28.49-20.05,46.58,2.2,4.49,1.24,10.54,1.73,15.88-5.16-3-13.91-5.26-14.85-9.28-3.31-14.25-3.94-29.12-5.81-45.78l-48.25,30C92.46,48.93,98,69.09,101.58,90.51a130.34,130.34,0,0,0,5.29,20.94c4.35,12.52,12.66,19.86,26.87,18.1,14-1.73,24.66,1.84,32.6,15.06,3.35,5.58,12.36,7.65,18.58,11.66,3.64,2.35,6.84,5.37,10.23,8.09-4.48,2.81-10.49,9-13.15,7.82-10-4.51-20.31-10.11-27.83-17.89-6.36-6.58-11.61-9.9-20.91-9.47-21.94,1-34.7-8.08-41.62-29.13-3.19-9.72-4.27-20.11-7.13-30-2.26-7.78-4.39-16.19-9-22.58-9.72-13.48-21.8-14.26-31.07-.64C29.35,84.7,16.18,108.22,2.9,131.58c-2.55,4.49-1.84,10.82-2.9,18.2,13.85-7.64,28.82-9.5,31.5-27.64.8-5.43,7.87-10.63,13.14-14.44,2.78-2,7.88-.78,11.94-1-.58,4.06,0,8.82-2,12C51,124.59,46,129.53,40.72,135.83c4.65,2.71,8,3.6,9.47,5.77,2,3,2.66,7,3.9,10.54-3.5,1.11-6.94,2.51-10.52,3.29C33,157.76,21.86,158.6,12,162.63c-3.87,1.58-8.1,11.56-6.48,15.11C8,183.2,16,190.49,20.65,189.84A216.24,216.24,0,0,0,69,177.49c10.15-4,17.54-12.65,12.88-26.19-.85-2.48,3-6.56,4.64-9.91,3.22,2,9,3.76,9.22,6.07,1,10.28.44,20.72.44,33.52,17.9,5.59,36.73,19.42,61.06,13.66,6-1.42,13,2.33,19.65,2.56,9.54.34,19.12-.73,28.67-.47,4.74.13,9.43,1.87,14.15,2.89-3.14,3.92-6,8.06-9.53,11.65-1.59,1.64-4.3,2.18-6.59,3.26,15.79,25.39,20.42,27.42,46,17.53a173.94,173.94,0,0,0,32.89-16.45c3.29-2.17,5.49-11.23,3.71-15.05-15.36-33-35.33-60.9-76.79-62.49a36.84,36.84,0,0,1-18.77-6.22c-14.64-10.27-28-22.34-48.09-19.93-3.48.42-8.11-4.05-11.21-7.23-1.64-1.68-2.34-6.09-1.27-8.1s5.13-4.3,7.41-3.89c14.38,2.63,28.64,6,43.23,9.15,9.78-11.29,8.6-20.17-3.81-32.11-5.29-5.08-17-8.67-8.69-18.62,1.51-1.8,13.67,2.9,18.93,7.09,18.6,14.82,20.46,33,5.73,58.52l65,16.7c-4.22-17.15-8-34.81-13.33-52-1-3.28-8.24-5.13-12.91-6.69-18.2-6.07-27.58-19.23-29.9-37.53-.46-3.6,2.75-7.67,4.26-11.52,3.39,2.78,8.55,4.9,9.87,8.45,9.19,24.74,21.36,32,47.24,27.14,15.47-2.93,31.87,4,38,17.11,1.51,3.21-.5,8.08-.89,12.18-3.63-.86-7.68-1-10.8-2.72-7.77-4.38-15.12-9.52-22.64-14.36l-4.81,4c1.12,7.85,2,15.73,3.4,23.54,2.65,15,5.42,30.07,8.48,45A34.05,34.05,0,0,0,278.3,157c5.71,9.18,13.52,17.43,17.43,27.26,6.36,16,17.27,15.52,29.88,11.08C349.19,187,359.38,167,369.49,144.05Z"/><path class="cls-2" d="M142.33,212.47c-20.93-5.28-40.4-13.1-60.27-14.32-17.32-1.06-35.1,5.34-52.49,8.41.68,21.88,20.66,43.16,45,49.06C106.23,263.33,119.62,255.08,142.33,212.47Z"/><path class="cls-3" d="M96.85,293.47c17.74,3,32.3,6.58,46.7-5.35,13.3-11,27.84-20.68,42.48-29.92C205.19,246.1,206.53,240,190,225c-7.69-7-16.7-12.45-22.65-16.81Z"/></g></g></svg>