<svg xmlns="http://www.w3.org/2000/svg" xmlns:xlink="http://www.w3.org/1999/xlink" viewBox="0 0 316.8 297"><defs><style>.cls-1{fill:url(#linear-gradient);}.cls-2{fill:url(#linear-gradient-2);}.cls-3{fill:url(#linear-gradient-3);}.cls-4{fill:url(#linear-gradient-4);}.cls-5{fill:url(#linear-gradient-5);}</style><linearGradient id="linear-gradient" x1="64.97" y1="297" x2="64.97" y2="148.5" gradientUnits="userSpaceOnUse"><stop offset="0" stop-color="#ff9656"/><stop offset="1" stop-color="#ffd270"/></linearGradient><linearGradient id="linear-gradient-2" x1="158.4" y1="158.02" x2="158.4" y2="0" xlink:href="#linear-gradient"/><linearGradient id="linear-gradient-3" x1="251.83" x2="251.83" y2="148.5" xlink:href="#linear-gradient"/><linearGradient id="linear-gradient-4" x1="9.28" y1="266.8" x2="9.28" y2="158.9" gradientUnits="userSpaceOnUse"><stop offset="0" stop-color="#498cff"/><stop offset="1" stop-color="#37f8ff"/></linearGradient><linearGradient id="linear-gradient-5" x1="307.52" y1="266.8" x2="307.52" y2="158.9" xlink:href="#linear-gradient-4"/></defs><title>h</title><g id="Layer_2" data-name="Layer 2"><g id="Layer_1-2" data-name="Layer 1"><path class="cls-1" d="M65,148.5c-14.59,0-27.84,12.32-27.84,27.84v92.81c0,15,13.16,27.84,27.84,27.84a27.87,27.87,0,0,0,27.84-27.84V176.34A27.87,27.87,0,0,0,65,148.5Z"/><path class="cls-2" d="M159,0C72,0,0,70.78,0,157.78V158a46,46,0,0,1,27.84-9.52h0A46.44,46.44,0,0,1,59.5,130.59c11.93-43.12,52.65-74.9,99.52-74.9a102.14,102.14,0,0,1,98.28,74.9,46.44,46.44,0,0,1,31.64,17.91h0A46,46,0,0,1,316.8,158v-.24C316.8,70.78,246,0,159,0Z"/><path class="cls-3" d="M251.83,148.5A27.87,27.87,0,0,0,224,176.34v92.81A27.87,27.87,0,0,0,251.83,297c14.9,0,27.84-13,27.84-27.84V176.34C279.68,160.68,266.31,148.5,251.83,148.5Z"/><path class="cls-4" d="M0,185v55.69A27.77,27.77,0,0,0,18.56,266.8V158.9A27.77,27.77,0,0,0,0,185Z"/><path class="cls-5" d="M298.24,158.9V266.8a27.77,27.77,0,0,0,18.56-26.11V185A27.77,27.77,0,0,0,298.24,158.9Z"/></g></g></svg>