<svg xmlns="http://www.w3.org/2000/svg" xmlns:xlink="http://www.w3.org/1999/xlink" viewBox="0 0 328.57 296.97"><defs><style>.cls-1{fill:url(#linear-gradient);}.cls-2{fill:url(#linear-gradient-2);}.cls-3{fill:url(#linear-gradient-3);}.cls-4{fill:url(#linear-gradient-4);}</style><linearGradient id="linear-gradient" x1="185.09" y1="122.17" x2="185.09" gradientUnits="userSpaceOnUse"><stop offset="0" stop-color="#498cff"/><stop offset="1" stop-color="#37f8ff"/></linearGradient><linearGradient id="linear-gradient-2" x1="193.46" y1="101.16" x2="193.46" y2="60.95" gradientUnits="userSpaceOnUse"><stop offset="0" stop-color="#ff9656"/><stop offset="1" stop-color="#ffd270"/></linearGradient><linearGradient id="linear-gradient-3" x1="163.04" y1="296.97" x2="163.04" y2="119.35" xlink:href="#linear-gradient-2"/><linearGradient id="linear-gradient-4" x1="163.05" y1="251.5" x2="163.05" y2="164.82" xlink:href="#linear-gradient-2"/></defs><title>m</title><g id="Layer_2" data-name="Layer 2"><g id="Layer_1-2" data-name="Layer 1"><path class="cls-1" d="M100.5,101.16l105.22-55a29.4,29.4,0,0,1,39.7,12.43l22.29,42.61h16.58a38.82,38.82,0,0,1,34.46,21,20.58,20.58,0,0,0,7.47-27.07l-35-66.87a20.58,20.58,0,0,0-27.79-8.7l-.55.28-4.58-8.77a20.58,20.58,0,0,0-27.79-8.7L41.62,101.17H100.5Z"/><path class="cls-2" d="M219.34,60.95a11.06,11.06,0,0,0-5.19,1.28l-74.42,38.93H247.19L229.31,67A11.21,11.21,0,0,0,219.34,60.95Z"/><path class="cls-3" d="M305.5,149.83h-.62v-9.89a20.59,20.59,0,0,0-20.59-20.59H41.8a20.59,20.59,0,0,0-20.59,20.59v9.89h-.62A20.59,20.59,0,0,0,0,170.42v75.46a20.59,20.59,0,0,0,20.59,20.59h.62v9.89A20.59,20.59,0,0,0,41.8,297H284.29a20.59,20.59,0,0,0,20.59-20.59v-9.89h.62a20.59,20.59,0,0,0,20.59-20.59V170.42A20.59,20.59,0,0,0,305.5,149.83Zm-34.06,90.43A29.45,29.45,0,0,1,242,269.68h-158a29.45,29.45,0,0,1-29.41-29.41V176a29.45,29.45,0,0,1,29.41-29.41H242A29.45,29.45,0,0,1,271.44,176v64.22Z"/><path class="cls-4" d="M242,164.82h-158A11.24,11.24,0,0,0,72.84,176v64.22A11.24,11.24,0,0,0,84.07,251.5H242a11.24,11.24,0,0,0,11.23-11.23V176A11.24,11.24,0,0,0,242,164.82Zm-142.32,17h51.52a9.09,9.09,0,0,1,0,18.18H99.71a9.09,9.09,0,0,1,0-18.18Zm101.83,52.73H99.71a9.09,9.09,0,1,1,0-18.18H201.53a9.09,9.09,0,0,1,0,18.18Z"/></g></g></svg>