<svg xmlns="http://www.w3.org/2000/svg" xmlns:xlink="http://www.w3.org/1999/xlink" viewBox="0 0 166.02 198.5"><defs><style>.cls-1{fill:url(#linear-gradient);}</style><linearGradient id="linear-gradient" x1="83.01" y1="198.5" x2="83.01" gradientUnits="userSpaceOnUse"><stop offset="0" stop-color="#ff9656"/><stop offset="1" stop-color="#ffd270"/></linearGradient></defs><title>solo</title><g id="Capa_2" data-name="Capa 2"><g id="Layer_1" data-name="Layer 1"><path class="cls-1" d="M148,154.79l-34.48-17.24a9.49,9.49,0,0,1-5.27-8.54v-12.2c.83-1,1.7-2.16,2.59-3.43a82.6,82.6,0,0,0,10.66-20.93,14.32,14.32,0,0,0,8.4-13.05V65a14.39,14.39,0,0,0-3.61-9.47V36.29c.2-2,1-13.8-7.55-23.55C111.35,4.29,99.33,0,83,0S54.66,4.29,47.25,12.74C38.7,22.49,39.5,34.31,39.7,36.29v19.2A14.39,14.39,0,0,0,36.09,65V79.4a14.35,14.35,0,0,0,5.4,11.22,75.75,75.75,0,0,0,12.64,26.12v11.94a9.54,9.54,0,0,1-5,8.37L17,154.61A32.56,32.56,0,0,0,0,183.2v15.3H166V183.91A32.38,32.38,0,0,0,148,154.79Z"/></g></g></svg>