<svg xmlns="http://www.w3.org/2000/svg" xmlns:xlink="http://www.w3.org/1999/xlink" viewBox="0 0 295.25 295.25"><defs><style>.cls-1{fill:url(#linear-gradient);}.cls-2{fill:url(#linear-gradient-2);}</style><linearGradient id="linear-gradient" x1="147.63" y1="-1322.75" x2="147.63" y2="-1027.5" gradientTransform="matrix(1, 0, 0, -1, 0, -1027.5)" gradientUnits="userSpaceOnUse"><stop offset="0" stop-color="#ff9656"/><stop offset="1" stop-color="#ffd270"/></linearGradient><linearGradient id="linear-gradient-2" x1="147.63" y1="228.25" x2="147.63" y2="130.75" gradientUnits="userSpaceOnUse"><stop offset="0" stop-color="#498cff"/><stop offset="1" stop-color="#37f8ff"/></linearGradient></defs><title>venue</title><g id="Layer_2" data-name="Layer 2"><g id="Layer_1-2" data-name="Layer 1"><path class="cls-1" d="M262.44,32.8H247.69V65.61H191.2V32.8H104.06V65.61H47.57V32.8H32.81A32.9,32.9,0,0,0,0,65.61V262.45a32.91,32.91,0,0,0,32.81,32.81H262.44a32.91,32.91,0,0,0,32.81-32.81V65.61A32.91,32.91,0,0,0,262.44,32.8Zm0,229.64H32.81V107.18H262.44V262.45ZM90,0H60V50.25H90ZM235,0H205V50.25h30Z"/><polygon class="cls-2" points="196.38 166.34 160.79 166.34 160.79 130.75 134.47 130.75 134.47 166.34 98.88 166.34 98.88 192.66 134.47 192.66 134.47 228.25 160.79 228.25 160.79 192.66 196.38 192.66 196.38 166.34"/></g></g></svg>