<svg xmlns="http://www.w3.org/2000/svg" xmlns:xlink="http://www.w3.org/1999/xlink" viewBox="0 0 958.67 959"><defs><style>.cls-1{fill-opacity:0.1;}.cls-2{stroke:#fff;stroke-width:40px;fill:url(#radial-gradient);}.cls-3{fill:url(#radial-gradient-2);}.cls-4{fill:url(#radial-gradient-3);}.cls-5{fill:url(#radial-gradient-4);}.cls-6{opacity:0.08;}.cls-6,.cls-7{isolation:isolate;}.cls-7{opacity:0.05;}</style><radialGradient id="radial-gradient" cx="-3399.7" cy="4932.94" r="4.29" gradientTransform="matrix(90, 0, 0, -90, 306451.64, 444251.34)" gradientUnits="userSpaceOnUse"><stop offset="0.1" stop-color="#6fa3d8"/><stop offset="0.9" stop-color="#134882"/></radialGradient><radialGradient id="radial-gradient-2" cx="-3422.13" cy="4951.35" r="2.15" gradientTransform="matrix(193, 0, 0, -127.18, 660966.18, 629696.58)" gradientUnits="userSpaceOnUse"><stop offset="0" stop-color="#e45246"/><stop offset="1" stop-color="#cf001d"/></radialGradient><radialGradient id="radial-gradient-3" cx="-3416.72" cy="4959.53" r="3.26" gradientTransform="matrix(149.98, 0, 0, -174, 512861.65, 863393.74)" gradientUnits="userSpaceOnUse"><stop offset="0.65" stop-color="#48ab32"/><stop offset="1" stop-color="#347a2e"/></radialGradient><radialGradient id="radial-gradient-4" cx="-3409.54" cy="4957.19" r="3.43" gradientTransform="matrix(120.44, 0, 0, -161.32, 411284.47, 800153.45)" gradientUnits="userSpaceOnUse"><stop offset="0.6" stop-color="#f8c700"/><stop offset="0.7" stop-color="#f1b900"/><stop offset="1" stop-color="#aa6e0f"/></radialGradient></defs><title>Asset 147</title><g id="Layer_2" data-name="Layer 2"><g id="Layer_1-2" data-name="Layer 1"><path class="cls-1" d="M780.85,567.15c0-165.88-134.47-300.36-300.36-300.36S180.13,401.26,180.13,567.15H266C266,448.66,362,352.61,480.49,352.61S695,448.66,695,567.15"/><circle class="cls-2" cx="478.35" cy="479.61" r="193.09"/><path class="cls-3" d="M909.57,266.79C791.44,29.11,503-67.8,265.33,50.33A480.57,480.57,0,0,0,81.45,211L274.53,545.69c-35.56-113,27.24-233.48,140.27-269a214.54,214.54,0,0,1,61.4-9.87"/><path class="cls-4" d="M81.45,211C-66.34,431.47-7.43,730,213,877.78a480.57,480.57,0,0,0,228.85,79.83L643.54,614.34c-75.4,91.4-210.62,104.36-302,29a214.54,214.54,0,0,1-67-97.61"/><path class="cls-5" d="M441.87,957.61c264.66,20,495.42-178.32,515.43-443a480.57,480.57,0,0,0-47.73-247.85H476.2c118.49.54,214.1,97,213.55,215.52a214.54,214.54,0,0,1-46.21,132"/><path class="cls-6" d="M81.45,211,274.53,545.69a214.54,214.54,0,0,1,8.58-145.89L90,198.14"/><path class="cls-7" d="M441.87,957.61,643.54,614.34a214.54,214.54,0,0,1-124.43,72.94L433.29,957.61"/><path class="cls-7" d="M909.57,266.79H476.2a214.54,214.54,0,0,1,167.34,81.53l274.61-68.65"/></g></g></svg>