<svg xmlns="http://www.w3.org/2000/svg" xmlns:xlink="http://www.w3.org/1999/xlink" viewBox="0 0 961.2 961.2"><defs><style>.cls-1{fill:#fff;}.cls-2{fill:url(#linear-gradient);}.cls-3{fill:url(#linear-gradient-2);}.cls-4,.cls-6,.cls-8,.cls-9{opacity:0.5;}.cls-12,.cls-13,.cls-17,.cls-18,.cls-19,.cls-4,.cls-6,.cls-8,.cls-9{isolation:isolate;}.cls-4{fill:url(#linear-gradient-3);}.cls-5{fill:none;stroke:#ef9500;stroke-miterlimit:10;stroke-width:0.68px;}.cls-6{fill:url(#linear-gradient-4);}.cls-7{fill:#bdbab9;}.cls-8{fill:url(#linear-gradient-5);}.cls-9{fill:url(#linear-gradient-6);}.cls-10{fill:#e67229;}.cls-11{fill:#f5a900;}.cls-12{opacity:0.1;fill:url(#linear-gradient-7);}.cls-13{opacity:0.3;fill:url(#linear-gradient-8);}.cls-14{fill:#ab5d35;}.cls-15{fill:#e56b18;}.cls-16{fill:#fcca00;}.cls-17,.cls-19{opacity:0.6;}.cls-17{fill:url(#linear-gradient-9);}.cls-18{opacity:0.2;fill:url(#linear-gradient-10);}.cls-19{fill:url(#linear-gradient-11);}.cls-20{fill:url(#linear-gradient-12);}</style><linearGradient id="linear-gradient" x1="477.77" y1="7843.25" x2="467.14" y2="7594.64" gradientTransform="matrix(1, 0, 0, -1, 0, 8282.04)" gradientUnits="userSpaceOnUse"><stop offset="0.64" stop-color="#fff"/><stop offset="0.68" stop-color="silver"/><stop offset="0.73" stop-color="#848484"/><stop offset="0.78" stop-color="#555"/><stop offset="0.82" stop-color="#343434"/><stop offset="0.87" stop-color="#1d1d1d"/><stop offset="0.91" stop-color="#0e0e0e"/><stop offset="0.96" stop-color="#060606"/><stop offset="1"/></linearGradient><linearGradient id="linear-gradient-2" x1="501.87" y1="8105.97" x2="503.27" y2="7697.73" gradientTransform="matrix(1, 0, 0, -1, 0, 8282.04)" gradientUnits="userSpaceOnUse"><stop offset="0"/><stop offset="0.11" stop-color="#262626"/><stop offset="0.24" stop-color="#555"/><stop offset="0.37" stop-color="#848484"/><stop offset="0.5" stop-color="#adadad"/><stop offset="0.63" stop-color="#cfcfcf"/><stop offset="0.76" stop-color="#e9e9e9"/><stop offset="0.88" stop-color="#f9f9f9"/><stop offset="1" stop-color="#fff"/></linearGradient><linearGradient id="linear-gradient-3" x1="480.7" y1="7937.54" x2="472.91" y2="7822.79" gradientTransform="matrix(1, 0, 0, -1, 0, 8282.04)" gradientUnits="userSpaceOnUse"><stop offset="0.77" stop-color="#fff"/><stop offset="0.8" stop-color="silver"/><stop offset="0.82" stop-color="#848484"/><stop offset="0.85" stop-color="#555"/><stop offset="0.88" stop-color="#343434"/><stop offset="0.91" stop-color="#1d1d1d"/><stop offset="0.94" stop-color="#0e0e0e"/><stop offset="0.97" stop-color="#060606"/><stop offset="1"/></linearGradient><linearGradient id="linear-gradient-4" x1="477.18" y1="8118.03" x2="488.88" y2="7964.29" gradientTransform="matrix(1, 0, 0, -1, 0, 8282.04)" gradientUnits="userSpaceOnUse"><stop offset="0.12" stop-color="#fff"/><stop offset="0.2" stop-color="#cdcdcd"/><stop offset="0.41" stop-color="#525252"/><stop offset="0.56" stop-color="#151515"/><stop offset="0.63"/><stop offset="0.63" stop-color="#181818"/><stop offset="0.73" stop-color="#070707"/></linearGradient><linearGradient id="linear-gradient-5" x1="428.94" y1="8008.65" x2="434.92" y2="7961.06" gradientTransform="matrix(1, 0, 0, -1, 0, 8282.04)" gradientUnits="userSpaceOnUse"><stop offset="0" stop-color="#fff"/><stop offset="0.04" stop-color="#d3d3d3"/><stop offset="0.11" stop-color="#989898"/><stop offset="0.19" stop-color="#696969"/><stop offset="0.26" stop-color="#444"/><stop offset="0.34" stop-color="#292929"/><stop offset="0.42" stop-color="#171717"/><stop offset="0.5" stop-color="#0c0c0c"/><stop offset="0.59" stop-color="#050505"/><stop offset="0.71"/></linearGradient><linearGradient id="linear-gradient-6" x1="502.6" y1="8019.51" x2="511.24" y2="7950.82" xlink:href="#linear-gradient-5"/><linearGradient id="linear-gradient-7" x1="469.2" y1="7984.54" x2="463.46" y2="7892.08" gradientTransform="matrix(1, 0, 0, -1, 0, 8282.04)" gradientUnits="userSpaceOnUse"><stop offset="0" stop-color="#fff"/><stop offset="0.1" stop-color="silver"/><stop offset="0.21" stop-color="#848484"/><stop offset="0.32" stop-color="#555"/><stop offset="0.44" stop-color="#343434"/><stop offset="0.55" stop-color="#1d1d1d"/><stop offset="0.66" stop-color="#0e0e0e"/><stop offset="0.77" stop-color="#060606"/><stop offset="0.88"/></linearGradient><linearGradient id="linear-gradient-8" x1="340.61" y1="7595.33" x2="344.32" y2="7909.51" gradientTransform="matrix(1, 0, 0, -1, 0, 8282.04)" gradientUnits="userSpaceOnUse"><stop offset="0.08"/><stop offset="0.11" stop-color="#262626"/><stop offset="0.14" stop-color="#555"/><stop offset="0.18" stop-color="#848484"/><stop offset="0.21" stop-color="#adadad"/><stop offset="0.24" stop-color="#cfcfcf"/><stop offset="0.28" stop-color="#e9e9e9"/><stop offset="0.31" stop-color="#f9f9f9"/><stop offset="0.34" stop-color="#fff"/><stop offset="0.56" stop-color="#fff"/></linearGradient><linearGradient id="linear-gradient-9" x1="-412.28" y1="7265.83" x2="-363.14" y2="7562.46" gradientTransform="translate(2644.95 7712.47) rotate(158.78)" gradientUnits="userSpaceOnUse"><stop offset="0.46" stop-color="#d9d200"/><stop offset="0.48" stop-color="#ddd714"/><stop offset="0.56" stop-color="#e6e04d"/><stop offset="0.63" stop-color="#edea80"/><stop offset="0.71" stop-color="#f3f1ab"/><stop offset="0.78" stop-color="#f8f7ce"/><stop offset="0.86" stop-color="#fcfae8"/><stop offset="0.93" stop-color="#fdfdf9"/><stop offset="1" stop-color="#fff"/></linearGradient><linearGradient id="linear-gradient-10" x1="630.75" y1="7897.11" x2="670.86" y2="7574.02" gradientTransform="matrix(1, 0, 0, -1, 0, 8282.04)" gradientUnits="userSpaceOnUse"><stop offset="0"/><stop offset="0.04" stop-color="#262626"/><stop offset="0.08" stop-color="#555"/><stop offset="0.13" stop-color="#848484"/><stop offset="0.17" stop-color="#adadad"/><stop offset="0.21" stop-color="#cfcfcf"/><stop offset="0.26" stop-color="#e9e9e9"/><stop offset="0.3" stop-color="#f9f9f9"/><stop offset="0.34" stop-color="#fff"/><stop offset="0.56" stop-color="#fff"/></linearGradient><linearGradient id="linear-gradient-11" x1="594.54" y1="7475.51" x2="643.68" y2="7772.12" gradientTransform="matrix(1, 0, 0, -1, 0, 8282.04)" xlink:href="#linear-gradient-9"/><linearGradient id="linear-gradient-12" x1="605.9" y1="7725.8" x2="631.13" y2="7674.64" gradientTransform="matrix(1, 0, 0, -1, 0, 8282.04)" gradientUnits="userSpaceOnUse"><stop offset="0.06" stop-color="#353534"/><stop offset="0.07" stop-color="#575756"/><stop offset="0.09" stop-color="#848484"/><stop offset="0.11" stop-color="#aeaead"/><stop offset="0.13" stop-color="#d0d0cf"/><stop offset="0.15" stop-color="#e9e9e9"/><stop offset="0.16" stop-color="#f9f9f9"/><stop offset="0.18" stop-color="#fff"/><stop offset="1"/></linearGradient></defs><title>Asset 123</title><g id="Layer_2" data-name="Layer 2"><g id="Layer_1-2" data-name="Layer 1"><circle class="cls-1" cx="480.6" cy="480.6" r="480.6"/><path class="cls-2" d="M568.14,523.68c0,38.53-42.09,69.77-94,69.77s-94-31.24-94-69.77,42.08-69.77,94-69.77S568.14,485.15,568.14,523.68Z"/><path d="M548.93,752.3s-47.28-3.37-56.28-5.63a114,114,0,0,0-21.39,2.25s-41.65,6.75-63,3.37l-113.68-152s-18-36,29.27-120.44c0,0,46.15-70.91,52.9-77.66s22.51-40.52,21.39-81c0,0-31.52-144.07,83.29-148.57,0,0,84.42-15.76,99.05,79.91,0,0,1.12,77.67,4.5,92.3,0,0-10.13,13.51,43.9,77.67,0,0,103.55,115.94,42.77,193.6Z"/><path class="cls-3" d="M416.89,365.91s-3.9,51.25-35.1,112.52c0,0-24.51,46.79-28.41,96.92,0,0-34.53-39,13.93-116.42,0,0,3.44-4.46,1.06-5.49,0,0-1.6-1.67-4.68,3.72,0,0-50.6,74.18-24.6,119.49,0,0,5.94,10,18.57,20.79,0,0,29.71,19.68,38.25,28.6s34.91,34.91,19.31,49.39a19.88,19.88,0,0,1-16,5.2s15.22,46.42,86.53,43.82c0,0,43.45-4.83,73.53-30.82l115.49-88.38-3-6.31s15.23-23.77-36.39-43.82c0,0,18.56-50.51-40.11-111,0,0-7.05-4.83-4.08,2.23,0,0,53.48,47.53,31.19,104.73l-11.51-.74s-10-46.05-33.8-88.76c0,0-37.69-79.47-38.81-110.67S416.89,365.91,416.89,365.91Z"/><path class="cls-4" d="M530.24,399.09c0,18.85-23.84,34.15-53.24,34.15s-53.24-15.29-53.24-34.15,23.84-34.15,53.24-34.15S530.24,380.23,530.24,399.09Z"/><path class="cls-5" d="M407.94,347.89s40.18,51.5,95.7,12.42c0,0,6.94-8.4,28.13-13.88"/><path class="cls-6" d="M551.47,222.72c2.48,28.15-26.55,53.72-64.85,57.1S415.26,263.12,412.77,235s26.55-53.71,64.85-57.09S549,194.57,551.47,222.72Z"/><path class="cls-7" d="M454.53,291.5c0,18.92-9.86,34.26-22,34.26s-22-15.34-22-34.26,9.87-34.26,22-34.26S454.53,272.57,454.53,291.5Z"/><path class="cls-7" d="M538.37,292.52c0,22-13.75,39.81-30.7,39.81S477,314.5,477,292.52s13.74-39.79,30.7-39.79S538.37,270.54,538.37,292.52Z"/><path d="M440.36,299.7c0,9.66-4.16,17.5-9.3,17.5s-9.29-7.84-9.29-17.5,4.16-17.49,9.29-17.49S440.36,290,440.36,299.7Z"/><path class="cls-8" d="M437.52,292.77c0,4.44-2.75,8-6.15,8s-6.15-3.59-6.15-8,2.75-8,6.15-8S437.52,288.33,437.52,292.77Z"/><path d="M520.74,300.49c0,13.93-6.77,25.21-15.13,25.21s-15.14-11.29-15.14-25.21,6.77-25.21,15.14-25.21S520.74,286.57,520.74,300.49Z"/><path class="cls-9" d="M516.12,290.5c0,6.41-4.48,11.59-10,11.59s-10-5.18-10-11.59,4.48-11.58,10-11.58S516.12,284.1,516.12,290.5Z"/><path class="cls-10" d="M419,364.68s-21-10.5-16.22-24.82c0,0,.32-7.63,10.5-15s8.91-6.36,10.18-7.32,23.87-17.18,30.86-19.09,22.28-2.23,32.14,3.82,33.41,15.28,37.54,16.23,15.59,7.32,17.18,14-1.59,16.23-6.68,22-14,11.77-24.5,16.23-14.32,7.64-21,11.45-25.14,11.46-41,3.5-13.68-11.14-18.77-14A86,86,0,0,1,419,364.68Z"/><path class="cls-11" d="M422.41,364.12s-20.11-10-15.53-23.76c0,0,.3-7.31,10-14.31s8.53-6.09,9.74-7,22.85-16.44,29.54-18.27,21.33-2.13,30.76,3.66S519,319,522.91,320s14.93,7,16.45,13.4-1.52,15.54-6.39,21-13.4,11.27-23.45,15.53-13.7,7.31-20.11,11-24.06,11-39.28,3.35-13.1-10.66-18-13.4A80.81,80.81,0,0,1,422.41,364.12Z"/><path class="cls-12" d="M429.63,323.65s15-23,35.8-23.38c0,0,34.33,7.31,40.17,22.29,0,0-7.3,20.45-39.82,20.45C465.79,343,435.11,344.84,429.63,323.65Z"/><path class="cls-13" d="M316.81,596.34S290.07,551,327.95,484.93c0,0,14.11-28.22,41.59-60.9,0,0,15.6-15.6,5.2,2.23,0,0-31.2,50.51-35.65,61.65s-29,46.05,3.71,113.64S316.81,596.34,316.81,596.34Z"/><path class="cls-14" d="M424.64,725.28c.49-16.27-15.76-34.32-33-54.92s-28.92-50.66-28.92-50.66c-16-35.79-39.41-35.46-45.19-34.77-16.19-.1-29.19,15.58-29.19,15.58C280,612.6,272.52,619,267.67,622.23l-.75.09c-49.41,5.55-33.39,56.82-33.39,56.82,8.18,17.29-5.23,36.63-5.23,36.63-9.9,32.11,17.45,33.66,22.51,34.14s27.42,3,43.58,4.52S338,770.16,338,770.16a95.88,95.88,0,0,0,52.51,4.94C429,757.71,424.64,725.28,424.64,725.28Z"/><path class="cls-15" d="M421.41,723.47c.54-15.6-15.11-32.85-31.72-52.52s-27.78-48.44-27.78-48.44c-10.46-23.31-24.29-30.56-33.82-32.6-10.08-3.24-25.92.27-34.8,10.44-9.58,11-12,13.16-19.39,20.54a35.26,35.26,0,0,1-5.42,4.63c-47.06,5.91-31.93,54.55-31.93,54.55,7.84,16.55-5.23,35.15-5.23,35.15C221.58,746,248.07,747.41,253,747.85s26.55,2.75,42.19,4.14,42.13,14.88,42.13,14.88c26.19,10.35,50.83,4.51,50.83,4.51C425.46,754.54,421.41,723.47,421.41,723.47Z"/><path class="cls-16" d="M418.09,721.95c.47-15.16-14.68-32-30.76-51.15s-27-47.17-27-47.17c-14.47-32.34-35.44-33-41.6-32.43a37.42,37.42,0,0,0-5.51.76,36.8,36.8,0,0,0-20.45,11.94c-9.77,11.73-12.46,14.36-19.73,22-.69.09-1.38.18-2.09.26-46.11,5.2-31.19,53-31.19,53,7.61,16.11-4.91,34.13-4.91,34.13-9.26,29.93,16.26,31.36,21,31.8s25.6,2.77,40.68,4.17,40.64,14.63,40.64,14.63a89.57,89.57,0,0,0,49,4.57C422.11,752.16,418.09,721.95,418.09,721.95Z"/><path class="cls-17" d="M369.47,665.66s-23.15-77.69-52.75-61-37.37,30.45-37.37,30.45-33,18.89,28.56,63.87Z"/><path class="cls-18" d="M650.34,588.82s36.07-64-38.1-169.17c0,0-19.31-36.57,1-12.19,0,0,90.93,100.07,60.46,191Z"/><path class="cls-14" d="M597.59,585.59s-28.57,4.09-30.84,49.05c0,0,0,32.25-8.61,57.69s-17.23,48.16-10.88,63.14c0,0,7.71,31.8,49.88,34.07a95.81,95.81,0,0,0,47.16-23.62s20.41-23.16,34.92-30.43,34.46-17.71,39-20,29.47-13.62,8.61-40c0,0-19.49-13.18-18.13-32.25,0,0-3.62-53.6-51.7-40.89S597.59,585.59,597.59,585.59Z"/><path class="cls-15" d="M598.44,590s-27.72,3.91-29.92,47c0,0,0,30.87-8.36,55.22s-16.72,46.09-10.56,60.44c0,0,7.48,30.44,48.39,32.6,0,0,25.08-3.48,45.76-22.61,0,0,19.8-22.17,33.87-29.12s33.44-17,37.83-19.13,28.59-13,8.36-38.26c0,0-18.92-12.61-17.6-30.87,0,0-3.52-51.31-50.15-39.13S598.44,590,598.44,590Z"/><path class="cls-16" d="M599.13,591.75s-26.67,3.8-28.78,45.69c0,0,0,30-8,53.74S546.23,736,552.15,750c0,0,7.19,29.61,46.55,31.73a89.54,89.54,0,0,0,44-22s19-21.57,32.59-28.34,32.17-16.5,36.4-18.62,27.51-12.7,8-37.24c0,0-18.2-12.27-16.93-30,0,0-3.38-49.93-48.25-38.08S599.13,591.75,599.13,591.75Z"/><path class="cls-19" d="M577.1,679.92s-6.55-80.8,27.08-76S650,618.77,650,618.77s37.56,5.68-3.49,69.88Z"/><path d="M593.41,586.48s2.07-28.74,28.75-21.16c0,0,26.67,6.21,40.7,21.16,0,0,12.19,14.25-4.6,27.36,0,0-10.81,9.2-19.32,12.42,0,0-23,10.8-35.18-3.68C603.76,622.58,593.18,609.94,593.41,586.48Z"/><path class="cls-20" d="M599.95,586.27s1.39-19.34,19.34-14.24c0,0,17.95,4.18,27.38,14.24,0,0,8.2,9.6-3.09,18.42,0,0-7.28,6.18-13,8.35,0,0-15.47,7.28-23.68-2.48C606.91,610.57,599.79,602.06,599.95,586.27Z"/></g></g></svg>