<svg xmlns="http://www.w3.org/2000/svg" viewBox="0 0 961.2 961.2"><defs><style>.cls-1{fill:#ce310d;}.cls-2{fill:#fff;}</style></defs><title>Asset 113</title><g id="Layer_2" data-name="Layer 2"><g id="Layer_1-2" data-name="Layer 1"><circle class="cls-1" cx="480.6" cy="480.6" r="480.6"/><g id="ubuntu"><path class="cls-2" d="M328.74,482.46a154.37,154.37,0,0,1,59.17-121.62l-55.09-88.18a258.55,258.55,0,0,0-97.31,137,92.95,92.95,0,0,1,2.81,154.48,258.49,258.49,0,0,0,96.76,129.67l51.24-91.13A154.06,154.06,0,0,1,328.74,482.46Z"/><path class="cls-2" d="M252.14,487.86a66.84,66.84,0,1,1-66.85-66.8A66.86,66.86,0,0,1,252.14,487.86Z"/><path class="cls-2" d="M627.49,649.45a92.28,92.28,0,0,1,43,10.55A257.25,257.25,0,0,0,740.74,500.4l-103.81-2a154.63,154.63,0,0,1-216,125.44l-51.6,90.28a258.83,258.83,0,0,0,165.52,21.25A92.91,92.91,0,0,1,627.49,649.45Z"/><path class="cls-2" d="M694.29,742.34a66.81,66.81,0,1,1-66.8-66.82A66.8,66.8,0,0,1,694.29,742.34Z"/><path class="cls-2" d="M677.63,312.72a92.89,92.89,0,0,1-146.53-75.84c0-2.73.12-5.36.32-8a258.81,258.81,0,0,0-163.08,22.39l51.3,90.34a154.58,154.58,0,0,1,217,122.88l103.81-3.17A256.94,256.94,0,0,0,677.63,312.72Z"/><path class="cls-2" d="M690.8,236.89A66.8,66.8,0,1,1,624,170.05,66.77,66.77,0,0,1,690.8,236.89Z"/></g></g></g></svg>