<svg xmlns="http://www.w3.org/2000/svg" viewBox="0 0 961.2 961.2"><defs><style>.cls-1{fill:#fff;}.cls-2{fill:#21a6f0;}.cls-3{fill:#84b900;}.cls-4{fill:#fcb600;}.cls-5{fill:#ef4f1e;}</style></defs><title>Asset 126</title><g id="Layer_2" data-name="Layer 2"><g id="Layer_1-2" data-name="Layer 1"><circle class="cls-1" cx="480.6" cy="480.6" r="480.6"/><path class="cls-2" d="M404.37,683.6c-10.84-6.37-21.3-12.92-32.13-18.79a158,158,0,0,0-56.42-18.08,182.86,182.86,0,0,0-47.19.62c-27.08,3.71-52.9,11.82-78.12,22.08-.86.35-1.75.66-3,1.11.18-1,.25-1.67.44-2.34q27.2-95.05,54.4-190.1A4.12,4.12,0,0,1,245,475c22.51-9.09,45.5-16.53,69.42-21,44.3-8.33,86.1-2.22,125,21.14,6.61,4,13,8.27,19.6,12.27,1.74,1.06,2,2.07,1.41,3.92q-22.3,76.29-44.49,152.6-5.49,18.86-11,37.72C404.75,682.39,404.52,683.12,404.37,683.6Z"/><path class="cls-3" d="M556.19,280.85c7.49,4.62,14.69,9.25,22.07,13.57,17.58,10.27,36.23,17.85,56.33,21.52a176.4,176.4,0,0,0,51,1.56c29.63-3.21,57.74-12,85.24-23.07.71-.29,1.43-.57,2.15-.83.12,0,.31.08.72.2-1.68,5.9-3.35,11.79-5.05,17.68q-24.94,86.35-49.84,172.71a5.71,5.71,0,0,1-3.65,4.08,343.68,343.68,0,0,1-53,18.48c-20.4,5.16-41.09,7.68-62.14,6.48a166.2,166.2,0,0,1-60.61-15.48,268,268,0,0,1-37.39-21.47c-.56-.38-1.09-.8-1.75-1.28Z"/><path class="cls-4" d="M434.74,700.94l55.94-193.27c1,.64,1.89,1.14,2.7,1.69,14.34,9.58,29.17,18.26,45.24,24.69a162.93,162.93,0,0,0,69.18,11.41c29.31-1.41,57.27-8.87,84.64-19,5.21-1.92,10.37-4,16.08-6.17-.32,1.18-.53,2-.77,2.85Q680.57,617,653.44,710.91a5.72,5.72,0,0,1-3.86,4.17C629,723.37,608,730.4,586.16,734.78c-26.58,5.34-53.2,6.52-79.84.31-21-4.9-40.16-14.08-58.3-25.55C443.61,706.76,439.26,703.88,434.74,700.94Z"/><path class="cls-5" d="M470.61,453.37c-8.45-5.19-16.58-10.44-25-15.28-17.78-10.28-36.61-17.84-57-21.23a162.49,162.49,0,0,0-45.36-1.09c-30.58,3.5-59.4,13.25-87.76,24.66l-2.69,1.05c.19-1,.27-1.68.46-2.36q27.36-94.76,54.7-189.53a4.07,4.07,0,0,1,2.59-3.11c22.52-9.1,45.51-16.55,69.44-21,44.59-8.37,86.62-2.1,125.67,21.58,6.37,3.86,12.57,8,18.93,11.9,1.69,1,1.79,2,1.28,3.75q-27.42,94.47-54.74,189C471,452.22,470.82,452.78,470.61,453.37Z"/></g></g></svg>