<svg xmlns="http://www.w3.org/2000/svg" xmlns:xlink="http://www.w3.org/1999/xlink" viewBox="0 0 303.89 278.91"><defs><style>.cls-1{fill:url(#linear-gradient);}.cls-2{fill:url(#linear-gradient-2);}.cls-3{fill:url(#linear-gradient-3);}.cls-4{fill:url(#linear-gradient-4);}</style><linearGradient id="linear-gradient" x1="186.39" y1="155.91" x2="186.39" gradientUnits="userSpaceOnUse"><stop offset="0" stop-color="#498cff"/><stop offset="1" stop-color="#37f8ff"/></linearGradient><linearGradient id="linear-gradient-2" x1="254.38" y1="211.99" x2="254.38" y2="178.04" xlink:href="#linear-gradient"/><linearGradient id="linear-gradient-3" x1="234.98" y1="189.59" x2="234.98" y2="170.25" xlink:href="#linear-gradient"/><linearGradient id="linear-gradient-4" x1="151.95" y1="278.91" x2="151.95" y2="183.8" gradientUnits="userSpaceOnUse"><stop offset="0" stop-color="#ff9656"/><stop offset="1" stop-color="#ffd270"/></linearGradient></defs><title>m4</title><g id="Layer_2" data-name="Layer 2"><g id="Layer_1-2" data-name="Layer 1"><path class="cls-1" d="M208.07,70.82A187.71,187.71,0,0,0,189,62.19a42.8,42.8,0,0,1-10.47-5.86c-6.21-5-5-13,2.25-16.2a18.37,18.37,0,0,1,6.41-1.32,48.64,48.64,0,0,1,24.09,4.77c3.8,1.84,5.06,1.26,6.34-2.7,1.35-4.19,2.48-8.44,3.74-12.65.84-2.83-.19-4.7-2.87-5.89a61.23,61.23,0,0,0-15.2-4.54c-6.89-1.06-6.89-1.09-6.92-8,0-9.76,0-9.76-9.82-9.76-1.42,0-2.83,0-4.25,0-4.57.13-5.35.93-5.47,5.54-.06,2.06,0,4.12,0,6.21,0,6.12-.06,6-5.92,8.15C156.71,25.07,147.95,34.73,147,50.18c-.84,13.69,6.31,22.93,17.55,29.66,6.92,4.15,14.59,6.6,21.93,9.85a32.57,32.57,0,0,1,8,4.7c7.05,5.83,5.76,15.52-2.61,19.19a26.26,26.26,0,0,1-14.07,1.84A62.81,62.81,0,0,1,156.35,109c-4-2.06-5.12-1.51-6.47,2.77-1.16,3.7-2.19,7.44-3.22,11.17-1.38,5-.87,6.21,3.93,8.57,6.12,3,12.65,4.48,19.32,5.54,5.22.84,5.38,1.06,5.44,6.47,0,2.45,0,4.93.06,7.37,0,3.09,1.51,4.89,4.7,5,3.61.06,7.25.06,10.85,0,3-.06,4.48-1.67,4.48-4.67,0-3.35.16-6.73,0-10.08s1.32-5.15,4.6-6.05a36.39,36.39,0,0,0,19-12.17C232.83,106.12,227.58,81.61,208.07,70.82Z"/><path class="cls-2" d="M226.43,199.79a30.36,30.36,0,0,1,1.45,6.69,29.55,29.55,0,0,1,.07,5.51l3-2.14c9.65-7,29.5-18.19,40.66-24.05a96.21,96.21,0,0,1,10.75-5c-4.89-3.38-10.13-3.51-15.51-1.38-10.68,4.34-30.26,14.2-40.25,19.85A1,1,0,0,1,226.43,199.79Z"/><path class="cls-3" d="M241.25,171.74c-6.55,2.69-21.3,7.65-27.84,11.23a30.93,30.93,0,0,1,7.44,6.62c.41-.28.83-.62,1.31-.9l4.76-2.76c7-4,21.92-9.44,29.64-13C251.66,169.67,246.49,169.54,241.25,171.74Z"/><path class="cls-4" d="M292.54,188.33c-5.8-.44-17.83,6.3-21.08,8-11.72,6.11-28,15.71-38.66,23.38l-2.49,1.68a44.48,44.48,0,0,1-15.53,6.61c-31.05,6.86-76.38,7.61-76.38,7.61l-2.62.12a3.88,3.88,0,0,1-.56-7.73l67.34-6.67c7.42-.81,13.34-8,12.53-16.15s-8-14-15.4-13.16l-59.92-.75A64.16,64.16,0,0,1,125.25,189c-38.6-11.72-60.36-.75-72,4.36a13.88,13.88,0,0,0-13-6.92l-25.81,1.81A15.58,15.58,0,0,0,0,204.92L4.16,264.4A15.58,15.58,0,0,0,20.8,278.87l25.81-1.81a13.84,13.84,0,0,0,11.85-8.6l113.42,5.05c12.66,1.37,24.5-.19,35.6-6.24l3.24-1.75,85.8-52.06a14.65,14.65,0,0,0,7.36-11.91C304.07,195.57,300.7,189,292.54,188.33ZM30.22,264.78A8.79,8.79,0,1,1,39,256,8.78,8.78,0,0,1,30.22,264.78Zm30.59-8.21-4.12.36a4.15,4.15,0,0,1-4.48-3.76l-4-46a4.15,4.15,0,0,1,3.76-4.48l4.12-.36a4.15,4.15,0,0,1,4.48,3.76l4,46A4.15,4.15,0,0,1,60.81,256.57Z"/></g></g></svg>