<svg xmlns="http://www.w3.org/2000/svg" xmlns:xlink="http://www.w3.org/1999/xlink" viewBox="0 0 296.28 296.01"><defs><style>.cls-1{fill:url(#linear-gradient);}.cls-2{fill:url(#linear-gradient-2);}.cls-3{fill:url(#linear-gradient-3);}.cls-4{fill:url(#linear-gradient-4);}.cls-5{fill:url(#linear-gradient-5);}.cls-6{fill:url(#linear-gradient-6);}.cls-7{fill:url(#linear-gradient-7);}.cls-8{fill:url(#linear-gradient-8);}</style><linearGradient id="linear-gradient" x1="90.13" y1="59.49" x2="90.13" gradientUnits="userSpaceOnUse"><stop offset="0" stop-color="#498cff"/><stop offset="1" stop-color="#37f8ff"/></linearGradient><linearGradient id="linear-gradient-2" x1="94.21" y1="49.26" x2="94.21" y2="29.68" gradientUnits="userSpaceOnUse"><stop offset="0" stop-color="#ff9656"/><stop offset="1" stop-color="#ffd270"/></linearGradient><linearGradient id="linear-gradient-3" x1="79.4" y1="144.61" x2="79.4" y2="58.12" xlink:href="#linear-gradient-2"/><linearGradient id="linear-gradient-4" x1="79.4" y1="122.47" x2="79.4" y2="80.26" xlink:href="#linear-gradient-2"/><linearGradient id="linear-gradient-5" x1="247.28" y1="92.98" x2="247.28" y2="13.69" xlink:href="#linear-gradient-2"/><linearGradient id="linear-gradient-6" x1="57.28" y1="190.69" x2="57.28" y2="269.98" gradientTransform="translate(120.57 472.67) rotate(180)" xlink:href="#linear-gradient"/><linearGradient id="linear-gradient-7" x1="209.68" y1="294.32" x2="209.68" y2="163" xlink:href="#linear-gradient"/><linearGradient id="linear-gradient-8" x1="247.64" y1="296.01" x2="247.64" y2="161.3" xlink:href="#linear-gradient"/></defs><title> m_ic2</title><g id="Layer_2" data-name="Layer 2"><g id="Layer_1-2" data-name="Layer 1"><path class="cls-1" d="M48.94,49.26l51.24-26.8a14.32,14.32,0,0,1,19.33,6.05l10.86,20.75h8.07a18.9,18.9,0,0,1,16.78,10.23,10,10,0,0,0,3.64-13.18l-17-32.56a10,10,0,0,0-13.53-4.24l-.27.14-2.23-4.27a10,10,0,0,0-13.53-4.24l-92,48.12H48.94Z"/><path class="cls-2" d="M106.81,29.68a5.39,5.39,0,0,0-2.53.63L68,49.26h52.33l-8.71-16.65A5.46,5.46,0,0,0,106.81,29.68Z"/><path class="cls-3" d="M148.77,73h-.3V68.14a10,10,0,0,0-10-10H20.36a10,10,0,0,0-10,10V73H10A10,10,0,0,0,0,83v36.75a10,10,0,0,0,10,10h.3v4.82a10,10,0,0,0,10,10H138.44a10,10,0,0,0,10-10v-4.82h.3a10,10,0,0,0,10-10V83A10,10,0,0,0,148.77,73Zm-16.59,44a14.34,14.34,0,0,1-14.32,14.32H40.94A14.34,14.34,0,0,1,26.61,117V85.73A14.34,14.34,0,0,1,40.94,71.41h76.92a14.34,14.34,0,0,1,14.32,14.32V117Z"/><path class="cls-4" d="M117.86,80.26H40.94a5.47,5.47,0,0,0-5.47,5.47V117a5.47,5.47,0,0,0,5.47,5.47h76.92a5.47,5.47,0,0,0,5.47-5.47V85.73A5.48,5.48,0,0,0,117.86,80.26Zm-69.3,8.26H73.64a4.43,4.43,0,0,1,0,8.85H48.55a4.43,4.43,0,1,1,0-8.85ZM98.14,114.2H48.55a4.43,4.43,0,1,1,0-8.85H98.14a4.43,4.43,0,0,1,0,8.85Z"/><path class="cls-5" d="M296.28,53.17,245,13.69v23H214.76a17,17,0,0,0,0,34H245V93Z"/><path class="cls-6" d="M14.28,242.51,65.6,282V259H95.81a17,17,0,0,0,0-34H65.6V202.69Z"/><path class="cls-7" d="M209.68,163a65.66,65.66,0,1,0,65.66,65.66A65.66,65.66,0,0,0,209.68,163Zm17.49,89.71A19.49,19.49,0,0,1,217,259.22c-1.76.48-2.55,1.41-2.47,3.24s0,3.6,0,5.4a2.21,2.21,0,0,1-2.4,2.5c-1.93.05-3.88.05-5.81,0a2.34,2.34,0,0,1-2.52-2.66c0-1.31,0-2.64,0-3.95,0-2.9-.12-3-2.91-3.47a36.66,36.66,0,0,1-10.35-3c-2.57-1.26-2.84-1.9-2.1-4.59.55-2,1.1-4,1.72-6,.72-2.29,1.34-2.59,3.47-1.48a33.63,33.63,0,0,0,11.48,3.43,14.06,14.06,0,0,0,7.53-1c4.48-2,5.17-7.16,1.4-10.28a17.44,17.44,0,0,0-4.28-2.52c-3.93-1.74-8-3.05-11.74-5.28-6-3.6-9.85-8.55-9.4-15.88.5-8.28,5.19-13.45,12.78-16.21,3.14-1.14,3.16-1.09,3.17-4.36,0-1.12,0-2.22,0-3.33.07-2.47.48-2.9,2.93-3,.76,0,1.52,0,2.28,0,5.24,0,5.24,0,5.26,5.22,0,3.71,0,3.72,3.71,4.29a32.78,32.78,0,0,1,8.14,2.43,2.37,2.37,0,0,1,1.53,3.16c-.67,2.26-1.28,4.53-2,6.78s-1.36,2.43-3.4,1.45a26,26,0,0,0-12.9-2.55,9.84,9.84,0,0,0-3.43.71c-3.9,1.71-4.53,6-1.21,8.67a22.91,22.91,0,0,0,5.6,3.14,100.52,100.52,0,0,1,10.21,4.62C231.74,230.62,234.55,243.74,227.17,252.7Z"/><path class="cls-8" d="M227.64,161.3a67.09,67.09,0,0,0-27.37,5.82,64.16,64.16,0,1,1,0,123.08A67.35,67.35,0,1,0,227.64,161.3Z"/></g></g></svg>