<svg xmlns="http://www.w3.org/2000/svg" xmlns:xlink="http://www.w3.org/1999/xlink" viewBox="0 0 480.66 430"><defs><style>.cls-1{fill:url(#linear-gradient);}.cls-2{fill:url(#linear-gradient-2);}.cls-3{fill:url(#linear-gradient-3);}.cls-4{fill:url(#linear-gradient-4);}.cls-5{fill:url(#linear-gradient-5);}.cls-6{fill:url(#linear-gradient-6);}</style><linearGradient id="linear-gradient" x1="390.83" y1="339.38" x2="390.83" y2="242.68" gradientUnits="userSpaceOnUse"><stop offset="0" stop-color="#498cff"/><stop offset="1" stop-color="#37f8ff"/></linearGradient><linearGradient id="linear-gradient-2" x1="387.91" y1="383.5" x2="387.91" y2="197.99" xlink:href="#linear-gradient"/><linearGradient id="linear-gradient-3" x1="588.93" y1="175.45" x2="493.36" y2="9.92" gradientTransform="translate(-623.43 120.86) scale(1.54 1)" gradientUnits="userSpaceOnUse"><stop offset="0" stop-color="#ff9656"/><stop offset="1" stop-color="#ffd270"/></linearGradient><linearGradient id="linear-gradient-4" x1="182.37" y1="169" x2="182.37" y2="105" gradientTransform="matrix(1, 0, 0, 1, 0, 0)" xlink:href="#linear-gradient-3"/><linearGradient id="linear-gradient-5" x1="238.37" y1="327" x2="238.37" y2="263" gradientTransform="matrix(1, 0, 0, 1, 0, 0)" xlink:href="#linear-gradient-3"/><linearGradient id="linear-gradient-6" x1="322.51" y1="401.23" x2="107.48" y2="28.78" gradientTransform="matrix(1, 0, 0, 1, 0, 0)" xlink:href="#linear-gradient-3"/></defs><title>g_f</title><g id="Layer_2" data-name="Layer 2"><g id="Layer_1-2" data-name="Layer 1"><path class="cls-1" d="M404.28,286.61a116.42,116.42,0,0,0-11.82-5.35,26.54,26.54,0,0,1-6.49-3.63c-3.85-3.08-3.12-8.07,1.4-10a11.39,11.39,0,0,1,4-.82,30.17,30.17,0,0,1,14.94,3c2.36,1.14,3.14.78,3.93-1.68s1.54-5.23,2.32-7.85a2.74,2.74,0,0,0-1.78-3.65,38,38,0,0,0-9.43-2.82c-4.27-.66-4.27-.68-4.29-5,0-6.05,0-6.05-6.09-6.05-.88,0-1.76,0-2.64,0-2.84.08-3.32.58-3.4,3.44,0,1.28,0,2.56,0,3.85,0,3.79,0,3.73-3.67,5.05-8.79,3.2-14.22,9.19-14.8,18.77-.52,8.49,3.91,14.22,10.88,18.39,4.29,2.58,9,4.09,13.6,6.11a20.2,20.2,0,0,1,5,2.92c4.37,3.61,3.57,9.63-1.62,11.9a16.29,16.29,0,0,1-8.73,1.14,39,39,0,0,1-13.3-4c-2.46-1.28-3.18-.94-4,1.72-.72,2.3-1.36,4.61-2,6.93-.86,3.12-.54,3.85,2.44,5.31a42.47,42.47,0,0,0,12,3.44c3.24.52,3.34.66,3.38,4,0,1.52,0,3.06,0,4.57,0,1.92.94,3,2.92,3.08,2.24,0,4.49,0,6.73,0a2.56,2.56,0,0,0,2.78-2.9c0-2.08.1-4.17,0-6.25s.82-3.2,2.86-3.75a22.57,22.57,0,0,0,11.76-7.55C419.64,308.49,416.38,293.3,404.28,286.61Z"/><path class="cls-2" d="M387.91,198a92.75,92.75,0,1,0,92.75,92.75A92.75,92.75,0,0,0,387.91,198Zm0,167.72a75,75,0,1,1,75-75A75,75,0,0,1,387.91,365.71Z"/><rect class="cls-3" x="199.13" y="107.24" width="21.59" height="212.62" transform="translate(134.9 -76.35) rotate(30)"/><path class="cls-4" d="M182.37,105a32,32,0,1,0,32,32A32,32,0,0,0,182.37,105Zm0,49a17,17,0,1,1,17-17A17,17,0,0,1,182.37,154Z"/><path class="cls-5" d="M238.37,263a32,32,0,1,0,32,32A32,32,0,0,0,238.37,263Zm0,49a17,17,0,1,1,17-17A17,17,0,0,1,238.37,312Z"/><path class="cls-6" d="M214.25,395A180,180,0,1,1,390.89,180.26a109.37,109.37,0,0,1,37.61,9.34C415.93,82.83,325.15,0,215,0,96.26,0,0,96.26,0,215S96.26,430,215,430a214,214,0,0,0,124-39.37,110.17,110.17,0,0,1-31.86-21.44A179.16,179.16,0,0,1,214.25,395Z"/></g></g></svg>