<?xml version="1.0" encoding="utf-8"?>
<!-- Generator: Adobe Illustrator 21.0.2, SVG Export Plug-In . SVG Version: 6.00 Build 0)  -->
<svg version="1.1" id="Layer_1" xmlns="http://www.w3.org/2000/svg" xmlns:xlink="http://www.w3.org/1999/xlink" x="0px" y="0px"
	 viewBox="0 0 471.8 411.9" style="enable-background:new 0 0 471.8 411.9;" xml:space="preserve">
<style type="text/css">
	.st0{fill:url(#SVGID_1_);}
	.st1{fill:url(#SVGID_2_);}
	.st2{fill:url(#SVGID_3_);}
	.st3{fill:url(#SVGID_4_);}
	.st4{fill:url(#SVGID_5_);}
	.st5{fill:url(#SVGID_6_);}
</style>
<title>gtt</title>
<g id="Layer_2">
	<g id="Layer_1-2">
		
			<linearGradient id="SVGID_1_" gradientUnits="userSpaceOnUse" x1="235.9" y1="383.26" x2="235.9" y2="413.26" gradientTransform="matrix(1 0 0 -1 0 413.2602)">
			<stop  offset="0" style="stop-color:#498CFF"/>
			<stop  offset="1" style="stop-color:#37F8FF"/>
		</linearGradient>
		<path class="st0" d="M235.9,0C169.1,0,108.6,11.5,64.5,30h342.8C363.2,11.5,302.7,0,235.9,0z"/>
		
			<linearGradient id="SVGID_2_" gradientUnits="userSpaceOnUse" x1="105.6" y1="185.26" x2="105.6" y2="234.86" gradientTransform="matrix(1 0 0 -1 0 413.2602)">
			<stop  offset="0" style="stop-color:#FF9656"/>
			<stop  offset="1" style="stop-color:#FFD270"/>
		</linearGradient>
		<circle class="st1" cx="105.6" cy="203.2" r="24.8"/>
		
			<linearGradient id="SVGID_3_" gradientUnits="userSpaceOnUse" x1="235.85" y1="1.36" x2="235.85" y2="35.96" gradientTransform="matrix(1 0 0 -1 0 413.2602)">
			<stop  offset="0" style="stop-color:#498CFF"/>
			<stop  offset="1" style="stop-color:#37F8FF"/>
		</linearGradient>
		<path class="st2" d="M235.8,411.9c66.8,0,127.3-13.2,171.4-34.6H64.5C108.6,398.7,169.1,411.9,235.8,411.9z"/>
		
			<linearGradient id="SVGID_4_" gradientUnits="userSpaceOnUse" x1="235.9" y1="120.46" x2="235.9" y2="299.66" gradientTransform="matrix(1 0 0 -1 0 413.2602)">
			<stop  offset="0" style="stop-color:#FF9656"/>
			<stop  offset="1" style="stop-color:#FFD270"/>
		</linearGradient>
		<path class="st3" d="M235.9,113.6c-49.5,0-89.6,40.1-89.6,89.6s40.1,89.6,89.6,89.6s89.6-40.1,89.6-89.6
			C325.5,153.7,285.4,113.6,235.9,113.6C235.9,113.6,235.9,113.6,235.9,113.6z M230.1,187.8c1.7,2,4.8,4,9.5,6.1
			c10.9,4.6,18.8,9.2,23.9,13.8s7.6,11.2,7.6,19.7c0,8.1-2.6,14.7-7.7,19.6c-4.4,4.2-10,6.9-16.9,8.2V267c0,1.5-1.3,2.8-2.8,2.8
			h-10.2c-1.5,0-2.8-1.3-2.8-2.8v-11.5c-8.7-1.1-15.8-4.2-21.6-9.4c-5.3-4.9-8.2-11.7-8.6-20.6c0-1.8,1.5-3.3,3.3-3.4l16.7-0.3
			c1.7-0.1,3.1,1.2,3.3,2.9c0.4,4.2,1.6,7.4,3.7,9.5c2.6,2.6,6.2,3.9,9.8,3.8c3.3,0,5.9-0.9,7.6-2.9c1.8-2.2,2.7-4.9,2.6-7.7
			c0-3.7-0.9-6.6-2.7-8.6s-4.9-4-9.4-6c-11-4.4-19-8.8-24-13.3s-7.5-11.1-7.5-19.8c0-7.9,2.7-14.4,8-19.5c4.8-4.6,11.1-7.5,18.9-8.6
			v-12.3c0-1.5,1.3-2.8,2.8-2.8l0,0h10.2c1.5,0,2.8,1.3,2.8,2.8l0,0V152c7.3,1.5,13.2,4.7,17.6,9.9c4.4,5.1,6.9,11.6,7.1,18.4
			c0,1.8-1.4,3.4-3.3,3.4c0,0,0,0,0,0l-16.8,0.3c-1.6,0.2-3.1-1-3.3-2.7c0,0,0-0.1,0-0.1c-0.3-3.7-1.2-6.5-2.8-8.5
			c-1.8-2.4-4.7-3.8-7.8-3.7c-3.4,0-5.8,1-7.4,3.1c-1.7,2.2-2.5,5-2.4,7.8C227.4,182.8,228.3,185.6,230.1,187.8L230.1,187.8z"/>
		
			<linearGradient id="SVGID_5_" gradientUnits="userSpaceOnUse" x1="235.9" y1="63.96" x2="235.9" y2="356.16" gradientTransform="matrix(1 0 0 -1 0 413.2602)">
			<stop  offset="0" style="stop-color:#FF9656"/>
			<stop  offset="1" style="stop-color:#FFD270"/>
		</linearGradient>
		<path class="st4" d="M430.9,57.1h-390C18.3,57.2,0.1,75.4,0,98v210.4c0.1,22.6,18.3,40.8,40.9,40.9h390
			c22.6-0.1,40.8-18.3,40.9-40.9V98C471.7,75.4,453.5,57.2,430.9,57.1z M436.9,269.1c-3.3-0.8-6.8-1.3-10.2-1.3
			c-22.8,0-41.4,18.5-41.4,41.3c0,0,0,0.1,0,0.1c0,1.7,0.1,3.4,0.3,5.1H82.8c0.4-2.5,0.7-5.1,0.7-7.6c0-22.8-18.5-41.4-41.3-41.4
			c0,0-0.1,0-0.1,0c-2.4,0-4.9,0.3-7.3,0.7V140.3c2.4,0.5,4.8,0.7,7.3,0.7c22.8,0,41.4-18.5,41.4-41.3c0,0,0-0.1,0-0.1
			c0-2.6-0.2-5.1-0.7-7.6h303.8c-0.9,3.3-1.3,6.7-1.3,10.1c0,22.8,18.5,41.4,41.3,41.4c0,0,0.1,0,0.1,0c3.4,0,6.9-0.5,10.2-1.3l0,0
			L436.9,269.1z"/>
		
			<linearGradient id="SVGID_6_" gradientUnits="userSpaceOnUse" x1="366.2" y1="185.26" x2="366.2" y2="234.86" gradientTransform="matrix(1 0 0 -1 0 413.2602)">
			<stop  offset="0" style="stop-color:#FF9656"/>
			<stop  offset="1" style="stop-color:#FFD270"/>
		</linearGradient>
		<circle class="st5" cx="366.2" cy="203.2" r="24.8"/>
	</g>
</g>
</svg>
