<svg xmlns="http://www.w3.org/2000/svg" xmlns:xlink="http://www.w3.org/1999/xlink" viewBox="0 0 410.27 428.71"><defs><style>.cls-1{fill:url(#linear-gradient);}.cls-2{fill:url(#linear-gradient-2);}.cls-3{fill:url(#linear-gradient-3);}.cls-4{fill:url(#linear-gradient-4);}</style><linearGradient id="linear-gradient" x1="120.06" y1="272.06" x2="120.06" gradientUnits="userSpaceOnUse"><stop offset="0" stop-color="#ff9656"/><stop offset="1" stop-color="#ffd270"/></linearGradient><linearGradient id="linear-gradient-2" x1="325.97" y1="361.3" x2="325.97" y2="59.02" xlink:href="#linear-gradient"/><linearGradient id="linear-gradient-3" x1="166.92" y1="428.71" x2="166.92" y2="284.42" xlink:href="#linear-gradient"/><linearGradient id="linear-gradient-4" x1="195.58" y1="333.71" x2="195.58" y2="133.43" gradientUnits="userSpaceOnUse"><stop offset="0" stop-color="#498cff"/><stop offset="1" stop-color="#37f8ff"/></linearGradient></defs><title>rm</title><g id="Layer_2" data-name="Layer 2"><g id="Layer_1-2" data-name="Layer 1"><path class="cls-1" d="M42.58,272.06a165.94,165.94,0,0,1-7.1-48.5C35.48,151.4,84,89.9,151.4,69.78V89.9l88.72-44.95L151.4,0V31.94C65.06,54.41,0,131.3,0,223.56a196.23,196.23,0,0,0,3.55,37.85L7.1,242.48Z"/><path class="cls-2" d="M333.38,261.94l-5.91,99.36,82.8-54.41-27.2-16.58c5.91-17.73,8.27-36.65,8.27-56.78C391.34,148.39,345.75,86.23,270,59l14.19,10.65L241.67,87.41c71,16.56,114.19,70.43,114.19,146.13,0,13-2.37,26-4.73,37.85Z"/><path class="cls-3" d="M304.45,351.19c-29.58,31.94-61,42.05-108.28,42.05-42.58,0-81.62-17.75-110-44.95l17.74-9.47L21.11,284.42,27,383.78l27.21-16.57a194.66,194.66,0,0,0,141.94,61.5c48.5,0,82.27-7.73,116.57-37.31l-14.19,4.73Z"/><path class="cls-4" d="M184.39,133.43v23.44c-26.63,5.33-41.55,22.38-41.55,43.68,0,23.44,18.11,36.22,43.68,44.74,18.11,6.41,25.56,11.73,25.56,21.31s-9.59,14.92-23.43,14.92c-16,0-29.83-5.33-40.48-10.65l-7.45,28.77c9.59,5.32,25.57,9.59,41.54,10.64v23.45h24.5V308.14c27.69-5.32,43.68-23.44,43.68-44.74,0-22.37-11.72-35.16-40.48-45.8-21.3-7.46-29.82-12.78-29.82-21.3,0-6.4,5.32-13.85,21.3-13.85A72,72,0,0,1,236.6,191l7.45-27.7c-8.52-4.26-19.17-7.46-35.16-8.53v-21.3l-24.5,0Z"/></g></g></svg>